<?xml version="1.0" encoding="utf-8"?>
<!-- Generator: Adobe Illustrator 17.0.1, SVG Export Plug-In . SVG Version: 6.00 Build 0)  -->
<!DOCTYPE svg PUBLIC "-//W3C//DTD SVG 1.1//EN" "http://www.w3.org/Graphics/SVG/1.1/DTD/svg11.dtd">
<svg version="1.1" id="Слой_1" xmlns="http://www.w3.org/2000/svg" xmlns:xlink="http://www.w3.org/1999/xlink" x="0px" y="0px"
	 width="166.525px" height="74.079px" viewBox="0 0 166.525 74.079" enable-background="new 0 0 166.525 74.079"
	 xml:space="preserve">
<g>
	<path fill="#E08524" d="M32.674,11.663c-12.524,0-22.736,10.213-22.736,22.885c0,12.673,10.138,22.885,22.736,22.885
		S55.41,47.221,55.41,34.549C55.41,21.876,45.198,11.663,32.674,11.663z M32.674,56.167c-11.853,0-21.469-9.691-21.469-21.618
		c0-11.927,9.616-21.618,21.469-21.618c11.853,0,21.469,9.691,21.469,21.618C54.143,46.476,44.527,56.167,32.674,56.167z
		 M44.452,25.529c-1.864-4.174-4.1-5.964-4.845-5.889c-1.044,0.075-1.193,2.087-1.118,2.982c0,0.298,0.075,1.715,0.373,2.833
		c0.224,0.82,0.522,1.64,0.745,2.46v0.075c0.149,0.447,0.373,0.895,0.522,1.342c1.193,3.727,0.373,7.529,0.373,7.678
		c0,0,0-0.075,0-0.149c-0.224,0.895-0.447,1.491-0.671,1.864c-0.075,0.149-0.075,0.224-0.149,0.298
		c-1.416-5.889-4.771-9.989-5.442-9.393c-0.671,0.596-1.342,5.74,0.224,12.002c1.193,4.92,3.578,8.498,3.951,9.094l0,0
		c0,0,8.498-5.814,7.902-16.847C46.316,30.151,45.421,27.616,44.452,25.529z M25.518,39.021c0-0.075-0.075-0.224-0.149-0.298
		c-0.224-0.373-0.447-0.969-0.671-1.864c0,0.075,0,0.149,0,0.149c-0.075-0.149-0.895-3.951,0.298-7.678
		c0.149-0.447,0.298-0.895,0.522-1.342v-0.075c0.298-0.82,0.596-1.64,0.745-2.46c0.298-1.118,0.373-2.609,0.373-2.833
		c0.075-0.895,0-2.907-1.118-2.982c-0.671-0.075-2.982,1.715-4.771,5.889c-0.969,2.162-1.864,4.696-2.013,8.424
		c-0.522,11.033,7.902,16.847,7.902,16.847l0,0c0.447-0.596,2.758-4.1,3.951-9.094c1.491-6.262,0.895-11.405,0.224-12.002
		C30.289,29.032,26.934,33.132,25.518,39.021z"/>
	<path fill="#E08524" d="M46.465,33.952c-0.224-3.727-1.118-6.262-2.013-8.424c-1.864-4.174-4.1-5.964-4.845-5.889
		c-1.044,0.075-1.193,2.087-1.118,2.982c0,0.298,0.075,1.715,0.373,2.833c0.224,0.82,0.522,1.64,0.745,2.46v0.075
		c0.149,0.447,0.373,0.895,0.522,1.342c1.193,3.727,0.373,7.529,0.373,7.678c0,0,0-0.075,0-0.149
		c-0.224,0.895-0.447,1.491-0.671,1.864c-0.075,0.149-0.075,0.224-0.149,0.298c-1.416-5.889-4.771-9.989-5.442-9.393
		c-0.671,0.596-1.342,5.74,0.224,12.002c1.193,4.92,3.578,8.498,3.951,9.094l0,0C38.563,50.725,47.061,44.985,46.465,33.952z
		 M25.518,39.021c0-0.075-0.075-0.224-0.149-0.298c-0.224-0.373-0.447-0.969-0.671-1.864c0,0.075,0,0.149,0,0.149
		c-0.075-0.149-0.895-3.951,0.298-7.678c0.149-0.447,0.298-0.895,0.522-1.342v-0.075c0.298-0.82,0.596-1.64,0.745-2.46
		c0.298-1.118,0.373-2.609,0.373-2.833c0.075-0.895,0-2.907-1.118-2.982c-0.671-0.075-2.982,1.715-4.771,5.889
		c-0.969,2.162-1.864,4.696-2.013,8.424c-0.522,11.033,7.902,16.847,7.902,16.847l0,0c0.447-0.596,2.758-4.1,3.951-9.094
		c1.491-6.262,0.895-11.405,0.224-12.002C30.289,29.032,26.934,33.132,25.518,39.021z"/>
	<path fill="#E08524" d="M46.465,33.952c-0.224-3.727-1.118-6.262-2.013-8.424c-1.864-4.174-4.1-5.964-4.845-5.889
		c-1.044,0.075-1.193,2.087-1.118,2.982c0,0.298,0.075,1.715,0.373,2.833c0.224,0.82,0.522,1.64,0.745,2.46v0.075
		c0.149,0.447,0.373,0.895,0.522,1.342c1.193,3.727,0.373,7.529,0.373,7.678c0,0,0-0.075,0-0.149
		c-0.224,0.895-0.447,1.491-0.671,1.864c-0.075,0.149-0.075,0.224-0.149,0.298c-1.416-5.889-4.771-9.989-5.442-9.393
		c-0.671,0.596-1.342,5.74,0.224,12.002c1.193,4.92,3.578,8.498,3.951,9.094l0,0C38.563,50.725,47.061,44.985,46.465,33.952z"/>
	<path fill="#E08524" d="M30.96,29.629c-0.671-0.596-4.025,3.504-5.442,9.393c0-0.075-0.075-0.224-0.149-0.298
		c-0.224-0.373-0.447-0.969-0.671-1.864c0,0.075,0,0.149,0,0.149c-0.075-0.149-0.895-3.951,0.298-7.678
		c0.149-0.447,0.298-0.895,0.522-1.342v-0.075c0.298-0.82,0.596-1.64,0.745-2.46c0.298-1.118,0.373-2.609,0.373-2.833
		c0.075-0.895,0-2.907-1.118-2.982c-0.671-0.075-2.982,1.715-4.771,5.889c-0.969,2.162-1.864,4.696-2.013,8.424
		c-0.522,11.033,7.902,16.847,7.902,16.847l0,0c0.447-0.596,2.758-4.1,3.951-9.094C32.302,35.369,31.631,30.225,30.96,29.629z"/>
</g>
<g>
	<path fill="#E08524" d="M109.466,15.639c-0.15-1.498-0.749-2.772-1.873-3.895c-1.124-1.124-2.247-1.798-3.446-2.097
		c-1.199-0.3-2.097-0.375-2.697-0.075c-0.075,0-0.075,0.075-0.075,0.15c0,0.15,0.375,1.199,1.199,2.996
		c1.498,3.146,2.172,6.667,2.172,10.412c0,3.371-0.3,6.667-0.899,9.813c-0.599,3.146-1.348,5.843-2.247,8.015
		c-0.899,2.172-1.873,4.12-2.921,5.768c-1.049,1.648-2.023,2.847-2.922,3.671c-0.899,0.824-1.648,1.124-2.172,1.049
		c-2.023-0.225-3.296-3.97-3.82-11.087c2.622-5.843,4.495-11.836,5.618-17.978c0.599-3.371,0.45-5.693-0.3-7.041
		c-0.749-1.348-1.948-1.648-3.671-0.974c-2.023,0.749-3.596,2.472-4.869,5.094c-1.273,2.622-1.948,5.993-2.172,9.963
		c-0.3,5.993,0.15,11.236,1.423,15.731c-1.124,2.098-2.247,3.746-3.371,4.794c-1.124,1.124-2.023,1.573-2.847,1.423
		c-1.348-0.225-2.397-2.547-3.221-6.966c-0.749-4.42-0.824-9.738-0.225-15.956c0.824-8.615,1.498-13.708,2.098-15.281
		c0-0.15-0.3-0.225-0.899-0.3c-0.674-0.075-1.498,0-2.547,0.225c-1.049,0.225-1.873,0.524-2.697,1.199
		c-0.449,0.375-0.824,1.423-1.049,3.221c-0.225,1.798-0.449,5.768-0.674,12.06c-0.15,3.671,0,7.191,0.449,10.412
		c0.449,3.221,1.124,5.918,1.948,8.015c0.824,2.098,1.798,3.746,2.847,4.944c1.049,1.199,2.097,1.648,3.146,1.573
		c2.097-0.3,4.569-2.772,7.491-7.566c0.824,2.472,1.798,4.345,2.996,5.693c1.124,1.348,2.322,1.948,3.446,1.873
		c1.423-0.075,3.146-1.199,5.244-3.446c2.097-2.247,4.045-5.019,5.918-8.465c1.873-3.446,3.371-7.566,4.495-12.51
		C109.542,25.152,109.916,20.358,109.466,15.639z M89.466,27.849c0.075-3.296,0.449-5.993,1.049-8.24
		c0.599-2.247,1.273-3.446,2.023-3.746c0.3-0.075,0.524,0.075,0.749,0.524c0.449,1.124,0.449,2.996,0,5.543
		c-0.974,5.394-2.247,10.337-3.82,14.682C89.391,34.142,89.391,31.22,89.466,27.849z"/>
	<path fill="#E08524" d="M116.957,40.958c0.225-1.423-0.075-2.697-0.824-3.746c-0.749-1.049-1.798-1.648-3.071-1.723
		c-1.723-0.15-3.446,0.599-4.944,2.322c-1.573,1.648-2.547,3.97-2.847,6.892c-0.375,2.922,0.075,5.244,1.423,6.817
		c1.273,1.573,2.847,2.472,4.569,2.547c2.023,0.075,3.82-0.899,5.393-3.071c1.573-2.172,2.697-4.794,3.296-8.09
		c0.075-0.225,0-0.375-0.225-0.3c-0.3,0.075-0.449,0.225-0.599,0.449c-0.749,3.146-1.798,5.543-3.071,7.116
		c-1.274,1.573-2.547,2.247-3.746,2.097c-0.899-0.15-1.573-1.049-2.022-2.697c-0.375-1.648-0.45-3.745-0.15-6.217
		c0.599-4.644,1.423-7.041,2.322-7.041c0.674,0,0.674,1.798,0.075,5.318c-0.449,2.547-1.124,4.195-1.948,5.019
		c-0.3,0.3-0.375,0.524-0.375,0.674c0,0.225,0.225,0.225,0.674,0.075c1.423-0.599,2.697-1.423,3.895-2.622
		C116.059,43.505,116.733,42.232,116.957,40.958z"/>
	<path fill="#E08524" d="M130.965,15.639c0.3-2.098,0.225-3.82-0.075-5.019c-0.375-1.199-1.049-1.723-1.948-1.573
		c-2.097,0.449-4.27,3.895-6.517,10.487c-2.247,6.592-3.671,13.484-4.27,20.75c-0.225,2.547-0.225,4.869,0,7.041
		c0.225,2.172,0.749,3.97,1.648,5.468c0.824,1.498,1.948,2.247,3.371,2.322c1.199,0.075,2.547-1.049,4.045-3.371
		c1.498-2.322,2.547-5.244,3.221-8.839c0-0.225,0-0.3-0.225-0.3c-0.375,0-0.524,0.15-0.599,0.375
		c-0.599,2.697-1.348,5.019-2.322,6.817c-0.974,1.798-1.873,2.697-2.697,2.547c-1.348-0.225-1.873-3.371-1.573-9.364
		c1.948-4.644,3.671-9.588,5.094-14.757C129.467,23.13,130.441,18.86,130.965,15.639z M123.1,38.936
		c0.449-5.843,1.199-11.686,2.397-17.529c1.199-5.843,2.247-8.914,3.221-9.214l0.225,0.075c0.375,0.375,0.449,1.648,0.3,3.746
		c-0.674,6.292-2.697,14.083-6.142,23.372c0,0,0-0.075,0-0.225C123.1,39.011,123.1,38.936,123.1,38.936z"/>
	<path fill="#E08524" d="M127.744,52.569c0.075,0.3,0.449,0.524,1.124,0.674c0.674,0.15,1.348,0.225,2.023,0.225
		c0.674,0,0.974-0.15,0.974-0.375v-0.524c1.049-6.667,2.023-10.412,2.996-11.087c0.075,0,0.15,0,0.15,0.075s0,0.225,0,0.449
		c0,0.225-0.075,0.524-0.075,0.749c0,0.3-0.075,0.674-0.225,1.274c-0.075,0.524-0.15,1.049-0.225,1.498
		c-0.225,1.648-0.3,2.996-0.225,4.12c0.075,1.124,0.3,1.948,0.524,2.622c0.225,0.599,0.524,1.049,0.974,1.348
		c0.375,0.3,0.749,0.45,1.124,0.45s0.674,0,1.049-0.075c0.824-0.3,1.723-1.498,2.622-3.596c0.899-2.097,1.648-4.569,2.172-7.341
		v-0.075c0-0.15,0-0.225-0.225-0.225c-0.3,0.075-0.449,0.225-0.599,0.375c-1.498,6.218-2.622,9.214-3.446,8.989
		c-0.449-0.15-0.599-0.524-0.599-1.273c0-0.749,0.075-1.648,0.225-2.922c0.15-1.199,0.375-2.397,0.524-3.671
		c0.225-1.199,0.375-2.622,0.674-4.12c0.225-1.498,0.375-2.697,0.524-3.596c0.075-0.674,0-1.199-0.3-1.423
		c-0.3-0.3-0.749-0.3-1.348-0.075c-2.472,0.899-4.42,4.42-5.843,10.637c0.449-4.794,0.674-7.566,0.824-8.165
		c0.15-1.273,0.3-2.097,0.375-2.397c-0.15,0.075-0.599,0-1.348,0s-1.573,0.075-2.472,0.375c-0.899,0.3-1.348,0.599-1.423,1.049
		c0,0,0,0.15,0,0.375c0,0.225,0,0.524-0.075,0.824c0,0.375,0,0.674,0,1.049c0,0.749-0.075,2.172-0.225,4.42
		c-0.15,2.247-0.225,4.27-0.3,6.143C127.669,51.296,127.669,52.344,127.744,52.569z"/>
	<path fill="#E08524" d="M146.546,35.64c-0.075-0.075-0.599-0.15-1.348-0.225c-0.824,0-1.723,0.075-2.622,0.375
		c-0.974,0.225-1.498,0.599-1.498,1.049l-0.15,1.274c0,0.449-0.075,1.124-0.075,2.097c-0.225,3.671-0.075,6.892,0.449,9.588
		c0.524,2.697,1.498,4.12,2.922,4.12c0.974,0,1.948-1.348,2.921-4.12c0,0.375-0.15,1.273-0.3,2.697
		c-0.15,1.348-0.225,2.397-0.3,3.071c-1.723,0.225-3.371,0.824-4.869,1.723c-1.573,0.899-2.847,2.097-3.745,3.446
		c-1.199,1.723-1.948,3.446-2.097,5.169c-0.15,1.723,0.15,2.996,0.899,3.97c0.749,0.899,1.798,1.273,3.221,0.899
		c3.596-0.824,6.517-4.494,8.689-10.937c1.948,0.599,3.97,1.573,5.993,2.996c0.15,0,0.375-0.3,0.524-0.899
		c0.524-1.798,0.3-3.146-0.749-4.12c-1.199-1.199-2.697-1.948-4.569-2.247c0.974-4.045,2.023-10.787,3.071-20.375
		c-0.075-0.075-0.449-0.15-1.124-0.225c-0.674-0.075-1.348,0.075-2.172,0.3c-0.824,0.225-1.199,0.599-1.199,0.974
		c-0.075,0.599-0.15,1.049-0.225,1.423l-0.225,1.723v0.075c0,0.3-0.075,0.599-0.15,0.899l-0.225,0.749
		c0,0.225-0.075,0.524-0.15,0.899c-0.3,1.723-0.524,3.071-0.674,4.045c-0.15,0.974-0.375,2.023-0.599,3.071
		c-0.225,1.049-0.45,1.798-0.599,2.247c-0.15,0.449-0.375,0.674-0.599,0.674c-0.225,0-0.3-0.449-0.3-1.273
		c0-0.824,0.075-2.097,0.3-3.671c0.15-1.573,0.375-3.296,0.674-5.169C145.872,40.059,146.172,37.962,146.546,35.64z M141.078,68.974
		c-1.199,0.449-2.172,0.3-2.847-0.375c-0.674-0.674-0.974-1.723-0.974-3.071c0.075-1.348,0.524-2.697,1.423-3.97
		c1.423-2.023,3.82-2.772,7.266-2.247C144.973,64.854,143.4,68.075,141.078,68.974z"/>
</g>
</svg>
