<?xml version="1.0" standalone="no"?>
<!DOCTYPE svg PUBLIC "-//W3C//DTD SVG 1.1//EN" "http://www.w3.org/Graphics/SVG/1.1/DTD/svg11.dtd" >
<svg xmlns="http://www.w3.org/2000/svg" xmlns:xlink="http://www.w3.org/1999/xlink" version="1.1">
<metadata>
Created by FontForge 20161116 at Mon Aug 17 05:10:04 2015
 By Jimmy Wärting
Copyright (c) 2014 by Vyacheslav Kirilenko, Gayane Bagdasaryan. All rights reserved.
</metadata>
<defs>
<font id="Gerbera-Light" horiz-adv-x="600" >
  <font-face 
    font-family="Gerbera"
    font-weight="300"
    font-stretch="normal"
    units-per-em="1000"
    panose-1="2 0 3 0 0 0 0 0 0 0"
    ascent="767"
    descent="-233"
    x-height="492"
    cap-height="718"
    bbox="-171 -291 1502 1035"
    underline-thickness="50"
    underline-position="-100"
    unicode-range="U+000D-FEFF"
  />
<missing-glyph horiz-adv-x="569" 
d="M92 718h385v-718h-385v718zM399 83v552h-229v-552h229z" />
    <glyph glyph-name=".notdef" horiz-adv-x="569" 
d="M92 718h385v-718h-385v718zM399 83v552h-229v-552h229z" />
    <glyph glyph-name=".null" horiz-adv-x="0" 
 />
    <glyph glyph-name=".null" horiz-adv-x="0" 
 />
    <glyph glyph-name="nonmarkingreturn" unicode="&#xd;" horiz-adv-x="270" 
 />
    <glyph glyph-name="space" unicode=" " horiz-adv-x="270" 
 />
    <glyph glyph-name="exclam" unicode="!" horiz-adv-x="352" 
d="M145 235l-24 483h110l-24 -483h-62zM110 55l-4 -4c0 18 7 34 20 47s29 20 47 20s34 -6 47 -19s20 -28 20 -46s-6 -33 -19 -46s-28 -19 -46 -19s-33 7 -46 20s-19 29 -19 47z" />
    <glyph glyph-name="quotedbl" unicode="&#x22;" horiz-adv-x="370" 
d="M58 718h92l-17 -229h-58zM220 718h92l-17 -229h-58z" />
    <glyph glyph-name="numbersign" unicode="#" horiz-adv-x="650" 
d="M583 479h-109l-21 -121h100v-80h-115l-31 -180h-73l32 180h-126l-31 -180h-73l32 180h-101v80h115l22 121h-107v80h122l29 159h72l-29 -159h125l29 159h73l-29 -159h94v-80zM255 358h125l22 121h-126z" />
    <glyph glyph-name="dollar" unicode="$" horiz-adv-x="483" 
d="M346 349l-2 3c29 -27 52 -54 68 -81s24 -58 24 -94c0 -49 -14 -89 -43 -121s-68 -52 -117 -59v-103h-78v104c-21 3 -41 9 -59 17s-35 18 -50 29s-28 23 -38 35s-17 24 -21 36l23 80c23 -38 51 -67 83 -87s69 -30 111 -30c37 0 65 9 84 27s28 41 28 69c0 23 -6 43 -19 61
s-28 34 -45 49c-46 38 -82 69 -109 93s-48 44 -63 59c-25 25 -42 48 -52 69s-15 44 -15 69c0 43 13 78 39 106s61 45 106 50v102h78v-106c29 -7 55 -19 78 -36s41 -36 53 -57l-19 -80c-19 27 -42 49 -69 67s-57 27 -91 27c-28 0 -51 -6 -69 -19s-27 -32 -27 -58
c0 -10 2 -19 6 -28s9 -17 15 -25s13 -15 20 -22s14 -13 20 -18c29 -24 53 -43 71 -58s32 -27 42 -36s18 -16 23 -21s10 -9 14 -13z" />
    <glyph glyph-name="percent" unicode="%" horiz-adv-x="871" 
d="M185 0l413 718h88l-413 -718h-88zM217 386v-2c-25 0 -48 5 -69 14s-39 21 -54 37s-27 34 -36 55s-13 43 -13 66s4 45 13 66s21 39 36 55s33 28 54 37s44 14 69 14s48 -4 69 -13s39 -21 54 -37s27 -34 36 -55s13 -43 13 -66s-4 -45 -13 -66s-21 -39 -36 -55
s-33 -28 -54 -37s-44 -13 -69 -13zM217 650h-2c-15 0 -29 -3 -41 -8s-22 -12 -31 -21s-16 -19 -21 -30s-7 -23 -7 -36s2 -25 7 -36s12 -21 21 -30s20 -16 32 -21s26 -8 41 -8s29 3 41 8s23 12 32 21s16 19 21 30s7 23 7 36s-2 25 -7 36s-12 21 -21 30s-20 16 -32 21
s-25 8 -40 8zM652 -12v-2c-25 0 -48 5 -69 14s-39 21 -54 37s-27 34 -36 55s-13 43 -13 66s4 45 13 66s21 39 36 55s33 28 54 37s44 14 69 14s48 -4 69 -13s39 -21 54 -37s27 -34 36 -55s13 -43 13 -66s-4 -45 -13 -66s-21 -39 -36 -55s-33 -28 -54 -37s-44 -13 -69 -13z
M652 252h-2c-15 0 -29 -3 -41 -8s-22 -12 -31 -21s-16 -19 -21 -30s-7 -23 -7 -36s2 -25 7 -36s12 -21 21 -30s20 -16 32 -21s26 -8 41 -8s29 3 41 8s23 12 32 21s16 19 21 30s7 23 7 36s-2 25 -7 36s-12 21 -21 30s-20 16 -32 21s-25 8 -40 8z" />
    <glyph glyph-name="ampersand" unicode="&#x26;" horiz-adv-x="630" 
d="M632 0l-103 -5l-79 87c-25 -30 -55 -54 -90 -72s-75 -27 -121 -27c-31 0 -58 5 -82 15s-44 23 -61 40s-30 36 -39 58s-13 45 -13 69c0 25 5 48 14 68s21 39 35 56s30 33 48 47s36 28 53 41l-34 46c-11 15 -20 30 -28 45s-14 30 -19 45s-7 30 -7 45c0 23 4 45 13 66
s21 39 37 54s35 27 57 36s46 13 71 13c27 0 51 -5 72 -14s39 -21 54 -37s27 -34 35 -55s12 -43 12 -66c0 -20 -4 -39 -13 -56s-20 -33 -34 -48s-29 -30 -45 -44s-32 -28 -48 -41l135 -158c11 17 21 35 30 54s18 40 27 62l34 -70c-5 -17 -11 -34 -18 -51s-15 -33 -24 -48z
M181 553l-3 -3c0 -23 6 -43 19 -61s26 -34 39 -49l25 -27l14 12c9 7 19 15 30 24s22 19 32 30s19 22 26 34s11 24 11 36c0 28 -9 50 -28 66s-42 24 -70 24c-29 0 -52 -8 -69 -25s-26 -37 -26 -61zM243 64l2 2c29 0 56 5 81 16s50 29 75 55l-154 180l-13 -8
c-14 -9 -28 -19 -42 -29s-26 -21 -37 -33s-20 -25 -27 -39s-10 -29 -10 -46c0 -31 11 -55 33 -72s53 -26 92 -26z" />
    <glyph glyph-name="quotesingle" unicode="'" horiz-adv-x="208" 
d="M58 718h92l-17 -229h-58z" />
    <glyph glyph-name="parenleft" unicode="(" horiz-adv-x="352" 
d="M304 715l-2 1c-49 -73 -84 -148 -104 -225s-30 -152 -30 -225c0 -71 10 -144 30 -219s55 -150 105 -225l-66 -7c-53 64 -91 134 -114 210s-34 156 -34 241c0 86 12 167 35 244s61 147 114 210z" />
    <glyph glyph-name="parenright" unicode=")" horiz-adv-x="352" 
d="M49 716l-1 -1l66 5c53 -63 91 -133 114 -210s34 -158 34 -244c0 -85 -11 -165 -34 -241s-61 -146 -114 -210l-66 7c50 75 85 150 105 225s30 148 30 219c0 73 -10 148 -30 225s-55 152 -104 225z" />
    <glyph glyph-name="asterisk" unicode="*" horiz-adv-x="497" 
d="M306 485l97 -133l-58 -42l-97 134l-97 -134l-57 42l97 134l-157 51l22 67l157 -51v165h71v-165l157 51l22 -68z" />
    <glyph glyph-name="plus" unicode="+" horiz-adv-x="533" 
d="M231 331v166h71v-166h166v-77h-166v-166h-71v166h-166v77h166z" />
    <glyph glyph-name="comma" unicode="," horiz-adv-x="292" 
d="M124 -4l-1 1c-11 3 -21 9 -31 18s-15 23 -15 42s7 34 20 46s29 18 47 18s34 -6 47 -18s20 -28 20 -47c0 -16 -3 -30 -8 -42s-11 -24 -18 -35l-65 -119h-56z" />
    <glyph glyph-name="hyphen" unicode="-" horiz-adv-x="464" 
d="M387 312v-77h-310v77h310z" />
    <glyph glyph-name="period" unicode="." horiz-adv-x="296" 
d="M82 55l-4 -4c0 18 7 34 20 47s29 20 47 20s34 -6 47 -19s20 -28 20 -46s-6 -33 -19 -46s-28 -19 -46 -19s-33 7 -46 20s-19 29 -19 47z" />
    <glyph glyph-name="slash" unicode="/" horiz-adv-x="447" 
d="M80 -182h-80l368 900h79z" />
    <glyph glyph-name="zero" unicode="0" horiz-adv-x="604" 
d="M302 729c37 0 70 -8 100 -24s55 -40 76 -71s37 -70 48 -116s17 -99 17 -159s-6 -113 -17 -159s-27 -85 -48 -116s-46 -55 -76 -71s-63 -24 -100 -24s-70 8 -100 24s-55 40 -76 71s-37 70 -48 116s-17 99 -17 159s6 113 17 159s27 85 48 116s46 55 76 71s63 24 100 24z
M302 645v-2c-23 0 -45 -6 -65 -19s-37 -31 -51 -55s-25 -54 -33 -89s-12 -76 -12 -122s4 -87 12 -122s19 -65 33 -89s31 -42 51 -55s42 -19 65 -19s45 6 65 19s37 32 51 56s25 54 33 89s12 76 12 122s-4 87 -12 122s-19 65 -33 89s-31 43 -51 56s-42 19 -65 19z" />
    <glyph glyph-name="one" unicode="1" horiz-adv-x="403" 
d="M62 600l155 118h76v-718h-78v624l-153 -112v88z" />
    <glyph glyph-name="two" unicode="2" horiz-adv-x="514" 
d="M450 83v-82h-397v71l187 223c33 40 60 78 81 114s31 73 31 112c0 17 -3 33 -8 48s-13 28 -23 39s-22 20 -36 26s-30 9 -48 9c-20 0 -38 -3 -54 -9s-30 -13 -42 -22s-22 -19 -31 -30s-16 -22 -22 -33l-36 60c5 16 13 31 24 45s25 27 41 38s34 20 54 26s42 9 65 9
c31 0 58 -5 82 -16s44 -25 61 -43s30 -39 38 -63s12 -49 12 -76c0 -26 -3 -50 -9 -73s-15 -46 -27 -69s-26 -46 -43 -70s-37 -49 -59 -76l-132 -158h291z" />
    <glyph glyph-name="three" unicode="3" horiz-adv-x="524" 
d="M245 73l-3 1c46 0 83 13 110 39s41 61 41 105c0 19 -4 37 -11 54s-17 32 -31 45s-31 23 -51 30s-42 11 -67 11c-9 0 -19 0 -29 -1s-20 -3 -29 -6l-15 72l168 213h-247v83h348v-67l-167 -212c25 -1 50 -6 75 -16s47 -25 67 -44s36 -42 48 -69s18 -57 18 -90
c0 -31 -5 -60 -16 -88s-26 -52 -46 -73s-44 -38 -72 -51s-59 -19 -94 -19c-22 0 -44 3 -66 9s-42 14 -60 24s-34 22 -48 35s-23 27 -28 42l24 67c25 -35 53 -59 84 -73s63 -21 97 -21z" />
    <glyph glyph-name="four" unicode="4" horiz-adv-x="519" 
d="M323 718h76v-412h88v-83h-88v-223h-78v223h-294v73zM321 306v286l-200 -286h200z" />
    <glyph glyph-name="five" unicode="5" horiz-adv-x="549" 
d="M261 73v-1c50 0 88 14 115 41s40 63 40 107c0 23 -4 43 -12 61s-19 33 -33 45s-30 22 -48 29s-37 10 -57 10c-22 0 -42 -3 -61 -9s-37 -16 -54 -30l-70 12l34 379h326v-83h-265l-19 -217c17 11 35 19 54 24s41 8 67 8c31 0 59 -6 85 -17s49 -27 68 -47s34 -44 45 -71
s17 -57 17 -89c0 -30 -5 -59 -16 -87s-26 -53 -46 -75s-44 -40 -73 -53s-61 -20 -97 -20c-21 0 -43 3 -65 9s-42 14 -61 24s-35 22 -49 35s-24 27 -30 41l25 71c24 -34 51 -59 81 -74s63 -23 99 -23z" />
    <glyph glyph-name="six" unicode="6" horiz-adv-x="564" 
d="M130 219l-2 -4c0 -20 4 -39 12 -57s19 -33 32 -46s29 -23 47 -31s38 -12 60 -12s42 4 60 12s34 19 47 32s24 29 32 47s12 37 12 57s-4 39 -12 57s-18 34 -31 47s-29 24 -47 32s-38 12 -60 12s-42 -4 -60 -12s-34 -18 -47 -31s-23 -28 -31 -46s-12 -37 -12 -57zM216 439
l-3 -4c7 2 16 4 26 5s20 2 30 2c39 0 73 -6 103 -19s55 -30 75 -51s35 -45 45 -72s15 -55 15 -84c0 -33 -6 -63 -18 -91s-29 -53 -50 -74s-45 -37 -73 -49s-57 -18 -88 -18c-33 0 -63 6 -91 18s-52 28 -72 49s-36 46 -47 74s-17 59 -17 92c0 39 7 76 21 112s30 69 47 99
l168 286h89z" />
    <glyph glyph-name="seven" unicode="7" horiz-adv-x="507" 
d="M365 635h-313v83h402v-70l-272 -648h-83z" />
    <glyph glyph-name="eight" unicode="8" horiz-adv-x="572" 
d="M286 -11l-2 -1c-32 0 -62 5 -89 16s-51 26 -71 44s-36 40 -47 65s-17 52 -17 81c0 34 8 67 23 100s40 60 74 81c-22 14 -40 34 -55 61s-22 59 -22 96c0 27 5 52 15 76s24 45 42 63s40 32 65 42s53 15 83 15s58 -5 83 -15s47 -24 65 -42s32 -39 42 -63s15 -49 15 -76
c0 -37 -7 -69 -22 -96s-33 -47 -55 -61c34 -21 59 -48 74 -81s23 -66 23 -100c0 -29 -6 -56 -17 -81s-27 -47 -47 -65s-44 -32 -71 -43s-57 -16 -89 -16zM284 72l-2 -1c21 0 41 3 59 10s33 16 46 28s23 26 30 42s11 33 11 51s-4 35 -11 51s-17 30 -30 42s-28 21 -46 28
s-37 11 -58 11s-40 -3 -58 -10s-33 -16 -46 -28s-23 -26 -30 -42s-11 -33 -11 -51s4 -35 11 -51s17 -30 30 -42s28 -21 46 -28s38 -10 59 -10zM408 528c0 14 -3 28 -9 42s-14 26 -25 37s-24 20 -40 27s-34 10 -54 10s-38 -3 -54 -10s-29 -16 -40 -27s-19 -23 -25 -37
s-9 -28 -9 -42s3 -28 9 -42s14 -26 25 -37s24 -20 40 -27s34 -10 54 -10s38 3 54 10s29 16 40 27s19 23 25 37s9 28 9 42z" />
    <glyph glyph-name="nine" unicode="9" horiz-adv-x="564" 
d="M434 499c0 20 -4 39 -12 57s-18 33 -31 46s-29 23 -47 31s-38 12 -60 12s-42 -4 -60 -12s-34 -18 -47 -31s-23 -28 -31 -46s-12 -37 -12 -57s4 -39 12 -57s18 -33 31 -46s29 -23 47 -31s38 -12 60 -12s42 4 60 12s34 18 47 31s23 28 31 46s12 37 12 57zM346 275h3
c-7 -2 -16 -3 -26 -4s-20 -1 -30 -1c-39 0 -73 6 -103 19s-55 30 -75 51s-35 45 -45 72s-15 55 -15 84c0 33 6 63 18 91s29 53 50 74s45 37 73 49s57 18 88 18c33 0 63 -6 91 -18s52 -28 72 -49s36 -45 47 -73s17 -58 17 -91c0 -39 -7 -76 -21 -112s-30 -69 -47 -99
l-168 -286h-89z" />
    <glyph glyph-name="colon" unicode=":" horiz-adv-x="296" 
d="M82 55l-4 -4c0 18 7 34 20 47s29 20 47 20s34 -6 47 -19s20 -28 20 -46s-6 -33 -19 -46s-28 -19 -46 -19s-33 7 -46 20s-19 29 -19 47zM78 384l-4 -4c0 18 7 34 20 47s29 20 47 20s34 -6 47 -19s20 -28 20 -46s-6 -33 -19 -46s-28 -19 -46 -19s-33 7 -46 20
s-19 29 -19 47z" />
    <glyph glyph-name="semicolon" unicode=";" horiz-adv-x="292" 
d="M124 -4l-1 1c-11 3 -21 9 -31 18s-15 23 -15 42s7 34 20 46s29 18 47 18s34 -6 47 -18s20 -28 20 -47c0 -16 -3 -30 -8 -42s-11 -24 -18 -35l-65 -119h-56zM79 389l-4 -4c0 18 7 34 20 47s29 20 47 20s34 -6 47 -19s20 -28 20 -46s-6 -33 -19 -46s-28 -19 -46 -19
s-33 7 -46 20s-19 29 -19 47z" />
    <glyph glyph-name="less" unicode="&#x3c;" horiz-adv-x="533" 
d="M154 295l314 -144v-81l-403 184v83l403 184v-81z" />
    <glyph glyph-name="equal" unicode="=" horiz-adv-x="533" 
d="M65 351v77h403v-77h-403zM65 158v77h403v-77h-403z" />
    <glyph glyph-name="greater" unicode="&#x3e;" horiz-adv-x="533" 
d="M379 300l-314 144v81l403 -184v-83l-403 -184v81z" />
    <glyph glyph-name="question" unicode="?" horiz-adv-x="465" 
d="M158 55l-4 -4c0 18 7 34 20 47s29 20 47 20s34 -6 47 -19s20 -28 20 -46s-6 -33 -19 -46s-28 -19 -46 -19s-33 7 -46 20s-19 29 -19 47zM63 630l-5 -6c5 13 13 25 23 37s22 22 36 31s29 16 46 21s35 8 53 8c27 0 50 -4 70 -11s37 -17 51 -30s24 -28 31 -45s11 -35 11 -54
c0 -21 -3 -39 -10 -54s-16 -29 -27 -42s-24 -24 -39 -34s-30 -20 -46 -30c-22 -14 -41 -28 -58 -42s-25 -30 -25 -48c0 -13 5 -24 16 -33s26 -13 45 -13c21 0 39 4 55 13s32 22 49 39l13 -70c-3 -7 -8 -15 -15 -23s-16 -15 -27 -22s-23 -12 -37 -16s-29 -6 -46 -6
c-20 0 -38 4 -54 11s-30 16 -41 28s-20 26 -26 41s-9 31 -9 48c0 27 8 53 25 79s48 53 93 82c29 19 51 35 66 48s22 28 22 45s-7 30 -20 40s-33 15 -60 15c-26 0 -51 -6 -75 -18s-46 -31 -66 -56z" />
    <glyph glyph-name="at" unicode="@" horiz-adv-x="932" 
d="M469 667l-2 -8c51 0 100 -9 146 -28s87 -46 122 -80s63 -75 84 -122s32 -98 32 -154c0 -29 -2 -57 -7 -84s-13 -51 -25 -73s-28 -39 -48 -52s-45 -20 -76 -20c-55 0 -94 17 -118 51c-11 -13 -28 -25 -51 -35s-50 -15 -81 -15c-48 0 -86 12 -114 36s-42 56 -42 96
c0 21 4 39 12 55s19 30 33 41s31 20 50 26s40 9 62 9c19 0 39 -2 60 -7s38 -13 50 -25v17c0 33 -10 58 -30 75s-47 25 -81 25c-24 0 -46 -5 -67 -15s-37 -23 -49 -40l-20 63c15 21 35 38 61 51s55 20 87 20c25 0 48 -3 69 -10s39 -17 54 -30s27 -29 36 -49s13 -42 13 -67
v-117c0 -20 6 -37 17 -51s28 -21 51 -21c17 0 31 5 42 15s19 23 25 39s10 33 12 51s3 34 3 48c0 47 -8 90 -25 128s-40 70 -69 96s-62 46 -99 60s-76 21 -117 21c-45 0 -87 -8 -126 -24s-73 -38 -102 -67s-52 -64 -69 -104s-25 -84 -25 -132c0 -47 7 -90 21 -130
s35 -75 63 -105s62 -53 102 -70s85 -25 135 -25c34 0 66 4 95 11s56 20 81 39l14 -65c-19 -19 -45 -34 -79 -46s-70 -18 -108 -18c-55 0 -107 10 -155 31s-90 50 -125 87s-63 80 -83 130s-30 104 -30 162c0 56 10 109 30 158s48 92 83 129s76 66 124 87s99 32 154 32z
M554 197l-1 -2c-6 11 -19 20 -38 26s-39 9 -60 9c-30 0 -53 -5 -70 -14s-25 -22 -25 -39s8 -30 24 -40s40 -15 72 -15c21 0 41 4 60 12s32 19 38 32v31z" />
    <glyph glyph-name="A" unicode="A" horiz-adv-x="668" 
d="M655 0h-84l-68 174h-338l-67 -174h-84l281 718h81zM198 257h273l-137 350z" />
    <glyph glyph-name="B" unicode="B" horiz-adv-x="578" 
d="M424 380l-1 -2c28 -12 52 -33 72 -62s30 -65 30 -108c0 -33 -5 -63 -16 -89s-26 -48 -45 -66s-42 -32 -69 -41s-56 -14 -88 -14h-216v718h179c32 0 61 -4 88 -13s50 -22 69 -39s34 -37 45 -61s16 -51 16 -82c0 -33 -6 -61 -18 -84s-27 -42 -46 -57zM320 81l-1 -1
c17 0 33 3 48 9s29 15 41 26s21 24 28 39s10 32 10 50c0 16 -3 31 -9 46s-15 28 -26 39s-24 20 -40 27s-33 10 -51 10h-151v-245h151zM168 408l120 -1c34 0 62 10 85 30s34 47 34 81c0 16 -3 31 -9 45s-14 26 -24 36s-22 18 -37 24s-31 9 -48 9h-121v-224z" />
    <glyph glyph-name="C" unicode="C" horiz-adv-x="698" 
d="M660 130l-3 2c-9 -19 -22 -37 -39 -54s-37 -32 -61 -45s-50 -23 -79 -31s-60 -12 -92 -12c-47 0 -91 9 -133 26s-79 42 -111 74s-57 71 -76 117s-28 97 -28 153s9 107 28 153s44 85 76 117s69 57 111 74s86 26 133 26c32 0 62 -4 91 -12s55 -18 79 -31s44 -28 61 -45
s29 -34 37 -51l-23 -71c-27 39 -61 70 -102 92s-88 33 -141 33c-40 0 -77 -7 -110 -21s-61 -33 -85 -58s-42 -55 -55 -90s-19 -74 -19 -117s7 -82 20 -117s31 -65 55 -90s53 -44 86 -58s70 -21 110 -21c55 0 104 12 146 36s76 54 101 90z" />
    <glyph glyph-name="D" unicode="D" horiz-adv-x="738" 
d="M618 359l1 1c0 39 -7 75 -20 108s-32 62 -56 87s-53 45 -87 59s-71 21 -112 21h-174v-552h174c39 0 75 7 109 20s63 32 87 56s43 53 57 87s21 72 21 113zM314 719v-3c55 0 106 -8 153 -24s87 -39 121 -69s61 -67 80 -112s29 -96 29 -153s-10 -107 -29 -151
s-46 -81 -80 -112s-74 -54 -121 -70s-98 -24 -153 -24h-221v718h221z" />
    <glyph glyph-name="E" unicode="E" horiz-adv-x="531" 
d="M92 718h379v-83h-301v-224h271v-83h-271v-245h301v-83h-379v718z" />
    <glyph glyph-name="F" unicode="F" horiz-adv-x="496" 
d="M92 718h354v-83h-276v-224h256v-83h-256v-328h-78v718z" />
    <glyph glyph-name="G" unicode="G" horiz-adv-x="727" 
d="M388 729l-3 2c32 0 62 -4 91 -12s55 -18 79 -31s44 -28 61 -45s29 -34 37 -51l-23 -71c-27 39 -61 70 -102 92s-88 33 -141 33c-41 0 -78 -7 -111 -20s-61 -32 -84 -57s-41 -55 -54 -90s-19 -74 -19 -117c0 -45 7 -85 20 -121s32 -66 56 -91s53 -44 87 -57
s71 -19 111 -19c38 0 73 6 106 18s62 30 87 54v130h-198v83h277v-236c-12 -20 -28 -38 -48 -54s-43 -30 -68 -42s-51 -21 -79 -28s-55 -10 -82 -10c-47 0 -92 9 -134 26s-79 42 -110 74s-56 71 -74 116s-27 96 -27 152s9 107 27 153s43 85 74 117s68 57 110 75s87 27 134 27
z" />
    <glyph glyph-name="H" unicode="H" horiz-adv-x="753" 
d="M92 718h78v-307h413v307h78v-718h-78v328h-413v-328h-78v718z" />
    <glyph glyph-name="I" unicode="I" horiz-adv-x="262" 
d="M92 718h78v-718h-78v718z" />
    <glyph glyph-name="J" unicode="J" horiz-adv-x="395" 
d="M308 176l1 1c0 -59 -13 -105 -39 -138s-68 -49 -126 -49c-18 0 -34 2 -48 6s-26 9 -36 15s-18 13 -25 21s-12 16 -15 23l8 79c15 -18 32 -33 51 -44s40 -17 63 -17c28 0 50 9 65 26s23 48 23 92v527h78v-542z" />
    <glyph glyph-name="K" unicode="K" horiz-adv-x="628" 
d="M92 718h78v-332l310 332h104l-327 -351l361 -367h-115l-333 337v-337h-78v718z" />
    <glyph glyph-name="L" unicode="L" horiz-adv-x="475" 
d="M92 718h78v-635h285v-83h-363v718z" />
    <glyph glyph-name="M" unicode="M" horiz-adv-x="942" 
d="M698 718h86l96 -718h-76l-81 586l-212 -586h-79l-217 586l-74 -586h-79l95 718h86l226 -612z" />
    <glyph glyph-name="N" unicode="N" horiz-adv-x="756" 
d="M92 718h89l405 -598v598h78v-718h-89l-405 595v-595h-78v718z" />
    <glyph glyph-name="O" unicode="O" horiz-adv-x="790" 
d="M395 -11l-4 -2c-47 0 -92 10 -135 29s-80 45 -112 78s-58 72 -77 117s-28 94 -28 147s10 102 29 147s45 84 77 117s70 59 113 78s88 29 135 29s92 -9 135 -28s81 -45 113 -78s58 -72 77 -117s29 -94 29 -147s-9 -102 -28 -147s-45 -84 -77 -117s-69 -59 -112 -78
s-88 -28 -135 -28zM391 643c-39 0 -75 -7 -109 -21s-63 -34 -88 -59s-44 -55 -58 -90s-21 -73 -21 -114s7 -79 21 -114s33 -65 58 -90s54 -45 88 -59s70 -21 109 -21s75 7 109 21s63 34 88 59s44 55 58 90s21 73 21 114s-7 79 -21 114s-33 65 -58 90s-54 45 -88 59
s-70 21 -109 21z" />
    <glyph glyph-name="P" unicode="P" horiz-adv-x="545" 
d="M290 718l-1 -3c31 0 60 -5 87 -15s51 -24 71 -43s36 -41 47 -67s17 -55 17 -88c0 -32 -5 -61 -16 -87s-26 -49 -45 -68s-42 -34 -69 -44s-57 -15 -90 -15h-121v-288h-78v718h198zM169 632l-1 -266h135c19 0 36 4 52 11s30 17 41 29s20 26 26 42s9 33 9 51s-3 35 -9 51
s-15 30 -26 42s-24 22 -40 29s-33 11 -52 11h-135z" />
    <glyph glyph-name="Q" unicode="Q" horiz-adv-x="790" 
d="M512 -159l-1 -2c-48 0 -84 13 -109 40s-39 64 -42 111c-43 4 -84 16 -123 36s-73 47 -102 80s-52 71 -69 114s-25 89 -25 138c0 53 10 102 29 147s45 84 77 117s70 59 113 78s88 29 135 29s92 -9 135 -28s81 -45 113 -78s58 -72 77 -117s29 -94 29 -147
c0 -48 -8 -93 -24 -135s-38 -79 -66 -111s-60 -59 -97 -80s-76 -34 -118 -40c3 -25 12 -43 27 -54s34 -16 57 -16c19 0 36 4 51 11s27 16 36 27l9 -71c-11 -15 -26 -27 -45 -36s-41 -13 -67 -13zM394 643c-39 0 -75 -7 -109 -21s-63 -34 -88 -59s-44 -55 -58 -90
s-21 -73 -21 -114s7 -79 21 -114s33 -65 58 -90s54 -45 88 -59s70 -21 109 -21s75 7 109 21s63 34 88 59s44 55 58 90s21 73 21 114s-7 79 -21 114s-33 65 -58 90s-54 45 -88 59s-70 21 -109 21z" />
    <glyph glyph-name="R" unicode="R" horiz-adv-x="558" 
d="M92 718h191c27 0 53 -4 79 -12s49 -20 70 -36s38 -37 50 -62s18 -54 18 -88c0 -27 -4 -52 -12 -74s-19 -41 -33 -58s-31 -31 -51 -42s-42 -19 -65 -24l178 -322h-92l-172 313h-83v-313h-78v718zM168 635l-1 -240h122c17 0 34 3 50 8s30 13 42 23s22 22 29 37s11 32 11 51
c0 35 -11 64 -32 87s-49 34 -84 34h-137z" />
    <glyph glyph-name="S" unicode="S" horiz-adv-x="483" 
d="M346 349l-3 -1c29 -27 52 -54 68 -81s24 -58 24 -94c0 -27 -5 -52 -14 -75s-22 -42 -39 -58s-38 -28 -62 -37s-51 -13 -81 -13c-25 0 -49 4 -72 12s-44 18 -62 30s-34 25 -47 39s-22 28 -27 42l23 80c23 -38 51 -67 83 -87s69 -30 111 -30c37 0 65 9 84 27s28 41 28 69
c0 23 -6 43 -19 61s-28 34 -45 49c-46 38 -82 69 -109 93s-48 44 -63 59c-25 25 -42 48 -52 69s-15 44 -15 69c0 48 16 86 48 115s75 43 128 43c39 0 74 -9 106 -28s56 -42 71 -69l-19 -80c-19 27 -42 49 -69 67s-57 27 -91 27c-28 0 -51 -6 -69 -19s-27 -32 -27 -58
c0 -10 2 -19 6 -28s9 -17 15 -25s13 -15 20 -22s14 -13 20 -18c29 -24 53 -43 71 -58s32 -27 42 -36s18 -16 23 -21s10 -9 14 -13z" />
    <glyph glyph-name="T" unicode="T" horiz-adv-x="575" 
d="M16 718h543v-81h-233v-637h-78v637h-232v81z" />
    <glyph glyph-name="U" unicode="U" horiz-adv-x="736" 
d="M571 718l79 3v-430c0 -43 -6 -83 -19 -120s-32 -69 -57 -96s-55 -48 -90 -63s-74 -22 -117 -22c-42 0 -80 7 -115 21s-65 34 -90 60s-44 57 -57 94s-20 78 -20 123v431h78v-434c0 -32 5 -61 15 -87s24 -48 42 -66s40 -32 65 -42s53 -15 83 -15c31 0 59 5 84 15
s46 24 63 42s31 40 41 66s15 55 15 87v433z" />
    <glyph glyph-name="V" unicode="V" horiz-adv-x="628" 
d="M13 718h85l217 -610l214 610h86l-256 -718h-90z" />
    <glyph glyph-name="W" unicode="W" horiz-adv-x="1011" 
d="M714 144l187 574h88l-238 -718h-79l-169 601l-164 -601h-79l-238 718h82l191 -574l163 574h86z" />
    <glyph glyph-name="X" unicode="X" horiz-adv-x="624" 
d="M123 0h-101l240 373l-224 345h96l177 -273l177 273h100l-225 -344l239 -374h-94l-194 297z" />
    <glyph glyph-name="Y" unicode="Y" horiz-adv-x="542" 
d="M9 718h89l171 -325l171 325h92l-221 -420v-298h-78v298z" />
    <glyph glyph-name="Z" unicode="Z" horiz-adv-x="500" 
d="M56 718h386v-58l-296 -577h298v-83h-393v71l290 564h-285v83z" />
    <glyph glyph-name="bracketleft" unicode="[" horiz-adv-x="367" 
d="M111 -182v900h181v-83h-103v-734h103v-83h-181z" />
    <glyph glyph-name="backslash" unicode="\" horiz-adv-x="447" 
d="M451 -182h-80l-367 900h79z" />
    <glyph glyph-name="bracketright" unicode="]" horiz-adv-x="367" 
d="M256 718v-900h-181v83h103v734h-103v83h181z" />
    <glyph glyph-name="asciicircum" unicode="^" horiz-adv-x="534" 
d="M47 346l171 338h99l170 -338h-87l-131 265l-134 -265h-88z" />
    <glyph glyph-name="underscore" unicode="_" horiz-adv-x="496" 
d="M-2 -80h500v-77h-500v77z" />
    <glyph glyph-name="grave" unicode="`" horiz-adv-x="346" 
d="M200 723l63 -143h-75l-105 143h117z" />
    <glyph glyph-name="a" unicode="a" horiz-adv-x="544" 
d="M255 503v-1c30 0 58 -4 84 -12s48 -20 66 -36s33 -36 44 -60s16 -51 16 -82v-312h-72v47c-13 -17 -33 -31 -60 -42s-56 -16 -87 -16c-61 0 -109 14 -144 43s-52 68 -52 118c0 24 5 46 15 65s24 36 42 50s39 24 63 31s50 11 78 11c9 0 20 -1 32 -2s25 -3 38 -7
s26 -9 39 -15s24 -13 33 -22v31c0 45 -13 78 -40 99s-60 32 -100 32c-31 0 -60 -6 -87 -19s-48 -29 -63 -48l-20 66c7 11 16 22 28 32s26 19 41 26s32 13 50 17s37 6 56 6zM390 174v2c-9 17 -26 30 -52 38s-54 12 -85 12c-40 0 -71 -7 -94 -21s-34 -32 -34 -55
s11 -42 33 -58s54 -24 97 -24c31 0 59 6 84 17s42 26 51 44v45z" />
    <glyph glyph-name="b" unicode="b" horiz-adv-x="619" 
d="M159 728l-1 -290c8 18 27 34 56 48s64 21 104 21c33 0 65 -6 95 -19s57 -31 80 -54s41 -50 55 -81s21 -66 21 -104s-7 -73 -21 -104s-32 -58 -55 -81s-49 -41 -79 -54s-62 -19 -95 -19c-20 0 -39 2 -57 6s-34 9 -48 15s-26 13 -36 21s-17 17 -21 26v-59h-72v728h74z
M493 251l-3 -2c0 27 -4 52 -13 74s-21 41 -37 56s-35 27 -57 35s-46 12 -72 12c-38 0 -71 -8 -100 -24s-47 -39 -55 -69v-166c8 -30 27 -53 56 -69s63 -24 101 -24c26 0 50 4 72 12s41 20 57 35s28 34 37 56s14 47 14 74z" />
    <glyph glyph-name="c" unicode="c" horiz-adv-x="536" 
d="M485 71l-1 6c-5 -10 -13 -20 -23 -30s-23 -19 -38 -27s-32 -14 -52 -19s-42 -7 -66 -7c-34 0 -66 6 -97 18s-58 29 -81 51s-42 49 -56 81s-21 67 -21 106s7 74 21 105s33 58 56 81s50 41 81 53s63 18 97 18c23 0 44 -2 63 -7s36 -11 51 -19s28 -17 38 -27s18 -20 23 -30
l-18 -60c-15 15 -35 29 -60 42s-53 19 -84 19c-29 0 -55 -4 -79 -12s-44 -20 -61 -36s-30 -35 -40 -57s-15 -46 -15 -73s5 -51 15 -73s24 -41 41 -57s38 -28 62 -36s51 -12 80 -12c34 0 63 6 87 19s44 27 59 43z" />
    <glyph glyph-name="d" unicode="d" horiz-adv-x="618" 
d="M534 728l-1 -733h-72v59c-4 -9 -11 -18 -21 -26s-22 -15 -36 -21s-30 -11 -48 -15s-37 -6 -57 -6c-33 0 -65 6 -95 19s-56 31 -79 54s-41 50 -55 81s-21 66 -21 104s7 73 21 104s32 58 55 81s50 41 80 54s62 19 95 19c40 0 75 -7 104 -21s48 -30 56 -48v295h74zM124 241
l-3 -2c0 -27 5 -51 14 -73s21 -40 37 -55s35 -27 57 -35s46 -12 72 -12c38 0 72 8 101 24s48 39 56 69v166c-8 30 -26 53 -55 69s-62 24 -100 24c-26 0 -50 -4 -72 -12s-41 -20 -57 -35s-28 -33 -37 -55s-13 -46 -13 -73z" />
    <glyph glyph-name="e" unicode="e" horiz-adv-x="571" 
d="M520 255h2c0 -11 -1 -22 -3 -34h-391c5 -51 24 -88 57 -112s73 -36 120 -36c36 0 67 5 93 16s49 27 69 48l14 -65c-5 -11 -13 -22 -24 -32s-24 -19 -40 -26s-33 -13 -52 -18s-39 -7 -60 -7c-35 0 -68 6 -99 18s-58 29 -81 51s-41 49 -54 81s-19 68 -19 108
c0 36 6 70 17 101s27 58 48 81s46 41 75 54s62 20 99 20c34 0 65 -6 93 -19s52 -31 72 -54s36 -49 47 -79s17 -62 17 -96zM293 423l-2 -1c-18 0 -36 -2 -53 -7s-33 -13 -48 -23s-27 -23 -37 -39s-17 -34 -21 -55h310c-5 39 -21 70 -48 92s-61 33 -101 33z" />
    <glyph glyph-name="f" unicode="f" horiz-adv-x="421" 
d="M381 617l-3 -2c-9 11 -21 21 -37 30s-33 13 -52 13c-25 0 -45 -8 -61 -24s-24 -39 -24 -69v-74h177v-80h-177v-412h-74v412h-94v80h94v85c0 52 13 92 39 120s64 42 114 42c23 0 45 -5 65 -15s35 -24 44 -41z" />
    <glyph glyph-name="g" unicode="g" horiz-adv-x="614" 
d="M530 492l1 -512c0 -30 -5 -57 -16 -82s-26 -46 -46 -64s-44 -32 -72 -42s-58 -15 -91 -15c-42 0 -82 8 -120 23s-67 40 -88 74l21 69c21 -28 47 -49 78 -63s64 -21 99 -21c19 0 38 2 57 6s36 12 51 23s28 27 38 47s15 46 15 78v56c-4 -9 -11 -17 -21 -25s-22 -15 -36 -21
s-30 -11 -48 -15s-37 -6 -57 -6c-33 0 -65 6 -95 18s-56 29 -79 51s-41 48 -55 79s-21 65 -21 102s7 71 21 102s32 58 55 80s50 39 80 51s62 18 95 18c20 0 39 -2 57 -6s34 -9 48 -16s26 -14 36 -22s17 -16 21 -25v58h72zM457 333h-3c-8 29 -26 52 -55 68s-62 24 -100 24
c-26 0 -50 -4 -72 -12s-41 -19 -57 -34s-28 -33 -37 -54s-13 -45 -13 -72s5 -51 14 -72s21 -39 37 -54s35 -26 57 -34s46 -12 72 -12c38 0 72 8 101 24s48 39 56 68v160z" />
    <glyph glyph-name="h" unicode="h" horiz-adv-x="587" 
d="M159 0l-73 -2v728h74v-296c7 19 23 36 48 50s56 21 93 21c26 0 52 -4 77 -13s48 -22 68 -40s36 -41 48 -69s18 -61 18 -100v-280h-74v277c0 47 -13 83 -39 108s-58 38 -97 38c-17 0 -33 -2 -49 -7s-30 -12 -43 -21s-24 -19 -33 -31s-15 -25 -18 -40v-323z" />
    <glyph glyph-name="i" unicode="i" horiz-adv-x="240" 
d="M83 492h74v-492h-74v492zM61 655c0 17 6 31 17 42s25 17 42 17s31 -6 42 -17s17 -25 17 -42s-6 -31 -17 -42s-25 -17 -42 -17s-31 6 -42 17s-17 25 -17 42z" />
    <glyph glyph-name="j" unicode="j" horiz-adv-x="248" 
d="M91 492l74 1v-563c0 -102 -37 -153 -112 -153c-12 0 -26 2 -43 6s-30 13 -40 26l7 65c7 -7 16 -12 26 -15s19 -4 26 -4c25 0 42 8 50 24s12 39 12 68v545zM69 656c0 17 6 31 17 42s25 17 42 17s31 -6 42 -17s17 -25 17 -42s-6 -31 -17 -42s-25 -17 -42 -17s-31 6 -42 17
s-17 25 -17 42z" />
    <glyph glyph-name="k" unicode="k" horiz-adv-x="528" 
d="M85 728h74v-442l227 206h108l-253 -230l279 -262h-113l-248 231v-231h-74v728z" />
    <glyph glyph-name="l" unicode="l" horiz-adv-x="244" 
d="M85 728h74v-728h-74v728z" />
    <glyph glyph-name="m" unicode="m" horiz-adv-x="918" 
d="M636 503l-5 1c25 0 50 -4 75 -13s47 -22 66 -40s35 -40 47 -67s18 -59 18 -96v-286h-74v281c0 46 -12 81 -37 105s-56 36 -94 36c-16 0 -32 -2 -47 -7s-29 -12 -41 -21s-22 -19 -30 -31s-13 -25 -16 -40v-323h-74v281c0 46 -12 81 -37 105s-56 36 -94 36
c-16 0 -32 -2 -47 -7s-29 -12 -41 -21s-22 -19 -30 -31s-13 -25 -16 -40v-323h-74v492h72v-60c7 19 23 36 48 50s55 21 90 21c32 0 63 -7 94 -22s56 -37 75 -66c15 23 37 43 67 60s65 26 105 26z" />
    <glyph glyph-name="n" unicode="n" horiz-adv-x="587" 
d="M299 503l2 -3c26 0 52 -4 77 -13s48 -23 68 -41s36 -41 48 -69s18 -61 18 -100v-279h-74v275c0 47 -13 84 -38 110s-58 39 -98 39c-17 0 -33 -3 -49 -8s-30 -12 -43 -21s-24 -19 -33 -31s-15 -25 -18 -39v-323h-74v492h72v-60c7 19 23 36 49 50s57 21 93 21z" />
    <glyph glyph-name="o" unicode="o" 
d="M51 246l-2 -2c0 37 7 71 20 102s31 58 54 81s50 41 80 54s62 20 95 20s65 -6 95 -19s57 -31 80 -54s41 -50 54 -81s20 -65 20 -102s-7 -71 -20 -102s-31 -58 -54 -81s-49 -41 -79 -54s-62 -19 -95 -19s-65 7 -95 20s-56 31 -79 54s-41 50 -54 81s-20 65 -20 102zM298 421
h-3c-25 0 -48 -4 -69 -13s-39 -21 -54 -37s-27 -35 -36 -57s-13 -46 -13 -72s5 -50 14 -72s21 -41 36 -57s33 -28 54 -37s44 -13 69 -13s48 4 70 13s41 21 56 37s27 35 36 57s14 46 14 72s-4 50 -13 72s-21 41 -36 57s-33 28 -55 37s-45 13 -70 13z" />
    <glyph glyph-name="p" unicode="p" horiz-adv-x="619" 
d="M85 -213l-3 707h72v-59c4 9 11 18 21 27s22 17 36 23s30 11 48 15s37 6 57 6c33 0 65 -6 95 -19s57 -31 80 -54s41 -50 55 -81s21 -66 21 -104s-7 -73 -21 -104s-32 -58 -55 -81s-49 -41 -79 -54s-62 -19 -95 -19c-40 0 -74 7 -103 21s-47 30 -55 48v-272h-74zM491 248
l-3 -2c0 27 -4 52 -13 74s-21 41 -37 56s-35 27 -57 35s-46 12 -72 12c-38 0 -71 -8 -100 -24s-47 -39 -55 -69v-166c8 -30 27 -53 56 -69s63 -24 101 -24c26 0 50 4 72 12s41 20 57 35s28 34 37 56s14 47 14 74z" />
    <glyph glyph-name="q" unicode="q" horiz-adv-x="618" 
d="M460 -213l-3 269c-8 -18 -26 -34 -55 -48s-63 -21 -103 -21c-33 0 -65 6 -95 19s-56 31 -79 54s-41 50 -55 81s-21 66 -21 104s7 73 21 104s32 58 55 81s50 41 80 54s62 19 95 19c20 0 39 -2 57 -6s34 -9 48 -15s26 -13 36 -22s17 -18 21 -27v59h72v-705h-74zM122 243
l-3 -2c0 -27 5 -51 14 -73s21 -40 37 -55s35 -27 57 -35s46 -12 72 -12c38 0 72 8 101 24s48 39 56 69v166c-8 30 -26 53 -55 69s-62 24 -100 24c-26 0 -50 -4 -72 -12s-41 -20 -57 -35s-28 -33 -37 -55s-13 -46 -13 -73z" />
    <glyph glyph-name="r" unicode="r" horiz-adv-x="384" 
d="M344 401h3c-17 15 -41 22 -72 22c-30 0 -55 -10 -75 -31s-33 -46 -39 -75v-318h-74v492h72v-62c7 21 20 38 38 52s43 21 75 21c19 0 36 -3 51 -9s26 -15 33 -26z" />
    <glyph glyph-name="s" unicode="s" horiz-adv-x="416" 
d="M155 240l-2 -3c-32 17 -56 37 -72 60s-24 48 -24 74c0 38 12 69 37 93s62 36 111 36c17 0 33 -2 48 -7s29 -11 41 -18s22 -15 30 -23s14 -16 18 -24l-14 -67c-17 18 -36 32 -57 43s-44 16 -69 16c-17 0 -33 -4 -48 -11s-22 -20 -22 -38c0 -15 6 -27 19 -36s28 -18 45 -27
l60 -33c37 -20 65 -41 83 -63s27 -49 27 -82c0 -21 -4 -40 -12 -57s-19 -32 -33 -45s-31 -23 -52 -30s-44 -10 -70 -10c-18 0 -35 2 -51 7s-31 11 -45 19s-26 17 -36 27s-18 20 -23 31l16 68c20 -23 42 -40 67 -51s51 -16 79 -16c10 0 20 1 30 3s19 5 27 10s15 11 20 18
s8 16 8 27c0 16 -7 30 -22 42s-34 24 -57 36z" />
    <glyph glyph-name="t" unicode="t" horiz-adv-x="432" 
d="M383 51l-1 -1c-7 -17 -21 -32 -42 -44s-46 -18 -76 -18c-44 0 -78 13 -102 40s-36 69 -36 126v259h-90v24l139 178h24v-124h182v-78h-181v-246c0 -34 7 -58 21 -73s34 -22 61 -22c21 0 38 4 51 13s24 19 33 30z" />
    <glyph glyph-name="u" unicode="u" horiz-adv-x="583" 
d="M286 -11h-2c-26 0 -51 5 -76 14s-47 23 -67 41s-36 41 -48 69s-18 61 -18 100v279h74v-275c0 -47 12 -83 37 -109s57 -39 97 -39c17 0 33 3 49 8s30 12 43 21s24 20 33 32s15 25 18 39v323h74v-492h-72v60c-7 -19 -23 -36 -49 -50s-57 -21 -93 -21z" />
    <glyph glyph-name="v" unicode="v" horiz-adv-x="522" 
d="M216 0l-197 492h83l158 -399l157 399h84l-198 -492h-87z" />
    <glyph glyph-name="w" unicode="w" horiz-adv-x="833" 
d="M577 107l151 385h85l-194 -492h-79l-124 386l-121 -386h-81l-194 492h81l149 -386l126 386h79z" />
    <glyph glyph-name="x" unicode="x" horiz-adv-x="502" 
d="M111 0h-95l188 262l-169 230h94l121 -166l120 166h95l-168 -232l190 -260h-93l-142 195z" />
    <glyph glyph-name="y" unicode="y" horiz-adv-x="531" 
d="M18 492h85l164 -388l158 388h85l-293 -705h-85l93 225z" />
    <glyph glyph-name="z" unicode="z" horiz-adv-x="454" 
d="M64 492h322v-63l-234 -349h246v-80h-342v71l228 341h-220v80z" />
    <glyph glyph-name="braceleft" unicode="{" horiz-adv-x="386" 
d="M304 628l-1 -2c-30 0 -53 -7 -69 -20s-21 -38 -15 -74l21 -137c5 -33 1 -60 -12 -81s-30 -37 -51 -48c21 -11 38 -27 51 -48s17 -47 12 -79l-21 -137c-6 -36 -1 -61 15 -75s39 -21 69 -21v-90c-56 -3 -98 10 -127 39s-40 72 -33 129l19 140c2 16 1 30 -2 41s-8 21 -16 29
s-17 14 -28 18s-23 8 -36 11v86c13 3 25 7 36 12s20 11 28 19s14 18 17 29s4 25 2 41l-19 140c-7 57 4 100 33 129s71 42 127 39v-90v0z" />
    <glyph glyph-name="bar" unicode="|" horiz-adv-x="288" 
d="M184 -182h-79v900h79v-900z" />
    <glyph glyph-name="braceright" unicode="}" horiz-adv-x="386" 
d="M82 626v2v0v90c56 3 98 -10 127 -39s40 -72 33 -129l-19 -140c-2 -16 -1 -30 2 -41s8 -21 16 -29s17 -14 28 -19s23 -9 36 -12v-86c-13 -3 -25 -7 -36 -11s-20 -10 -28 -18s-13 -18 -16 -29s-4 -25 -2 -41l19 -140c7 -57 -4 -100 -33 -129s-71 -42 -127 -39v90
c30 0 53 7 69 21s21 39 15 75l-21 137c-5 32 -1 58 12 79s30 37 51 48c-21 11 -38 27 -51 48s-17 48 -12 81l21 137c6 36 1 61 -15 74s-39 20 -69 20z" />
    <glyph glyph-name="asciitilde" unicode="~" horiz-adv-x="554" 
d="M77 218l-5 -1c-3 9 -6 18 -8 26s-3 17 -3 27c0 33 11 58 32 75s48 26 80 26c19 0 37 -4 54 -11s34 -15 50 -23s31 -16 46 -23s30 -11 45 -11s27 4 36 13s13 21 13 37v9c0 3 0 6 -1 10h61c4 -10 7 -19 9 -27s3 -17 3 -26c0 -33 -10 -58 -31 -75s-47 -25 -78 -25
c-20 0 -39 4 -56 11s-33 15 -49 23s-31 16 -46 23s-29 11 -43 11c-33 0 -49 -17 -49 -51v-9c0 -3 0 -6 1 -9h-61z" />
    <glyph glyph-name="uni00A0" unicode="&#xa0;" horiz-adv-x="270" 
 />
    <glyph glyph-name="exclamdown" unicode="&#xa1;" horiz-adv-x="352" 
d="M207 257l24 -483h-110l24 483h62zM242 437c0 -18 -6 -33 -19 -46s-28 -19 -46 -19s-33 6 -46 19s-19 28 -19 46s6 33 19 46s28 19 46 19s33 -6 46 -19s19 -28 19 -46z" />
    <glyph glyph-name="cent" unicode="&#xa2;" horiz-adv-x="536" 
d="M338 627l-7 -127c37 -4 68 -14 93 -30s42 -32 51 -49l-18 -58c-13 13 -30 25 -51 36s-45 18 -72 21v-353c30 2 56 9 77 21s39 25 53 40l18 -59c-9 -17 -26 -34 -51 -50s-57 -26 -96 -30v-108h-75v110c-29 5 -56 14 -82 28s-48 32 -67 54s-34 47 -45 76s-16 61 -16 96
c0 34 6 66 17 95s26 55 45 77s42 40 68 54s54 23 83 28v128h75zM118 245h-2c0 -44 13 -81 38 -111s59 -50 101 -60v341c-42 -9 -75 -29 -100 -59s-37 -67 -37 -111z" />
    <glyph glyph-name="sterling" unicode="&#xa3;" horiz-adv-x="536" 
d="M260 255c0 -36 -6 -68 -19 -97s-31 -54 -54 -75h300v-83h-427v70c18 9 35 20 50 33s28 28 39 44s19 33 25 51s9 37 9 56c0 17 -2 33 -6 49h-115v83h87c-10 23 -19 47 -27 71s-12 49 -12 75c0 61 17 109 51 144s82 53 143 53c20 0 39 -3 56 -9s33 -14 47 -24
s26 -21 36 -34s18 -27 23 -42l-35 -55c-13 21 -29 39 -49 55s-47 24 -82 24c-38 0 -67 -10 -86 -30s-29 -46 -29 -78c0 -25 5 -50 14 -75s19 -50 29 -75h146v-83h-120c4 -16 6 -32 6 -48z" />
    <glyph glyph-name="currency" unicode="&#xa4;" horiz-adv-x="629" 
d="M513 620l50 -50l-78 -78c11 -18 20 -37 27 -57s11 -41 11 -62c0 -23 -3 -45 -10 -66s-16 -40 -27 -57l78 -77l-52 -52l-79 79c-17 -12 -36 -21 -56 -28s-41 -10 -63 -10c-23 0 -44 3 -64 10s-39 16 -56 28l-79 -79l-51 52l78 77c-12 17 -21 36 -28 57s-10 43 -10 66
c0 21 3 42 10 62s16 39 28 57l-78 78l51 50l79 -78c17 12 36 21 56 28s42 10 65 10c21 0 42 -3 63 -10s40 -16 57 -28zM313 492v-2c-17 0 -33 -3 -48 -9s-28 -14 -39 -25s-20 -24 -27 -39s-10 -31 -10 -48c0 -18 3 -34 10 -49s16 -28 27 -39s24 -19 39 -25s31 -9 48 -9
s33 3 48 9s28 15 39 26s20 24 27 39s10 31 10 49c0 17 -3 33 -10 48s-16 28 -27 39s-24 20 -39 26s-31 9 -48 9z" />
    <glyph glyph-name="yen" unicode="&#xa5;" horiz-adv-x="511" 
d="M64 374v72h88l-117 272h83l135 -319l137 319h86l-117 -272h92v-72h-123l-33 -78h156v-71h-156v-225h-78v225h-153v71h153l-34 78h-119z" />
    <glyph glyph-name="brokenbar" unicode="&#xa6;" horiz-adv-x="288" 
d="M184 -182h-79v326h79v-326zM184 392h-79v326h79v-326z" />
    <glyph glyph-name="section" unicode="&#xa7;" horiz-adv-x="570" 
d="M411 92l3 -2c6 -4 13 -9 20 -16s14 -15 20 -25s11 -21 15 -34s6 -27 6 -42c0 -24 -4 -46 -13 -66s-22 -37 -39 -51s-37 -24 -60 -31s-48 -11 -75 -11c-20 0 -40 3 -59 8s-37 12 -54 21s-32 20 -45 32s-23 25 -30 40l20 74c8 -12 18 -23 31 -33s27 -19 43 -27
s33 -14 51 -19s36 -7 53 -7c12 0 24 1 36 3s22 6 31 11s16 12 22 20s9 19 9 32c0 11 -3 21 -10 31s-16 20 -28 30s-25 20 -39 29l-42 27l-56 36c-17 11 -35 23 -53 36s-34 27 -48 42s-26 32 -35 50s-13 38 -13 59c0 35 9 66 26 92s39 47 66 62c-6 5 -12 11 -19 18
s-13 15 -19 24s-11 20 -15 32s-6 25 -6 39c0 24 4 46 13 65s21 35 37 48s35 23 57 30s46 11 73 11c40 0 76 -9 109 -27s57 -41 72 -69l-21 -72c-8 11 -18 21 -30 31s-25 19 -40 27s-31 14 -48 19s-34 7 -51 7c-27 0 -49 -6 -67 -17s-27 -28 -27 -51c0 -10 3 -20 9 -30
s14 -19 24 -28s22 -18 35 -27s27 -18 41 -27l62 -39c19 -12 38 -25 56 -38s34 -27 48 -42s25 -31 33 -48s12 -36 12 -57c0 -34 -8 -63 -24 -87s-38 -45 -67 -63zM347 135l-1 1c26 10 45 24 58 41s19 37 19 60c0 25 -9 46 -27 63s-41 35 -69 54l-97 62
c-24 -9 -43 -23 -57 -41s-21 -38 -21 -61c0 -25 9 -46 27 -63s41 -35 70 -54z" />
    <glyph glyph-name="dieresis" unicode="&#xa8;" horiz-adv-x="517" 
d="M107 652c0 16 6 30 17 41s25 17 41 17s30 -6 41 -17s17 -25 17 -41s-6 -30 -17 -41s-25 -17 -41 -17s-30 6 -41 17s-17 25 -17 41zM295 652c0 16 6 30 17 41s25 17 41 17s30 -6 41 -17s17 -25 17 -41s-6 -30 -17 -41s-25 -17 -41 -17s-30 6 -41 17s-17 25 -17 41z" />
    <glyph glyph-name="copyright" unicode="&#xa9;" horiz-adv-x="825" 
d="M412 729l-1 -1c51 0 99 -10 144 -29s84 -45 118 -78s61 -72 80 -117s29 -93 29 -144s-10 -99 -29 -144s-45 -84 -79 -118s-73 -60 -118 -79s-93 -29 -144 -29s-99 10 -144 29s-84 46 -117 80s-59 73 -78 118s-29 93 -29 144s10 99 29 144s45 84 78 117s72 59 117 78
s93 29 144 29zM411 40l-4 -1c45 0 87 9 126 26s74 40 104 69s53 63 70 101s26 79 26 122s-8 84 -25 123s-40 73 -70 102s-64 52 -103 69s-81 25 -126 25c-44 0 -85 -8 -124 -25s-73 -40 -103 -69s-53 -63 -70 -102s-26 -80 -26 -123s9 -84 26 -122s41 -72 71 -101
s64 -52 103 -69s81 -25 125 -25zM564 234l3 5c-14 -23 -36 -41 -66 -55s-62 -21 -97 -21c-29 0 -56 5 -82 15s-49 24 -69 42s-36 40 -48 66s-18 55 -18 87s6 61 18 87s28 48 48 67s43 33 69 43s53 15 82 15c18 0 36 -2 53 -6s32 -10 46 -17s26 -15 36 -24s18 -18 24 -28
l-20 -60c-6 8 -14 16 -24 24s-21 15 -33 21s-25 11 -39 15s-28 6 -42 6c-23 0 -44 -3 -63 -10s-35 -17 -48 -29s-23 -27 -30 -45s-11 -38 -11 -60c0 -46 14 -82 42 -107s65 -38 112 -38c14 0 28 2 42 6s27 9 39 15s23 13 33 21s17 17 22 27z" />
    <glyph glyph-name="ordfeminine" unicode="&#xaa;" horiz-adv-x="393" 
d="M262 415l-2 -1c-5 7 -14 13 -28 18s-30 7 -48 7c-23 0 -41 -4 -54 -11s-20 -16 -20 -27c0 -13 7 -23 20 -30s32 -10 56 -10c17 0 33 3 47 8s24 12 29 21v25zM54 575l-1 2c13 17 31 31 55 41s49 15 74 15c43 0 79 -11 107 -33s42 -54 42 -96v-205h-69v29
c-8 -11 -21 -20 -39 -26s-37 -9 -56 -9c-38 0 -69 9 -93 27s-36 44 -36 78c0 17 4 32 11 45s17 24 29 33s26 16 42 21s33 7 51 7c19 0 37 -2 53 -7s28 -11 35 -18v11c0 21 -7 38 -21 50s-35 18 -64 18c-21 0 -41 -4 -59 -12s-32 -19 -41 -33z" />
    <glyph glyph-name="guillemotleft" unicode="&#xab;" horiz-adv-x="519" 
d="M461 91h-81l-131 174l131 175h81l-107 -175zM249 91h-81l-131 174l131 175h81l-107 -175z" />
    <glyph glyph-name="logicalnot" unicode="&#xac;" horiz-adv-x="564" 
d="M426 365h-361v77h432v-280h-71v203z" />
    <glyph glyph-name="uni00AD" unicode="&#xad;" horiz-adv-x="464" 
d="M387 312v-77h-310v77h310z" />
    <glyph glyph-name="registered" unicode="&#xae;" horiz-adv-x="825" 
d="M412 729l-1 -1c51 0 99 -10 144 -29s84 -45 118 -78s61 -72 80 -117s29 -93 29 -144s-10 -99 -29 -144s-45 -84 -79 -118s-73 -60 -118 -79s-93 -29 -144 -29s-99 10 -144 29s-84 46 -117 80s-59 73 -78 118s-29 93 -29 144s10 99 29 144s45 84 78 117s72 59 117 78
s93 29 144 29zM411 40l-4 -1c45 0 87 9 126 26s74 40 104 69s53 63 70 101s26 79 26 122s-8 84 -25 123s-40 73 -70 102s-64 52 -103 69s-81 25 -126 25c-44 0 -85 -8 -124 -25s-73 -40 -103 -69s-53 -63 -70 -102s-26 -80 -26 -123s9 -84 26 -122s41 -72 71 -101
s64 -52 103 -69s81 -25 125 -25zM266 577h124c16 0 31 -2 46 -7s29 -12 41 -22s22 -22 29 -37s11 -33 11 -53c0 -29 -8 -53 -23 -72s-36 -32 -63 -39l102 -182h-75l-98 174h-30v-174h-64v412zM331 506l-2 -101h68c16 0 29 4 40 13s16 21 16 37c0 14 -5 26 -15 36
s-23 15 -39 15h-68z" />
    <glyph glyph-name="macron" unicode="&#xaf;" horiz-adv-x="447" 
d="M363 696v-78h-278v78h278z" />
    <glyph glyph-name="degree" unicode="&#xb0;" horiz-adv-x="413" 
d="M361 575h-2c0 -21 -4 -41 -12 -60s-19 -35 -33 -49s-30 -25 -49 -33s-39 -12 -60 -12s-41 4 -60 12s-35 19 -49 33s-25 30 -33 49s-12 39 -12 60s4 41 12 60s19 35 33 49s31 25 50 33s39 12 60 12s41 -4 60 -12s36 -19 50 -33s25 -30 33 -49s12 -39 12 -60zM292 575
c0 23 -8 42 -24 57s-37 23 -63 23s-47 -8 -63 -23s-24 -34 -24 -57s8 -42 24 -57s37 -23 63 -23s47 8 63 23s24 34 24 57z" />
    <glyph glyph-name="plusminus" unicode="&#xb1;" horiz-adv-x="533" 
d="M65 0v77h403v-77h-403zM231 395v166h71v-166h166v-77h-166v-166h-71v166h-166v77h166z" />
    <glyph glyph-name="twosuperior" unicode="&#xb2;" horiz-adv-x="326" 
d="M285 371l-2 -71h-250v56l116 123c19 21 34 38 44 52s15 30 15 47c0 15 -5 27 -16 37s-26 15 -45 15s-35 -5 -49 -15s-25 -21 -34 -34l-28 45c3 9 8 18 15 27s16 17 26 24s21 13 34 18s27 7 42 7c21 0 39 -3 54 -9s28 -14 38 -25s18 -23 23 -37s8 -28 8 -43
c0 -28 -7 -54 -21 -78s-34 -49 -59 -76l-61 -63h150z" />
    <glyph glyph-name="threesuperior" unicode="&#xb3;" horiz-adv-x="326" 
d="M151 363l-1 -2c23 0 41 6 54 17s20 26 20 45c0 16 -6 29 -19 40s-31 16 -54 16c-9 0 -17 -1 -25 -3s-14 -4 -19 -6l-11 49l84 101h-129v72h216v-50l-82 -101c12 -1 24 -4 36 -9s23 -12 33 -22s18 -22 25 -36s10 -31 10 -50c0 -18 -3 -35 -10 -51s-16 -30 -28 -42
s-27 -21 -45 -28s-37 -10 -58 -10c-14 0 -27 2 -40 6s-25 9 -35 15s-19 13 -27 20s-13 14 -16 21l14 57c22 -33 58 -49 107 -49z" />
    <glyph glyph-name="acute" unicode="&#xb4;" horiz-adv-x="346" 
d="M263 723l-106 -143h-74l62 143h118z" />
    <glyph glyph-name="mu" unicode="&#xb5;" horiz-adv-x="591" 
d="M294 -11l-2 -1c-25 0 -49 4 -72 12s-44 20 -63 36v-249h-74v705h74v-275c0 -47 12 -83 37 -109s57 -39 97 -39c17 0 33 3 49 8s30 12 43 21s24 20 33 32s15 25 18 39v323h74v-492h-72v60c-7 -19 -23 -36 -49 -50s-57 -21 -93 -21z" />
    <glyph glyph-name="paragraph" unicode="&#xb6;" horiz-adv-x="675" 
d="M608 718v-83h-86v-803h-78v803h-88v-803h-78v508c-31 0 -60 5 -86 14s-49 22 -68 39s-34 37 -45 60s-16 48 -16 75c0 28 5 54 14 77s22 43 39 60s37 30 60 39s48 14 75 14h357z" />
    <glyph glyph-name="periodcentered" unicode="&#xb7;" horiz-adv-x="296" 
d="M82 255l-4 -4c0 18 7 34 20 47s29 20 47 20s34 -6 47 -19s20 -28 20 -46s-6 -33 -19 -46s-28 -19 -46 -19s-33 7 -46 20s-19 29 -19 47z" />
    <glyph glyph-name="cedilla" unicode="&#xb8;" horiz-adv-x="421" 
d="M208 -47l-2 1c13 -1 25 -3 37 -7s23 -9 32 -16s17 -16 23 -26s9 -21 9 -34c0 -28 -10 -50 -31 -66s-46 -24 -76 -24c-21 0 -42 4 -62 13s-36 20 -47 33l11 52c26 -21 56 -32 89 -32c13 0 24 3 32 8s12 12 12 21s-4 16 -12 21s-18 8 -30 8c-6 0 -12 0 -17 -1
s-11 -2 -17 -4l-18 32l25 82h60l-18 -61v0z" />
    <glyph glyph-name="onesuperior" unicode="&#xb9;" horiz-adv-x="261" 
d="M45 621l96 74h52v-395h-65v307l-83 -55v69z" />
    <glyph glyph-name="ordmasculine" unicode="&#xba;" horiz-adv-x="430" 
d="M388 463h-2c0 -25 -5 -48 -14 -69s-22 -39 -38 -54s-34 -27 -55 -36s-43 -13 -66 -13s-45 4 -66 13s-39 21 -55 36s-29 33 -38 54s-14 44 -14 69s5 48 14 69s22 39 38 54s35 27 56 36s43 13 66 13s45 -4 66 -13s40 -21 56 -36s29 -33 38 -54s14 -44 14 -69zM315 463h-2
c0 28 -10 51 -30 68s-44 26 -73 26s-53 -9 -73 -26s-30 -40 -30 -68s10 -51 30 -68s45 -26 74 -26s54 9 74 26s30 40 30 68z" />
    <glyph glyph-name="guillemotright" unicode="&#xbb;" horiz-adv-x="529" 
d="M351 91h-81l107 174l-107 175h81l131 -175zM139 91h-81l107 174l-107 175h81l131 -175z" />
    <glyph glyph-name="onequarter" unicode="&#xbc;" horiz-adv-x="705" 
d="M180 0h-76l428 718h75zM45 621l96 74h52v-395h-65v307l-83 -55v69zM575 395h60v-214h46v-67h-46v-114h-66v114h-163v56zM569 181v117l-87 -117h87z" />
    <glyph glyph-name="onehalf" unicode="&#xbd;" horiz-adv-x="756" 
d="M180 0h-76l428 718h75zM45 621l96 74h52v-395h-65v307l-83 -55v69zM716 71l-2 -71h-250v56l116 123c19 21 34 38 44 52s15 30 15 47c0 15 -5 27 -16 37s-26 15 -45 15s-35 -5 -49 -15s-25 -21 -34 -34l-28 45c3 9 8 18 15 27s16 17 26 24s21 13 34 18s27 7 42 7
c21 0 39 -3 54 -9s28 -14 38 -25s18 -23 23 -37s8 -28 8 -43c0 -28 -7 -54 -21 -78s-34 -49 -59 -76l-61 -63h150z" />
    <glyph glyph-name="threequarters" unicode="&#xbe;" horiz-adv-x="756" 
d="M231 0h-76l428 718h75zM626 395h60v-214h46v-67h-46v-114h-66v114h-163v56zM620 181v117l-87 -117h87zM151 363l-1 -2c23 0 41 6 54 17s20 26 20 45c0 16 -6 29 -19 40s-31 16 -54 16c-9 0 -17 -1 -25 -3s-14 -4 -19 -6l-11 49l84 101h-129v72h216v-50l-82 -101
c12 -1 24 -4 36 -9s23 -12 33 -22s18 -22 25 -36s10 -31 10 -50c0 -18 -3 -35 -10 -51s-16 -30 -28 -42s-27 -21 -45 -28s-37 -10 -58 -10c-14 0 -27 2 -40 6s-25 9 -35 15s-19 13 -27 20s-13 14 -16 21l14 57c22 -33 58 -49 107 -49z" />
    <glyph glyph-name="questiondown" unicode="&#xbf;" horiz-adv-x="465" 
d="M307 437c0 -18 -6 -33 -19 -46s-28 -19 -46 -19s-33 6 -46 19s-19 28 -19 46s6 33 19 46s28 19 46 19s33 -6 46 -19s19 -28 19 -46zM398 -142l3 2c-5 -13 -13 -25 -23 -37s-22 -22 -36 -31s-29 -16 -46 -21s-34 -7 -52 -7c-27 0 -50 4 -70 11s-37 17 -51 30
s-24 28 -31 45s-10 35 -10 54c0 21 3 39 10 54s16 29 27 42s24 24 39 34s30 20 46 30c22 14 41 28 58 42s25 30 25 48c0 13 -5 24 -16 33s-26 14 -45 14c-21 0 -39 -4 -55 -13s-32 -22 -49 -39l-13 70c3 7 8 15 15 23s16 15 27 22s23 12 37 16s29 6 46 6c20 0 38 -3 54 -10
s30 -16 41 -28s20 -25 26 -40s9 -31 9 -48c0 -27 -8 -53 -25 -79s-48 -53 -93 -82c-29 -19 -51 -35 -66 -48s-22 -28 -22 -45s7 -30 20 -40s33 -15 60 -15c26 0 51 6 75 18s46 31 66 56z" />
    <glyph glyph-name="Agrave" unicode="&#xc0;" horiz-adv-x="668" 
d="M655 0h-84l-68 174h-338l-67 -174h-84l281 718h81zM198 257h273l-137 350zM311 905l63 -133h-81l-105 133h123z" />
    <glyph glyph-name="Aacute" unicode="&#xc1;" horiz-adv-x="668" 
d="M655 0h-84l-68 174h-338l-67 -174h-84l281 718h81zM198 257h273l-137 350zM490 905l-106 -133h-80l63 133h123z" />
    <glyph glyph-name="Acircumflex" unicode="&#xc2;" horiz-adv-x="668" 
d="M655 0h-84l-68 174h-338l-67 -174h-84l281 718h81zM198 257h273l-137 350zM390 905l71 -133h-71l-56 60l-56 -60h-71l71 133h112z" />
    <glyph glyph-name="Atilde" unicode="&#xc3;" horiz-adv-x="668" 
d="M655 0h-84l-68 174h-338l-67 -174h-84l281 718h81zM198 257h273l-137 350zM183 781v-1c-3 7 -5 15 -7 23s-3 16 -3 24c0 25 8 45 24 60s36 23 59 23c15 0 29 -3 42 -9s25 -12 36 -19s22 -13 33 -19s22 -9 33 -9s20 3 26 10s9 17 9 30v7c0 2 0 5 -1 8h49
c6 -16 9 -31 9 -46c0 -26 -8 -46 -24 -61s-35 -22 -58 -22c-15 0 -29 3 -42 9s-25 12 -37 19s-23 13 -34 19s-21 9 -31 9c-11 0 -20 -3 -26 -10s-9 -17 -9 -30v-7c0 -2 0 -5 1 -8h-49z" />
    <glyph glyph-name="Adieresis" unicode="&#xc4;" horiz-adv-x="668" 
d="M655 0h-84l-68 174h-338l-67 -174h-84l281 718h81zM198 257h273l-137 350zM172 842c0 18 6 33 18 45s27 18 45 18s33 -6 45 -18s18 -27 18 -45s-6 -33 -18 -45s-27 -18 -45 -18s-33 6 -45 18s-18 27 -18 45zM371 842c0 18 6 33 18 45s27 18 45 18s33 -6 45 -18
s18 -27 18 -45s-6 -33 -18 -45s-27 -18 -45 -18s-33 6 -45 18s-18 27 -18 45z" />
    <glyph glyph-name="Aring" unicode="&#xc5;" horiz-adv-x="668" 
d="M655 0h-84l-68 174h-338l-67 -174h-84l281 718h81zM198 257h273l-137 350zM233 860c0 15 3 29 8 41s12 23 21 32s20 16 32 21s25 8 39 8c29 0 53 -10 73 -29s30 -43 30 -72s-10 -53 -30 -73s-44 -30 -73 -30c-14 0 -27 3 -39 8s-23 12 -32 21s-16 20 -21 33s-8 26 -8 40z
M288 860h-1c0 -13 4 -24 13 -32s20 -12 33 -12s24 4 33 12s14 19 14 32s-4 24 -13 32s-20 12 -33 12s-24 -4 -33 -12s-13 -19 -13 -32z" />
    <glyph glyph-name="AE" unicode="&#xc6;" horiz-adv-x="906" 
d="M846 635h-301v-224h271v-83h-271v-245h301v-83h-379v174h-280l-103 -174h-92l430 718h424v-83zM467 257v383l-230 -383h230z" />
    <glyph glyph-name="Ccedilla" unicode="&#xc7;" horiz-adv-x="698" 
d="M380 -47l-9 3c13 -1 25 -3 37 -7s23 -9 32 -16s17 -16 23 -26s9 -21 9 -34c0 -28 -10 -50 -31 -66s-46 -24 -76 -24c-21 0 -42 4 -62 13s-36 20 -47 33l11 52c26 -21 56 -32 89 -32c13 0 24 3 32 8s12 12 12 21s-4 16 -12 21s-18 8 -30 8c-6 0 -12 0 -17 -1
s-11 -2 -17 -4l-18 32l19 62c-40 6 -78 19 -113 39s-66 46 -92 77s-47 68 -62 110s-22 88 -22 139c0 56 9 107 28 153s44 85 76 117s69 57 111 74s86 26 133 26c32 0 62 -4 91 -12s55 -18 79 -31s44 -28 61 -45s29 -34 37 -51l-23 -71c-27 39 -61 70 -102 92s-88 33 -141 33
c-40 0 -77 -7 -110 -21s-61 -33 -85 -58s-42 -55 -55 -90s-19 -74 -19 -117s7 -82 20 -117s31 -65 55 -90s53 -44 86 -58s70 -21 110 -21c55 0 104 12 146 36s76 54 101 90l23 -69c-9 -19 -22 -37 -39 -54s-37 -32 -60 -45s-49 -23 -78 -31s-59 -12 -91 -12l-10 -36v0z" />
    <glyph glyph-name="Egrave" unicode="&#xc8;" horiz-adv-x="531" 
d="M92 718h379v-83h-301v-224h271v-83h-271v-245h301v-83h-379v718zM286 905l63 -133h-81l-105 133h123z" />
    <glyph glyph-name="Eacute" unicode="&#xc9;" horiz-adv-x="531" 
d="M92 718h379v-83h-301v-224h271v-83h-271v-245h301v-83h-379v718zM408 905l-106 -133h-80l63 133h123z" />
    <glyph glyph-name="Ecircumflex" unicode="&#xca;" horiz-adv-x="531" 
d="M92 718h379v-83h-301v-224h271v-83h-271v-245h301v-83h-379v718zM342 905l71 -133h-71l-56 60l-56 -60h-71l71 133h112z" />
    <glyph glyph-name="Edieresis" unicode="&#xcb;" horiz-adv-x="531" 
d="M92 718h379v-83h-301v-224h271v-83h-271v-245h301v-83h-379v718zM124 842c0 18 6 33 18 45s27 18 45 18s33 -6 45 -18s18 -27 18 -45s-6 -33 -18 -45s-27 -18 -45 -18s-33 6 -45 18s-18 27 -18 45zM323 842c0 18 6 33 18 45s27 18 45 18s33 -6 45 -18s18 -27 18 -45
s-6 -33 -18 -45s-27 -18 -45 -18s-33 6 -45 18s-18 27 -18 45z" />
    <glyph glyph-name="Igrave" unicode="&#xcc;" horiz-adv-x="262" 
d="M92 718h78v-718h-78v718zM107 905l63 -133h-81l-105 133h123z" />
    <glyph glyph-name="Iacute" unicode="&#xcd;" horiz-adv-x="262" 
d="M92 718h78v-718h-78v718zM280 905l-106 -133h-80l63 133h123z" />
    <glyph glyph-name="Icircumflex" unicode="&#xce;" horiz-adv-x="262" 
d="M92 718h78v-718h-78v718zM188 905l71 -133h-71l-56 60l-56 -60h-71l71 133h112z" />
    <glyph glyph-name="Idieresis" unicode="&#xcf;" horiz-adv-x="262" 
d="M92 718h78v-718h-78v718zM-30 842c0 18 6 33 18 45s27 18 45 18s33 -6 45 -18s18 -27 18 -45s-6 -33 -18 -45s-27 -18 -45 -18s-33 6 -45 18s-18 27 -18 45zM169 842c0 18 6 33 18 45s27 18 45 18s33 -6 45 -18s18 -27 18 -45s-6 -33 -18 -45s-27 -18 -45 -18
s-33 6 -45 18s-18 27 -18 45z" />
    <glyph glyph-name="Eth" unicode="&#xd0;" horiz-adv-x="741" 
d="M316 718v-3c55 0 106 -8 153 -24s87 -39 121 -69s61 -67 80 -112s29 -96 29 -153s-10 -107 -29 -151s-46 -81 -80 -112s-74 -54 -121 -70s-98 -24 -153 -24h-221v328h-86v83h86v307h221zM621 356l1 1c0 39 -7 75 -20 108s-32 62 -56 87s-53 45 -87 59s-71 21 -112 21
h-174v-224h188v-83h-188v-245h174c39 0 75 7 109 20s63 32 87 56s43 53 57 87s21 72 21 113z" />
    <glyph glyph-name="Ntilde" unicode="&#xd1;" horiz-adv-x="756" 
d="M92 718h89l405 -598v598h78v-718h-89l-405 595v-595h-78v718zM227 781v-1c-3 7 -5 15 -7 23s-3 16 -3 24c0 25 8 45 24 60s36 23 59 23c15 0 29 -3 42 -9s25 -12 36 -19s22 -13 33 -19s22 -9 33 -9s20 3 26 10s9 17 9 30v7c0 2 0 5 -1 8h49c6 -16 9 -31 9 -46
c0 -26 -8 -46 -24 -61s-35 -22 -58 -22c-15 0 -29 3 -42 9s-25 12 -37 19s-23 13 -34 19s-21 9 -31 9c-11 0 -20 -3 -26 -10s-9 -17 -9 -30v-7c0 -2 0 -5 1 -8h-49z" />
    <glyph glyph-name="Ograve" unicode="&#xd2;" horiz-adv-x="790" 
d="M395 -11l-4 -2c-47 0 -92 10 -135 29s-80 45 -112 78s-58 72 -77 117s-28 94 -28 147s10 102 29 147s45 84 77 117s70 59 113 78s88 29 135 29s92 -9 135 -28s81 -45 113 -78s58 -72 77 -117s29 -94 29 -147s-9 -102 -28 -147s-45 -84 -77 -117s-69 -59 -112 -78
s-88 -28 -135 -28zM391 643c-39 0 -75 -7 -109 -21s-63 -34 -88 -59s-44 -55 -58 -90s-21 -73 -21 -114s7 -79 21 -114s33 -65 58 -90s54 -45 88 -59s70 -21 109 -21s75 7 109 21s63 34 88 59s44 55 58 90s21 73 21 114s-7 79 -21 114s-33 65 -58 90s-54 45 -88 59
s-70 21 -109 21zM378 903l63 -133h-81l-105 133h123z" />
    <glyph glyph-name="Oacute" unicode="&#xd3;" horiz-adv-x="790" 
d="M395 -11l-4 -2c-47 0 -92 10 -135 29s-80 45 -112 78s-58 72 -77 117s-28 94 -28 147s10 102 29 147s45 84 77 117s70 59 113 78s88 29 135 29s92 -9 135 -28s81 -45 113 -78s58 -72 77 -117s29 -94 29 -147s-9 -102 -28 -147s-45 -84 -77 -117s-69 -59 -112 -78
s-88 -28 -135 -28zM391 643c-39 0 -75 -7 -109 -21s-63 -34 -88 -59s-44 -55 -58 -90s-21 -73 -21 -114s7 -79 21 -114s33 -65 58 -90s54 -45 88 -59s70 -21 109 -21s75 7 109 21s63 34 88 59s44 55 58 90s21 73 21 114s-7 79 -21 114s-33 65 -58 90s-54 45 -88 59
s-70 21 -109 21zM526 903l-106 -133h-80l63 133h123z" />
    <glyph glyph-name="Ocircumflex" unicode="&#xd4;" horiz-adv-x="790" 
d="M395 -11l-4 -2c-47 0 -92 10 -135 29s-80 45 -112 78s-58 72 -77 117s-28 94 -28 147s10 102 29 147s45 84 77 117s70 59 113 78s88 29 135 29s92 -9 135 -28s81 -45 113 -78s58 -72 77 -117s29 -94 29 -147s-9 -102 -28 -147s-45 -84 -77 -117s-69 -59 -112 -78
s-88 -28 -135 -28zM391 643c-39 0 -75 -7 -109 -21s-63 -34 -88 -59s-44 -55 -58 -90s-21 -73 -21 -114s7 -79 21 -114s33 -65 58 -90s54 -45 88 -59s70 -21 109 -21s75 7 109 21s63 34 88 59s44 55 58 90s21 73 21 114s-7 79 -21 114s-33 65 -58 90s-54 45 -88 59
s-70 21 -109 21zM447 903l71 -133h-71l-56 60l-56 -60h-71l71 133h112z" />
    <glyph glyph-name="Otilde" unicode="&#xd5;" horiz-adv-x="790" 
d="M395 -11l-4 -2c-47 0 -92 10 -135 29s-80 45 -112 78s-58 72 -77 117s-28 94 -28 147s10 102 29 147s45 84 77 117s70 59 113 78s88 29 135 29s92 -9 135 -28s81 -45 113 -78s58 -72 77 -117s29 -94 29 -147s-9 -102 -28 -147s-45 -84 -77 -117s-69 -59 -112 -78
s-88 -28 -135 -28zM391 643c-39 0 -75 -7 -109 -21s-63 -34 -88 -59s-44 -55 -58 -90s-21 -73 -21 -114s7 -79 21 -114s33 -65 58 -90s54 -45 88 -59s70 -21 109 -21s75 7 109 21s63 34 88 59s44 55 58 90s21 73 21 114s-7 79 -21 114s-33 65 -58 90s-54 45 -88 59
s-70 21 -109 21zM240 779v-1c-3 7 -5 15 -7 23s-3 16 -3 24c0 25 8 45 24 60s36 23 59 23c15 0 29 -3 42 -9s25 -12 36 -19s22 -13 33 -19s22 -9 33 -9s20 3 26 10s9 17 9 30v7c0 2 0 5 -1 8h49c6 -16 9 -31 9 -46c0 -26 -8 -46 -24 -61s-35 -22 -58 -22c-15 0 -29 3 -42 9
s-25 12 -37 19s-23 13 -34 19s-21 9 -31 9c-11 0 -20 -3 -26 -10s-9 -17 -9 -30v-7c0 -2 0 -5 1 -8h-49z" />
    <glyph glyph-name="Odieresis" unicode="&#xd6;" horiz-adv-x="790" 
d="M395 -11l-4 -2c-47 0 -92 10 -135 29s-80 45 -112 78s-58 72 -77 117s-28 94 -28 147s10 102 29 147s45 84 77 117s70 59 113 78s88 29 135 29s92 -9 135 -28s81 -45 113 -78s58 -72 77 -117s29 -94 29 -147s-9 -102 -28 -147s-45 -84 -77 -117s-69 -59 -112 -78
s-88 -28 -135 -28zM391 643c-39 0 -75 -7 -109 -21s-63 -34 -88 -59s-44 -55 -58 -90s-21 -73 -21 -114s7 -79 21 -114s33 -65 58 -90s54 -45 88 -59s70 -21 109 -21s75 7 109 21s63 34 88 59s44 55 58 90s21 73 21 114s-7 79 -21 114s-33 65 -58 90s-54 45 -88 59
s-70 21 -109 21zM231 840c0 18 6 33 18 45s27 18 45 18s33 -6 45 -18s18 -27 18 -45s-6 -33 -18 -45s-27 -18 -45 -18s-33 6 -45 18s-18 27 -18 45zM430 840c0 18 6 33 18 45s27 18 45 18s33 -6 45 -18s18 -27 18 -45s-6 -33 -18 -45s-27 -18 -45 -18s-33 6 -45 18
s-18 27 -18 45z" />
    <glyph glyph-name="multiply" unicode="&#xd7;" horiz-adv-x="506" 
d="M253 344l136 136l52 -52l-136 -136l136 -136l-52 -52l-136 136l-136 -136l-52 52l136 136l-136 136l52 52z" />
    <glyph glyph-name="Oslash" unicode="&#xd8;" horiz-adv-x="800" 
d="M400 -11l-4 -2c-38 0 -74 6 -108 18s-66 29 -96 50l-57 -68h-100l101 120c-29 33 -52 71 -68 113s-24 88 -24 137c0 53 10 102 29 147s45 84 77 117s70 59 113 78s88 29 135 29c38 0 74 -6 108 -18s66 -29 96 -51l58 69h99l-101 -120c29 -33 52 -70 69 -112
s25 -88 25 -137c0 -53 -9 -102 -28 -147s-45 -84 -77 -117s-69 -59 -112 -78s-88 -28 -135 -28zM396 643l2 -2c-39 0 -75 -7 -109 -21s-63 -34 -88 -59s-44 -55 -58 -90s-21 -73 -21 -114c0 -38 6 -73 17 -105s27 -60 48 -85l363 430c-22 15 -46 26 -72 34s-53 12 -82 12z
M673 355v1c0 38 -6 73 -18 105s-28 61 -49 86l-362 -431c45 -30 96 -45 153 -45c39 0 75 7 109 21s63 34 88 59s44 55 58 90s21 73 21 114z" />
    <glyph glyph-name="Ugrave" unicode="&#xd9;" horiz-adv-x="736" 
d="M571 718l79 3v-430c0 -43 -6 -83 -19 -120s-32 -69 -57 -96s-55 -48 -90 -63s-74 -22 -117 -22c-42 0 -80 7 -115 21s-65 34 -90 60s-44 57 -57 94s-20 78 -20 123v431h78v-434c0 -32 5 -61 15 -87s24 -48 42 -66s40 -32 65 -42s53 -15 83 -15c31 0 59 5 84 15
s46 24 63 42s31 40 41 66s15 55 15 87v433zM366 908l63 -133h-81l-105 133h123z" />
    <glyph glyph-name="Uacute" unicode="&#xda;" horiz-adv-x="736" 
d="M571 718l79 3v-430c0 -43 -6 -83 -19 -120s-32 -69 -57 -96s-55 -48 -90 -63s-74 -22 -117 -22c-42 0 -80 7 -115 21s-65 34 -90 60s-44 57 -57 94s-20 78 -20 123v431h78v-434c0 -32 5 -61 15 -87s24 -48 42 -66s40 -32 65 -42s53 -15 83 -15c31 0 59 5 84 15
s46 24 63 42s31 40 41 66s15 55 15 87v433zM495 908l-106 -133h-80l63 133h123z" />
    <glyph glyph-name="Ucircumflex" unicode="&#xdb;" horiz-adv-x="736" 
d="M571 718l79 3v-430c0 -43 -6 -83 -19 -120s-32 -69 -57 -96s-55 -48 -90 -63s-74 -22 -117 -22c-42 0 -80 7 -115 21s-65 34 -90 60s-44 57 -57 94s-20 78 -20 123v431h78v-434c0 -32 5 -61 15 -87s24 -48 42 -66s40 -32 65 -42s53 -15 83 -15c31 0 59 5 84 15
s46 24 63 42s31 40 41 66s15 55 15 87v433zM425 908l71 -133h-71l-56 60l-56 -60h-71l71 133h112z" />
    <glyph glyph-name="Udieresis" unicode="&#xdc;" horiz-adv-x="736" 
d="M571 718l79 3v-430c0 -43 -6 -83 -19 -120s-32 -69 -57 -96s-55 -48 -90 -63s-74 -22 -117 -22c-42 0 -80 7 -115 21s-65 34 -90 60s-44 57 -57 94s-20 78 -20 123v431h78v-434c0 -32 5 -61 15 -87s24 -48 42 -66s40 -32 65 -42s53 -15 83 -15c31 0 59 5 84 15
s46 24 63 42s31 40 41 66s15 55 15 87v433zM207 845c0 18 6 33 18 45s27 18 45 18s33 -6 45 -18s18 -27 18 -45s-6 -33 -18 -45s-27 -18 -45 -18s-33 6 -45 18s-18 27 -18 45zM406 845c0 18 6 33 18 45s27 18 45 18s33 -6 45 -18s18 -27 18 -45s-6 -33 -18 -45
s-27 -18 -45 -18s-33 6 -45 18s-18 27 -18 45z" />
    <glyph glyph-name="Yacute" unicode="&#xdd;" horiz-adv-x="542" 
d="M9 718h89l171 -325l171 325h92l-221 -420v-298h-78v298zM410 905l-106 -133h-80l63 133h123z" />
    <glyph glyph-name="Thorn" unicode="&#xde;" horiz-adv-x="545" 
d="M170 718l-1 -147h120c31 0 60 -5 87 -15s51 -24 71 -43s36 -41 47 -67s17 -55 17 -88c0 -32 -5 -61 -16 -87s-26 -49 -45 -68s-42 -34 -69 -44s-57 -15 -90 -15h-121v-144h-78v718h78zM169 488l-1 -266h135c19 0 36 4 52 11s30 17 41 29s20 26 26 42s9 33 9 51
s-3 35 -9 51s-15 30 -26 42s-24 22 -40 29s-33 11 -52 11h-135z" />
    <glyph glyph-name="germandbls" unicode="&#xdf;" 
d="M420 413h-1c39 -18 70 -45 93 -80s34 -75 34 -120c0 -31 -5 -60 -16 -87s-26 -51 -46 -71s-43 -36 -70 -48s-56 -18 -88 -18c-27 0 -52 5 -75 15s-38 22 -46 36l19 59c11 -10 25 -17 43 -22s36 -7 55 -7c21 0 41 4 59 11s34 17 47 30s23 28 30 45s11 36 11 57
c0 22 -4 42 -13 60s-21 33 -36 45s-32 22 -52 29s-41 10 -63 10h-47v78h17c39 0 70 10 93 31s35 48 35 82c0 31 -11 57 -32 78s-50 32 -86 32c-43 0 -75 -13 -96 -39s-31 -59 -31 -99v-522h-74v524c0 31 5 59 14 85s22 49 39 68s38 34 62 45s52 17 83 17c29 0 55 -5 79 -15
s45 -24 62 -41s31 -37 41 -60s15 -48 15 -74c0 -27 -5 -52 -15 -75s-25 -43 -44 -59z" />
    <glyph glyph-name="agrave" unicode="&#xe0;" horiz-adv-x="544" 
d="M255 503v-1c30 0 58 -4 84 -12s48 -20 66 -36s33 -36 44 -60s16 -51 16 -82v-312h-72v47c-13 -17 -33 -31 -60 -42s-56 -16 -87 -16c-61 0 -109 14 -144 43s-52 68 -52 118c0 24 5 46 15 65s24 36 42 50s39 24 63 31s50 11 78 11c9 0 20 -1 32 -2s25 -3 38 -7
s26 -9 39 -15s24 -13 33 -22v31c0 45 -13 78 -40 99s-60 32 -100 32c-31 0 -60 -6 -87 -19s-48 -29 -63 -48l-20 66c7 11 16 22 28 32s26 19 41 26s32 13 50 17s37 6 56 6zM390 174v2c-9 17 -26 30 -52 38s-54 12 -85 12c-40 0 -71 -7 -94 -21s-34 -32 -34 -55
s11 -42 33 -58s54 -24 97 -24c31 0 59 6 84 17s42 26 51 44v45zM268 724l63 -143h-75l-105 143h117z" />
    <glyph glyph-name="aacute" unicode="&#xe1;" horiz-adv-x="544" 
d="M255 503v-1c30 0 58 -4 84 -12s48 -20 66 -36s33 -36 44 -60s16 -51 16 -82v-312h-72v47c-13 -17 -33 -31 -60 -42s-56 -16 -87 -16c-61 0 -109 14 -144 43s-52 68 -52 118c0 24 5 46 15 65s24 36 42 50s39 24 63 31s50 11 78 11c9 0 20 -1 32 -2s25 -3 38 -7
s26 -9 39 -15s24 -13 33 -22v31c0 45 -13 78 -40 99s-60 32 -100 32c-31 0 -60 -6 -87 -19s-48 -29 -63 -48l-20 66c7 11 16 22 28 32s26 19 41 26s32 13 50 17s37 6 56 6zM390 174v2c-9 17 -26 30 -52 38s-54 12 -85 12c-40 0 -71 -7 -94 -21s-34 -32 -34 -55
s11 -42 33 -58s54 -24 97 -24c31 0 59 6 84 17s42 26 51 44v45zM394 724l-106 -143h-74l62 143h118z" />
    <glyph glyph-name="acircumflex" unicode="&#xe2;" horiz-adv-x="544" 
d="M255 503v-1c30 0 58 -4 84 -12s48 -20 66 -36s33 -36 44 -60s16 -51 16 -82v-312h-72v47c-13 -17 -33 -31 -60 -42s-56 -16 -87 -16c-61 0 -109 14 -144 43s-52 68 -52 118c0 24 5 46 15 65s24 36 42 50s39 24 63 31s50 11 78 11c9 0 20 -1 32 -2s25 -3 38 -7
s26 -9 39 -15s24 -13 33 -22v31c0 45 -13 78 -40 99s-60 32 -100 32c-31 0 -60 -6 -87 -19s-48 -29 -63 -48l-20 66c7 11 16 22 28 32s26 19 41 26s32 13 50 17s37 6 56 6zM390 174v2c-9 17 -26 30 -52 38s-54 12 -85 12c-40 0 -71 -7 -94 -21s-34 -32 -34 -55
s11 -42 33 -58s54 -24 97 -24c31 0 59 6 84 17s42 26 51 44v45zM327 724l71 -143h-74l-56 70l-56 -70h-74l71 143h118z" />
    <glyph glyph-name="atilde" unicode="&#xe3;" horiz-adv-x="544" 
d="M255 503v-1c30 0 58 -4 84 -12s48 -20 66 -36s33 -36 44 -60s16 -51 16 -82v-312h-72v47c-13 -17 -33 -31 -60 -42s-56 -16 -87 -16c-61 0 -109 14 -144 43s-52 68 -52 118c0 24 5 46 15 65s24 36 42 50s39 24 63 31s50 11 78 11c9 0 20 -1 32 -2s25 -3 38 -7
s26 -9 39 -15s24 -13 33 -22v31c0 45 -13 78 -40 99s-60 32 -100 32c-31 0 -60 -6 -87 -19s-48 -29 -63 -48l-20 66c7 11 16 22 28 32s26 19 41 26s32 13 50 17s37 6 56 6zM390 174v2c-9 17 -26 30 -52 38s-54 12 -85 12c-40 0 -71 -7 -94 -21s-34 -32 -34 -55
s11 -42 33 -58s54 -24 97 -24c31 0 59 6 84 17s42 26 51 44v45zM123 584l-2 -2c-3 7 -5 15 -7 23s-3 16 -3 24c0 25 8 46 24 62s36 24 59 24c15 0 29 -3 42 -9s25 -12 36 -19s21 -13 31 -19s19 -9 27 -9c21 0 31 13 31 39v7c0 2 0 5 -1 8h53c6 -16 9 -31 9 -46
c0 -26 -8 -47 -24 -62s-35 -23 -58 -23c-15 0 -29 3 -42 9s-25 12 -36 19s-21 13 -30 19s-18 9 -26 9c-21 0 -31 -13 -31 -39v-7c0 -2 0 -5 1 -8h-53z" />
    <glyph glyph-name="adieresis" unicode="&#xe4;" horiz-adv-x="544" 
d="M255 503v-1c30 0 58 -4 84 -12s48 -20 66 -36s33 -36 44 -60s16 -51 16 -82v-312h-72v47c-13 -17 -33 -31 -60 -42s-56 -16 -87 -16c-61 0 -109 14 -144 43s-52 68 -52 118c0 24 5 46 15 65s24 36 42 50s39 24 63 31s50 11 78 11c9 0 20 -1 32 -2s25 -3 38 -7
s26 -9 39 -15s24 -13 33 -22v31c0 45 -13 78 -40 99s-60 32 -100 32c-31 0 -60 -6 -87 -19s-48 -29 -63 -48l-20 66c7 11 16 22 28 32s26 19 41 26s32 13 50 17s37 6 56 6zM390 174v2c-9 17 -26 30 -52 38s-54 12 -85 12c-40 0 -71 -7 -94 -21s-34 -32 -34 -55
s11 -42 33 -58s54 -24 97 -24c31 0 59 6 84 17s42 26 51 44v45zM116 653c0 16 6 30 17 41s25 17 41 17s30 -6 41 -17s17 -25 17 -41s-6 -30 -17 -41s-25 -17 -41 -17s-30 6 -41 17s-17 25 -17 41zM304 653c0 16 6 30 17 41s25 17 41 17s30 -6 41 -17s17 -25 17 -41
s-6 -30 -17 -41s-25 -17 -41 -17s-30 6 -41 17s-17 25 -17 41z" />
    <glyph glyph-name="aring" unicode="&#xe5;" horiz-adv-x="544" 
d="M255 503v-1c30 0 58 -4 84 -12s48 -20 66 -36s33 -36 44 -60s16 -51 16 -82v-312h-72v47c-13 -17 -33 -31 -60 -42s-56 -16 -87 -16c-61 0 -109 14 -144 43s-52 68 -52 118c0 24 5 46 15 65s24 36 42 50s39 24 63 31s50 11 78 11c9 0 20 -1 32 -2s25 -3 38 -7
s26 -9 39 -15s24 -13 33 -22v31c0 45 -13 78 -40 99s-60 32 -100 32c-31 0 -60 -6 -87 -19s-48 -29 -63 -48l-20 66c7 11 16 22 28 32s26 19 41 26s32 13 50 17s37 6 56 6zM390 174v2c-9 17 -26 30 -52 38s-54 12 -85 12c-40 0 -71 -7 -94 -21s-34 -32 -34 -55
s11 -42 33 -58s54 -24 97 -24c31 0 59 6 84 17s42 26 51 44v45zM166 661c0 29 10 53 29 72s43 29 72 29s53 -10 72 -29s29 -43 29 -72s-10 -53 -29 -72s-43 -29 -72 -29s-53 10 -72 29s-29 43 -29 72zM267 705c-13 0 -24 -4 -33 -12s-13 -19 -13 -32s4 -24 13 -32
s20 -12 33 -12s24 4 33 12s13 19 13 32s-4 24 -13 32s-20 12 -33 12z" />
    <glyph glyph-name="ae" unicode="&#xe6;" horiz-adv-x="910" 
d="M859 255l-3 -2c0 -11 -1 -22 -3 -34h-391c5 -51 24 -88 57 -112s73 -36 120 -36c36 0 67 5 93 16s49 27 69 48l14 -65c-5 -11 -13 -22 -24 -32s-24 -19 -40 -26s-33 -13 -52 -18s-39 -7 -60 -7c-42 0 -80 8 -115 24s-64 39 -87 69c-25 -33 -54 -57 -87 -72
s-67 -22 -102 -22c-63 0 -112 14 -148 42s-54 67 -54 118c0 25 5 47 15 67s24 37 42 50s39 23 63 30s50 11 78 11c9 0 20 -1 32 -2s25 -3 38 -6s26 -7 39 -13s24 -13 33 -22v30c0 25 -4 46 -12 63s-19 30 -33 40s-29 17 -46 21s-34 6 -52 6c-30 0 -58 -6 -84 -18
s-46 -28 -61 -47l-19 64c7 11 16 22 28 32s26 19 41 26s32 13 50 17s37 6 56 6c41 0 78 -8 111 -23s58 -38 75 -69c21 29 48 52 80 69s69 25 110 25c34 0 65 -6 93 -19s52 -31 72 -54s36 -49 47 -79s17 -62 17 -96zM387 174v-1c-9 17 -26 30 -52 38s-54 12 -85 12
c-40 0 -71 -7 -94 -21s-34 -34 -34 -60c0 -23 11 -41 33 -55s54 -21 97 -21c31 0 59 7 84 20s42 29 51 47v41zM627 420l-2 -1c-18 0 -36 -2 -53 -7s-33 -13 -48 -23s-27 -23 -37 -39s-17 -34 -21 -55h310c-5 39 -21 70 -48 92s-61 33 -101 33z" />
    <glyph glyph-name="ccedilla" unicode="&#xe7;" horiz-adv-x="536" 
d="M299 -47l-7 6c13 -1 25 -3 37 -7s23 -9 32 -16s17 -16 23 -26s9 -21 9 -34c0 -28 -10 -50 -31 -66s-46 -24 -76 -24c-21 0 -42 4 -62 13s-36 20 -47 33l11 52c26 -21 56 -32 89 -32c13 0 24 3 32 8s12 12 12 21s-4 16 -12 21s-18 8 -30 8c-6 0 -12 0 -17 -1
s-11 -2 -17 -4l-18 32l19 63c-28 6 -54 16 -78 30s-45 32 -63 54s-32 47 -42 75s-15 59 -15 92c0 39 7 74 21 105s33 58 56 81s50 41 81 53s63 18 97 18c23 0 44 -2 63 -7s36 -11 51 -19s28 -17 38 -27s18 -20 23 -30l-18 -60c-15 15 -35 29 -60 42s-53 19 -84 19
c-29 0 -55 -4 -79 -12s-44 -20 -61 -36s-30 -35 -40 -57s-15 -46 -15 -73s5 -51 15 -73s24 -41 41 -57s38 -28 62 -36s51 -12 80 -12c34 0 63 6 87 19s44 27 59 43l18 -60c-5 -10 -13 -20 -23 -30s-22 -19 -37 -27s-32 -14 -51 -19s-40 -7 -63 -7l-10 -36v0z" />
    <glyph glyph-name="egrave" unicode="&#xe8;" horiz-adv-x="571" 
d="M520 255h2c0 -11 -1 -22 -3 -34h-391c5 -51 24 -88 57 -112s73 -36 120 -36c36 0 67 5 93 16s49 27 69 48l14 -65c-5 -11 -13 -22 -24 -32s-24 -19 -40 -26s-33 -13 -52 -18s-39 -7 -60 -7c-35 0 -68 6 -99 18s-58 29 -81 51s-41 49 -54 81s-19 68 -19 108
c0 36 6 70 17 101s27 58 48 81s46 41 75 54s62 20 99 20c34 0 65 -6 93 -19s52 -31 72 -54s36 -49 47 -79s17 -62 17 -96zM293 423l-2 -1c-18 0 -36 -2 -53 -7s-33 -13 -48 -23s-27 -23 -37 -39s-17 -34 -21 -55h310c-5 39 -21 70 -48 92s-61 33 -101 33zM280 722l63 -143
h-75l-105 143h117z" />
    <glyph glyph-name="eacute" unicode="&#xe9;" horiz-adv-x="571" 
d="M520 255h2c0 -11 -1 -22 -3 -34h-391c5 -51 24 -88 57 -112s73 -36 120 -36c36 0 67 5 93 16s49 27 69 48l14 -65c-5 -11 -13 -22 -24 -32s-24 -19 -40 -26s-33 -13 -52 -18s-39 -7 -60 -7c-35 0 -68 6 -99 18s-58 29 -81 51s-41 49 -54 81s-19 68 -19 108
c0 36 6 70 17 101s27 58 48 81s46 41 75 54s62 20 99 20c34 0 65 -6 93 -19s52 -31 72 -54s36 -49 47 -79s17 -62 17 -96zM293 423l-2 -1c-18 0 -36 -2 -53 -7s-33 -13 -48 -23s-27 -23 -37 -39s-17 -34 -21 -55h310c-5 39 -21 70 -48 92s-61 33 -101 33zM423 722l-106 -143
h-74l62 143h118z" />
    <glyph glyph-name="ecircumflex" unicode="&#xea;" horiz-adv-x="571" 
d="M520 255h2c0 -11 -1 -22 -3 -34h-391c5 -51 24 -88 57 -112s73 -36 120 -36c36 0 67 5 93 16s49 27 69 48l14 -65c-5 -11 -13 -22 -24 -32s-24 -19 -40 -26s-33 -13 -52 -18s-39 -7 -60 -7c-35 0 -68 6 -99 18s-58 29 -81 51s-41 49 -54 81s-19 68 -19 108
c0 36 6 70 17 101s27 58 48 81s46 41 75 54s62 20 99 20c34 0 65 -6 93 -19s52 -31 72 -54s36 -49 47 -79s17 -62 17 -96zM293 423l-2 -1c-18 0 -36 -2 -53 -7s-33 -13 -48 -23s-27 -23 -37 -39s-17 -34 -21 -55h310c-5 39 -21 70 -48 92s-61 33 -101 33zM346 722l71 -143
h-74l-56 70l-56 -70h-74l71 143h118z" />
    <glyph glyph-name="edieresis" unicode="&#xeb;" horiz-adv-x="571" 
d="M520 255h2c0 -11 -1 -22 -3 -34h-391c5 -51 24 -88 57 -112s73 -36 120 -36c36 0 67 5 93 16s49 27 69 48l14 -65c-5 -11 -13 -22 -24 -32s-24 -19 -40 -26s-33 -13 -52 -18s-39 -7 -60 -7c-35 0 -68 6 -99 18s-58 29 -81 51s-41 49 -54 81s-19 68 -19 108
c0 36 6 70 17 101s27 58 48 81s46 41 75 54s62 20 99 20c34 0 65 -6 93 -19s52 -31 72 -54s36 -49 47 -79s17 -62 17 -96zM293 423l-2 -1c-18 0 -36 -2 -53 -7s-33 -13 -48 -23s-27 -23 -37 -39s-17 -34 -21 -55h310c-5 39 -21 70 -48 92s-61 33 -101 33zM137 651
c0 16 6 30 17 41s25 17 41 17s30 -6 41 -17s17 -25 17 -41s-6 -30 -17 -41s-25 -17 -41 -17s-30 6 -41 17s-17 25 -17 41zM325 651c0 16 6 30 17 41s25 17 41 17s30 -6 41 -17s17 -25 17 -41s-6 -30 -17 -41s-25 -17 -41 -17s-30 6 -41 17s-17 25 -17 41z" />
    <glyph glyph-name="igrave" unicode="&#xec;" horiz-adv-x="241" 
d="M84 492h75v-492h-75v492zM94 723l63 -143h-75l-105 143h117z" />
    <glyph glyph-name="iacute" unicode="&#xed;" horiz-adv-x="241" 
d="M84 492h75v-492h-75v492zM268 723l-106 -143h-74l62 143h118z" />
    <glyph glyph-name="icircumflex" unicode="&#xee;" horiz-adv-x="241" 
d="M84 492h75v-492h-75v492zM180 723l71 -143h-74l-56 70l-56 -70h-74l71 143h118z" />
    <glyph glyph-name="idieresis" unicode="&#xef;" horiz-adv-x="241" 
d="M84 492h75v-492h-75v492zM-31 652c0 16 6 30 17 41s25 17 41 17s30 -6 41 -17s17 -25 17 -41s-6 -30 -17 -41s-25 -17 -41 -17s-30 6 -41 17s-17 25 -17 41zM157 652c0 16 6 30 17 41s25 17 41 17s30 -6 41 -17s17 -25 17 -41s-6 -30 -17 -41s-25 -17 -41 -17
s-30 6 -41 17s-17 25 -17 41z" />
    <glyph glyph-name="eth" unicode="&#xf0;" horiz-adv-x="599" 
d="M472 466l-5 3c21 -33 39 -68 54 -104s22 -76 22 -120c0 -36 -6 -69 -18 -100s-29 -58 -51 -81s-48 -41 -78 -54s-63 -19 -99 -19c-33 0 -65 6 -95 18s-56 29 -79 51s-41 48 -54 78s-20 63 -20 99c0 31 6 61 18 90s29 55 51 78s48 41 79 55s66 21 104 21c17 0 32 -1 45 -3
s25 -5 37 -10l-70 108l-118 -54l-35 69l110 49l-58 88h86l39 -59l111 46l33 -62l-103 -46zM295 72l-1 -1c26 0 50 4 71 12s39 20 54 35s27 33 35 53s12 42 12 66s-4 46 -12 66s-20 37 -35 52s-33 26 -54 34s-45 12 -71 12s-50 -4 -72 -12s-40 -19 -55 -34s-27 -32 -35 -52
s-12 -42 -12 -66s4 -46 12 -66s20 -37 35 -52s34 -27 56 -35s46 -12 72 -12z" />
    <glyph glyph-name="ntilde" unicode="&#xf1;" horiz-adv-x="587" 
d="M299 503l2 -3c26 0 52 -4 77 -13s48 -23 68 -41s36 -41 48 -69s18 -61 18 -100v-279h-74v275c0 47 -13 84 -38 110s-58 39 -98 39c-17 0 -33 -3 -49 -8s-30 -12 -43 -21s-24 -19 -33 -31s-15 -25 -18 -39v-323h-74v492h72v-60c7 19 23 36 49 50s57 21 93 21zM154 580
l-2 -2c-3 7 -5 15 -7 23s-3 16 -3 24c0 25 8 46 24 62s36 24 59 24c15 0 29 -3 42 -9s25 -12 36 -19s21 -13 31 -19s19 -9 27 -9c21 0 31 13 31 39v7c0 2 0 5 -1 8h53c6 -16 9 -31 9 -46c0 -26 -8 -47 -24 -62s-35 -23 -58 -23c-15 0 -29 3 -42 9s-25 12 -36 19
s-21 13 -30 19s-18 9 -26 9c-21 0 -31 -13 -31 -39v-7c0 -2 0 -5 1 -8h-53z" />
    <glyph glyph-name="ograve" unicode="&#xf2;" 
d="M51 246l-2 -2c0 37 7 71 20 102s31 58 54 81s50 41 80 54s62 20 95 20s65 -6 95 -19s57 -31 80 -54s41 -50 54 -81s20 -65 20 -102s-7 -71 -20 -102s-31 -58 -54 -81s-49 -41 -79 -54s-62 -19 -95 -19s-65 7 -95 20s-56 31 -79 54s-41 50 -54 81s-20 65 -20 102zM298 421
h-3c-25 0 -48 -4 -69 -13s-39 -21 -54 -37s-27 -35 -36 -57s-13 -46 -13 -72s5 -50 14 -72s21 -41 36 -57s33 -28 54 -37s44 -13 69 -13s48 4 70 13s41 21 56 37s27 35 36 57s14 46 14 72s-4 50 -13 72s-21 41 -36 57s-33 28 -55 37s-45 13 -70 13zM276 721l63 -143h-75
l-105 143h117z" />
    <glyph glyph-name="oacute" unicode="&#xf3;" 
d="M51 246l-2 -2c0 37 7 71 20 102s31 58 54 81s50 41 80 54s62 20 95 20s65 -6 95 -19s57 -31 80 -54s41 -50 54 -81s20 -65 20 -102s-7 -71 -20 -102s-31 -58 -54 -81s-49 -41 -79 -54s-62 -19 -95 -19s-65 7 -95 20s-56 31 -79 54s-41 50 -54 81s-20 65 -20 102zM298 421
h-3c-25 0 -48 -4 -69 -13s-39 -21 -54 -37s-27 -35 -36 -57s-13 -46 -13 -72s5 -50 14 -72s21 -41 36 -57s33 -28 54 -37s44 -13 69 -13s48 4 70 13s41 21 56 37s27 35 36 57s14 46 14 72s-4 50 -13 72s-21 41 -36 57s-33 28 -55 37s-45 13 -70 13zM431 721l-106 -143h-74
l62 143h118z" />
    <glyph glyph-name="ocircumflex" unicode="&#xf4;" 
d="M51 246l-2 -2c0 37 7 71 20 102s31 58 54 81s50 41 80 54s62 20 95 20s65 -6 95 -19s57 -31 80 -54s41 -50 54 -81s20 -65 20 -102s-7 -71 -20 -102s-31 -58 -54 -81s-49 -41 -79 -54s-62 -19 -95 -19s-65 7 -95 20s-56 31 -79 54s-41 50 -54 81s-20 65 -20 102zM298 421
h-3c-25 0 -48 -4 -69 -13s-39 -21 -54 -37s-27 -35 -36 -57s-13 -46 -13 -72s5 -50 14 -72s21 -41 36 -57s33 -28 54 -37s44 -13 69 -13s48 4 70 13s41 21 56 37s27 35 36 57s14 46 14 72s-4 50 -13 72s-21 41 -36 57s-33 28 -55 37s-45 13 -70 13zM352 721l71 -143h-74
l-56 70l-56 -70h-74l71 143h118z" />
    <glyph glyph-name="otilde" unicode="&#xf5;" 
d="M51 246l-2 -2c0 37 7 71 20 102s31 58 54 81s50 41 80 54s62 20 95 20s65 -6 95 -19s57 -31 80 -54s41 -50 54 -81s20 -65 20 -102s-7 -71 -20 -102s-31 -58 -54 -81s-49 -41 -79 -54s-62 -19 -95 -19s-65 7 -95 20s-56 31 -79 54s-41 50 -54 81s-20 65 -20 102zM298 421
h-3c-25 0 -48 -4 -69 -13s-39 -21 -54 -37s-27 -35 -36 -57s-13 -46 -13 -72s5 -50 14 -72s21 -41 36 -57s33 -28 54 -37s44 -13 69 -13s48 4 70 13s41 21 56 37s27 35 36 57s14 46 14 72s-4 50 -13 72s-21 41 -36 57s-33 28 -55 37s-45 13 -70 13zM147 581l-2 -2
c-3 7 -5 15 -7 23s-3 16 -3 24c0 25 8 46 24 62s36 24 59 24c15 0 29 -3 42 -9s25 -12 36 -19s21 -13 31 -19s19 -9 27 -9c21 0 31 13 31 39v7c0 2 0 5 -1 8h53c6 -16 9 -31 9 -46c0 -26 -8 -47 -24 -62s-35 -23 -58 -23c-15 0 -29 3 -42 9s-25 12 -36 19s-21 13 -30 19
s-18 9 -26 9c-21 0 -31 -13 -31 -39v-7c0 -2 0 -5 1 -8h-53z" />
    <glyph glyph-name="odieresis" unicode="&#xf6;" 
d="M51 246l-2 -2c0 37 7 71 20 102s31 58 54 81s50 41 80 54s62 20 95 20s65 -6 95 -19s57 -31 80 -54s41 -50 54 -81s20 -65 20 -102s-7 -71 -20 -102s-31 -58 -54 -81s-49 -41 -79 -54s-62 -19 -95 -19s-65 7 -95 20s-56 31 -79 54s-41 50 -54 81s-20 65 -20 102zM298 421
h-3c-25 0 -48 -4 -69 -13s-39 -21 -54 -37s-27 -35 -36 -57s-13 -46 -13 -72s5 -50 14 -72s21 -41 36 -57s33 -28 54 -37s44 -13 69 -13s48 4 70 13s41 21 56 37s27 35 36 57s14 46 14 72s-4 50 -13 72s-21 41 -36 57s-33 28 -55 37s-45 13 -70 13zM140 650c0 16 6 30 17 41
s25 17 41 17s30 -6 41 -17s17 -25 17 -41s-6 -30 -17 -41s-25 -17 -41 -17s-30 6 -41 17s-17 25 -17 41zM328 650c0 16 6 30 17 41s25 17 41 17s30 -6 41 -17s17 -25 17 -41s-6 -30 -17 -41s-25 -17 -41 -17s-30 6 -41 17s-17 25 -17 41z" />
    <glyph glyph-name="divide" unicode="&#xf7;" horiz-adv-x="533" 
d="M201 122l-4 -4c0 18 7 34 20 47s29 20 47 20s34 -6 47 -19s20 -28 20 -46s-6 -33 -19 -46s-28 -19 -46 -19s-33 7 -46 20s-19 29 -19 47zM197 461l-4 -4c0 18 7 34 20 47s29 20 47 20s34 -6 47 -19s20 -28 20 -46s-6 -33 -19 -46s-28 -19 -46 -19s-33 7 -46 20
s-19 29 -19 47zM57 323h403v-77h-403v77z" />
    <glyph glyph-name="oslash" unicode="&#xf8;" horiz-adv-x="602" 
d="M52 246l-1 -2c0 37 7 71 20 102s31 58 54 81s50 41 80 54s62 20 95 20c25 0 49 -4 72 -11s44 -17 63 -30l36 42h100l-80 -92c18 -22 32 -47 42 -75s15 -58 15 -90c0 -37 -7 -71 -20 -102s-31 -58 -54 -81s-49 -41 -79 -54s-62 -19 -95 -19c-25 0 -49 4 -72 11
s-44 17 -64 30l-35 -41h-100l79 92c-17 22 -31 47 -41 75s-15 58 -15 90zM475 244l1 -2c0 21 -3 40 -9 58s-14 34 -25 49l-227 -264c25 -13 53 -20 84 -20c25 0 48 4 70 13s41 21 56 37s27 35 36 57s14 46 14 72zM301 419l-5 2c-25 0 -48 -4 -69 -13s-39 -21 -54 -37
s-27 -35 -36 -57s-13 -46 -13 -72c0 -21 3 -40 9 -58s14 -34 25 -49l227 264c-25 13 -53 20 -84 20z" />
    <glyph glyph-name="ugrave" unicode="&#xf9;" horiz-adv-x="583" 
d="M286 -11h-2c-26 0 -51 5 -76 14s-47 23 -67 41s-36 41 -48 69s-18 61 -18 100v279h74v-275c0 -47 12 -83 37 -109s57 -39 97 -39c17 0 33 3 49 8s30 12 43 21s24 20 33 32s15 25 18 39v323h74v-492h-72v60c-7 -19 -23 -36 -49 -50s-57 -21 -93 -21zM276 723l63 -143h-75
l-105 143h117z" />
    <glyph glyph-name="uacute" unicode="&#xfa;" horiz-adv-x="583" 
d="M286 -11h-2c-26 0 -51 5 -76 14s-47 23 -67 41s-36 41 -48 69s-18 61 -18 100v279h74v-275c0 -47 12 -83 37 -109s57 -39 97 -39c17 0 33 3 49 8s30 12 43 21s24 20 33 32s15 25 18 39v323h74v-492h-72v60c-7 -19 -23 -36 -49 -50s-57 -21 -93 -21zM417 723l-106 -143
h-74l62 143h118z" />
    <glyph glyph-name="ucircumflex" unicode="&#xfb;" horiz-adv-x="583" 
d="M286 -11h-2c-26 0 -51 5 -76 14s-47 23 -67 41s-36 41 -48 69s-18 61 -18 100v279h74v-275c0 -47 12 -83 37 -109s57 -39 97 -39c17 0 33 3 49 8s30 12 43 21s24 20 33 32s15 25 18 39v323h74v-492h-72v60c-7 -19 -23 -36 -49 -50s-57 -21 -93 -21zM350 723l71 -143h-74
l-56 70l-56 -70h-74l71 143h118z" />
    <glyph glyph-name="udieresis" unicode="&#xfc;" horiz-adv-x="583" 
d="M286 -11h-2c-26 0 -51 5 -76 14s-47 23 -67 41s-36 41 -48 69s-18 61 -18 100v279h74v-275c0 -47 12 -83 37 -109s57 -39 97 -39c17 0 33 3 49 8s30 12 43 21s24 20 33 32s15 25 18 39v323h74v-492h-72v60c-7 -19 -23 -36 -49 -50s-57 -21 -93 -21zM137 652
c0 16 6 30 17 41s25 17 41 17s30 -6 41 -17s17 -25 17 -41s-6 -30 -17 -41s-25 -17 -41 -17s-30 6 -41 17s-17 25 -17 41zM325 652c0 16 6 30 17 41s25 17 41 17s30 -6 41 -17s17 -25 17 -41s-6 -30 -17 -41s-25 -17 -41 -17s-30 6 -41 17s-17 25 -17 41z" />
    <glyph glyph-name="yacute" unicode="&#xfd;" horiz-adv-x="531" 
d="M18 492h85l164 -388l158 388h85l-293 -705h-85l93 225zM389 723l-106 -143h-74l62 143h118z" />
    <glyph glyph-name="thorn" unicode="&#xfe;" horiz-adv-x="619" 
d="M85 -213l-3 943h72v-295c4 9 11 18 21 27s22 17 36 23s30 11 48 15s37 6 57 6c33 0 65 -6 95 -19s57 -31 80 -54s41 -50 55 -81s21 -66 21 -104s-7 -73 -21 -104s-32 -58 -55 -81s-49 -41 -79 -54s-62 -19 -95 -19c-40 0 -74 7 -103 21s-47 30 -55 48v-272h-74zM491 248
l-3 -2c0 27 -4 52 -13 74s-21 41 -37 56s-35 27 -57 35s-46 12 -72 12c-38 0 -71 -8 -100 -24s-47 -39 -55 -69v-166c8 -30 27 -53 56 -69s63 -24 101 -24c26 0 50 4 72 12s41 20 57 35s28 34 37 56s14 47 14 74z" />
    <glyph glyph-name="ydieresis" unicode="&#xff;" horiz-adv-x="531" 
d="M18 492h85l164 -388l158 388h85l-293 -705h-85l93 225zM112 652c0 16 6 30 17 41s25 17 41 17s30 -6 41 -17s17 -25 17 -41s-6 -30 -17 -41s-25 -17 -41 -17s-30 6 -41 17s-17 25 -17 41zM300 652c0 16 6 30 17 41s25 17 41 17s30 -6 41 -17s17 -25 17 -41
s-6 -30 -17 -41s-25 -17 -41 -17s-30 6 -41 17s-17 25 -17 41z" />
    <glyph glyph-name="Amacron" unicode="&#x100;" horiz-adv-x="668" 
d="M655 0h-84l-68 174h-338l-67 -174h-84l281 718h81zM198 257h273l-137 350zM473 886v-80h-278v80h278z" />
    <glyph glyph-name="amacron" unicode="&#x101;" horiz-adv-x="544" 
d="M255 503v-1c30 0 58 -4 84 -12s48 -20 66 -36s33 -36 44 -60s16 -51 16 -82v-312h-72v47c-13 -17 -33 -31 -60 -42s-56 -16 -87 -16c-61 0 -109 14 -144 43s-52 68 -52 118c0 24 5 46 15 65s24 36 42 50s39 24 63 31s50 11 78 11c9 0 20 -1 32 -2s25 -3 38 -7
s26 -9 39 -15s24 -13 33 -22v31c0 45 -13 78 -40 99s-60 32 -100 32c-31 0 -60 -6 -87 -19s-48 -29 -63 -48l-20 66c7 11 16 22 28 32s26 19 41 26s32 13 50 17s37 6 56 6zM390 174v2c-9 17 -26 30 -52 38s-54 12 -85 12c-40 0 -71 -7 -94 -21s-34 -32 -34 -55
s11 -42 33 -58s54 -24 97 -24c31 0 59 6 84 17s42 26 51 44v45zM408 697v-78h-278v78h278z" />
    <glyph glyph-name="Abreve" unicode="&#x102;" horiz-adv-x="668" 
d="M655 0h-84l-68 174h-338l-67 -174h-84l281 718h81zM198 257h273l-137 350zM334 778v-2c-20 0 -38 3 -55 10s-32 16 -44 28s-22 26 -30 42s-12 34 -13 53h78c3 -14 10 -25 22 -34s26 -13 43 -13s31 5 43 14s19 21 22 35h78c-1 -19 -5 -37 -13 -53s-18 -30 -31 -42
s-28 -21 -45 -28s-35 -10 -55 -10z" />
    <glyph glyph-name="abreve" unicode="&#x103;" horiz-adv-x="544" 
d="M255 503v-1c30 0 58 -4 84 -12s48 -20 66 -36s33 -36 44 -60s16 -51 16 -82v-312h-72v47c-13 -17 -33 -31 -60 -42s-56 -16 -87 -16c-61 0 -109 14 -144 43s-52 68 -52 118c0 24 5 46 15 65s24 36 42 50s39 24 63 31s50 11 78 11c9 0 20 -1 32 -2s25 -3 38 -7
s26 -9 39 -15s24 -13 33 -22v31c0 45 -13 78 -40 99s-60 32 -100 32c-31 0 -60 -6 -87 -19s-48 -29 -63 -48l-20 66c7 11 16 22 28 32s26 19 41 26s32 13 50 17s37 6 56 6zM390 174v2c-9 17 -26 30 -52 38s-54 12 -85 12c-40 0 -71 -7 -94 -21s-34 -32 -34 -55
s11 -42 33 -58s54 -24 97 -24c31 0 59 6 84 17s42 26 51 44v45zM267 582v-2c-20 0 -38 3 -55 10s-32 16 -44 28s-22 26 -30 42s-12 34 -13 53h78c3 -14 10 -25 22 -34s26 -13 43 -13s31 5 43 14s19 21 22 35h78c-1 -19 -5 -37 -13 -53s-18 -30 -31 -42s-28 -21 -45 -28
s-35 -10 -55 -10z" />
    <glyph glyph-name="Aogonek" unicode="&#x104;" horiz-adv-x="665" 
d="M569 0l-67 172h-338l-67 -174h-84l281 718h81l279 -718c-9 -9 -17 -21 -24 -35s-10 -28 -10 -42c0 -17 5 -30 15 -40s23 -15 38 -15c10 0 19 2 26 6l12 -58c-5 -6 -12 -11 -22 -15s-22 -6 -37 -6c-34 0 -59 10 -76 30s-25 44 -25 71c0 13 2 25 5 36s7 21 12 30
s11 17 17 24s12 12 17 16h-33zM197 255h273l-137 350z" />
    <glyph glyph-name="aogonek" unicode="&#x105;" horiz-adv-x="544" 
d="M392 0l1 44c-13 -17 -33 -31 -60 -42s-56 -16 -87 -16c-61 0 -109 14 -144 43s-52 68 -52 118c0 24 5 46 15 65s24 36 42 50s39 24 63 31s50 11 78 11c9 0 20 -1 32 -2s25 -3 38 -7s26 -9 39 -15s24 -13 33 -22v31c0 45 -13 78 -40 99s-60 32 -100 32
c-31 0 -60 -6 -87 -19s-48 -29 -63 -48l-20 66c7 11 16 22 28 32s26 19 41 26s32 13 50 17s37 6 56 6c30 0 58 -4 84 -12s48 -20 66 -36s33 -36 44 -60s16 -51 16 -82v-312c-9 -9 -17 -21 -24 -35s-10 -28 -10 -42c0 -17 5 -30 15 -40s23 -15 38 -15c10 0 19 2 26 6l12 -58
c-5 -6 -12 -11 -22 -15s-22 -6 -37 -6c-34 0 -59 10 -76 30s-25 44 -25 71c0 13 2 25 5 36s7 21 12 30s11 17 17 24s12 12 17 16h-21zM391 172v2c-9 17 -26 30 -52 38s-54 12 -85 12c-40 0 -71 -7 -94 -21s-34 -32 -34 -55s11 -42 33 -58s54 -24 97 -24c31 0 59 6 84 17
s42 26 51 44v45z" />
    <glyph glyph-name="Cacute" unicode="&#x106;" horiz-adv-x="698" 
d="M660 130l-3 2c-9 -19 -22 -37 -39 -54s-37 -32 -61 -45s-50 -23 -79 -31s-60 -12 -92 -12c-47 0 -91 9 -133 26s-79 42 -111 74s-57 71 -76 117s-28 97 -28 153s9 107 28 153s44 85 76 117s69 57 111 74s86 26 133 26c32 0 62 -4 91 -12s55 -18 79 -31s44 -28 61 -45
s29 -34 37 -51l-23 -71c-27 39 -61 70 -102 92s-88 33 -141 33c-40 0 -77 -7 -110 -21s-61 -33 -85 -58s-42 -55 -55 -90s-19 -74 -19 -117s7 -82 20 -117s31 -65 55 -90s53 -44 86 -58s70 -21 110 -21c55 0 104 12 146 36s76 54 101 90zM525 907l-106 -133h-80l63 133h123z
" />
    <glyph glyph-name="cacute" unicode="&#x107;" horiz-adv-x="536" 
d="M485 71l-1 6c-5 -10 -13 -20 -23 -30s-23 -19 -38 -27s-32 -14 -52 -19s-42 -7 -66 -7c-34 0 -66 6 -97 18s-58 29 -81 51s-42 49 -56 81s-21 67 -21 106s7 74 21 105s33 58 56 81s50 41 81 53s63 18 97 18c23 0 44 -2 63 -7s36 -11 51 -19s28 -17 38 -27s18 -20 23 -30
l-18 -60c-15 15 -35 29 -60 42s-53 19 -84 19c-29 0 -55 -4 -79 -12s-44 -20 -61 -36s-30 -35 -40 -57s-15 -46 -15 -73s5 -51 15 -73s24 -41 41 -57s38 -28 62 -36s51 -12 80 -12c34 0 63 6 87 19s44 27 59 43zM430 729l-106 -143h-74l62 143h118z" />
    <glyph glyph-name="Ccircumflex" unicode="&#x108;" horiz-adv-x="698" 
d="M660 130l-3 2c-9 -19 -22 -37 -39 -54s-37 -32 -61 -45s-50 -23 -79 -31s-60 -12 -92 -12c-47 0 -91 9 -133 26s-79 42 -111 74s-57 71 -76 117s-28 97 -28 153s9 107 28 153s44 85 76 117s69 57 111 74s86 26 133 26c32 0 62 -4 91 -12s55 -18 79 -31s44 -28 61 -45
s29 -34 37 -51l-23 -71c-27 39 -61 70 -102 92s-88 33 -141 33c-40 0 -77 -7 -110 -21s-61 -33 -85 -58s-42 -55 -55 -90s-19 -74 -19 -117s7 -82 20 -117s31 -65 55 -90s53 -44 86 -58s70 -21 110 -21c55 0 104 12 146 36s76 54 101 90zM444 907l71 -133h-71l-56 60
l-56 -60h-71l71 133h112z" />
    <glyph glyph-name="ccircumflex" unicode="&#x109;" horiz-adv-x="536" 
d="M485 71l-1 6c-5 -10 -13 -20 -23 -30s-23 -19 -38 -27s-32 -14 -52 -19s-42 -7 -66 -7c-34 0 -66 6 -97 18s-58 29 -81 51s-42 49 -56 81s-21 67 -21 106s7 74 21 105s33 58 56 81s50 41 81 53s63 18 97 18c23 0 44 -2 63 -7s36 -11 51 -19s28 -17 38 -27s18 -20 23 -30
l-18 -60c-15 15 -35 29 -60 42s-53 19 -84 19c-29 0 -55 -4 -79 -12s-44 -20 -61 -36s-30 -35 -40 -57s-15 -46 -15 -73s5 -51 15 -73s24 -41 41 -57s38 -28 62 -36s51 -12 80 -12c34 0 63 6 87 19s44 27 59 43zM354 729l71 -143h-74l-56 70l-56 -70h-74l71 143h118z" />
    <glyph glyph-name="Cdotaccent" unicode="&#x10a;" horiz-adv-x="698" 
d="M660 130l-3 2c-9 -19 -22 -37 -39 -54s-37 -32 -61 -45s-50 -23 -79 -31s-60 -12 -92 -12c-47 0 -91 9 -133 26s-79 42 -111 74s-57 71 -76 117s-28 97 -28 153s9 107 28 153s44 85 76 117s69 57 111 74s86 26 133 26c32 0 62 -4 91 -12s55 -18 79 -31s44 -28 61 -45
s29 -34 37 -51l-23 -71c-27 39 -61 70 -102 92s-88 33 -141 33c-40 0 -77 -7 -110 -21s-61 -33 -85 -58s-42 -55 -55 -90s-19 -74 -19 -117s7 -82 20 -117s31 -65 55 -90s53 -44 86 -58s70 -21 110 -21c55 0 104 12 146 36s76 54 101 90zM317 848c0 17 6 32 18 44
s26 18 43 18s32 -6 44 -18s18 -27 18 -44s-6 -32 -18 -44s-27 -18 -44 -18s-31 6 -43 18s-18 27 -18 44z" />
    <glyph glyph-name="cdotaccent" unicode="&#x10b;" horiz-adv-x="536" 
d="M485 71l-1 6c-5 -10 -13 -20 -23 -30s-23 -19 -38 -27s-32 -14 -52 -19s-42 -7 -66 -7c-34 0 -66 6 -97 18s-58 29 -81 51s-42 49 -56 81s-21 67 -21 106s7 74 21 105s33 58 56 81s50 41 81 53s63 18 97 18c23 0 44 -2 63 -7s36 -11 51 -19s28 -17 38 -27s18 -20 23 -30
l-18 -60c-15 15 -35 29 -60 42s-53 19 -84 19c-29 0 -55 -4 -79 -12s-44 -20 -61 -36s-30 -35 -40 -57s-15 -46 -15 -73s5 -51 15 -73s24 -41 41 -57s38 -28 62 -36s51 -12 80 -12c34 0 63 6 87 19s44 27 59 43zM236 661c0 17 6 31 17 42s25 17 42 17s31 -6 42 -17
s17 -25 17 -42s-6 -31 -17 -42s-25 -17 -42 -17s-31 6 -42 17s-17 25 -17 42z" />
    <glyph glyph-name="Ccaron" unicode="&#x10c;" horiz-adv-x="698" 
d="M660 130l-3 2c-9 -19 -22 -37 -39 -54s-37 -32 -61 -45s-50 -23 -79 -31s-60 -12 -92 -12c-47 0 -91 9 -133 26s-79 42 -111 74s-57 71 -76 117s-28 97 -28 153s9 107 28 153s44 85 76 117s69 57 111 74s86 26 133 26c32 0 62 -4 91 -12s55 -18 79 -31s44 -28 61 -45
s29 -34 37 -51l-23 -71c-27 39 -61 70 -102 92s-88 33 -141 33c-40 0 -77 -7 -110 -21s-61 -33 -85 -58s-42 -55 -55 -90s-19 -74 -19 -117s7 -82 20 -117s31 -65 55 -90s53 -44 86 -58s70 -21 110 -21c55 0 104 12 146 36s76 54 101 90zM333 774l-71 133h71l56 -60l56 60
h71l-71 -133h-112z" />
    <glyph glyph-name="ccaron" unicode="&#x10d;" horiz-adv-x="536" 
d="M485 71l-1 6c-5 -10 -13 -20 -23 -30s-23 -19 -38 -27s-32 -14 -52 -19s-42 -7 -66 -7c-34 0 -66 6 -97 18s-58 29 -81 51s-42 49 -56 81s-21 67 -21 106s7 74 21 105s33 58 56 81s50 41 81 53s63 18 97 18c23 0 44 -2 63 -7s36 -11 51 -19s28 -17 38 -27s18 -20 23 -30
l-18 -60c-15 15 -35 29 -60 42s-53 19 -84 19c-29 0 -55 -4 -79 -12s-44 -20 -61 -36s-30 -35 -40 -57s-15 -46 -15 -73s5 -51 15 -73s24 -41 41 -57s38 -28 62 -36s51 -12 80 -12c34 0 63 6 87 19s44 27 59 43zM236 586l-71 143h74l56 -70l56 70h74l-71 -143h-118z" />
    <glyph glyph-name="Dcaron" unicode="&#x10e;" horiz-adv-x="738" 
d="M618 359l1 1c0 39 -7 75 -20 108s-32 62 -56 87s-53 45 -87 59s-71 21 -112 21h-174v-552h174c39 0 75 7 109 20s63 32 87 56s43 53 57 87s21 72 21 113zM314 719v-3c55 0 106 -8 153 -24s87 -39 121 -69s61 -67 80 -112s29 -96 29 -153s-10 -107 -29 -151
s-46 -81 -80 -112s-74 -54 -121 -70s-98 -24 -153 -24h-221v718h221zM290 770l-71 133h71l56 -60l56 60h71l-71 -133h-112z" />
    <glyph glyph-name="dcaron" unicode="&#x10f;" horiz-adv-x="730" 
d="M534 728l-1 -733h-72v59c-4 -9 -11 -18 -21 -26s-22 -15 -36 -21s-30 -11 -48 -15s-37 -6 -57 -6c-33 0 -65 6 -95 19s-56 31 -79 54s-41 50 -55 81s-21 66 -21 104s7 73 21 104s32 58 55 81s50 41 80 54s62 19 95 19c40 0 75 -7 104 -21s48 -30 56 -48v295h74zM124 241
l-3 -2c0 -27 5 -51 14 -73s21 -40 37 -55s35 -27 57 -35s46 -12 72 -12c38 0 72 8 101 24s48 39 56 69v166c-8 30 -26 53 -55 69s-62 24 -100 24c-26 0 -50 -4 -72 -12s-41 -20 -57 -35s-28 -33 -37 -55s-13 -46 -13 -73zM660 602l2 -1c-10 5 -19 12 -27 21s-12 21 -12 36
c0 19 6 34 18 45s26 17 42 17c17 0 32 -6 44 -17s18 -26 18 -45c0 -15 -3 -28 -10 -40s-14 -23 -21 -34l-43 -77h-56z" />
    <glyph glyph-name="Dcroat" unicode="&#x110;" horiz-adv-x="741" 
d="M316 718v-3c55 0 106 -8 153 -24s87 -39 121 -69s61 -67 80 -112s29 -96 29 -153s-10 -107 -29 -151s-46 -81 -80 -112s-74 -54 -121 -70s-98 -24 -153 -24h-221v328h-86v83h86v307h221zM621 356l1 1c0 39 -7 75 -20 108s-32 62 -56 87s-53 45 -87 59s-71 21 -112 21
h-174v-224h188v-83h-188v-245h174c39 0 75 7 109 20s63 32 87 56s43 53 57 87s21 72 21 113z" />
    <glyph glyph-name="dcroat" unicode="&#x111;" horiz-adv-x="624" 
d="M534 573l-1 -578h-72v59c-4 -9 -11 -18 -21 -26s-22 -15 -36 -21s-30 -11 -48 -15s-37 -6 -57 -6c-33 0 -65 6 -95 19s-56 31 -79 54s-41 50 -55 81s-21 66 -21 104s7 73 21 104s32 58 55 81s50 41 80 54s62 19 95 19c40 0 75 -7 104 -21s48 -30 56 -48v140h-146v78h146
v77h74v-77h82v-78h-82zM124 241l-3 -2c0 -27 5 -51 14 -73s21 -40 37 -55s35 -27 57 -35s46 -12 72 -12c38 0 72 8 101 24s48 39 56 69v166c-8 30 -26 53 -55 69s-62 24 -100 24c-26 0 -50 -4 -72 -12s-41 -20 -57 -35s-28 -33 -37 -55s-13 -46 -13 -73z" />
    <glyph glyph-name="Emacron" unicode="&#x112;" horiz-adv-x="531" 
d="M92 718h379v-83h-301v-224h271v-83h-271v-245h301v-83h-379v718zM421 886v-80h-278v80h278z" />
    <glyph glyph-name="emacron" unicode="&#x113;" horiz-adv-x="571" 
d="M520 255h2c0 -11 -1 -22 -3 -34h-391c5 -51 24 -88 57 -112s73 -36 120 -36c36 0 67 5 93 16s49 27 69 48l14 -65c-5 -11 -13 -22 -24 -32s-24 -19 -40 -26s-33 -13 -52 -18s-39 -7 -60 -7c-35 0 -68 6 -99 18s-58 29 -81 51s-41 49 -54 81s-19 68 -19 108
c0 36 6 70 17 101s27 58 48 81s46 41 75 54s62 20 99 20c34 0 65 -6 93 -19s52 -31 72 -54s36 -49 47 -79s17 -62 17 -96zM293 423l-2 -1c-18 0 -36 -2 -53 -7s-33 -13 -48 -23s-27 -23 -37 -39s-17 -34 -21 -55h310c-5 39 -21 70 -48 92s-61 33 -101 33zM434 695v-78h-278
v78h278z" />
    <glyph glyph-name="Ebreve" unicode="&#x114;" horiz-adv-x="531" 
d="M92 718h379v-83h-301v-224h271v-83h-271v-245h301v-83h-379v718zM281 778v-2c-20 0 -38 3 -55 10s-32 16 -44 28s-22 26 -30 42s-12 34 -13 53h78c3 -14 10 -25 22 -34s26 -13 43 -13s31 5 43 14s19 21 22 35h78c-1 -19 -5 -37 -13 -53s-18 -30 -31 -42s-28 -21 -45 -28
s-35 -10 -55 -10z" />
    <glyph glyph-name="ebreve" unicode="&#x115;" horiz-adv-x="571" 
d="M520 255h2c0 -11 -1 -22 -3 -34h-391c5 -51 24 -88 57 -112s73 -36 120 -36c36 0 67 5 93 16s49 27 69 48l14 -65c-5 -11 -13 -22 -24 -32s-24 -19 -40 -26s-33 -13 -52 -18s-39 -7 -60 -7c-35 0 -68 6 -99 18s-58 29 -81 51s-41 49 -54 81s-19 68 -19 108
c0 36 6 70 17 101s27 58 48 81s46 41 75 54s62 20 99 20c34 0 65 -6 93 -19s52 -31 72 -54s36 -49 47 -79s17 -62 17 -96zM293 423l-2 -1c-18 0 -36 -2 -53 -7s-33 -13 -48 -23s-27 -23 -37 -39s-17 -34 -21 -55h310c-5 39 -21 70 -48 92s-61 33 -101 33zM291 580v-2
c-20 0 -38 3 -55 10s-32 16 -44 28s-22 26 -30 42s-12 34 -13 53h78c3 -14 10 -25 22 -34s26 -13 43 -13s31 5 43 14s19 21 22 35h78c-1 -19 -5 -37 -13 -53s-18 -30 -31 -42s-28 -21 -45 -28s-35 -10 -55 -10z" />
    <glyph glyph-name="Edotaccent" unicode="&#x116;" horiz-adv-x="531" 
d="M92 718h379v-83h-301v-224h271v-83h-271v-245h301v-83h-379v718zM220 846c0 17 6 32 18 44s26 18 43 18s32 -6 44 -18s18 -27 18 -44s-6 -32 -18 -44s-27 -18 -44 -18s-31 6 -43 18s-18 27 -18 44z" />
    <glyph glyph-name="edotaccent" unicode="&#x117;" horiz-adv-x="571" 
d="M520 255h2c0 -11 -1 -22 -3 -34h-391c5 -51 24 -88 57 -112s73 -36 120 -36c36 0 67 5 93 16s49 27 69 48l14 -65c-5 -11 -13 -22 -24 -32s-24 -19 -40 -26s-33 -13 -52 -18s-39 -7 -60 -7c-35 0 -68 6 -99 18s-58 29 -81 51s-41 49 -54 81s-19 68 -19 108
c0 36 6 70 17 101s27 58 48 81s46 41 75 54s62 20 99 20c34 0 65 -6 93 -19s52 -31 72 -54s36 -49 47 -79s17 -62 17 -96zM293 423l-2 -1c-18 0 -36 -2 -53 -7s-33 -13 -48 -23s-27 -23 -37 -39s-17 -34 -21 -55h310c-5 39 -21 70 -48 92s-61 33 -101 33zM234 654
c0 17 6 31 17 42s25 17 42 17s31 -6 42 -17s17 -25 17 -42s-6 -31 -17 -42s-25 -17 -42 -17s-31 6 -42 17s-17 25 -17 42z" />
    <glyph glyph-name="Eogonek" unicode="&#x118;" horiz-adv-x="531" 
d="M92 718l380 -2v-83h-301v-224h271v-83h-271v-245h301v-83c-9 -9 -17 -21 -24 -35s-10 -28 -10 -42c0 -17 5 -30 15 -40s23 -15 38 -15c10 0 19 2 26 6l12 -58c-5 -6 -12 -11 -22 -15s-22 -6 -37 -6c-34 0 -59 10 -76 30s-25 44 -25 71c0 13 2 25 5 36s7 21 12 30
s11 17 17 24s12 12 17 16h-328v718z" />
    <glyph glyph-name="eogonek" unicode="&#x119;" horiz-adv-x="563" 
d="M520 255l-2 -1c0 -11 -1 -22 -3 -34h-391c5 -51 24 -88 57 -112s73 -36 120 -36c36 0 67 5 93 16s49 27 69 48l14 -65c-12 -17 -23 -34 -34 -50s-16 -34 -16 -54c0 -16 5 -29 15 -39s23 -15 38 -15c10 0 19 2 26 6l12 -58c-5 -6 -12 -11 -22 -15s-22 -6 -37 -6
c-34 0 -59 10 -76 30s-25 44 -25 71c0 19 4 38 13 57c-21 -6 -43 -9 -66 -9c-35 0 -68 6 -99 18s-58 29 -81 51s-41 49 -54 81s-19 68 -19 108c0 36 6 70 17 101s27 58 48 81s46 41 75 54s62 20 99 20c34 0 65 -6 93 -19s52 -31 72 -54s36 -49 47 -79s17 -62 17 -96z
M289 422l-2 -1c-18 0 -36 -2 -53 -7s-33 -13 -48 -23s-27 -23 -37 -39s-17 -34 -21 -55h310c-5 39 -21 70 -48 92s-61 33 -101 33z" />
    <glyph glyph-name="Ecaron" unicode="&#x11a;" horiz-adv-x="531" 
d="M92 718h379v-83h-301v-224h271v-83h-271v-245h301v-83h-379v718zM226 772l-71 133h71l56 -60l56 60h71l-71 -133h-112z" />
    <glyph glyph-name="ecaron" unicode="&#x11b;" horiz-adv-x="571" 
d="M520 255h2c0 -11 -1 -22 -3 -34h-391c5 -51 24 -88 57 -112s73 -36 120 -36c36 0 67 5 93 16s49 27 69 48l14 -65c-5 -11 -13 -22 -24 -32s-24 -19 -40 -26s-33 -13 -52 -18s-39 -7 -60 -7c-35 0 -68 6 -99 18s-58 29 -81 51s-41 49 -54 81s-19 68 -19 108
c0 36 6 70 17 101s27 58 48 81s46 41 75 54s62 20 99 20c34 0 65 -6 93 -19s52 -31 72 -54s36 -49 47 -79s17 -62 17 -96zM293 423l-2 -1c-18 0 -36 -2 -53 -7s-33 -13 -48 -23s-27 -23 -37 -39s-17 -34 -21 -55h310c-5 39 -21 70 -48 92s-61 33 -101 33zM233 579l-71 143
h74l56 -70l56 70h74l-71 -143h-118z" />
    <glyph glyph-name="Gcircumflex" unicode="&#x11c;" horiz-adv-x="727" 
d="M388 729l-3 2c32 0 62 -4 91 -12s55 -18 79 -31s44 -28 61 -45s29 -34 37 -51l-23 -71c-27 39 -61 70 -102 92s-88 33 -141 33c-41 0 -78 -7 -111 -20s-61 -32 -84 -57s-41 -55 -54 -90s-19 -74 -19 -117c0 -45 7 -85 20 -121s32 -66 56 -91s53 -44 87 -57
s71 -19 111 -19c38 0 73 6 106 18s62 30 87 54v130h-198v83h277v-236c-12 -20 -28 -38 -48 -54s-43 -30 -68 -42s-51 -21 -79 -28s-55 -10 -82 -10c-47 0 -92 9 -134 26s-79 42 -110 74s-56 71 -74 116s-27 96 -27 152s9 107 27 153s43 85 74 117s68 57 110 75s87 27 134 27
zM442 907l71 -133h-71l-56 60l-56 -60h-71l71 133h112z" />
    <glyph glyph-name="gcircumflex" unicode="&#x11d;" horiz-adv-x="604" 
d="M521 492l1 -512c0 -30 -5 -57 -16 -82s-26 -46 -46 -64s-44 -32 -72 -42s-58 -15 -91 -15c-42 0 -82 8 -120 23s-67 40 -88 74l21 69c21 -28 47 -49 78 -63s64 -21 99 -21c19 0 38 2 57 6s36 12 51 23s28 27 38 47s15 46 15 78v56c-4 -9 -11 -17 -21 -25s-22 -15 -36 -21
s-30 -11 -48 -15s-37 -6 -57 -6c-33 0 -65 6 -95 18s-56 29 -79 51s-41 48 -55 79s-21 65 -21 102s7 71 21 102s32 58 55 80s50 39 80 51s62 18 95 18c20 0 39 -2 57 -6s34 -9 48 -16s26 -14 36 -22s17 -16 21 -25v58h72zM448 333h-3c-8 29 -26 52 -55 68s-62 24 -100 24
c-26 0 -50 -4 -72 -12s-41 -19 -57 -34s-28 -33 -37 -54s-13 -45 -13 -72s5 -51 14 -72s21 -39 37 -54s35 -26 57 -34s46 -12 72 -12c38 0 72 8 101 24s48 39 56 68v160zM359 725l71 -143h-74l-56 70l-56 -70h-74l71 143h118z" />
    <glyph glyph-name="Gbreve" unicode="&#x11e;" horiz-adv-x="727" 
d="M388 729l-3 2c32 0 62 -4 91 -12s55 -18 79 -31s44 -28 61 -45s29 -34 37 -51l-23 -71c-27 39 -61 70 -102 92s-88 33 -141 33c-41 0 -78 -7 -111 -20s-61 -32 -84 -57s-41 -55 -54 -90s-19 -74 -19 -117c0 -45 7 -85 20 -121s32 -66 56 -91s53 -44 87 -57
s71 -19 111 -19c38 0 73 6 106 18s62 30 87 54v130h-198v83h277v-236c-12 -20 -28 -38 -48 -54s-43 -30 -68 -42s-51 -21 -79 -28s-55 -10 -82 -10c-47 0 -92 9 -134 26s-79 42 -110 74s-56 71 -74 116s-27 96 -27 152s9 107 27 153s43 85 74 117s68 57 110 75s87 27 134 27
zM387 780v-2c-20 0 -38 3 -55 10s-32 16 -44 28s-22 26 -30 42s-12 34 -13 53h78c3 -14 10 -25 22 -34s26 -13 43 -13s31 5 43 14s19 21 22 35h78c-1 -19 -5 -37 -13 -53s-18 -30 -31 -42s-28 -21 -45 -28s-35 -10 -55 -10z" />
    <glyph glyph-name="gbreve" unicode="&#x11f;" horiz-adv-x="604" 
d="M521 492l1 -512c0 -30 -5 -57 -16 -82s-26 -46 -46 -64s-44 -32 -72 -42s-58 -15 -91 -15c-42 0 -82 8 -120 23s-67 40 -88 74l21 69c21 -28 47 -49 78 -63s64 -21 99 -21c19 0 38 2 57 6s36 12 51 23s28 27 38 47s15 46 15 78v56c-4 -9 -11 -17 -21 -25s-22 -15 -36 -21
s-30 -11 -48 -15s-37 -6 -57 -6c-33 0 -65 6 -95 18s-56 29 -79 51s-41 48 -55 79s-21 65 -21 102s7 71 21 102s32 58 55 80s50 39 80 51s62 18 95 18c20 0 39 -2 57 -6s34 -9 48 -16s26 -14 36 -22s17 -16 21 -25v58h72zM448 333h-3c-8 29 -26 52 -55 68s-62 24 -100 24
c-26 0 -50 -4 -72 -12s-41 -19 -57 -34s-28 -33 -37 -54s-13 -45 -13 -72s5 -51 14 -72s21 -39 37 -54s35 -26 57 -34s46 -12 72 -12c38 0 72 8 101 24s48 39 56 68v160zM298 583v-2c-20 0 -38 3 -55 10s-32 16 -44 28s-22 26 -30 42s-12 34 -13 53h78c3 -14 10 -25 22 -34
s26 -13 43 -13s31 5 43 14s19 21 22 35h78c-1 -19 -5 -37 -13 -53s-18 -30 -31 -42s-28 -21 -45 -28s-35 -10 -55 -10z" />
    <glyph glyph-name="Gdotaccent" unicode="&#x120;" horiz-adv-x="727" 
d="M388 729l-3 2c32 0 62 -4 91 -12s55 -18 79 -31s44 -28 61 -45s29 -34 37 -51l-23 -71c-27 39 -61 70 -102 92s-88 33 -141 33c-41 0 -78 -7 -111 -20s-61 -32 -84 -57s-41 -55 -54 -90s-19 -74 -19 -117c0 -45 7 -85 20 -121s32 -66 56 -91s53 -44 87 -57
s71 -19 111 -19c38 0 73 6 106 18s62 30 87 54v130h-198v83h277v-236c-12 -20 -28 -38 -48 -54s-43 -30 -68 -42s-51 -21 -79 -28s-55 -10 -82 -10c-47 0 -92 9 -134 26s-79 42 -110 74s-56 71 -74 116s-27 96 -27 152s9 107 27 153s43 85 74 117s68 57 110 75s87 27 134 27
zM317 848c0 17 6 32 18 44s26 18 43 18s32 -6 44 -18s18 -27 18 -44s-6 -32 -18 -44s-27 -18 -44 -18s-31 6 -43 18s-18 27 -18 44z" />
    <glyph glyph-name="gdotaccent" unicode="&#x121;" horiz-adv-x="604" 
d="M521 492l1 -512c0 -30 -5 -57 -16 -82s-26 -46 -46 -64s-44 -32 -72 -42s-58 -15 -91 -15c-42 0 -82 8 -120 23s-67 40 -88 74l21 69c21 -28 47 -49 78 -63s64 -21 99 -21c19 0 38 2 57 6s36 12 51 23s28 27 38 47s15 46 15 78v56c-4 -9 -11 -17 -21 -25s-22 -15 -36 -21
s-30 -11 -48 -15s-37 -6 -57 -6c-33 0 -65 6 -95 18s-56 29 -79 51s-41 48 -55 79s-21 65 -21 102s7 71 21 102s32 58 55 80s50 39 80 51s62 18 95 18c20 0 39 -2 57 -6s34 -9 48 -16s26 -14 36 -22s17 -16 21 -25v58h72zM448 333h-3c-8 29 -26 52 -55 68s-62 24 -100 24
c-26 0 -50 -4 -72 -12s-41 -19 -57 -34s-28 -33 -37 -54s-13 -45 -13 -72s5 -51 14 -72s21 -39 37 -54s35 -26 57 -34s46 -12 72 -12c38 0 72 8 101 24s48 39 56 68v160zM241 657c0 17 6 31 17 42s25 17 42 17s31 -6 42 -17s17 -25 17 -42s-6 -31 -17 -42s-25 -17 -42 -17
s-31 6 -42 17s-17 25 -17 42z" />
    <glyph glyph-name="uni0122" unicode="&#x122;" horiz-adv-x="727" 
d="M388 729l-3 2c32 0 62 -4 91 -12s55 -18 79 -31s44 -28 61 -45s29 -34 37 -51l-23 -71c-27 39 -61 70 -102 92s-88 33 -141 33c-41 0 -78 -7 -111 -20s-61 -32 -84 -57s-41 -55 -54 -90s-19 -74 -19 -117c0 -45 7 -85 20 -121s32 -66 56 -91s53 -44 87 -57
s71 -19 111 -19c38 0 73 6 106 18s62 30 87 54v130h-198v83h277v-236c-12 -20 -28 -38 -48 -54s-43 -30 -68 -42s-51 -21 -79 -28s-55 -10 -82 -10c-47 0 -92 9 -134 26s-79 42 -110 74s-56 71 -74 116s-27 96 -27 152s9 107 27 153s43 85 74 117s68 57 110 75s87 27 134 27
zM368 -185l2 -1c-10 5 -19 12 -27 21s-12 21 -12 36c0 19 6 34 18 45s26 17 42 17c17 0 32 -6 44 -17s18 -26 18 -45c0 -15 -3 -28 -10 -40s-14 -23 -21 -34l-43 -77h-56z" />
    <glyph glyph-name="uni0123" unicode="&#x123;" horiz-adv-x="604" 
d="M521 492l1 -512c0 -30 -5 -57 -16 -82s-26 -46 -46 -64s-44 -32 -72 -42s-58 -15 -91 -15c-42 0 -82 8 -120 23s-67 40 -88 74l21 69c21 -28 47 -49 78 -63s64 -21 99 -21c19 0 38 2 57 6s36 12 51 23s28 27 38 47s15 46 15 78v56c-4 -9 -11 -17 -21 -25s-22 -15 -36 -21
s-30 -11 -48 -15s-37 -6 -57 -6c-33 0 -65 6 -95 18s-56 29 -79 51s-41 48 -55 79s-21 65 -21 102s7 71 21 102s32 58 55 80s50 39 80 51s62 18 95 18c20 0 39 -2 57 -6s34 -9 48 -16s26 -14 36 -22s17 -16 21 -25v58h72zM448 333h-3c-8 29 -26 52 -55 68s-62 24 -100 24
c-26 0 -50 -4 -72 -12s-41 -19 -57 -34s-28 -33 -37 -54s-13 -45 -13 -72s5 -51 14 -72s21 -39 37 -54s35 -26 57 -34s46 -12 72 -12c38 0 72 8 101 24s48 39 56 68v160zM313 714l-2 1c10 -5 19 -12 27 -21s12 -21 12 -36c0 -19 -6 -34 -18 -45s-26 -17 -42 -17
c-17 0 -32 6 -44 17s-18 26 -18 45c0 15 3 28 10 40s14 23 21 34l43 77h56z" />
    <glyph glyph-name="Hcircumflex" unicode="&#x124;" horiz-adv-x="753" 
d="M92 718h78v-307h413v307h78v-718h-78v328h-413v-328h-78v718zM432 905l71 -133h-71l-56 60l-56 -60h-71l71 133h112z" />
    <glyph glyph-name="hcircumflex" unicode="&#x125;" horiz-adv-x="587" 
d="M159 0l-73 -2v728h74v-296c7 19 23 36 48 50s56 21 93 21c26 0 52 -4 77 -13s48 -22 68 -40s36 -41 48 -69s18 -61 18 -100v-280h-74v277c0 47 -13 83 -39 108s-58 38 -97 38c-17 0 -33 -2 -49 -7s-30 -12 -43 -21s-24 -19 -33 -31s-15 -25 -18 -40v-323zM361 913
l71 -143h-74l-56 70l-56 -70h-74l71 143h118z" />
    <glyph glyph-name="Hbar" unicode="&#x126;" horiz-adv-x="773" 
d="M17 614h86v104h78v-104h413v104h78v-104h84v-83h-84v-531h-78v328h-413v-328h-78v531h-86v83zM594 411v120h-413v-120h413z" />
    <glyph glyph-name="hbar" unicode="&#x127;" horiz-adv-x="591" 
d="M440 0l1 260c0 47 -13 83 -39 108s-58 38 -97 38c-17 0 -33 -2 -49 -7s-30 -12 -43 -21s-24 -19 -33 -31s-15 -25 -18 -40v-308h-74v573h-81v78h81v77h74v-77h147v-78h-147v-156c7 19 23 36 48 50s56 21 93 21c26 0 52 -4 77 -13s48 -22 68 -40s36 -41 48 -69
s18 -61 18 -100v-265h-74z" />
    <glyph glyph-name="Itilde" unicode="&#x128;" horiz-adv-x="262" 
d="M92 718h78v-718h-78v718zM-19 781v-1c-3 7 -5 15 -7 23s-3 16 -3 24c0 25 8 45 24 60s36 23 59 23c15 0 29 -3 42 -9s25 -12 36 -19s22 -13 33 -19s22 -9 33 -9s20 3 26 10s9 17 9 30v7c0 2 0 5 -1 8h49c6 -16 9 -31 9 -46c0 -26 -8 -46 -24 -61s-35 -22 -58 -22
c-15 0 -29 3 -42 9s-25 12 -37 19s-23 13 -34 19s-21 9 -31 9c-11 0 -20 -3 -26 -10s-9 -17 -9 -30v-7c0 -2 0 -5 1 -8h-49z" />
    <glyph glyph-name="itilde" unicode="&#x129;" horiz-adv-x="241" 
d="M84 492h75v-492h-75v492zM-25 583l-2 -2c-3 7 -5 15 -7 23s-3 16 -3 24c0 25 8 46 24 62s36 24 59 24c15 0 29 -3 42 -9s25 -12 36 -19s21 -13 31 -19s19 -9 27 -9c21 0 31 13 31 39v7c0 2 0 5 -1 8h53c6 -16 9 -31 9 -46c0 -26 -8 -47 -24 -62s-35 -23 -58 -23
c-15 0 -29 3 -42 9s-25 12 -36 19s-21 13 -30 19s-18 9 -26 9c-21 0 -31 -13 -31 -39v-7c0 -2 0 -5 1 -8h-53z" />
    <glyph glyph-name="Imacron" unicode="&#x12a;" horiz-adv-x="262" 
d="M92 718h78v-718h-78v718zM271 886v-80h-278v80h278z" />
    <glyph glyph-name="imacron" unicode="&#x12b;" horiz-adv-x="241" 
d="M84 492h75v-492h-75v492zM260 696v-78h-278v78h278z" />
    <glyph glyph-name="Ibreve" unicode="&#x12c;" horiz-adv-x="262" 
d="M92 718h78v-718h-78v718zM132 778v-2c-20 0 -38 3 -55 10s-32 16 -44 28s-22 26 -30 42s-12 34 -13 53h78c3 -14 10 -25 22 -34s26 -13 43 -13s31 5 43 14s19 21 22 35h78c-1 -19 -5 -37 -13 -53s-18 -30 -31 -42s-28 -21 -45 -28s-35 -10 -55 -10z" />
    <glyph glyph-name="ibreve" unicode="&#x12d;" horiz-adv-x="241" 
d="M84 492h75v-492h-75v492zM121 581v-2c-20 0 -38 3 -55 10s-32 16 -44 28s-22 26 -30 42s-12 34 -13 53h78c3 -14 10 -25 22 -34s26 -13 43 -13s31 5 43 14s19 21 22 35h78c-1 -19 -5 -37 -13 -53s-18 -30 -31 -42s-28 -21 -45 -28s-35 -10 -55 -10z" />
    <glyph glyph-name="Iogonek" unicode="&#x12e;" horiz-adv-x="262" 
d="M92 718l79 -2v-718c-9 -9 -17 -21 -24 -35s-10 -28 -10 -42c0 -17 5 -30 15 -40s23 -15 38 -15c10 0 19 2 26 6l12 -58c-5 -6 -12 -11 -22 -15s-22 -6 -37 -6c-34 0 -59 10 -76 30s-25 44 -25 71c0 13 2 25 5 36s7 21 12 30s11 17 17 24s12 12 17 16h-27v718z" />
    <glyph glyph-name="iogonek" unicode="&#x12f;" horiz-adv-x="240" 
d="M83 492l75 -2v-492c-9 -9 -17 -21 -24 -35s-10 -28 -10 -42c0 -17 5 -30 15 -40s23 -15 38 -15c10 0 19 2 26 6l12 -58c-5 -6 -12 -11 -22 -15s-22 -6 -37 -6c-34 0 -59 10 -76 30s-25 44 -25 71c0 13 2 25 5 36s7 21 12 30s11 17 17 24s12 12 17 16h-23v492zM62 653
c0 17 6 31 17 42s25 17 42 17s31 -6 42 -17s17 -25 17 -42s-6 -31 -17 -42s-25 -17 -42 -17s-31 6 -42 17s-17 25 -17 42z" />
    <glyph glyph-name="Idotaccent" unicode="&#x130;" horiz-adv-x="262" 
d="M92 718h78v-718h-78v718zM71 846c0 17 6 32 18 44s26 18 43 18s32 -6 44 -18s18 -27 18 -44s-6 -32 -18 -44s-27 -18 -44 -18s-31 6 -43 18s-18 27 -18 44z" />
    <glyph glyph-name="dotlessi" unicode="&#x131;" horiz-adv-x="241" 
d="M84 492h75v-492h-75v492z" />
    <glyph glyph-name="IJ" unicode="&#x132;" horiz-adv-x="539" 
d="M92 718h78v-416h-78v416zM452 193l-1 -1c0 -31 -4 -59 -11 -84s-19 -46 -35 -64s-37 -32 -62 -42s-55 -15 -90 -15c-22 0 -42 2 -60 7s-34 11 -47 18s-24 15 -33 24s-16 17 -21 25l9 77c20 -24 43 -41 68 -51s53 -15 83 -15c39 0 69 11 90 33s32 58 32 107v506h78v-525z
" />
    <glyph glyph-name="ij" unicode="&#x133;" horiz-adv-x="493" 
d="M85 492h74v-492h-74v492zM63 655c0 17 6 31 17 42s25 17 42 17s31 -6 42 -17s17 -25 17 -42s-6 -31 -17 -42s-25 -17 -42 -17s-31 6 -42 17s-17 25 -17 42zM336 492l74 1v-563c0 -102 -37 -153 -112 -153c-12 0 -26 2 -43 6s-30 13 -40 26l7 65c7 -7 16 -12 26 -15
s19 -4 26 -4c25 0 42 8 50 24s12 39 12 68v545zM314 656c0 17 6 31 17 42s25 17 42 17s31 -6 42 -17s17 -25 17 -42s-6 -31 -17 -42s-25 -17 -42 -17s-31 6 -42 17s-17 25 -17 42z" />
    <glyph glyph-name="Jcircumflex" unicode="&#x134;" horiz-adv-x="395" 
d="M308 176l1 1c0 -59 -13 -105 -39 -138s-68 -49 -126 -49c-18 0 -34 2 -48 6s-26 9 -36 15s-18 13 -25 21s-12 16 -15 23l8 79c15 -18 32 -33 51 -44s40 -17 63 -17c28 0 50 9 65 26s23 48 23 92v527h78v-542zM325 906l71 -133h-71l-56 60l-56 -60h-71l71 133h112z" />
    <glyph glyph-name="jcircumflex" unicode="&#x135;" horiz-adv-x="248" 
d="M90 492h76v-563c0 -102 -37 -153 -112 -153c-11 0 -24 3 -40 9s-30 15 -42 28l5 63c7 -5 15 -9 24 -13s17 -6 24 -6c25 0 42 8 51 24s14 38 14 66v545zM188 698l71 -142h-73l-57 69l-56 -69h-73l70 142h118z" />
    <glyph glyph-name="uni0136" unicode="&#x136;" horiz-adv-x="628" 
d="M92 718h78v-332l310 332h104l-327 -351l361 -367h-115l-333 337v-337h-78v718zM305 -187l2 -1c-10 5 -19 12 -27 21s-12 21 -12 36c0 19 6 34 18 45s26 17 42 17c17 0 32 -6 44 -17s18 -26 18 -45c0 -15 -3 -28 -10 -40s-14 -23 -21 -34l-43 -77h-56z" />
    <glyph glyph-name="uni0137" unicode="&#x137;" horiz-adv-x="528" 
d="M85 728h74v-442l227 206h108l-253 -230l279 -262h-113l-248 231v-231h-74v728zM265 -187l2 -1c-10 5 -19 12 -27 21s-12 21 -12 36c0 19 6 34 18 45s26 17 42 17c17 0 32 -6 44 -17s18 -26 18 -45c0 -15 -3 -28 -10 -40s-14 -23 -21 -34l-43 -77h-56z" />
    <glyph glyph-name="kgreenlandic" unicode="&#x138;" horiz-adv-x="531" 
d="M85 492h74v-216l234 216h107l-260 -239l283 -253h-120l-244 222v-222h-74v492z" />
    <glyph glyph-name="Lacute" unicode="&#x139;" horiz-adv-x="475" 
d="M92 718h78v-635h285v-83h-363v718zM279 905l-106 -133h-80l63 133h123z" />
    <glyph glyph-name="lacute" unicode="&#x13a;" horiz-adv-x="244" 
d="M85 728h74v-728h-74v728zM272 905l-106 -133h-80l63 133h123z" />
    <glyph glyph-name="uni013B" unicode="&#x13b;" horiz-adv-x="475" 
d="M92 718h78v-635h285v-83h-363v718zM259 -187l2 -1c-10 5 -19 12 -27 21s-12 21 -12 36c0 19 6 34 18 45s26 17 42 17c17 0 32 -6 44 -17s18 -26 18 -45c0 -15 -3 -28 -10 -40s-14 -23 -21 -34l-43 -77h-56z" />
    <glyph glyph-name="uni013C" unicode="&#x13c;" horiz-adv-x="244" 
d="M85 728h74v-728h-74v728zM99 -187l2 -1c-10 5 -19 12 -27 21s-12 21 -12 36c0 19 6 34 18 45s26 17 42 17c17 0 32 -6 44 -17s18 -26 18 -45c0 -15 -3 -28 -10 -40s-14 -23 -21 -34l-43 -77h-56z" />
    <glyph glyph-name="Lcaron" unicode="&#x13d;" horiz-adv-x="489" 
d="M92 718h78v-635h285v-83h-363v718zM345 609l2 -1c-10 5 -19 12 -27 21s-12 21 -12 36c0 19 6 34 18 45s26 17 42 17c17 0 32 -6 44 -17s18 -26 18 -45c0 -15 -3 -28 -10 -40s-14 -23 -21 -34l-43 -77h-56z" />
    <glyph glyph-name="lcaron" unicode="&#x13e;" horiz-adv-x="355" 
d="M85 728h74v-728h-74v728zM289 609l2 -1c-10 5 -19 12 -27 21s-12 21 -12 36c0 19 6 34 18 45s26 17 42 17c17 0 32 -6 44 -17s18 -26 18 -45c0 -15 -3 -28 -10 -40s-14 -23 -21 -34l-43 -77h-56z" />
    <glyph glyph-name="Ldot" unicode="&#x13f;" horiz-adv-x="523" 
d="M92 718h78v-635h285v-83h-363v718zM326 389c0 17 6 32 18 44s26 18 43 18s32 -6 44 -18s18 -27 18 -44s-6 -32 -18 -44s-27 -18 -44 -18s-31 6 -43 18s-18 27 -18 44z" />
    <glyph glyph-name="ldot" unicode="&#x140;" horiz-adv-x="386" 
d="M85 728h74v-728h-74v728zM257 358c0 17 6 31 17 42s25 17 42 17s31 -6 42 -17s17 -25 17 -42s-6 -31 -17 -42s-25 -17 -42 -17s-31 6 -42 17s-17 25 -17 42z" />
    <glyph glyph-name="Lslash" unicode="&#x141;" horiz-adv-x="483" 
d="M100 270l-90 -48v93l90 49v354h78v-311l193 107v-94l-193 -107v-230h285v-83h-363v270z" />
    <glyph glyph-name="lslash" unicode="&#x142;" horiz-adv-x="371" 
d="M148 321l-95 -51v91l95 52v315h74v-274l95 52v-92l-95 -52v-362h-74v321z" />
    <glyph glyph-name="Nacute" unicode="&#x143;" horiz-adv-x="756" 
d="M92 718h89l405 -598v598h78v-718h-89l-405 595v-595h-78v718zM509 905l-106 -133h-80l63 133h123z" />
    <glyph glyph-name="nacute" unicode="&#x144;" horiz-adv-x="587" 
d="M299 503l2 -3c26 0 52 -4 77 -13s48 -23 68 -41s36 -41 48 -69s18 -61 18 -100v-279h-74v275c0 47 -13 84 -38 110s-58 39 -98 39c-17 0 -33 -3 -49 -8s-30 -12 -43 -21s-24 -19 -33 -31s-15 -25 -18 -39v-323h-74v492h72v-60c7 19 23 36 49 50s57 21 93 21zM431 720
l-106 -143h-74l62 143h118z" />
    <glyph glyph-name="uni0145" unicode="&#x145;" horiz-adv-x="756" 
d="M92 718h89l405 -598v598h78v-718h-89l-405 595v-595h-78v718zM355 -187l2 -1c-10 5 -19 12 -27 21s-12 21 -12 36c0 19 6 34 18 45s26 17 42 17c17 0 32 -6 44 -17s18 -26 18 -45c0 -15 -3 -28 -10 -40s-14 -23 -21 -34l-43 -77h-56z" />
    <glyph glyph-name="uni0146" unicode="&#x146;" horiz-adv-x="587" 
d="M299 503l2 -3c26 0 52 -4 77 -13s48 -23 68 -41s36 -41 48 -69s18 -61 18 -100v-279h-74v275c0 47 -13 84 -38 110s-58 39 -98 39c-17 0 -33 -3 -49 -8s-30 -12 -43 -21s-24 -19 -33 -31s-15 -25 -18 -39v-323h-74v492h72v-60c7 19 23 36 49 50s57 21 93 21zM281 -190
l2 -1c-10 5 -19 12 -27 21s-12 21 -12 36c0 19 6 34 18 45s26 17 42 17c17 0 32 -6 44 -17s18 -26 18 -45c0 -15 -3 -28 -10 -40s-14 -23 -21 -34l-43 -77h-56z" />
    <glyph glyph-name="Ncaron" unicode="&#x147;" horiz-adv-x="756" 
d="M92 718h89l405 -598v598h78v-718h-89l-405 595v-595h-78v718zM322 772l-71 133h71l56 -60l56 60h71l-71 -133h-112z" />
    <glyph glyph-name="ncaron" unicode="&#x148;" horiz-adv-x="587" 
d="M299 503l2 -3c26 0 52 -4 77 -13s48 -23 68 -41s36 -41 48 -69s18 -61 18 -100v-279h-74v275c0 47 -13 84 -38 110s-58 39 -98 39c-17 0 -33 -3 -49 -8s-30 -12 -43 -21s-24 -19 -33 -31s-15 -25 -18 -39v-323h-74v492h72v-60c7 19 23 36 49 50s57 21 93 21zM242 577
l-71 143h74l56 -70l56 70h74l-71 -143h-118z" />
    <glyph glyph-name="napostrophe" unicode="&#x149;" horiz-adv-x="587" 
d="M299 503l2 -3c26 0 52 -4 77 -13s48 -23 68 -41s36 -41 48 -69s18 -61 18 -100v-279h-74v275c0 47 -13 84 -38 110s-58 39 -98 39c-17 0 -33 -3 -49 -8s-30 -12 -43 -21s-24 -19 -33 -31s-15 -25 -18 -39v-323h-74v492h72v-60c7 19 23 36 49 50s57 21 93 21zM129 650
l2 -1c-10 5 -19 12 -27 21s-12 21 -12 36c0 19 6 34 18 45s26 17 42 17c17 0 32 -6 44 -17s18 -26 18 -45c0 -15 -3 -28 -10 -40s-14 -23 -21 -34l-43 -77h-56z" />
    <glyph glyph-name="Eng" unicode="&#x14a;" horiz-adv-x="756" 
d="M92 718l90 1l405 -583v583h78v-755c0 -59 -13 -105 -39 -138s-68 -49 -126 -49c-18 0 -34 2 -48 6s-26 9 -36 15s-18 13 -25 21s-12 16 -15 23l8 79c15 -18 32 -33 51 -44s40 -17 63 -17c28 0 50 9 65 26s23 48 23 92v22l-416 595v-595h-78v718z" />
    <glyph glyph-name="eng" unicode="&#x14b;" horiz-adv-x="587" 
d="M436 275l2 -2c0 47 -13 84 -38 110s-58 39 -98 39c-17 0 -33 -3 -49 -8s-30 -12 -43 -21s-24 -19 -33 -31s-15 -25 -18 -39v-323h-74v492h72v-60c7 19 23 36 49 50s57 21 93 21c26 0 52 -4 77 -13s48 -23 68 -41s36 -41 48 -69s18 -61 18 -100v-350
c0 -102 -37 -153 -112 -153c-12 0 -26 2 -43 6s-30 13 -40 26l7 65c7 -7 16 -12 26 -15s19 -4 26 -4c25 0 42 8 50 24s12 39 12 68v328z" />
    <glyph glyph-name="Omacron" unicode="&#x14c;" horiz-adv-x="790" 
d="M395 -11l-4 -2c-47 0 -92 10 -135 29s-80 45 -112 78s-58 72 -77 117s-28 94 -28 147s10 102 29 147s45 84 77 117s70 59 113 78s88 29 135 29s92 -9 135 -28s81 -45 113 -78s58 -72 77 -117s29 -94 29 -147s-9 -102 -28 -147s-45 -84 -77 -117s-69 -59 -112 -78
s-88 -28 -135 -28zM391 643c-39 0 -75 -7 -109 -21s-63 -34 -88 -59s-44 -55 -58 -90s-21 -73 -21 -114s7 -79 21 -114s33 -65 58 -90s54 -45 88 -59s70 -21 109 -21s75 7 109 21s63 34 88 59s44 55 58 90s21 73 21 114s-7 79 -21 114s-33 65 -58 90s-54 45 -88 59
s-70 21 -109 21zM530 884v-80h-278v80h278z" />
    <glyph glyph-name="omacron" unicode="&#x14d;" 
d="M51 246l-2 -2c0 37 7 71 20 102s31 58 54 81s50 41 80 54s62 20 95 20s65 -6 95 -19s57 -31 80 -54s41 -50 54 -81s20 -65 20 -102s-7 -71 -20 -102s-31 -58 -54 -81s-49 -41 -79 -54s-62 -19 -95 -19s-65 7 -95 20s-56 31 -79 54s-41 50 -54 81s-20 65 -20 102zM298 421
h-3c-25 0 -48 -4 -69 -13s-39 -21 -54 -37s-27 -35 -36 -57s-13 -46 -13 -72s5 -50 14 -72s21 -41 36 -57s33 -28 54 -37s44 -13 69 -13s48 4 70 13s41 21 56 37s27 35 36 57s14 46 14 72s-4 50 -13 72s-21 41 -36 57s-33 28 -55 37s-45 13 -70 13zM434 694v-78h-278v78h278
z" />
    <glyph glyph-name="Obreve" unicode="&#x14e;" horiz-adv-x="790" 
d="M395 -11l-4 -2c-47 0 -92 10 -135 29s-80 45 -112 78s-58 72 -77 117s-28 94 -28 147s10 102 29 147s45 84 77 117s70 59 113 78s88 29 135 29s92 -9 135 -28s81 -45 113 -78s58 -72 77 -117s29 -94 29 -147s-9 -102 -28 -147s-45 -84 -77 -117s-69 -59 -112 -78
s-88 -28 -135 -28zM391 643c-39 0 -75 -7 -109 -21s-63 -34 -88 -59s-44 -55 -58 -90s-21 -73 -21 -114s7 -79 21 -114s33 -65 58 -90s54 -45 88 -59s70 -21 109 -21s75 7 109 21s63 34 88 59s44 55 58 90s21 73 21 114s-7 79 -21 114s-33 65 -58 90s-54 45 -88 59
s-70 21 -109 21zM391 776v-2c-20 0 -38 3 -55 10s-32 16 -44 28s-22 26 -30 42s-12 34 -13 53h78c3 -14 10 -25 22 -34s26 -13 43 -13s31 5 43 14s19 21 22 35h78c-1 -19 -5 -37 -13 -53s-18 -30 -31 -42s-28 -21 -45 -28s-35 -10 -55 -10z" />
    <glyph glyph-name="obreve" unicode="&#x14f;" 
d="M51 246l-2 -2c0 37 7 71 20 102s31 58 54 81s50 41 80 54s62 20 95 20s65 -6 95 -19s57 -31 80 -54s41 -50 54 -81s20 -65 20 -102s-7 -71 -20 -102s-31 -58 -54 -81s-49 -41 -79 -54s-62 -19 -95 -19s-65 7 -95 20s-56 31 -79 54s-41 50 -54 81s-20 65 -20 102zM298 421
h-3c-25 0 -48 -4 -69 -13s-39 -21 -54 -37s-27 -35 -36 -57s-13 -46 -13 -72s5 -50 14 -72s21 -41 36 -57s33 -28 54 -37s44 -13 69 -13s48 4 70 13s41 21 56 37s27 35 36 57s14 46 14 72s-4 50 -13 72s-21 41 -36 57s-33 28 -55 37s-45 13 -70 13zM295 579v-2
c-20 0 -38 3 -55 10s-32 16 -44 28s-22 26 -30 42s-12 34 -13 53h78c3 -14 10 -25 22 -34s26 -13 43 -13s31 5 43 14s19 21 22 35h78c-1 -19 -5 -37 -13 -53s-18 -30 -31 -42s-28 -21 -45 -28s-35 -10 -55 -10z" />
    <glyph glyph-name="Ohungarumlaut" unicode="&#x150;" horiz-adv-x="790" 
d="M395 -11l-4 -2c-47 0 -92 10 -135 29s-80 45 -112 78s-58 72 -77 117s-28 94 -28 147s10 102 29 147s45 84 77 117s70 59 113 78s88 29 135 29s92 -9 135 -28s81 -45 113 -78s58 -72 77 -117s29 -94 29 -147s-9 -102 -28 -147s-45 -84 -77 -117s-69 -59 -112 -78
s-88 -28 -135 -28zM391 643c-39 0 -75 -7 -109 -21s-63 -34 -88 -59s-44 -55 -58 -90s-21 -73 -21 -114s7 -79 21 -114s33 -65 58 -90s54 -45 88 -59s70 -21 109 -21s75 7 109 21s63 34 88 59s44 55 58 90s21 73 21 114s-7 79 -21 114s-33 65 -58 90s-54 45 -88 59
s-70 21 -109 21zM442 917l-106 -147h-70l63 147h113zM601 917l-105 -147h-71l63 147h113z" />
    <glyph glyph-name="ohungarumlaut" unicode="&#x151;" horiz-adv-x="594" 
d="M51 246l-2 -2c0 37 7 71 20 102s31 58 54 81s50 41 80 54s62 20 95 20s65 -6 95 -19s57 -31 80 -54s41 -50 54 -81s20 -65 20 -102s-7 -71 -20 -102s-31 -58 -54 -81s-49 -41 -79 -54s-62 -19 -95 -19s-65 7 -95 20s-56 31 -79 54s-41 50 -54 81s-20 65 -20 102zM298 421
h-3c-25 0 -48 -4 -69 -13s-39 -21 -54 -37s-27 -35 -36 -57s-13 -46 -13 -72s5 -50 14 -72s21 -41 36 -57s33 -28 54 -37s44 -13 69 -13s48 4 70 13s41 21 56 37s27 35 36 57s14 46 14 72s-4 50 -13 72s-21 41 -36 57s-33 28 -55 37s-45 13 -70 13zM350 721l-106 -143h-70
l63 143h113zM509 721l-105 -143h-71l63 143h113z" />
    <glyph glyph-name="OE" unicode="&#x152;" horiz-adv-x="1109" 
d="M670 127h-2c-33 -43 -74 -77 -122 -102s-99 -37 -153 -37c-47 0 -92 10 -135 29s-80 45 -112 78s-58 72 -77 117s-28 94 -28 147s10 102 29 147s45 84 77 117s70 59 113 78s88 29 135 29c54 0 105 -12 153 -37s89 -59 122 -102v127h379v-83h-301v-224h271v-83h-271v-245
h301v-83h-379v127zM393 645l-1 -3c-39 0 -75 -7 -109 -21s-63 -34 -88 -59s-44 -55 -58 -90s-21 -73 -21 -114s7 -79 21 -114s33 -65 58 -90s54 -45 88 -59s70 -21 109 -21c38 0 73 7 106 21s62 33 87 57s45 53 60 86s23 70 24 110v13c0 41 -7 79 -21 114s-33 65 -58 90
s-54 45 -88 59s-70 21 -109 21z" />
    <glyph glyph-name="oe" unicode="&#x153;" horiz-adv-x="995" 
d="M51 246l-2 -1c0 37 7 71 20 102s31 58 54 81s50 41 80 54s62 20 95 20c43 0 83 -11 120 -32s67 -50 90 -86c20 36 48 65 83 86s76 32 123 32c34 0 65 -6 93 -19s52 -31 72 -54s36 -49 47 -79s17 -62 17 -96c0 -11 -1 -22 -3 -34h-391c5 -51 24 -88 57 -112
s73 -36 120 -36c36 0 67 5 93 16s49 27 69 48l14 -65c-5 -11 -13 -22 -24 -32s-24 -19 -40 -26s-33 -13 -52 -18s-39 -7 -60 -7c-47 0 -90 10 -128 30s-68 49 -89 87c-23 -36 -53 -64 -90 -85s-77 -31 -120 -31c-33 0 -65 7 -95 20s-56 31 -79 54s-41 50 -54 81
s-20 65 -20 102zM298 422h-3c-25 0 -48 -4 -69 -13s-39 -21 -54 -37s-27 -35 -36 -57s-13 -46 -13 -72s5 -50 14 -72s21 -41 36 -57s33 -28 54 -37s44 -13 69 -13s48 4 70 13s41 21 56 37s27 35 36 57s14 46 14 72s-4 50 -13 72s-21 41 -36 57s-33 28 -55 37s-45 13 -70 13z
M710 422l-2 -1c-18 0 -36 -2 -53 -7s-33 -13 -48 -23s-27 -23 -37 -39s-17 -34 -21 -55h310c-5 39 -21 70 -48 92s-61 33 -101 33z" />
    <glyph glyph-name="Racute" unicode="&#x154;" horiz-adv-x="558" 
d="M92 718h191c27 0 53 -4 79 -12s49 -20 70 -36s38 -37 50 -62s18 -54 18 -88c0 -27 -4 -52 -12 -74s-19 -41 -33 -58s-31 -31 -51 -42s-42 -19 -65 -24l178 -322h-92l-172 313h-83v-313h-78v718zM168 635l-1 -240h122c17 0 34 3 50 8s30 13 42 23s22 22 29 37s11 32 11 51
c0 35 -11 64 -32 87s-49 34 -84 34h-137zM403 904l-106 -133h-80l63 133h123z" />
    <glyph glyph-name="racute" unicode="&#x155;" horiz-adv-x="393" 
d="M344 401h3c-17 15 -41 22 -72 22c-30 0 -55 -10 -75 -31s-33 -46 -39 -75v-318h-74v492h72v-62c7 21 20 38 38 52s43 21 75 21c19 0 36 -3 51 -9s26 -15 33 -26zM182 580l63 143h117l-105 -143h-75z" />
    <glyph glyph-name="uni0156" unicode="&#x156;" horiz-adv-x="558" 
d="M92 718h191c27 0 53 -4 79 -12s49 -20 70 -36s38 -37 50 -62s18 -54 18 -88c0 -27 -4 -52 -12 -74s-19 -41 -33 -58s-31 -31 -51 -42s-42 -19 -65 -24l178 -322h-92l-172 313h-83v-313h-78v718zM168 635l-1 -240h122c17 0 34 3 50 8s30 13 42 23s22 22 29 37s11 32 11 51
c0 35 -11 64 -32 87s-49 34 -84 34h-137zM270 -188l2 -1c-10 5 -19 12 -27 21s-12 21 -12 36c0 19 6 34 18 45s26 17 42 17c17 0 32 -6 44 -17s18 -26 18 -45c0 -15 -3 -28 -10 -40s-14 -23 -21 -34l-43 -77h-56z" />
    <glyph glyph-name="uni0157" unicode="&#x157;" horiz-adv-x="384" 
d="M344 401h3c-17 15 -41 22 -72 22c-30 0 -55 -10 -75 -31s-33 -46 -39 -75v-318h-74v492h72v-62c7 21 20 38 38 52s43 21 75 21c19 0 36 -3 51 -9s26 -15 33 -26zM104 -187l2 -1c-10 5 -19 12 -27 21s-12 21 -12 36c0 19 6 34 18 45s26 17 42 17c17 0 32 -6 44 -17
s18 -26 18 -45c0 -15 -3 -28 -10 -40s-14 -23 -21 -34l-43 -77h-56z" />
    <glyph glyph-name="Rcaron" unicode="&#x158;" horiz-adv-x="558" 
d="M92 718h191c27 0 53 -4 79 -12s49 -20 70 -36s38 -37 50 -62s18 -54 18 -88c0 -27 -4 -52 -12 -74s-19 -41 -33 -58s-31 -31 -51 -42s-42 -19 -65 -24l178 -322h-92l-172 313h-83v-313h-78v718zM168 635l-1 -240h122c17 0 34 3 50 8s30 13 42 23s22 22 29 37s11 32 11 51
c0 35 -11 64 -32 87s-49 34 -84 34h-137zM212 771l-71 133h71l56 -60l56 60h71l-71 -133h-112z" />
    <glyph glyph-name="rcaron" unicode="&#x159;" horiz-adv-x="393" 
d="M344 401h3c-17 15 -41 22 -72 22c-30 0 -55 -10 -75 -31s-33 -46 -39 -75v-318h-74v492h72v-62c7 21 20 38 38 52s43 21 75 21c19 0 36 -3 51 -9s26 -15 33 -26zM163 580l-71 143h74l56 -70l56 70h74l-71 -143h-118z" />
    <glyph glyph-name="Sacute" unicode="&#x15a;" horiz-adv-x="483" 
d="M346 349l-3 -1c29 -27 52 -54 68 -81s24 -58 24 -94c0 -27 -5 -52 -14 -75s-22 -42 -39 -58s-38 -28 -62 -37s-51 -13 -81 -13c-25 0 -49 4 -72 12s-44 18 -62 30s-34 25 -47 39s-22 28 -27 42l23 80c23 -38 51 -67 83 -87s69 -30 111 -30c37 0 65 9 84 27s28 41 28 69
c0 23 -6 43 -19 61s-28 34 -45 49c-46 38 -82 69 -109 93s-48 44 -63 59c-25 25 -42 48 -52 69s-15 44 -15 69c0 48 16 86 48 115s75 43 128 43c39 0 74 -9 106 -28s56 -42 71 -69l-19 -80c-19 27 -42 49 -69 67s-57 27 -91 27c-28 0 -51 -6 -69 -19s-27 -32 -27 -58
c0 -10 2 -19 6 -28s9 -17 15 -25s13 -15 20 -22s14 -13 20 -18c29 -24 53 -43 71 -58s32 -27 42 -36s18 -16 23 -21s10 -9 14 -13zM375 904l-106 -133h-80l63 133h123z" />
    <glyph glyph-name="sacute" unicode="&#x15b;" horiz-adv-x="416" 
d="M155 240l-2 -3c-32 17 -56 37 -72 60s-24 48 -24 74c0 38 12 69 37 93s62 36 111 36c17 0 33 -2 48 -7s29 -11 41 -18s22 -15 30 -23s14 -16 18 -24l-14 -67c-17 18 -36 32 -57 43s-44 16 -69 16c-17 0 -33 -4 -48 -11s-22 -20 -22 -38c0 -15 6 -27 19 -36s28 -18 45 -27
l60 -33c37 -20 65 -41 83 -63s27 -49 27 -82c0 -21 -4 -40 -12 -57s-19 -32 -33 -45s-31 -23 -52 -30s-44 -10 -70 -10c-18 0 -35 2 -51 7s-31 11 -45 19s-26 17 -36 27s-18 20 -23 31l16 68c20 -23 42 -40 67 -51s51 -16 79 -16c10 0 20 1 30 3s19 5 27 10s15 11 20 18
s8 16 8 27c0 16 -7 30 -22 42s-34 24 -57 36zM331 720l-106 -143h-74l62 143h118z" />
    <glyph glyph-name="Scircumflex" unicode="&#x15c;" horiz-adv-x="483" 
d="M346 349l-3 -1c29 -27 52 -54 68 -81s24 -58 24 -94c0 -27 -5 -52 -14 -75s-22 -42 -39 -58s-38 -28 -62 -37s-51 -13 -81 -13c-25 0 -49 4 -72 12s-44 18 -62 30s-34 25 -47 39s-22 28 -27 42l23 80c23 -38 51 -67 83 -87s69 -30 111 -30c37 0 65 9 84 27s28 41 28 69
c0 23 -6 43 -19 61s-28 34 -45 49c-46 38 -82 69 -109 93s-48 44 -63 59c-25 25 -42 48 -52 69s-15 44 -15 69c0 48 16 86 48 115s75 43 128 43c39 0 74 -9 106 -28s56 -42 71 -69l-19 -80c-19 27 -42 49 -69 67s-57 27 -91 27c-28 0 -51 -6 -69 -19s-27 -32 -27 -58
c0 -10 2 -19 6 -28s9 -17 15 -25s13 -15 20 -22s14 -13 20 -18c29 -24 53 -43 71 -58s32 -27 42 -36s18 -16 23 -21s10 -9 14 -13zM290 904l71 -133h-71l-56 60l-56 -60h-71l71 133h112z" />
    <glyph glyph-name="scircumflex" unicode="&#x15d;" horiz-adv-x="416" 
d="M155 240l-2 -3c-32 17 -56 37 -72 60s-24 48 -24 74c0 38 12 69 37 93s62 36 111 36c17 0 33 -2 48 -7s29 -11 41 -18s22 -15 30 -23s14 -16 18 -24l-14 -67c-17 18 -36 32 -57 43s-44 16 -69 16c-17 0 -33 -4 -48 -11s-22 -20 -22 -38c0 -15 6 -27 19 -36s28 -18 45 -27
l60 -33c37 -20 65 -41 83 -63s27 -49 27 -82c0 -21 -4 -40 -12 -57s-19 -32 -33 -45s-31 -23 -52 -30s-44 -10 -70 -10c-18 0 -35 2 -51 7s-31 11 -45 19s-26 17 -36 27s-18 20 -23 31l16 68c20 -23 42 -40 67 -51s51 -16 79 -16c10 0 20 1 30 3s19 5 27 10s15 11 20 18
s8 16 8 27c0 16 -7 30 -22 42s-34 24 -57 36zM263 720l71 -143h-74l-56 70l-56 -70h-74l71 143h118z" />
    <glyph glyph-name="Scedilla" unicode="&#x15e;" horiz-adv-x="483" 
d="M248 -47l-3 4c13 -1 25 -3 37 -7s23 -9 32 -16s17 -16 23 -26s9 -21 9 -34c0 -28 -10 -50 -31 -66s-46 -24 -76 -24c-21 0 -42 4 -62 13s-36 20 -47 33l11 52c26 -21 56 -32 89 -32c13 0 24 3 32 8s12 12 12 21s-4 16 -12 21s-18 8 -30 8c-6 0 -12 0 -17 -1
s-11 -2 -17 -4l-18 32l18 61c-21 3 -40 9 -58 17s-34 18 -49 29s-27 23 -37 35s-17 24 -21 36l23 80c23 -38 51 -67 83 -87s69 -30 111 -30c37 0 65 9 84 27s28 41 28 69c0 23 -6 43 -19 61s-28 34 -45 49c-46 38 -82 69 -109 93s-48 44 -63 59c-25 25 -42 48 -52 69
s-15 44 -15 69c0 48 16 86 48 115s75 43 128 43c39 0 74 -9 106 -28s56 -42 71 -69l-19 -80c-19 27 -42 49 -69 67s-57 27 -91 27c-28 0 -51 -6 -69 -19s-27 -32 -27 -58c0 -10 2 -19 6 -28s9 -17 15 -25s13 -15 20 -22s14 -13 20 -18c29 -24 53 -43 71 -58s32 -27 42 -36
s18 -16 23 -21s10 -9 14 -13c29 -27 52 -54 68 -81s24 -58 24 -94c0 -26 -4 -50 -13 -72s-21 -41 -37 -57s-35 -29 -57 -38s-47 -15 -74 -17l-11 -37v0z" />
    <glyph glyph-name="scedilla" unicode="&#x15f;" horiz-adv-x="416" 
d="M216 -47h-3c13 -1 25 -3 37 -7s23 -9 32 -16s17 -16 23 -26s9 -21 9 -34c0 -28 -10 -50 -31 -66s-46 -24 -76 -24c-21 0 -42 4 -62 13s-36 20 -47 33l11 52c26 -21 56 -32 89 -32c13 0 24 3 32 8s12 12 12 21s-4 16 -12 21s-18 8 -30 8c-6 0 -12 0 -17 -1s-11 -2 -17 -4
l-18 32l18 60c-29 5 -55 15 -77 30s-38 32 -47 51l16 68c20 -23 42 -40 67 -51s51 -16 79 -16c10 0 20 1 30 3s19 5 27 10s15 11 20 18s8 16 8 27c0 16 -7 30 -22 42s-34 24 -57 36l-57 31c-32 17 -56 37 -72 60s-24 48 -24 74c0 38 12 69 37 93s62 36 111 36
c17 0 33 -2 48 -7s29 -11 41 -18s22 -15 30 -23s14 -16 18 -24l-14 -67c-17 18 -36 32 -57 43s-44 16 -69 16c-17 0 -33 -4 -48 -11s-22 -20 -22 -38c0 -15 6 -27 19 -36s28 -18 45 -27l60 -33c37 -20 65 -41 83 -63s27 -49 27 -82c0 -38 -12 -70 -37 -96s-59 -41 -102 -46
l-11 -38v0z" />
    <glyph glyph-name="Scaron" unicode="&#x160;" horiz-adv-x="483" 
d="M346 349l-3 -1c29 -27 52 -54 68 -81s24 -58 24 -94c0 -27 -5 -52 -14 -75s-22 -42 -39 -58s-38 -28 -62 -37s-51 -13 -81 -13c-25 0 -49 4 -72 12s-44 18 -62 30s-34 25 -47 39s-22 28 -27 42l23 80c23 -38 51 -67 83 -87s69 -30 111 -30c37 0 65 9 84 27s28 41 28 69
c0 23 -6 43 -19 61s-28 34 -45 49c-46 38 -82 69 -109 93s-48 44 -63 59c-25 25 -42 48 -52 69s-15 44 -15 69c0 48 16 86 48 115s75 43 128 43c39 0 74 -9 106 -28s56 -42 71 -69l-19 -80c-19 27 -42 49 -69 67s-57 27 -91 27c-28 0 -51 -6 -69 -19s-27 -32 -27 -58
c0 -10 2 -19 6 -28s9 -17 15 -25s13 -15 20 -22s14 -13 20 -18c29 -24 53 -43 71 -58s32 -27 42 -36s18 -16 23 -21s10 -9 14 -13zM178 771l-71 133h71l56 -60l56 60h71l-71 -133h-112z" />
    <glyph glyph-name="scaron" unicode="&#x161;" horiz-adv-x="416" 
d="M155 240l-2 -3c-32 17 -56 37 -72 60s-24 48 -24 74c0 38 12 69 37 93s62 36 111 36c17 0 33 -2 48 -7s29 -11 41 -18s22 -15 30 -23s14 -16 18 -24l-14 -67c-17 18 -36 32 -57 43s-44 16 -69 16c-17 0 -33 -4 -48 -11s-22 -20 -22 -38c0 -15 6 -27 19 -36s28 -18 45 -27
l60 -33c37 -20 65 -41 83 -63s27 -49 27 -82c0 -21 -4 -40 -12 -57s-19 -32 -33 -45s-31 -23 -52 -30s-44 -10 -70 -10c-18 0 -35 2 -51 7s-31 11 -45 19s-26 17 -36 27s-18 20 -23 31l16 68c20 -23 42 -40 67 -51s51 -16 79 -16c10 0 20 1 30 3s19 5 27 10s15 11 20 18
s8 16 8 27c0 16 -7 30 -22 42s-34 24 -57 36zM144 577l-71 143h74l56 -70l56 70h74l-71 -143h-118z" />
    <glyph glyph-name="uni0162" unicode="&#x162;" horiz-adv-x="575" 
d="M304 -47l-2 1c13 -1 25 -3 37 -7s23 -9 32 -16s17 -16 23 -26s9 -21 9 -34c0 -28 -10 -50 -31 -66s-46 -24 -76 -24c-21 0 -42 4 -62 13s-36 20 -47 33l11 52c26 -21 56 -32 89 -32c13 0 24 3 32 8s12 12 12 21s-4 16 -12 21s-18 8 -30 8c-6 0 -12 0 -17 -1
s-11 -2 -17 -4l-18 32l20 68h-9v637h-232v81h543v-81h-233v-637h-8l-14 -47v0z" />
    <glyph glyph-name="uni0163" unicode="&#x163;" horiz-adv-x="432" 
d="M254 -47l-2 1c13 -1 25 -3 37 -7s23 -9 32 -16s17 -16 23 -26s9 -21 9 -34c0 -28 -10 -50 -31 -66s-46 -24 -76 -24c-21 0 -42 4 -62 13s-36 20 -47 33l11 52c26 -21 56 -32 89 -32c13 0 24 3 32 8s12 12 12 21s-4 16 -12 21s-18 8 -30 8c-6 0 -12 0 -17 -1
s-11 -2 -17 -4l-18 32l20 66c-55 19 -82 71 -82 156v259h-90v24l139 178h24v-124h182v-78h-181v-246c0 -34 7 -58 21 -73s34 -22 61 -22c21 0 38 4 51 13s24 19 33 30l17 -64c-7 -17 -21 -32 -42 -44s-46 -18 -76 -18l-10 -36v0z" />
    <glyph glyph-name="Tcaron" unicode="&#x164;" horiz-adv-x="575" 
d="M16 718h543v-81h-233v-637h-78v637h-232v81zM231 772l-71 133h71l56 -60l56 60h71l-71 -133h-112z" />
    <glyph glyph-name="tcaron" unicode="&#x165;" horiz-adv-x="581" 
d="M383 51l-1 -1c-7 -17 -21 -32 -42 -44s-46 -18 -76 -18c-44 0 -78 13 -102 40s-36 69 -36 126v259h-90v24l139 178h24v-124h182v-78h-181v-246c0 -34 7 -58 21 -73s34 -22 61 -22c21 0 38 4 51 13s24 19 33 30zM489 555l2 -1c-10 5 -19 12 -27 21s-12 21 -12 36
c0 19 6 34 18 45s26 17 42 17c17 0 32 -6 44 -17s18 -26 18 -45c0 -15 -3 -28 -10 -40s-14 -23 -21 -34l-43 -77h-56z" />
    <glyph glyph-name="Tbar" unicode="&#x166;" horiz-adv-x="575" 
d="M16 718h543v-81h-233v-227h135v-81h-135v-329h-78v329h-134v81h134v227h-232v81z" />
    <glyph glyph-name="tbar" unicode="&#x167;" horiz-adv-x="432" 
d="M35 316l89 -1v98h-90v24l139 178h24v-124h182v-78h-181v-98h181v-78h-181v-70c0 -34 7 -58 21 -73s34 -22 61 -22c21 0 38 4 51 13s24 19 33 30l17 -64c-7 -17 -21 -32 -42 -44s-46 -18 -76 -18c-44 0 -78 13 -102 40s-36 69 -36 126v83h-90v78z" />
    <glyph glyph-name="Utilde" unicode="&#x168;" horiz-adv-x="736" 
d="M571 718l79 3v-430c0 -43 -6 -83 -19 -120s-32 -69 -57 -96s-55 -48 -90 -63s-74 -22 -117 -22c-42 0 -80 7 -115 21s-65 34 -90 60s-44 57 -57 94s-20 78 -20 123v431h78v-434c0 -32 5 -61 15 -87s24 -48 42 -66s40 -32 65 -42s53 -15 83 -15c31 0 59 5 84 15
s46 24 63 42s31 40 41 66s15 55 15 87v433zM218 784v-1c-3 7 -5 15 -7 23s-3 16 -3 24c0 25 8 45 24 60s36 23 59 23c15 0 29 -3 42 -9s25 -12 36 -19s22 -13 33 -19s22 -9 33 -9s20 3 26 10s9 17 9 30v7c0 2 0 5 -1 8h49c6 -16 9 -31 9 -46c0 -26 -8 -46 -24 -61
s-35 -22 -58 -22c-15 0 -29 3 -42 9s-25 12 -37 19s-23 13 -34 19s-21 9 -31 9c-11 0 -20 -3 -26 -10s-9 -17 -9 -30v-7c0 -2 0 -5 1 -8h-49z" />
    <glyph glyph-name="utilde" unicode="&#x169;" horiz-adv-x="583" 
d="M286 -11h-2c-26 0 -51 5 -76 14s-47 23 -67 41s-36 41 -48 69s-18 61 -18 100v279h74v-275c0 -47 12 -83 37 -109s57 -39 97 -39c17 0 33 3 49 8s30 12 43 21s24 20 33 32s15 25 18 39v323h74v-492h-72v60c-7 -19 -23 -36 -49 -50s-57 -21 -93 -21zM143 583l-2 -2
c-3 7 -5 15 -7 23s-3 16 -3 24c0 25 8 46 24 62s36 24 59 24c15 0 29 -3 42 -9s25 -12 36 -19s21 -13 31 -19s19 -9 27 -9c21 0 31 13 31 39v7c0 2 0 5 -1 8h53c6 -16 9 -31 9 -46c0 -26 -8 -47 -24 -62s-35 -23 -58 -23c-15 0 -29 3 -42 9s-25 12 -36 19s-21 13 -30 19
s-18 9 -26 9c-21 0 -31 -13 -31 -39v-7c0 -2 0 -5 1 -8h-53z" />
    <glyph glyph-name="Umacron" unicode="&#x16a;" horiz-adv-x="736" 
d="M571 718l79 3v-430c0 -43 -6 -83 -19 -120s-32 -69 -57 -96s-55 -48 -90 -63s-74 -22 -117 -22c-42 0 -80 7 -115 21s-65 34 -90 60s-44 57 -57 94s-20 78 -20 123v431h78v-434c0 -32 5 -61 15 -87s24 -48 42 -66s40 -32 65 -42s53 -15 83 -15c31 0 59 5 84 15
s46 24 63 42s31 40 41 66s15 55 15 87v433zM508 889v-80h-278v80h278z" />
    <glyph glyph-name="umacron" unicode="&#x16b;" horiz-adv-x="583" 
d="M286 -11h-2c-26 0 -51 5 -76 14s-47 23 -67 41s-36 41 -48 69s-18 61 -18 100v279h74v-275c0 -47 12 -83 37 -109s57 -39 97 -39c17 0 33 3 49 8s30 12 43 21s24 20 33 32s15 25 18 39v323h74v-492h-72v60c-7 -19 -23 -36 -49 -50s-57 -21 -93 -21zM427 696v-78h-278v78
h278z" />
    <glyph glyph-name="Ubreve" unicode="&#x16c;" horiz-adv-x="736" 
d="M571 718l79 3v-430c0 -43 -6 -83 -19 -120s-32 -69 -57 -96s-55 -48 -90 -63s-74 -22 -117 -22c-42 0 -80 7 -115 21s-65 34 -90 60s-44 57 -57 94s-20 78 -20 123v431h78v-434c0 -32 5 -61 15 -87s24 -48 42 -66s40 -32 65 -42s53 -15 83 -15c31 0 59 5 84 15
s46 24 63 42s31 40 41 66s15 55 15 87v433zM369 781v-2c-20 0 -38 3 -55 10s-32 16 -44 28s-22 26 -30 42s-12 34 -13 53h78c3 -14 10 -25 22 -34s26 -13 43 -13s31 5 43 14s19 21 22 35h78c-1 -19 -5 -37 -13 -53s-18 -30 -31 -42s-28 -21 -45 -28s-35 -10 -55 -10z" />
    <glyph glyph-name="ubreve" unicode="&#x16d;" horiz-adv-x="583" 
d="M286 -11h-2c-26 0 -51 5 -76 14s-47 23 -67 41s-36 41 -48 69s-18 61 -18 100v279h74v-275c0 -47 12 -83 37 -109s57 -39 97 -39c17 0 33 3 49 8s30 12 43 21s24 20 33 32s15 25 18 39v323h74v-492h-72v60c-7 -19 -23 -36 -49 -50s-57 -21 -93 -21zM288 581v-2
c-20 0 -38 3 -55 10s-32 16 -44 28s-22 26 -30 42s-12 34 -13 53h78c3 -14 10 -25 22 -34s26 -13 43 -13s31 5 43 14s19 21 22 35h78c-1 -19 -5 -37 -13 -53s-18 -30 -31 -42s-28 -21 -45 -28s-35 -10 -55 -10z" />
    <glyph glyph-name="Uring" unicode="&#x16e;" horiz-adv-x="736" 
d="M571 718l79 3v-430c0 -43 -6 -83 -19 -120s-32 -69 -57 -96s-55 -48 -90 -63s-74 -22 -117 -22c-42 0 -80 7 -115 21s-65 34 -90 60s-44 57 -57 94s-20 78 -20 123v431h78v-434c0 -32 5 -61 15 -87s24 -48 42 -66s40 -32 65 -42s53 -15 83 -15c31 0 59 5 84 15
s46 24 63 42s31 40 41 66s15 55 15 87v433zM267 863c0 15 3 29 8 41s12 23 21 32s20 16 32 21s25 8 39 8c29 0 53 -10 73 -29s30 -43 30 -72s-10 -53 -30 -73s-44 -30 -73 -30c-14 0 -27 3 -39 8s-23 12 -32 21s-16 20 -21 33s-8 26 -8 40zM322 863h-1c0 -13 4 -24 13 -32
s20 -12 33 -12s24 4 33 12s14 19 14 32s-4 24 -13 32s-20 12 -33 12s-24 -4 -33 -12s-13 -19 -13 -32z" />
    <glyph glyph-name="uring" unicode="&#x16f;" horiz-adv-x="583" 
d="M286 -11h-2c-26 0 -51 5 -76 14s-47 23 -67 41s-36 41 -48 69s-18 61 -18 100v279h74v-275c0 -47 12 -83 37 -109s57 -39 97 -39c17 0 33 3 49 8s30 12 43 21s24 20 33 32s15 25 18 39v323h74v-492h-72v60c-7 -19 -23 -36 -49 -50s-57 -21 -93 -21zM189 660
c0 29 10 53 29 72s43 29 72 29s53 -10 72 -29s29 -43 29 -72s-10 -53 -29 -72s-43 -29 -72 -29s-53 10 -72 29s-29 43 -29 72zM290 704c-13 0 -24 -4 -33 -12s-13 -19 -13 -32s4 -24 13 -32s20 -12 33 -12s24 4 33 12s13 19 13 32s-4 24 -13 32s-20 12 -33 12z" />
    <glyph glyph-name="Uhungarumlaut" unicode="&#x170;" horiz-adv-x="736" 
d="M571 718l79 3v-430c0 -43 -6 -83 -19 -120s-32 -69 -57 -96s-55 -48 -90 -63s-74 -22 -117 -22c-42 0 -80 7 -115 21s-65 34 -90 60s-44 57 -57 94s-20 78 -20 123v431h78v-434c0 -32 5 -61 15 -87s24 -48 42 -66s40 -32 65 -42s53 -15 83 -15c31 0 59 5 84 15
s46 24 63 42s31 40 41 66s15 55 15 87v433zM407 922l-106 -147h-70l63 147h113zM566 922l-105 -147h-71l63 147h113z" />
    <glyph glyph-name="uhungarumlaut" unicode="&#x171;" horiz-adv-x="583" 
d="M286 -11h-2c-26 0 -51 5 -76 14s-47 23 -67 41s-36 41 -48 69s-18 61 -18 100v279h74v-275c0 -47 12 -83 37 -109s57 -39 97 -39c17 0 33 3 49 8s30 12 43 21s24 20 33 32s15 25 18 39v323h74v-492h-72v60c-7 -19 -23 -36 -49 -50s-57 -21 -93 -21zM335 723l-106 -143
h-70l63 143h113zM494 723l-105 -143h-71l63 143h113z" />
    <glyph glyph-name="Uogonek" unicode="&#x172;" horiz-adv-x="736" 
d="M571 718l74 -2v-430c0 -73 -17 -135 -51 -186s-81 -85 -141 -102c-9 -9 -17 -21 -24 -35s-10 -28 -10 -42c0 -17 5 -30 15 -40s23 -15 38 -15c10 0 19 2 26 6l12 -58c-5 -6 -12 -11 -22 -15s-22 -6 -37 -6c-34 0 -59 10 -76 30s-25 44 -25 71c0 21 4 40 13 57
s18 30 28 39h-12h-12c-42 0 -80 7 -115 21s-65 34 -90 60s-44 57 -57 94s-20 78 -20 123v431h78v-434c0 -32 5 -61 15 -87s24 -48 42 -66s40 -32 65 -42s53 -15 83 -15c31 0 59 5 84 15s46 24 63 42s31 40 41 66s15 55 15 87v433z" />
    <glyph glyph-name="uogonek" unicode="&#x173;" horiz-adv-x="583" 
d="M427 0l-1 58c-7 -19 -23 -36 -49 -50s-57 -21 -93 -21c-26 0 -51 5 -76 14s-47 23 -67 41s-36 41 -48 69s-18 61 -18 100v279h74v-275c0 -47 12 -83 37 -109s57 -39 97 -39c17 0 33 3 49 8s30 12 43 21s24 20 33 32s15 25 18 39v323h74v-492c-9 -9 -17 -21 -24 -35
s-10 -28 -10 -42c0 -17 5 -30 15 -40s23 -15 38 -15c10 0 19 2 26 6l12 -58c-5 -6 -12 -11 -22 -15s-22 -6 -37 -6c-34 0 -59 10 -76 30s-25 44 -25 71c0 13 2 25 5 36s7 21 12 30s11 17 17 24s12 12 17 16h-21z" />
    <glyph glyph-name="Wcircumflex" unicode="&#x174;" horiz-adv-x="1011" 
d="M714 144l187 574h88l-238 -718h-79l-169 601l-164 -601h-79l-238 718h82l191 -574l163 574h86zM565 905l71 -133h-71l-56 60l-56 -60h-71l71 133h112z" />
    <glyph glyph-name="wcircumflex" unicode="&#x175;" horiz-adv-x="833" 
d="M577 107l151 385h85l-194 -492h-79l-124 386l-121 -386h-81l-194 492h81l149 -386l126 386h79zM475 723l71 -143h-74l-56 70l-56 -70h-74l71 143h118z" />
    <glyph glyph-name="Ycircumflex" unicode="&#x176;" horiz-adv-x="542" 
d="M9 718h89l171 -325l171 325h92l-221 -420v-298h-78v298zM327 905l71 -133h-71l-56 60l-56 -60h-71l71 133h112z" />
    <glyph glyph-name="ycircumflex" unicode="&#x177;" horiz-adv-x="531" 
d="M18 492h85l164 -388l158 388h85l-293 -705h-85l93 225zM324 723l71 -143h-74l-56 70l-56 -70h-74l71 143h118z" />
    <glyph glyph-name="Ydieresis" unicode="&#x178;" horiz-adv-x="542" 
d="M9 718h89l171 -325l171 325h92l-221 -420v-298h-78v298zM108 842c0 18 6 33 18 45s27 18 45 18s33 -6 45 -18s18 -27 18 -45s-6 -33 -18 -45s-27 -18 -45 -18s-33 6 -45 18s-18 27 -18 45zM307 842c0 18 6 33 18 45s27 18 45 18s33 -6 45 -18s18 -27 18 -45
s-6 -33 -18 -45s-27 -18 -45 -18s-33 6 -45 18s-18 27 -18 45z" />
    <glyph glyph-name="Zacute" unicode="&#x179;" horiz-adv-x="500" 
d="M56 718h386v-58l-296 -577h298v-83h-393v71l290 564h-285v83zM375 905l-106 -133h-80l63 133h123z" />
    <glyph glyph-name="zacute" unicode="&#x17a;" horiz-adv-x="454" 
d="M64 492h322v-63l-234 -349h246v-80h-342v71l228 341h-220v80zM351 723l-106 -143h-74l62 143h118z" />
    <glyph glyph-name="Zdotaccent" unicode="&#x17b;" horiz-adv-x="500" 
d="M56 718h386v-58l-296 -577h298v-83h-393v71l290 564h-285v83zM184 846c0 17 6 32 18 44s26 18 43 18s32 -6 44 -18s18 -27 18 -44s-6 -32 -18 -44s-27 -18 -44 -18s-31 6 -43 18s-18 27 -18 44z" />
    <glyph glyph-name="zdotaccent" unicode="&#x17c;" horiz-adv-x="454" 
d="M64 492h322v-63l-234 -349h246v-80h-342v71l228 341h-220v80zM163 655c0 17 6 31 17 42s25 17 42 17s31 -6 42 -17s17 -25 17 -42s-6 -31 -17 -42s-25 -17 -42 -17s-31 6 -42 17s-17 25 -17 42z" />
    <glyph glyph-name="Zcaron" unicode="&#x17d;" horiz-adv-x="500" 
d="M56 718h386v-58l-296 -577h298v-83h-393v71l290 564h-285v83zM188 772l-71 133h71l56 -60l56 60h71l-71 -133h-112z" />
    <glyph glyph-name="zcaron" unicode="&#x17e;" horiz-adv-x="454" 
d="M64 492h322v-63l-234 -349h246v-80h-342v71l228 341h-220v80zM163 580l-71 143h74l56 -70l56 70h74l-71 -143h-118z" />
    <glyph glyph-name="longs" unicode="&#x17f;" horiz-adv-x="358" 
d="M381 617l-3 -2c-9 11 -21 21 -37 30s-33 13 -52 13c-25 0 -45 -8 -61 -24s-24 -39 -24 -69v-566h-74v408h-90v84h90v85c0 52 13 92 39 120s64 42 114 42c23 0 45 -5 65 -15s35 -24 44 -41z" />
    <glyph glyph-name="uni018F" unicode="&#x18f;" horiz-adv-x="782" 
d="M656 403l1 -3c-7 43 -19 80 -36 111s-38 56 -63 75s-53 33 -84 42s-63 14 -97 14c-24 0 -48 -3 -73 -10s-49 -16 -72 -28s-44 -26 -63 -42s-35 -33 -49 -52l-20 77c11 21 26 40 45 57s41 32 65 45s50 23 78 30s57 11 86 11c49 0 95 -8 139 -25s83 -41 116 -73
s60 -71 80 -117s30 -99 30 -158c0 -53 -9 -102 -27 -147s-43 -84 -75 -117s-69 -59 -111 -78s-87 -28 -135 -28c-53 0 -101 10 -144 29s-80 45 -110 79s-53 74 -70 120s-25 96 -25 150v20c0 7 0 13 1 18h613zM394 70l-1 -1c29 0 58 4 87 13s56 23 80 42s45 45 62 77
s29 71 35 116h-532c5 -49 16 -89 34 -121s40 -57 65 -76s53 -32 83 -39s59 -11 87 -11z" />
    <glyph glyph-name="florin" unicode="&#x192;" horiz-adv-x="484" 
d="M194 594h-2c8 47 25 83 51 108s61 37 105 37c9 0 19 -1 30 -3s22 -5 33 -10s21 -12 30 -21s16 -20 21 -33l-14 -61c-6 11 -17 22 -33 32s-34 15 -55 15c-26 0 -47 -6 -63 -19s-27 -34 -32 -64l-26 -149h156v-80h-171l-100 -559h-74l100 559h-88v80h103z" />
    <glyph glyph-name="uni01B5" unicode="&#x1b5;" horiz-adv-x="491" 
d="M54 718h386v-58l-126 -246h98v-83h-141l-127 -248h298v-83h-393v71l133 260h-113v83h156l114 221h-285v83z" />
    <glyph glyph-name="uni01B6" unicode="&#x1b6;" horiz-adv-x="454" 
d="M64 492h322v-63l-94 -140h84v-80h-138l-86 -129h246v-80h-342v71l92 138h-82v80h136l82 123h-220v80z" />
    <glyph glyph-name="Aringacute" unicode="&#x1fa;" horiz-adv-x="668" 
d="M233 763l-2 -2c0 15 3 29 8 41s12 23 21 32s20 16 32 21s25 8 39 8c29 0 53 -10 73 -29s30 -43 30 -72c0 -18 -4 -34 -12 -49s-19 -27 -32 -36l264 -678h-84l-68 174h-338l-67 -174h-84l265 677c-14 9 -25 21 -33 36s-12 32 -12 51zM196 255h273l-137 350zM485 1035
l-106 -133h-80l63 133h123zM286 761h-1c0 -13 4 -24 13 -32s20 -12 33 -12s24 4 33 12s14 19 14 32s-4 24 -13 32s-20 12 -33 12s-24 -4 -33 -12s-13 -19 -13 -32z" />
    <glyph glyph-name="aringacute" unicode="&#x1fb;" horiz-adv-x="544" 
d="M255 503v-1c30 0 58 -4 84 -12s48 -20 66 -36s33 -36 44 -60s16 -51 16 -82v-312h-72v47c-13 -17 -33 -31 -60 -42s-56 -16 -87 -16c-61 0 -109 14 -144 43s-52 68 -52 118c0 24 5 46 15 65s24 36 42 50s39 24 63 31s50 11 78 11c9 0 20 -1 32 -2s25 -3 38 -7
s26 -9 39 -15s24 -13 33 -22v31c0 45 -13 78 -40 99s-60 32 -100 32c-31 0 -60 -6 -87 -19s-48 -29 -63 -48l-20 66c7 11 16 22 28 32s26 19 41 26s32 13 50 17s37 6 56 6zM390 174v2c-9 17 -26 30 -52 38s-54 12 -85 12c-40 0 -71 -7 -94 -21s-34 -32 -34 -55
s11 -42 33 -58s54 -24 97 -24c31 0 59 6 84 17s42 26 51 44v45zM168 661c0 29 10 53 29 72s43 29 72 29s53 -10 72 -29s29 -43 29 -72s-10 -53 -29 -72s-43 -29 -72 -29s-53 10 -72 29s-29 43 -29 72zM269 705c-13 0 -24 -4 -33 -12s-13 -19 -13 -32s4 -24 13 -32
s20 -12 33 -12s24 4 33 12s13 19 13 32s-4 24 -13 32s-20 12 -33 12zM408 958l-106 -143h-74l62 143h118z" />
    <glyph glyph-name="AEacute" unicode="&#x1fc;" horiz-adv-x="912" 
d="M846 635h-301v-224h271v-83h-271v-245h301v-83h-379v174h-280l-103 -174h-92l430 718h424v-83zM467 257v383l-230 -383h230zM705 905l-106 -133h-80l63 133h123z" />
    <glyph glyph-name="aeacute" unicode="&#x1fd;" horiz-adv-x="910" 
d="M859 255l-3 -2c0 -11 -1 -22 -3 -34h-391c5 -51 24 -88 57 -112s73 -36 120 -36c36 0 67 5 93 16s49 27 69 48l14 -65c-5 -11 -13 -22 -24 -32s-24 -19 -40 -26s-33 -13 -52 -18s-39 -7 -60 -7c-42 0 -80 8 -115 24s-64 39 -87 69c-25 -33 -54 -57 -87 -72
s-67 -22 -102 -22c-63 0 -112 14 -148 42s-54 67 -54 118c0 25 5 47 15 67s24 37 42 50s39 23 63 30s50 11 78 11c9 0 20 -1 32 -2s25 -3 38 -6s26 -7 39 -13s24 -13 33 -22v30c0 25 -4 46 -12 63s-19 30 -33 40s-29 17 -46 21s-34 6 -52 6c-30 0 -58 -6 -84 -18
s-46 -28 -61 -47l-19 64c7 11 16 22 28 32s26 19 41 26s32 13 50 17s37 6 56 6c41 0 78 -8 111 -23s58 -38 75 -69c21 29 48 52 80 69s69 25 110 25c34 0 65 -6 93 -19s52 -31 72 -54s36 -49 47 -79s17 -62 17 -96zM387 174v-1c-9 17 -26 30 -52 38s-54 12 -85 12
c-40 0 -71 -7 -94 -21s-34 -34 -34 -60c0 -23 11 -41 33 -55s54 -21 97 -21c31 0 59 7 84 20s42 29 51 47v41zM627 420l-2 -1c-18 0 -36 -2 -53 -7s-33 -13 -48 -23s-27 -23 -37 -39s-17 -34 -21 -55h310c-5 39 -21 70 -48 92s-61 33 -101 33zM585 719l-106 -143h-74l62 143
h118z" />
    <glyph glyph-name="Oslashacute" unicode="&#x1fe;" horiz-adv-x="800" 
d="M400 -11l-4 -2c-38 0 -74 6 -108 18s-66 29 -96 50l-57 -68h-100l101 120c-29 33 -52 71 -68 113s-24 88 -24 137c0 53 10 102 29 147s45 84 77 117s70 59 113 78s88 29 135 29c38 0 74 -6 108 -18s66 -29 96 -51l58 69h99l-101 -120c29 -33 52 -70 69 -112
s25 -88 25 -137c0 -53 -9 -102 -28 -147s-45 -84 -77 -117s-69 -59 -112 -78s-88 -28 -135 -28zM396 643l2 -2c-39 0 -75 -7 -109 -21s-63 -34 -88 -59s-44 -55 -58 -90s-21 -73 -21 -114c0 -38 6 -73 17 -105s27 -60 48 -85l363 430c-22 15 -46 26 -72 34s-53 12 -82 12z
M673 355v1c0 38 -6 73 -18 105s-28 61 -49 86l-362 -431c45 -30 96 -45 153 -45c39 0 75 7 109 21s63 34 88 59s44 55 58 90s21 73 21 114zM533 902l-106 -133h-80l63 133h123z" />
    <glyph glyph-name="oslashacute" unicode="&#x1ff;" horiz-adv-x="602" 
d="M52 246l-1 -2c0 37 7 71 20 102s31 58 54 81s50 41 80 54s62 20 95 20c25 0 49 -4 72 -11s44 -17 63 -30l36 42h100l-80 -92c18 -22 32 -47 42 -75s15 -58 15 -90c0 -37 -7 -71 -20 -102s-31 -58 -54 -81s-49 -41 -79 -54s-62 -19 -95 -19c-25 0 -49 4 -72 11
s-44 17 -64 30l-35 -41h-100l79 92c-17 22 -31 47 -41 75s-15 58 -15 90zM475 244l1 -2c0 21 -3 40 -9 58s-14 34 -25 49l-227 -264c25 -13 53 -20 84 -20c25 0 48 4 70 13s41 21 56 37s27 35 36 57s14 46 14 72zM301 419l-5 2c-25 0 -48 -4 -69 -13s-39 -21 -54 -37
s-27 -35 -36 -57s-13 -46 -13 -72c0 -21 3 -40 9 -58s14 -34 25 -49l227 264c-25 13 -53 20 -84 20zM432 721l-106 -143h-74l62 143h118z" />
    <glyph glyph-name="uni0218" unicode="&#x218;" horiz-adv-x="483" 
d="M346 349l-3 -1c29 -27 52 -54 68 -81s24 -58 24 -94c0 -27 -5 -52 -14 -75s-22 -42 -39 -58s-38 -28 -62 -37s-51 -13 -81 -13c-25 0 -49 4 -72 12s-44 18 -62 30s-34 25 -47 39s-22 28 -27 42l23 80c23 -38 51 -67 83 -87s69 -30 111 -30c37 0 65 9 84 27s28 41 28 69
c0 23 -6 43 -19 61s-28 34 -45 49c-46 38 -82 69 -109 93s-48 44 -63 59c-25 25 -42 48 -52 69s-15 44 -15 69c0 48 16 86 48 115s75 43 128 43c39 0 74 -9 106 -28s56 -42 71 -69l-19 -80c-19 27 -42 49 -69 67s-57 27 -91 27c-28 0 -51 -6 -69 -19s-27 -32 -27 -58
c0 -10 2 -19 6 -28s9 -17 15 -25s13 -15 20 -22s14 -13 20 -18c29 -24 53 -43 71 -58s32 -27 42 -36s18 -16 23 -21s10 -9 14 -13zM216 -188l2 -1c-10 5 -19 12 -27 21s-12 21 -12 36c0 19 6 34 18 45s26 17 42 17c17 0 32 -6 44 -17s18 -26 18 -45c0 -15 -3 -28 -10 -40
s-14 -23 -21 -34l-43 -77h-56z" />
    <glyph glyph-name="uni0219" unicode="&#x219;" horiz-adv-x="416" 
d="M155 240l-2 -3c-32 17 -56 37 -72 60s-24 48 -24 74c0 38 12 69 37 93s62 36 111 36c17 0 33 -2 48 -7s29 -11 41 -18s22 -15 30 -23s14 -16 18 -24l-14 -67c-17 18 -36 32 -57 43s-44 16 -69 16c-17 0 -33 -4 -48 -11s-22 -20 -22 -38c0 -15 6 -27 19 -36s28 -18 45 -27
l60 -33c37 -20 65 -41 83 -63s27 -49 27 -82c0 -21 -4 -40 -12 -57s-19 -32 -33 -45s-31 -23 -52 -30s-44 -10 -70 -10c-18 0 -35 2 -51 7s-31 11 -45 19s-26 17 -36 27s-18 20 -23 31l16 68c20 -23 42 -40 67 -51s51 -16 79 -16c10 0 20 1 30 3s19 5 27 10s15 11 20 18
s8 16 8 27c0 16 -7 30 -22 42s-34 24 -57 36zM184 -190l2 -1c-10 5 -19 12 -27 21s-12 21 -12 36c0 19 6 34 18 45s26 17 42 17c17 0 32 -6 44 -17s18 -26 18 -45c0 -15 -3 -28 -10 -40s-14 -23 -21 -34l-43 -77h-56z" />
    <glyph glyph-name="uni021A" unicode="&#x21a;" horiz-adv-x="579" 
d="M16 718h543v-81h-233v-637h-78v637h-232v81zM267 -187l2 -1c-10 5 -19 12 -27 21s-12 21 -12 36c0 19 6 34 18 45s26 17 42 17c17 0 32 -6 44 -17s18 -26 18 -45c0 -15 -3 -28 -10 -40s-14 -23 -21 -34l-43 -77h-56z" />
    <glyph glyph-name="uni021B" unicode="&#x21b;" horiz-adv-x="432" 
d="M383 51l-1 -1c-7 -17 -21 -32 -42 -44s-46 -18 -76 -18c-44 0 -78 13 -102 40s-36 69 -36 126v259h-90v24l139 178h24v-124h182v-78h-181v-246c0 -34 7 -58 21 -73s34 -22 61 -22c21 0 38 4 51 13s24 19 33 30zM236 -188l2 -1c-10 5 -19 12 -27 21s-12 21 -12 36
c0 19 6 34 18 45s26 17 42 17c17 0 32 -6 44 -17s18 -26 18 -45c0 -15 -3 -28 -10 -40s-14 -23 -21 -34l-43 -77h-56z" />
    <glyph glyph-name="schwa" unicode="&#x259;" horiz-adv-x="563" 
d="M43 237l-4 -1c0 11 1 22 3 34h391c-5 51 -24 88 -57 112s-73 36 -120 36c-36 0 -67 -5 -93 -16s-49 -27 -69 -48l-14 65c5 11 13 22 24 32s24 19 40 26s33 13 52 18s39 7 60 7c35 0 68 -6 99 -18s58 -29 81 -51s41 -49 54 -81s19 -68 19 -108c0 -36 -6 -69 -17 -100
s-27 -58 -48 -81s-46 -41 -75 -54s-62 -20 -99 -20c-34 0 -65 6 -93 19s-52 31 -72 54s-35 49 -46 79s-16 62 -16 96zM268 68h2c18 0 36 2 53 7s33 13 48 23s27 23 37 39s17 34 21 55h-310c5 -39 21 -69 48 -91s61 -33 101 -33z" />
    <glyph glyph-name="circumflex" unicode="&#x2c6;" horiz-adv-x="424" 
d="M271 723l71 -143h-74l-56 70l-56 -70h-74l71 143h118z" />
    <glyph glyph-name="caron" unicode="&#x2c7;" horiz-adv-x="424" 
d="M153 580l-71 143h74l56 -70l56 70h74l-71 -143h-118z" />
    <glyph glyph-name="uni02C9" unicode="&#x2c9;" horiz-adv-x="447" 
d="M363 696v-78h-278v78h278z" />
    <glyph glyph-name="breve" unicode="&#x2d8;" horiz-adv-x="455" 
d="M227 581v-2c-20 0 -38 3 -55 10s-32 16 -44 28s-22 26 -30 42s-12 34 -13 53h78c3 -14 10 -25 22 -34s26 -13 43 -13s31 5 43 14s19 21 22 35h78c-1 -19 -5 -37 -13 -53s-18 -30 -31 -42s-28 -21 -45 -28s-35 -10 -55 -10z" />
    <glyph glyph-name="dotaccent" unicode="&#x2d9;" horiz-adv-x="316" 
d="M99 655c0 17 6 31 17 42s25 17 42 17s31 -6 42 -17s17 -25 17 -42s-6 -31 -17 -42s-25 -17 -42 -17s-31 6 -42 17s-17 25 -17 42z" />
    <glyph glyph-name="ring" unicode="&#x2da;" horiz-adv-x="361" 
d="M84 660c0 29 10 53 29 72s43 29 72 29s53 -10 72 -29s29 -43 29 -72s-10 -53 -29 -72s-43 -29 -72 -29s-53 10 -72 29s-29 43 -29 72zM185 704c-13 0 -24 -4 -33 -12s-13 -19 -13 -32s4 -24 13 -32s20 -12 33 -12s24 4 33 12s13 19 13 32s-4 24 -13 32s-20 12 -33 12z
" />
    <glyph glyph-name="ogonek" unicode="&#x2db;" horiz-adv-x="340" 
d="M196 0l1 -2c-9 -9 -17 -21 -24 -35s-10 -28 -10 -42c0 -17 5 -30 15 -40s23 -15 38 -15c10 0 19 2 26 6l12 -58c-5 -6 -12 -11 -22 -15s-22 -6 -37 -6c-34 0 -59 10 -76 30s-25 44 -25 71c0 13 2 25 5 36s7 21 12 30s11 17 17 24s12 12 17 16h51z" />
    <glyph glyph-name="tilde" unicode="&#x2dc;" horiz-adv-x="486" 
d="M97 583l-2 -2c-3 7 -5 15 -7 23s-3 16 -3 24c0 25 8 46 24 62s36 24 59 24c15 0 29 -3 42 -9s25 -12 36 -19s21 -13 31 -19s19 -9 27 -9c21 0 31 13 31 39v7c0 2 0 5 -1 8h53c6 -16 9 -31 9 -46c0 -26 -8 -47 -24 -62s-35 -23 -58 -23c-15 0 -29 3 -42 9s-25 12 -36 19
s-21 13 -30 19s-18 9 -26 9c-21 0 -31 -13 -31 -39v-7c0 -2 0 -5 1 -8h-53z" />
    <glyph glyph-name="hungarumlaut" unicode="&#x2dd;" horiz-adv-x="505" 
d="M261 723l-106 -143h-70l63 143h113zM420 723l-105 -143h-71l63 143h113z" />
    <glyph glyph-name="uni0394" unicode="&#x394;" horiz-adv-x="641" 
d="M628 0h-617c23 62 46 123 68 182l66 177l66 177s44 120 67 182h86zM518 79l-198 548l-199 -548h397z" />
    <glyph glyph-name="uni03A9" unicode="&#x3a9;" horiz-adv-x="804" 
d="M402 729l-6 -2c52 0 99 -10 142 -29s80 -45 111 -78s55 -72 72 -117s25 -93 25 -144c0 -36 -4 -69 -12 -100s-18 -59 -31 -83s-27 -44 -42 -60s-29 -27 -42 -33h134v-83h-262v70c25 12 48 27 69 46s40 41 56 65s29 51 38 81s14 63 14 98c0 41 -6 79 -19 114
s-31 65 -55 90s-52 45 -85 60s-70 22 -110 22s-77 -7 -110 -22s-61 -35 -85 -60s-42 -55 -55 -90s-19 -73 -19 -114c0 -35 5 -68 14 -98s22 -57 38 -81s35 -45 56 -64s44 -34 69 -46v-70h-262v83h134c-13 6 -27 17 -42 33s-29 36 -42 60s-23 52 -31 83s-12 65 -12 101
c0 51 8 99 25 144s41 84 72 117s68 59 111 78s90 29 142 29z" />
    <glyph glyph-name="uni03BC" unicode="&#x3bc;" horiz-adv-x="591" 
d="M294 -11l-2 -1c-25 0 -49 4 -72 12s-44 20 -63 36v-249h-74v705h74v-275c0 -47 12 -83 37 -109s57 -39 97 -39c17 0 33 3 49 8s30 12 43 21s24 20 33 32s15 25 18 39v323h74v-492h-72v60c-7 -19 -23 -36 -49 -50s-57 -21 -93 -21z" />
    <glyph glyph-name="pi" unicode="&#x3c0;" horiz-adv-x="639" 
d="M216 0h-74v412h-92v80h539v-80h-92v-412h-74v412h-207v-412z" />
    <glyph glyph-name="uni0401" unicode="&#x401;" horiz-adv-x="531" 
d="M92 718h379v-83h-301v-224h271v-83h-271v-245h301v-83h-379v718zM125 842c0 18 6 33 18 45s27 18 45 18s33 -6 45 -18s18 -27 18 -45s-6 -33 -18 -45s-27 -18 -45 -18s-33 6 -45 18s-18 27 -18 45zM324 842c0 18 6 33 18 45s27 18 45 18s33 -6 45 -18s18 -27 18 -45
s-6 -33 -18 -45s-27 -18 -45 -18s-33 6 -45 18s-18 27 -18 45z" />
    <glyph glyph-name="uni0402" unicode="&#x402;" horiz-adv-x="637" 
d="M384 413h-1c28 0 55 -5 81 -15s49 -24 69 -43s37 -42 50 -69s19 -58 19 -93c0 -31 -5 -59 -16 -84s-25 -46 -43 -63s-39 -30 -63 -40s-50 -15 -77 -15c-23 0 -43 4 -60 12s-29 17 -36 26l19 69c8 -7 19 -13 33 -17s29 -6 45 -6c37 0 67 11 89 34s33 51 33 85
c0 19 -4 37 -12 53s-19 30 -33 42s-31 22 -50 29s-40 11 -63 11c-27 0 -50 -2 -69 -5s-37 -7 -54 -12v-313h-78v637h-152v81h445v-81h-215v-240c16 5 36 9 59 12s50 5 80 5z" />
    <glyph glyph-name="uni0403" unicode="&#x403;" horiz-adv-x="490" 
d="M97 718h343v-83h-265v-635h-78v718zM395 905l-106 -133h-80l63 133h123z" />
    <glyph glyph-name="uni0404" unicode="&#x404;" horiz-adv-x="699" 
d="M390 636l-4 9c-74 0 -134 -21 -180 -63s-74 -99 -83 -172h343v-83h-344c3 -40 12 -76 26 -108s33 -59 56 -81s50 -39 82 -50s67 -17 105 -17c56 0 105 12 147 36s75 54 100 91l25 -71c-9 -19 -22 -37 -39 -54s-38 -32 -62 -45s-51 -23 -80 -31s-60 -12 -92 -12
c-47 0 -92 8 -134 25s-79 41 -110 73s-56 71 -74 117s-27 97 -27 154s9 108 27 154s43 85 75 117s69 56 111 73s86 25 133 25c32 0 62 -4 91 -12s55 -18 79 -31s44 -28 61 -45s29 -34 37 -51l-23 -73c-27 37 -61 67 -102 90s-89 35 -144 35z" />
    <glyph glyph-name="uni0405" unicode="&#x405;" horiz-adv-x="483" 
d="M346 349l-3 -1c29 -27 52 -54 68 -81s24 -58 24 -94c0 -27 -5 -52 -14 -75s-22 -42 -39 -58s-38 -28 -62 -37s-51 -13 -81 -13c-25 0 -49 4 -72 12s-44 18 -62 30s-34 25 -47 39s-22 28 -27 42l23 80c23 -38 51 -67 83 -87s69 -30 111 -30c37 0 65 9 84 27s28 41 28 69
c0 23 -6 43 -19 61s-28 34 -45 49c-46 38 -82 69 -109 93s-48 44 -63 59c-25 25 -42 48 -52 69s-15 44 -15 69c0 48 16 86 48 115s75 43 128 43c39 0 74 -9 106 -28s56 -42 71 -69l-19 -80c-19 27 -42 49 -69 67s-57 27 -91 27c-28 0 -51 -6 -69 -19s-27 -32 -27 -58
c0 -10 2 -19 6 -28s9 -17 15 -25s13 -15 20 -22s14 -13 20 -18c29 -24 53 -43 71 -58s32 -27 42 -36s18 -16 23 -21s10 -9 14 -13z" />
    <glyph glyph-name="uni0406" unicode="&#x406;" horiz-adv-x="262" 
d="M92 718h78v-718h-78v718z" />
    <glyph glyph-name="uni0407" unicode="&#x407;" horiz-adv-x="262" 
d="M92 718h78v-718h-78v718zM-30 842c0 18 6 33 18 45s27 18 45 18s33 -6 45 -18s18 -27 18 -45s-6 -33 -18 -45s-27 -18 -45 -18s-33 6 -45 18s-18 27 -18 45zM169 842c0 18 6 33 18 45s27 18 45 18s33 -6 45 -18s18 -27 18 -45s-6 -33 -18 -45s-27 -18 -45 -18
s-33 6 -45 18s-18 27 -18 45z" />
    <glyph glyph-name="uni0408" unicode="&#x408;" horiz-adv-x="395" 
d="M308 176l1 1c0 -59 -13 -105 -39 -138s-68 -49 -126 -49c-18 0 -34 2 -48 6s-26 9 -36 15s-18 13 -25 21s-12 16 -15 23l8 79c15 -18 32 -33 51 -44s40 -17 63 -17c28 0 50 9 65 26s23 48 23 92v527h78v-542z" />
    <glyph glyph-name="uni0409" unicode="&#x409;" horiz-adv-x="930" 
d="M470 0l-2 630h-198v-17c-4 -123 -12 -224 -23 -304s-26 -143 -45 -190s-42 -80 -68 -99s-56 -28 -91 -28c-9 0 -16 1 -22 3l-12 77c18 1 35 4 50 9s29 15 42 29s24 34 34 61s19 63 27 108s14 101 19 167s9 146 12 239l1 30h353v-288h128c33 0 63 -5 90 -15s50 -25 69 -44
s34 -42 45 -68s17 -55 17 -87c0 -33 -6 -62 -17 -88s-27 -48 -47 -67s-43 -33 -70 -43s-56 -15 -87 -15h-205zM688 78l-1 -2c19 0 36 4 52 11s30 17 41 29s20 26 26 42s9 33 9 51s-3 35 -9 51s-15 30 -26 42s-24 22 -40 29s-33 11 -52 11h-142v-264h142z" />
    <glyph glyph-name="uni040A" unicode="&#x40a;" horiz-adv-x="945" 
d="M485 0l-1 322h-315v-325h-78v718h78v-308h315v308h78v-288h128c33 0 63 -5 90 -15s50 -25 69 -44s34 -42 45 -68s17 -55 17 -87c0 -33 -6 -62 -17 -88s-27 -48 -47 -67s-43 -33 -70 -43s-56 -15 -87 -15h-205zM704 80l-1 -2c19 0 36 4 52 11s30 17 41 29s20 26 26 42
s9 33 9 51s-3 35 -9 51s-15 30 -26 42s-24 22 -40 29s-33 11 -52 11h-142v-264h142z" />
    <glyph glyph-name="uni040B" unicode="&#x40b;" horiz-adv-x="657" 
d="M522 0l-1 182c0 52 -12 89 -37 111s-62 33 -112 33c-25 0 -47 -2 -66 -5s-39 -7 -60 -12v-310h-78v637h-152v81h445v-81h-215v-243c23 5 47 9 71 12s49 5 74 5c29 0 56 -3 81 -10s47 -18 66 -33s34 -34 45 -58s17 -53 17 -87v-222h-78z" />
    <glyph glyph-name="uni040C" unicode="&#x40c;" horiz-adv-x="628" 
d="M92 718h78v-332l310 332h104l-327 -351l361 -367h-115l-333 337v-337h-78v718zM445 905l-106 -133h-80l63 133h123z" />
    <glyph glyph-name="uni040E" unicode="&#x40e;" horiz-adv-x="564" 
d="M30 718h87l177 -394l158 394h86l-287 -718h-86l89 220zM440 893h2c0 -21 -4 -40 -12 -57s-19 -31 -33 -43s-31 -21 -51 -28s-41 -10 -63 -10s-43 3 -62 10s-36 16 -51 28s-26 26 -34 43s-12 36 -12 57l70 18c1 -20 9 -37 24 -51s36 -21 63 -21s48 7 63 21s23 31 24 51z
" />
    <glyph glyph-name="uni040F" unicode="&#x40f;" horiz-adv-x="741" 
d="M92 718h78v-635h402v635h77v-718h-241v-154h-74v154h-242v718z" />
    <glyph glyph-name="uni0410" unicode="&#x410;" horiz-adv-x="668" 
d="M655 0h-84l-68 174h-338l-67 -174h-84l281 718h81zM198 257h273l-137 350z" />
    <glyph glyph-name="uni0411" unicode="&#x411;" horiz-adv-x="560" 
d="M92 0l-1 718h362v-83h-284v-204h121c33 0 63 -5 90 -15s50 -25 69 -44s34 -42 45 -68s17 -55 17 -87c0 -33 -6 -63 -17 -90s-27 -50 -47 -69s-43 -33 -70 -43s-56 -15 -87 -15h-198zM305 84l-1 2c18 0 35 3 51 9s30 15 41 27s20 26 27 42s10 34 10 53s-3 37 -10 53
s-16 30 -27 42s-24 21 -40 27s-33 9 -51 9h-136v-264h136z" />
    <glyph glyph-name="uni0412" unicode="&#x412;" horiz-adv-x="578" 
d="M424 380l-1 -2c28 -12 52 -33 72 -62s30 -65 30 -108c0 -33 -5 -63 -16 -89s-26 -48 -45 -66s-42 -32 -69 -41s-56 -14 -88 -14h-216v718h179c32 0 61 -4 88 -13s50 -22 69 -39s34 -37 45 -61s16 -51 16 -82c0 -33 -6 -61 -18 -84s-27 -42 -46 -57zM320 81l-1 -1
c17 0 33 3 48 9s29 15 41 26s21 24 28 39s10 32 10 50c0 16 -3 31 -9 46s-15 28 -26 39s-24 20 -40 27s-33 10 -51 10h-151v-245h151zM168 408l120 -1c34 0 62 10 85 30s34 47 34 81c0 16 -3 31 -9 45s-14 26 -24 36s-22 18 -37 24s-31 9 -48 9h-121v-224z" />
    <glyph glyph-name="uni0413" unicode="&#x413;" horiz-adv-x="485" 
d="M92 718h343v-83h-265v-635h-78v718z" />
    <glyph glyph-name="uni0414" unicode="&#x414;" horiz-adv-x="780" 
d="M626 83l101 -2v-237h-75v154h-548v-154h-75v237h56c23 39 44 79 64 120s37 84 52 130s27 96 35 149s12 112 12 176v62h378v-635zM547 81l1 553h-222c1 -50 -2 -101 -10 -153s-19 -102 -33 -151s-30 -95 -48 -138s-37 -80 -56 -111h368z" />
    <glyph glyph-name="uni0415" unicode="&#x415;" horiz-adv-x="531" 
d="M92 718h379v-83h-301v-224h271v-83h-271v-245h301v-83h-379v718z" />
    <glyph glyph-name="uni0416" unicode="&#x416;" horiz-adv-x="918" 
d="M498 387l281 331h104l-302 -352l325 -366h-110l-298 338v-338h-78v338l-298 -338h-110l325 366l-302 352h104l281 -331v331h78v-331z" />
    <glyph glyph-name="uni0417" unicode="&#x417;" horiz-adv-x="517" 
d="M363 384l-7 -1c31 -17 56 -40 74 -70s27 -66 27 -108c0 -33 -5 -63 -16 -90s-26 -50 -45 -69s-42 -34 -68 -44s-54 -15 -85 -15c-23 0 -46 3 -69 9s-44 14 -63 24s-35 22 -49 35s-23 27 -28 42l24 67c25 -35 52 -59 81 -73s62 -21 99 -21c44 0 79 12 104 36s38 56 38 96
c0 16 -3 32 -9 48s-15 30 -28 42s-29 22 -48 30s-41 12 -66 12h-56v83h64c19 0 36 3 51 10s27 16 37 27s18 23 23 37s8 28 8 43s-3 29 -8 42s-12 25 -21 35s-20 18 -34 24s-29 9 -46 9c-35 0 -64 -8 -88 -23s-45 -36 -64 -63l-25 67c7 14 16 27 27 39s24 23 39 32
s32 17 51 23s40 9 63 9c29 0 55 -5 78 -15s42 -23 58 -40s28 -37 36 -60s12 -47 12 -73c0 -31 -6 -60 -18 -87s-30 -50 -53 -69z" />
    <glyph glyph-name="uni0418" unicode="&#x418;" horiz-adv-x="759" 
d="M667 0h-78v598l-408 -598h-89v718h78v-601l408 601h89v-718z" />
    <glyph glyph-name="uni0419" unicode="&#x419;" horiz-adv-x="759" 
d="M667 0h-78v598l-408 -598h-89v718h78v-601l408 601h89v-718zM539 893h2c0 -21 -4 -40 -12 -57s-19 -31 -33 -43s-31 -21 -51 -28s-41 -10 -63 -10s-43 3 -62 10s-36 16 -51 28s-26 26 -34 43s-12 36 -12 57l70 18c1 -20 9 -37 24 -51s36 -21 63 -21s48 7 63 21
s23 31 24 51z" />
    <glyph glyph-name="uni041A" unicode="&#x41a;" horiz-adv-x="628" 
d="M92 718h78v-332l310 332h104l-327 -351l361 -367h-115l-333 337v-337h-78v718z" />
    <glyph glyph-name="uni041B" unicode="&#x41b;" horiz-adv-x="688" 
d="M596 718l-1 -720h-78v635h-246v-17c-4 -123 -12 -224 -23 -304s-26 -143 -45 -190s-42 -80 -68 -99s-56 -28 -91 -28c-9 0 -16 1 -22 3l-12 77c18 1 35 4 50 9s29 15 42 29s24 34 34 61s19 63 27 108s14 101 19 167s9 146 12 239l1 30h401z" />
    <glyph glyph-name="uni041C" unicode="&#x41c;" horiz-adv-x="952" 
d="M698 718h86l96 -718h-76l-81 586l-212 -586h-79l-217 586l-74 -586h-79l95 718h86l226 -612z" />
    <glyph glyph-name="uni041D" unicode="&#x41d;" horiz-adv-x="753" 
d="M92 718h78v-307h413v307h78v-718h-78v328h-413v-328h-78v718z" />
    <glyph glyph-name="uni041E" unicode="&#x41e;" horiz-adv-x="790" 
d="M395 -11l-4 -2c-47 0 -92 10 -135 29s-80 45 -112 78s-58 72 -77 117s-28 94 -28 147s10 102 29 147s45 84 77 117s70 59 113 78s88 29 135 29s92 -9 135 -28s81 -45 113 -78s58 -72 77 -117s29 -94 29 -147s-9 -102 -28 -147s-45 -84 -77 -117s-69 -59 -112 -78
s-88 -28 -135 -28zM391 643c-39 0 -75 -7 -109 -21s-63 -34 -88 -59s-44 -55 -58 -90s-21 -73 -21 -114s7 -79 21 -114s33 -65 58 -90s54 -45 88 -59s70 -21 109 -21s75 7 109 21s63 34 88 59s44 55 58 90s21 73 21 114s-7 79 -21 114s-33 65 -58 90s-54 45 -88 59
s-70 21 -109 21z" />
    <glyph glyph-name="uni041F" unicode="&#x41f;" horiz-adv-x="744" 
d="M92 718h560v-718h-77v635h-405v-635h-78v718z" />
    <glyph glyph-name="uni0420" unicode="&#x420;" horiz-adv-x="545" 
d="M290 718l-1 -3c31 0 60 -5 87 -15s51 -24 71 -43s36 -41 47 -67s17 -55 17 -88c0 -32 -5 -61 -16 -87s-26 -49 -45 -68s-42 -34 -69 -44s-57 -15 -90 -15h-121v-288h-78v718h198zM169 632l-1 -266h135c19 0 36 4 52 11s30 17 41 29s20 26 26 42s9 33 9 51s-3 35 -9 51
s-15 30 -26 42s-24 22 -40 29s-33 11 -52 11h-135z" />
    <glyph glyph-name="uni0421" unicode="&#x421;" horiz-adv-x="698" 
d="M660 130l-3 2c-9 -19 -22 -37 -39 -54s-37 -32 -61 -45s-50 -23 -79 -31s-60 -12 -92 -12c-47 0 -91 9 -133 26s-79 42 -111 74s-57 71 -76 117s-28 97 -28 153s9 107 28 153s44 85 76 117s69 57 111 74s86 26 133 26c32 0 62 -4 91 -12s55 -18 79 -31s44 -28 61 -45
s29 -34 37 -51l-23 -71c-27 39 -61 70 -102 92s-88 33 -141 33c-40 0 -77 -7 -110 -21s-61 -33 -85 -58s-42 -55 -55 -90s-19 -74 -19 -117s7 -82 20 -117s31 -65 55 -90s53 -44 86 -58s70 -21 110 -21c55 0 104 12 146 36s76 54 101 90z" />
    <glyph glyph-name="uni0422" unicode="&#x422;" horiz-adv-x="575" 
d="M16 718h543v-81h-233v-637h-78v637h-232v81z" />
    <glyph glyph-name="uni0423" unicode="&#x423;" horiz-adv-x="564" 
d="M30 718h87l177 -394l158 394h86l-287 -718h-86l89 220z" />
    <glyph glyph-name="uni0424" unicode="&#x424;" horiz-adv-x="788" 
d="M355 -12l-2 87c-45 1 -86 9 -124 23s-71 34 -99 59s-50 55 -66 90s-24 74 -24 117s8 82 24 117s38 65 66 90s61 45 99 59s80 22 125 23v78h78v-78c45 -1 87 -9 125 -23s71 -34 99 -59s50 -55 66 -90s24 -74 24 -117s-8 -82 -24 -117s-38 -65 -66 -90s-61 -45 -99 -59
s-79 -22 -124 -23v-87h-78zM666 366l-1 4c0 32 -6 61 -18 86s-28 46 -49 63s-46 30 -75 39s-60 14 -93 15v-411c33 1 64 6 93 15s54 22 75 39s38 38 50 63s18 54 18 87zM117 370l-1 -4c0 -33 6 -62 18 -87s29 -46 50 -63s46 -30 75 -39s60 -14 93 -15v411
c-33 -1 -64 -6 -93 -15s-54 -22 -75 -39s-37 -38 -49 -63s-18 -54 -18 -86z" />
    <glyph glyph-name="uni0425" unicode="&#x425;" horiz-adv-x="624" 
d="M123 0h-101l240 373l-224 345h96l177 -273l177 273h100l-225 -344l239 -374h-94l-194 297z" />
    <glyph glyph-name="uni0426" unicode="&#x426;" horiz-adv-x="792" 
d="M92 718h78v-635h390v635h78v-635h102v-237h-75v154h-573v718z" />
    <glyph glyph-name="uni0427" unicode="&#x427;" horiz-adv-x="585" 
d="M135 718l-2 -185c0 -52 13 -89 38 -111s63 -33 113 -33c25 0 48 2 68 5s40 7 61 12v310h78v-718h-78v324c-23 -5 -47 -9 -71 -12s-49 -4 -74 -4c-29 0 -56 4 -82 11s-48 18 -67 33s-34 35 -45 59s-17 53 -17 87v222h78z" />
    <glyph glyph-name="uni0428" unicode="&#x428;" horiz-adv-x="970" 
d="M92 718h78v-635h275v635h78v-635h277v635h78v-718h-786v718z" />
    <glyph glyph-name="uni0429" unicode="&#x429;" horiz-adv-x="1032" 
d="M92 718h78v-635h275v635h78v-635h277v635h78v-635h102v-237h-75v154h-813v718z" />
    <glyph glyph-name="uni042A" unicode="&#x42a;" horiz-adv-x="628" 
d="M168 0l-1 632h-151v83h229v-288h128c33 0 63 -5 90 -15s50 -25 69 -44s34 -42 45 -68s17 -55 17 -87c0 -33 -6 -62 -17 -88s-27 -48 -47 -67s-43 -33 -70 -43s-56 -15 -87 -15h-205zM387 80l-1 -2c19 0 36 4 52 11s30 17 41 29s20 26 26 42s9 33 9 51s-3 35 -9 51
s-15 30 -26 42s-24 22 -40 29s-33 11 -52 11h-142v-264h142z" />
    <glyph glyph-name="uni042B" unicode="&#x42b;" horiz-adv-x="782" 
d="M612 718h78v-718h-78v718zM290 0l-1 3c31 0 60 5 87 15s51 24 71 43s36 41 47 67s17 55 17 88c0 32 -5 61 -16 87s-26 49 -45 68s-42 34 -69 44s-57 15 -90 15h-121v288h-78v-718h198zM169 86l-1 262h135c19 0 36 -3 52 -10s30 -16 41 -28s20 -26 26 -42s9 -33 9 -51
s-3 -35 -9 -51s-15 -30 -26 -42s-24 -21 -40 -28s-33 -10 -52 -10h-135z" />
    <glyph glyph-name="uni042C" unicode="&#x42c;" horiz-adv-x="545" 
d="M289 3l1 -3h-198v718h78v-288h121c33 0 63 -5 90 -15s50 -25 69 -44s34 -42 45 -68s16 -55 16 -87c0 -33 -6 -62 -17 -88s-27 -48 -47 -67s-44 -33 -71 -43s-56 -15 -87 -15zM168 348l1 -262h135c19 0 36 3 52 10s29 16 40 28s20 26 26 42s9 33 9 51s-3 35 -9 51
s-15 30 -26 42s-25 21 -41 28s-33 10 -52 10h-135z" />
    <glyph glyph-name="uni042D" unicode="&#x42d;" horiz-adv-x="701" 
d="M315 645l-5 -9c-55 0 -103 -12 -144 -35s-75 -53 -102 -90l-23 73c8 17 20 34 37 51s37 32 61 45s50 23 79 31s59 12 91 12c47 0 91 -8 133 -25s79 -41 111 -73s57 -71 75 -117s27 -97 27 -154s-9 -108 -27 -154s-43 -85 -74 -117s-68 -56 -110 -73s-87 -25 -134 -25
c-32 0 -63 4 -92 12s-56 18 -80 31s-45 28 -62 45s-30 35 -39 54l25 71c25 -37 58 -67 100 -91s91 -36 147 -36c38 0 73 6 105 17s60 28 83 50s42 49 56 81s23 68 26 108h-344v83h343c-9 73 -37 130 -83 172s-106 63 -180 63z" />
    <glyph glyph-name="uni042E" unicode="&#x42e;" horiz-adv-x="1052" 
d="M657 -11l-2 -1c-45 0 -88 9 -129 26s-77 41 -109 71s-58 66 -78 107s-32 86 -36 135h-135v-328h-78v718h78v-307h137c6 46 20 89 41 128s47 73 79 101s68 50 107 66s80 24 123 24c47 0 92 -9 135 -28s81 -45 113 -78s58 -72 77 -117s29 -94 29 -147s-9 -102 -28 -147
s-45 -84 -77 -117s-69 -59 -112 -78s-88 -28 -135 -28zM655 644c-39 0 -75 -7 -109 -21s-63 -34 -88 -59s-44 -55 -58 -90s-21 -73 -21 -114s7 -79 21 -114s33 -65 58 -90s54 -45 88 -59s70 -21 109 -21s75 7 109 21s63 34 88 59s44 55 58 90s21 73 21 114s-7 79 -21 114
s-33 65 -58 90s-54 45 -88 59s-70 21 -109 21z" />
    <glyph glyph-name="uni042F" unicode="&#x42f;" horiz-adv-x="553" 
d="M461 0l-79 -2v302h-88l-170 -302h-92l175 313c-46 11 -83 34 -111 68s-42 78 -42 132c0 35 6 66 18 92s29 48 50 65s44 30 70 38s53 12 80 12h189v-718zM256 633l-2 1c-37 0 -66 -12 -88 -36s-33 -54 -33 -91c0 -20 4 -38 11 -53s17 -28 30 -38s28 -18 45 -24
s34 -9 52 -9h111v250h-126z" />
    <glyph glyph-name="uni0430" unicode="&#x430;" horiz-adv-x="544" 
d="M255 503v-1c30 0 58 -4 84 -12s48 -20 66 -36s33 -36 44 -60s16 -51 16 -82v-312h-72v47c-13 -17 -33 -31 -60 -42s-56 -16 -87 -16c-61 0 -109 14 -144 43s-52 68 -52 118c0 24 5 46 15 65s24 36 42 50s39 24 63 31s50 11 78 11c9 0 20 -1 32 -2s25 -3 38 -7
s26 -9 39 -15s24 -13 33 -22v31c0 45 -13 78 -40 99s-60 32 -100 32c-31 0 -60 -6 -87 -19s-48 -29 -63 -48l-20 66c7 11 16 22 28 32s26 19 41 26s32 13 50 17s37 6 56 6zM390 174v2c-9 17 -26 30 -52 38s-54 12 -85 12c-40 0 -71 -7 -94 -21s-34 -32 -34 -55
s11 -42 33 -58s54 -24 97 -24c31 0 59 6 84 17s42 26 51 44v45z" />
    <glyph glyph-name="uni0431" unicode="&#x431;" horiz-adv-x="616" 
d="M518 663l-2 -2c-17 -13 -35 -23 -54 -31s-38 -14 -58 -19s-40 -10 -61 -14s-42 -9 -63 -16c-27 -9 -49 -20 -67 -34s-32 -30 -43 -47s-19 -35 -24 -55s-7 -39 -7 -58c12 18 26 33 42 45s33 21 50 28s34 12 51 15s33 4 48 4c33 0 64 -6 92 -18s53 -28 74 -49
s37 -46 49 -75s18 -61 18 -96s-6 -68 -18 -99s-29 -58 -51 -81s-48 -41 -78 -54s-62 -19 -96 -19c-38 0 -73 7 -105 21s-59 35 -82 63s-41 63 -54 105s-19 91 -19 148c0 83 13 152 39 206s66 93 120 116c20 9 42 16 65 22s47 12 71 18s48 12 71 19s45 16 65 27zM317 67l-3 3
c51 0 92 15 124 44s48 69 48 120c0 24 -4 46 -12 66s-19 37 -34 51s-33 25 -54 33s-44 12 -69 12c-18 0 -36 -3 -55 -9s-36 -14 -52 -25s-30 -24 -43 -40s-22 -34 -28 -55c1 -31 6 -59 15 -84s22 -46 38 -63s35 -30 56 -39s44 -14 69 -14z" />
    <glyph glyph-name="uni0432" unicode="&#x432;" horiz-adv-x="504" 
d="M264 492l-1 -2c24 0 46 -3 66 -9s37 -15 52 -27s26 -26 34 -42s12 -34 12 -55c0 -45 -14 -79 -43 -102c21 -11 38 -26 50 -45s18 -42 18 -70c0 -21 -4 -40 -13 -57s-21 -32 -36 -44s-33 -22 -54 -29s-43 -10 -67 -10h-197v492h179zM158 207v-131h146c20 0 37 6 51 18
s21 28 21 47c0 20 -7 36 -21 48s-31 18 -51 18h-146zM158 408l-1 -124h125c19 0 36 6 50 17s21 26 21 45s-7 34 -21 45s-30 17 -49 17h-125z" />
    <glyph glyph-name="uni0433" unicode="&#x433;" horiz-adv-x="424" 
d="M387 492v-80h-228v-412h-74v492h302z" />
    <glyph glyph-name="uni0434" unicode="&#x434;" horiz-adv-x="630" 
d="M81 80l-2 2c13 18 26 39 39 63s25 52 35 83s19 66 26 105s10 82 10 129v30h313v-412h88v-211h-71v131h-416v-131h-71v211h49zM426 82l-1 330h-169c-2 -39 -6 -76 -13 -111s-15 -67 -24 -96s-18 -54 -28 -75s-18 -37 -25 -48h260z" />
    <glyph glyph-name="uni0435" unicode="&#x435;" horiz-adv-x="571" 
d="M520 255h2c0 -11 -1 -22 -3 -34h-391c5 -51 24 -88 57 -112s73 -36 120 -36c36 0 67 5 93 16s49 27 69 48l14 -65c-5 -11 -13 -22 -24 -32s-24 -19 -40 -26s-33 -13 -52 -18s-39 -7 -60 -7c-35 0 -68 6 -99 18s-58 29 -81 51s-41 49 -54 81s-19 68 -19 108
c0 36 6 70 17 101s27 58 48 81s46 41 75 54s62 20 99 20c34 0 65 -6 93 -19s52 -31 72 -54s36 -49 47 -79s17 -62 17 -96zM293 423l-2 -1c-18 0 -36 -2 -53 -7s-33 -13 -48 -23s-27 -23 -37 -39s-17 -34 -21 -55h310c-5 39 -21 70 -48 92s-61 33 -101 33z" />
    <glyph glyph-name="uni0436" unicode="&#x436;" horiz-adv-x="767" 
d="M420 274l212 218h101l-230 -239l257 -253h-112l-228 226v-226h-74v226l-228 -226h-113l258 253l-230 239h101l212 -218v218h74v-218z" />
    <glyph glyph-name="uni0437" unicode="&#x437;" horiz-adv-x="468" 
d="M219 69l-1 -4c39 0 69 8 89 23s30 33 30 54s-8 38 -25 51s-42 19 -76 19h-64v80h59c30 0 52 6 66 18s21 28 21 47s-8 34 -24 46s-37 18 -64 18s-52 -5 -75 -14s-45 -24 -67 -45l-20 58c15 24 37 44 66 59s63 23 102 23c23 0 44 -3 63 -9s36 -15 50 -26s25 -25 33 -42
s12 -35 12 -55c0 -25 -5 -47 -16 -66s-25 -33 -43 -42c25 -9 45 -24 60 -45s22 -46 22 -76c0 -22 -5 -42 -15 -61s-23 -35 -40 -48s-37 -23 -60 -31s-47 -12 -73 -12c-40 0 -75 7 -106 21s-55 34 -72 60l19 60c17 -21 39 -36 65 -46s54 -15 84 -15z" />
    <glyph glyph-name="uni0438" unicode="&#x438;" 
d="M159 492v-368l282 368h74v-492h-74v368l-282 -368h-74v492h74z" />
    <glyph glyph-name="uni0439" unicode="&#x439;" 
d="M159 492v-368l282 368h74v-492h-74v368l-282 -368h-74v492h74zM455 683h-1c-1 -40 -16 -72 -45 -96s-65 -36 -109 -36s-80 12 -109 36s-44 56 -45 96l70 17c1 -19 9 -35 23 -49s35 -21 62 -21c26 0 46 7 60 21s22 30 23 49z" />
    <glyph glyph-name="uni043A" unicode="&#x43a;" horiz-adv-x="531" 
d="M85 492h74v-216l234 216h107l-260 -239l283 -253h-120l-244 222v-222h-74v492z" />
    <glyph glyph-name="uni043B" unicode="&#x43b;" horiz-adv-x="583" 
d="M20 74l1 -2c23 3 43 10 61 21s33 31 45 59s22 67 29 117s12 116 15 197l1 26h328v-492h-74v412h-182l-1 -21c-6 -133 -24 -232 -54 -297s-74 -98 -133 -98h-11c-3 0 -7 0 -12 1z" />
    <glyph glyph-name="uni043C" unicode="&#x43c;" horiz-adv-x="750" 
d="M534 492h79l82 -492h-77l-59 352l-146 -352h-72l-146 352l-59 -352h-81l82 492h79l159 -381z" />
    <glyph glyph-name="uni043D" unicode="&#x43d;" horiz-adv-x="596" 
d="M159 492v-198h278v198h74v-492h-74v214h-278v-214h-74v492h74z" />
    <glyph glyph-name="uni043E" unicode="&#x43e;" 
d="M51 246l-2 -2c0 37 7 71 20 102s31 58 54 81s50 41 80 54s62 20 95 20s65 -6 95 -19s57 -31 80 -54s41 -50 54 -81s20 -65 20 -102s-7 -71 -20 -102s-31 -58 -54 -81s-49 -41 -79 -54s-62 -19 -95 -19s-65 7 -95 20s-56 31 -79 54s-41 50 -54 81s-20 65 -20 102zM298 421
h-3c-25 0 -48 -4 -69 -13s-39 -21 -54 -37s-27 -35 -36 -57s-13 -46 -13 -72s5 -50 14 -72s21 -41 36 -57s33 -28 54 -37s44 -13 69 -13s48 4 70 13s41 21 56 37s27 35 36 57s14 46 14 72s-4 50 -13 72s-21 41 -36 57s-33 28 -55 37s-45 13 -70 13z" />
    <glyph glyph-name="uni043F" unicode="&#x43f;" horiz-adv-x="589" 
d="M504 492v-492h-74v412h-271v-412h-74v492h419z" />
    <glyph glyph-name="uni0440" unicode="&#x440;" horiz-adv-x="619" 
d="M85 -213l-3 707h72v-59c4 9 11 18 21 27s22 17 36 23s30 11 48 15s37 6 57 6c33 0 65 -6 95 -19s57 -31 80 -54s41 -50 55 -81s21 -66 21 -104s-7 -73 -21 -104s-32 -58 -55 -81s-49 -41 -79 -54s-62 -19 -95 -19c-40 0 -74 7 -103 21s-47 30 -55 48v-272h-74zM491 248
l-3 -2c0 27 -4 52 -13 74s-21 41 -37 56s-35 27 -57 35s-46 12 -72 12c-38 0 -71 -8 -100 -24s-47 -39 -55 -69v-166c8 -30 27 -53 56 -69s63 -24 101 -24c26 0 50 4 72 12s41 20 57 35s28 34 37 56s14 47 14 74z" />
    <glyph glyph-name="uni0441" unicode="&#x441;" horiz-adv-x="536" 
d="M485 71l-1 6c-5 -10 -13 -20 -23 -30s-23 -19 -38 -27s-32 -14 -52 -19s-42 -7 -66 -7c-34 0 -66 6 -97 18s-58 29 -81 51s-42 49 -56 81s-21 67 -21 106s7 74 21 105s33 58 56 81s50 41 81 53s63 18 97 18c23 0 44 -2 63 -7s36 -11 51 -19s28 -17 38 -27s18 -20 23 -30
l-18 -60c-15 15 -35 29 -60 42s-53 19 -84 19c-29 0 -55 -4 -79 -12s-44 -20 -61 -36s-30 -35 -40 -57s-15 -46 -15 -73s5 -51 15 -73s24 -41 41 -57s38 -28 62 -36s51 -12 80 -12c34 0 63 6 87 19s44 27 59 43z" />
    <glyph glyph-name="uni0442" unicode="&#x442;" horiz-adv-x="486" 
d="M449 412h-169v-412h-74v412h-169v80h412v-80z" />
    <glyph glyph-name="uni0443" unicode="&#x443;" horiz-adv-x="531" 
d="M18 492h85l164 -388l158 388h85l-293 -705h-85l93 225z" />
    <glyph glyph-name="uni0444" unicode="&#x444;" horiz-adv-x="730" 
d="M328 -11v-2c-41 1 -78 8 -112 20s-63 29 -87 51s-43 49 -57 80s-21 66 -21 105s7 74 21 106s33 59 57 81s53 39 87 51s71 19 112 20v225h74v-225c41 -1 78 -7 112 -19s63 -29 87 -51s43 -49 57 -81s21 -67 21 -106s-7 -74 -21 -105s-33 -58 -57 -80s-53 -39 -87 -51
s-71 -18 -112 -19v-202h-74v202zM605 244l-2 -1c0 61 -19 106 -56 135s-86 43 -147 43v-354c30 0 58 4 83 11s47 18 65 32s32 32 42 54s15 49 15 80zM123 243l-2 -1c0 -31 5 -57 15 -79s24 -40 42 -54s40 -25 65 -32s53 -10 83 -10v354c-61 0 -110 -14 -147 -43
s-56 -74 -56 -135z" />
    <glyph glyph-name="uni0445" unicode="&#x445;" horiz-adv-x="502" 
d="M111 0h-95l188 262l-169 230h94l121 -166l120 166h95l-168 -232l190 -260h-93l-142 195z" />
    <glyph glyph-name="uni0446" unicode="&#x446;" horiz-adv-x="629" 
d="M518 -131v131h-433v492h74v-412h268v412h74v-412h88v-211h-71z" />
    <glyph glyph-name="uni0447" unicode="&#x447;" horiz-adv-x="501" 
d="M57 492l72 1v-111c0 -23 3 -42 9 -57s14 -27 24 -36s22 -15 36 -19s30 -6 48 -6c39 0 71 8 96 24v203h74v-492h-74v202c-12 -5 -26 -9 -42 -12s-34 -4 -55 -4c-25 0 -49 3 -72 9s-43 17 -60 32s-31 34 -41 58s-15 54 -15 89v119z" />
    <glyph glyph-name="uni0448" unicode="&#x448;" horiz-adv-x="843" 
d="M85 0v492h74v-412h225v412h74v-412h226v412h74v-492h-673z" />
    <glyph glyph-name="uni0449" unicode="&#x449;" horiz-adv-x="886" 
d="M85 0v492h74v-412h225v412h74v-412h226v412h74v-412h88v-211h-71v131h-690z" />
    <glyph glyph-name="uni044A" unicode="&#x44a;" horiz-adv-x="575" 
d="M154 0l-1 414h-130v80h204v-152h113c25 0 49 -4 72 -13s43 -21 60 -36s30 -33 40 -54s15 -43 15 -67c0 -25 -5 -48 -15 -69s-23 -39 -40 -54s-37 -27 -60 -36s-47 -13 -72 -13h-186zM356 82l-1 -1c28 0 51 9 69 26s27 39 27 66s-9 49 -28 65s-41 24 -67 24h-129v-180h129
z" />
    <glyph glyph-name="uni044B" unicode="&#x44b;" horiz-adv-x="676" 
d="M518 492h74v-492h-74v492zM85 0l-1 494h74v-152h99c25 0 49 -4 72 -13s43 -21 60 -36s30 -33 40 -54s15 -43 15 -67c0 -25 -5 -48 -15 -69s-23 -39 -40 -54s-37 -27 -60 -36s-47 -13 -72 -13h-172zM273 82l-1 -1c28 0 51 9 69 26s27 39 27 66s-9 49 -28 65s-41 24 -67 24
h-115v-180h115z" />
    <glyph glyph-name="uni044C" unicode="&#x44c;" horiz-adv-x="506" 
d="M85 0l-1 494h74v-152h113c25 0 49 -4 72 -13s43 -21 60 -36s30 -33 40 -54s15 -43 15 -67c0 -25 -5 -48 -15 -69s-23 -39 -40 -54s-37 -27 -60 -36s-47 -13 -72 -13h-186zM287 82l-1 -1c28 0 51 9 69 26s27 39 27 66s-9 49 -28 65s-41 24 -67 24h-129v-180h129z" />
    <glyph glyph-name="uni044D" unicode="&#x44d;" horiz-adv-x="536" 
d="M69 130l-1 -7c15 -15 35 -29 59 -42s53 -19 87 -19c53 0 97 12 132 37s56 61 63 109h-219v80h215c-11 42 -33 74 -67 96s-75 33 -124 33c-31 0 -59 -6 -83 -18s-43 -26 -58 -41l-18 58c5 10 13 20 23 30s23 19 38 27s32 14 51 19s40 7 63 7c34 0 66 -6 97 -18
s58 -29 81 -52s42 -50 56 -81s21 -66 21 -105s-7 -74 -21 -106s-33 -59 -56 -81s-50 -39 -81 -51s-63 -18 -97 -18c-24 0 -46 3 -66 8s-37 11 -52 19s-28 17 -38 27s-18 20 -23 30z" />
    <glyph glyph-name="uni044E" unicode="&#x44e;" horiz-adv-x="800" 
d="M159 294l92 -4c5 31 15 59 30 84s34 47 56 66s47 34 74 44s56 15 86 15c33 0 65 -6 95 -19s57 -31 80 -54s41 -50 54 -81s20 -65 20 -102s-7 -71 -20 -102s-31 -58 -54 -81s-49 -41 -79 -54s-62 -19 -95 -19c-31 0 -61 6 -89 17s-53 27 -75 47s-40 44 -54 72
s-23 58 -27 91h-94v-214h-74v492h74v-198zM496 419h-3c-25 0 -48 -4 -69 -13s-39 -21 -54 -37s-27 -35 -36 -57s-13 -46 -13 -72s5 -50 14 -72s21 -41 36 -57s33 -28 54 -37s44 -13 69 -13s48 4 70 13s41 21 56 37s27 35 36 57s14 46 14 72s-4 50 -13 72s-21 41 -36 57
s-33 28 -55 37s-45 13 -70 13z" />
    <glyph glyph-name="uni044F" unicode="&#x44f;" horiz-adv-x="505" 
d="M421 492l-1 -494h-74v157h-110l-108 -157h-87l118 172c-31 13 -56 33 -75 59s-28 57 -28 93c0 25 5 48 14 69s22 39 38 54s35 27 57 35s46 12 71 12h185zM225 410l1 -1c-28 0 -51 -8 -69 -25s-27 -38 -27 -63c0 -27 9 -48 28 -63s41 -23 67 -23h121v175h-121z" />
    <glyph glyph-name="uni0451" unicode="&#x451;" horiz-adv-x="571" 
d="M520 255h2c0 -11 -1 -22 -3 -34h-391c5 -51 24 -88 57 -112s73 -36 120 -36c36 0 67 5 93 16s49 27 69 48l14 -65c-5 -11 -13 -22 -24 -32s-24 -19 -40 -26s-33 -13 -52 -18s-39 -7 -60 -7c-35 0 -68 6 -99 18s-58 29 -81 51s-41 49 -54 81s-19 68 -19 108
c0 36 6 70 17 101s27 58 48 81s46 41 75 54s62 20 99 20c34 0 65 -6 93 -19s52 -31 72 -54s36 -49 47 -79s17 -62 17 -96zM293 423l-2 -1c-18 0 -36 -2 -53 -7s-33 -13 -48 -23s-27 -23 -37 -39s-17 -34 -21 -55h310c-5 39 -21 70 -48 92s-61 33 -101 33zM137 651
c0 16 6 30 17 41s25 17 41 17s30 -6 41 -17s17 -25 17 -41s-6 -30 -17 -41s-25 -17 -41 -17s-30 6 -41 17s-17 25 -17 41zM325 651c0 16 6 30 17 41s25 17 41 17s30 -6 41 -17s17 -25 17 -41s-6 -30 -17 -41s-25 -17 -41 -17s-30 6 -41 17s-17 25 -17 41z" />
    <glyph glyph-name="uni0452" unicode="&#x452;" horiz-adv-x="591" 
d="M440 262l1 -1c0 47 -13 83 -39 108s-58 38 -97 38c-17 0 -33 -2 -49 -7s-30 -12 -43 -21s-24 -19 -33 -31s-15 -25 -18 -40v-308h-74v573h-81v78h81v77h74v-77h147v-78h-147v-156c7 19 23 36 48 50s56 21 93 21c26 0 52 -4 77 -13s48 -22 68 -40s36 -41 48 -69
s18 -61 18 -100v-336c0 -102 -37 -153 -112 -153c-12 0 -26 2 -43 6s-30 13 -40 26l7 65c7 -7 16 -12 26 -15s19 -4 26 -4c25 0 42 8 50 24s12 39 12 68v315z" />
    <glyph glyph-name="uni0453" unicode="&#x453;" horiz-adv-x="424" 
d="M387 492v-80h-228v-412h-74v492h302zM352 723l-106 -143h-74l62 143h118z" />
    <glyph glyph-name="uni0454" unicode="&#x454;" horiz-adv-x="536" 
d="M467 123v7l18 -59c-5 -10 -13 -20 -23 -30s-23 -19 -38 -27s-32 -14 -52 -19s-42 -8 -66 -8c-34 0 -66 6 -97 18s-58 29 -81 51s-42 49 -56 81s-21 67 -21 106s7 74 21 105s33 58 56 81s50 40 81 52s63 18 97 18c23 0 44 -2 63 -7s36 -11 51 -19s28 -17 38 -27
s18 -20 23 -30l-18 -58c-15 15 -34 29 -58 41s-52 18 -83 18c-49 0 -90 -11 -124 -33s-56 -54 -67 -96h215v-80h-219c7 -48 28 -84 63 -109s79 -37 132 -37c34 0 63 6 87 19s43 27 58 42z" />
    <glyph glyph-name="uni0455" unicode="&#x455;" horiz-adv-x="416" 
d="M155 240l-2 -3c-32 17 -56 37 -72 60s-24 48 -24 74c0 38 12 69 37 93s62 36 111 36c17 0 33 -2 48 -7s29 -11 41 -18s22 -15 30 -23s14 -16 18 -24l-14 -67c-17 18 -36 32 -57 43s-44 16 -69 16c-17 0 -33 -4 -48 -11s-22 -20 -22 -38c0 -15 6 -27 19 -36s28 -18 45 -27
l60 -33c37 -20 65 -41 83 -63s27 -49 27 -82c0 -21 -4 -40 -12 -57s-19 -32 -33 -45s-31 -23 -52 -30s-44 -10 -70 -10c-18 0 -35 2 -51 7s-31 11 -45 19s-26 17 -36 27s-18 20 -23 31l16 68c20 -23 42 -40 67 -51s51 -16 79 -16c10 0 20 1 30 3s19 5 27 10s15 11 20 18
s8 16 8 27c0 16 -7 30 -22 42s-34 24 -57 36z" />
    <glyph glyph-name="uni0456" unicode="&#x456;" horiz-adv-x="240" 
d="M83 492h74v-492h-74v492zM61 655c0 17 6 31 17 42s25 17 42 17s31 -6 42 -17s17 -25 17 -42s-6 -31 -17 -42s-25 -17 -42 -17s-31 6 -42 17s-17 25 -17 42z" />
    <glyph glyph-name="uni0457" unicode="&#x457;" horiz-adv-x="241" 
d="M84 492h75v-492h-75v492zM-31 651c0 16 6 30 17 41s25 17 41 17s30 -6 41 -17s17 -25 17 -41s-6 -30 -17 -41s-25 -17 -41 -17s-30 6 -41 17s-17 25 -17 41zM157 651c0 16 6 30 17 41s25 17 41 17s30 -6 41 -17s17 -25 17 -41s-6 -30 -17 -41s-25 -17 -41 -17
s-30 6 -41 17s-17 25 -17 41z" />
    <glyph glyph-name="uni0458" unicode="&#x458;" horiz-adv-x="248" 
d="M91 492l74 1v-563c0 -102 -37 -153 -112 -153c-12 0 -26 2 -43 6s-30 13 -40 26l7 65c7 -7 16 -12 26 -15s19 -4 26 -4c25 0 42 8 50 24s12 39 12 68v545zM69 656c0 17 6 31 17 42s25 17 42 17s31 -6 42 -17s17 -25 17 -42s-6 -31 -17 -42s-25 -17 -42 -17s-31 6 -42 17
s-17 25 -17 42z" />
    <glyph glyph-name="uni0459" unicode="&#x459;" horiz-adv-x="795" 
d="M466 492v-152h95c25 0 49 -4 72 -13s43 -21 60 -36s30 -33 40 -54s15 -43 15 -67c0 -25 -5 -48 -15 -69s-23 -39 -40 -54s-37 -27 -60 -36s-47 -13 -72 -13h-169v412h-148l-1 -21c-6 -133 -24 -232 -54 -297s-74 -98 -133 -98h-11c-3 0 -7 0 -12 1l-13 77
c23 3 43 10 61 21s33 31 45 59s22 67 29 117s12 116 15 197l1 26h295zM572 80l-1 -1c28 0 51 9 69 26s27 39 27 66s-9 49 -28 65s-41 24 -67 24h-106v-180h106z" />
    <glyph glyph-name="uni045A" unicode="&#x45a;" horiz-adv-x="807" 
d="M402 0v216h-242v-214h-75v492h75v-198h242v198h75v-152h95c26 0 50 -4 72 -13s42 -21 59 -36s30 -33 40 -54s15 -43 15 -67c0 -25 -5 -48 -15 -69s-23 -39 -40 -54s-37 -27 -60 -36s-47 -13 -72 -13h-169zM584 82l-1 -1c28 0 51 9 69 26s27 39 27 66s-9 49 -28 65
s-41 24 -67 24h-107v-180h107z" />
    <glyph glyph-name="uni045B" unicode="&#x45b;" horiz-adv-x="591" 
d="M440 0l1 260c0 47 -13 83 -39 108s-58 38 -97 38c-17 0 -33 -2 -49 -7s-30 -12 -43 -21s-24 -19 -33 -31s-15 -25 -18 -40v-308h-74v573h-81v78h81v77h74v-77h147v-78h-147v-156c7 19 23 36 48 50s56 21 93 21c26 0 52 -4 77 -13s48 -22 68 -40s36 -41 48 -69
s18 -61 18 -100v-265h-74z" />
    <glyph glyph-name="uni045C" unicode="&#x45c;" horiz-adv-x="531" 
d="M85 492h74v-216l234 216h107l-260 -239l283 -253h-120l-244 222v-222h-74v492zM404 723l-106 -143h-74l62 143h118z" />
    <glyph glyph-name="uni045E" unicode="&#x45e;" horiz-adv-x="531" 
d="M18 492h85l164 -388l158 388h85l-293 -705h-85l93 225zM420 683h-1c-1 -40 -16 -72 -45 -96s-65 -36 -109 -36s-80 12 -109 36s-44 56 -45 96l70 17c1 -19 9 -35 23 -49s35 -21 62 -21c26 0 46 7 60 21s22 30 23 49z" />
    <glyph glyph-name="uni045F" unicode="&#x45f;" horiz-adv-x="586" 
d="M329 0v-131h-71v131h-173v492h74v-413h268v413h74v-492h-172z" />
    <glyph glyph-name="uni0490" unicode="&#x490;" horiz-adv-x="496" 
d="M97 718h276v154h73v-237h-271v-635h-78v718z" />
    <glyph glyph-name="uni0491" unicode="&#x491;" horiz-adv-x="424" 
d="M315 492v131h72v-211h-228v-412h-74v492h230z" />
    <glyph glyph-name="uni0492" unicode="&#x492;" horiz-adv-x="516" 
d="M117 318h-99v83h99v317h349v-83h-271v-234h206v-83h-206v-318h-78v318z" />
    <glyph glyph-name="uni0493" unicode="&#x493;" horiz-adv-x="442" 
d="M405 492v-80h-228v-134h164v-80h-164v-198h-74v198h-72v80h72v214h302z" />
    <glyph glyph-name="uni049A" unicode="&#x49a;" horiz-adv-x="663" 
d="M92 718h78v-332l310 332h104l-328 -351l278 -284h98v-237h-75v154h-51l-336 337v-337h-78v718z" />
    <glyph glyph-name="uni049B" unicode="&#x49b;" horiz-adv-x="544" 
d="M85 492h74v-216l234 216h107l-260 -239l193 -173h82v-211h-71v131h-41l-244 222v-222h-74v492z" />
    <glyph glyph-name="uni04A2" unicode="&#x4a2;" horiz-adv-x="815" 
d="M92 718h78v-307h413v307h78v-635h102v-237h-75v154h-105v328h-413v-328h-78v718z" />
    <glyph glyph-name="uni04A3" unicode="&#x4a3;" horiz-adv-x="639" 
d="M159 492v-198h278v198h74v-412h88v-211h-71v131h-91v214h-278v-214h-74v492h74z" />
    <glyph glyph-name="uni04AE" unicode="&#x4ae;" horiz-adv-x="542" 
d="M9 718h89l171 -325l171 325h92l-221 -420v-298h-78v298z" />
    <glyph glyph-name="uni04AF" unicode="&#x4af;" horiz-adv-x="522" 
d="M298 -213h-74v202l-204 503h80l160 -401l158 401h83l-203 -503v-202z" />
    <glyph glyph-name="uni04B0" unicode="&#x4b0;" horiz-adv-x="542" 
d="M88 307h140l-219 411h89l171 -325l171 325h92l-217 -411h139v-83h-143v-224h-78v224h-145v83z" />
    <glyph glyph-name="uni04B1" unicode="&#x4b1;" horiz-adv-x="522" 
d="M298 -213h-74v213h-140v80h103l-167 412h80l160 -401l158 401h83l-167 -412h101v-80h-137v-213z" />
    <glyph glyph-name="uni04BA" unicode="&#x4ba;" horiz-adv-x="585" 
d="M450 0l2 183c0 52 -13 89 -38 111s-63 33 -113 33c-25 0 -48 -2 -68 -5s-40 -7 -61 -12v-310h-78v718h78v-324c23 5 47 9 71 12s49 4 74 4c29 0 56 -3 82 -10s48 -18 67 -33s34 -34 45 -58s17 -53 17 -87v-222h-78z" />
    <glyph glyph-name="uni04BB" unicode="&#x4bb;" horiz-adv-x="587" 
d="M159 0l-73 -2v728h74v-296c7 19 23 36 48 50s56 21 93 21c26 0 52 -4 77 -13s48 -22 68 -40s36 -41 48 -69s18 -61 18 -100v-280h-74v277c0 47 -13 83 -39 108s-58 38 -97 38c-17 0 -33 -2 -49 -7s-30 -12 -43 -21s-24 -19 -33 -31s-15 -25 -18 -40v-323z" />
    <glyph glyph-name="uni04D8" unicode="&#x4d8;" horiz-adv-x="782" 
d="M656 403l1 -3c-7 43 -19 80 -36 111s-38 56 -63 75s-53 33 -84 42s-63 14 -97 14c-24 0 -48 -3 -73 -10s-49 -16 -72 -28s-44 -26 -63 -42s-35 -33 -49 -52l-20 77c11 21 26 40 45 57s41 32 65 45s50 23 78 30s57 11 86 11c49 0 95 -8 139 -25s83 -41 116 -73
s60 -71 80 -117s30 -99 30 -158c0 -53 -9 -102 -27 -147s-43 -84 -75 -117s-69 -59 -111 -78s-87 -28 -135 -28c-53 0 -101 10 -144 29s-80 45 -110 79s-53 74 -70 120s-25 96 -25 150v20c0 7 0 13 1 18h613zM394 70l-1 -1c29 0 58 4 87 13s56 23 80 42s45 45 62 77
s29 71 35 116h-532c5 -49 16 -89 34 -121s40 -57 65 -76s53 -32 83 -39s59 -11 87 -11z" />
    <glyph glyph-name="uni04D9" unicode="&#x4d9;" horiz-adv-x="563" 
d="M261 503l-3 -4c36 0 69 -6 100 -18s58 -29 80 -51s40 -49 53 -81s19 -67 19 -106c0 -34 -5 -67 -15 -98s-25 -58 -45 -81s-44 -42 -73 -56s-62 -21 -99 -21c-33 0 -64 6 -92 18s-52 29 -72 52s-36 51 -47 83s-17 69 -17 110c0 8 0 15 1 22s2 13 3 18h378
c-15 85 -72 128 -171 128c-34 0 -63 -6 -88 -19s-47 -30 -67 -52l-15 63c5 13 13 25 25 36s26 21 41 29s32 15 50 20s36 8 54 8zM129 207v-1c0 -19 4 -37 11 -54s17 -32 30 -45s28 -23 46 -30s38 -10 61 -10s44 4 63 11s35 17 48 30s23 28 30 45s11 35 12 54h-301z" />
    <glyph glyph-name="uni04E8" unicode="&#x4e8;" horiz-adv-x="790" 
d="M395 -11l-4 -2c-47 0 -92 10 -135 29s-80 45 -112 78s-58 72 -77 117s-28 94 -28 147s10 102 29 147s45 84 77 117s70 59 113 78s88 29 135 29s92 -9 135 -28s81 -45 113 -78s58 -72 77 -117s29 -94 29 -147s-9 -102 -28 -147s-45 -84 -77 -117s-69 -59 -112 -78
s-88 -28 -135 -28zM391 71h-2c36 0 70 6 101 18s59 29 83 51s44 48 60 79s26 65 30 102h-546c4 -37 14 -71 30 -102s36 -57 60 -79s52 -39 83 -51s65 -18 101 -18zM389 643v-1c-35 0 -68 -6 -99 -18s-58 -28 -82 -49s-44 -46 -60 -76s-26 -62 -31 -97h544
c-5 35 -15 68 -31 98s-36 55 -60 76s-51 37 -82 49s-64 18 -99 18z" />
    <glyph glyph-name="uni04E9" unicode="&#x4e9;" 
d="M51 246l-2 -2c0 37 7 71 20 102s31 58 54 81s50 41 80 54s62 20 95 20s65 -6 95 -19s57 -31 80 -54s41 -50 54 -81s20 -65 20 -102s-7 -71 -20 -102s-31 -58 -54 -81s-49 -41 -79 -54s-62 -19 -95 -19s-65 7 -95 20s-56 31 -79 54s-41 50 -54 81s-20 65 -20 102zM298 67
c22 0 43 3 62 10s36 17 51 30s28 28 38 45s17 36 21 57h-344c4 -21 11 -40 21 -57s23 -32 38 -45s32 -23 51 -30s40 -10 62 -10zM298 421h2c-43 0 -80 -12 -111 -36s-51 -56 -60 -96h340c-9 40 -29 72 -60 96s-68 36 -111 36z" />
    <glyph glyph-name="uni1E02" unicode="&#x1e02;" horiz-adv-x="578" 
d="M424 380l-1 -2c28 -12 52 -33 72 -62s30 -65 30 -108c0 -33 -5 -63 -16 -89s-26 -48 -45 -66s-42 -32 -69 -41s-56 -14 -88 -14h-216v718h179c32 0 61 -4 88 -13s50 -22 69 -39s34 -37 45 -61s16 -51 16 -82c0 -33 -6 -61 -18 -84s-27 -42 -46 -57zM320 81l-1 -1
c17 0 33 3 48 9s29 15 41 26s21 24 28 39s10 32 10 50c0 16 -3 31 -9 46s-15 28 -26 39s-24 20 -40 27s-33 10 -51 10h-151v-245h151zM168 408l120 -1c34 0 62 10 85 30s34 47 34 81c0 16 -3 31 -9 45s-14 26 -24 36s-22 18 -37 24s-31 9 -48 9h-121v-224zM209 842
c0 17 6 32 18 44s26 18 43 18s32 -6 44 -18s18 -27 18 -44s-6 -32 -18 -44s-27 -18 -44 -18s-31 6 -43 18s-18 27 -18 44z" />
    <glyph glyph-name="uni1E03" unicode="&#x1e03;" horiz-adv-x="620" 
d="M160 728l-1 -290c8 18 27 34 56 48s64 21 104 21c33 0 65 -6 95 -19s57 -31 80 -54s41 -50 55 -81s21 -66 21 -104s-7 -73 -21 -104s-32 -58 -55 -81s-49 -41 -79 -54s-62 -19 -95 -19c-20 0 -39 2 -57 6s-34 9 -48 15s-26 13 -36 21s-17 17 -21 26v-59h-72v728h74z
M494 251l-3 -2c0 27 -4 52 -13 74s-21 41 -37 56s-35 27 -57 35s-46 12 -72 12c-38 0 -71 -8 -100 -24s-47 -39 -55 -69v-166c8 -30 27 -53 56 -69s63 -24 101 -24c26 0 50 4 72 12s41 20 57 35s28 34 37 56s14 47 14 74zM270 816c0 17 6 31 17 42s25 17 42 17s31 -6 42 -17
s17 -25 17 -42s-6 -31 -17 -42s-25 -17 -42 -17s-31 6 -42 17s-17 25 -17 42z" />
    <glyph glyph-name="uni1E0A" unicode="&#x1e0a;" horiz-adv-x="738" 
d="M618 359l1 1c0 39 -7 75 -20 108s-32 62 -56 87s-53 45 -87 59s-71 21 -112 21h-174v-552h174c39 0 75 7 109 20s63 32 87 56s43 53 57 87s21 72 21 113zM314 719v-3c55 0 106 -8 153 -24s87 -39 121 -69s61 -67 80 -112s29 -96 29 -153s-10 -107 -29 -151
s-46 -81 -80 -112s-74 -54 -121 -70s-98 -24 -153 -24h-221v718h221zM283 844c0 17 6 32 18 44s26 18 43 18s32 -6 44 -18s18 -27 18 -44s-6 -32 -18 -44s-27 -18 -44 -18s-31 6 -43 18s-18 27 -18 44z" />
    <glyph glyph-name="uni1E0B" unicode="&#x1e0b;" horiz-adv-x="619" 
d="M534 728l-1 -733h-72v59c-4 -9 -11 -18 -21 -26s-22 -15 -36 -21s-30 -11 -48 -15s-37 -6 -57 -6c-33 0 -65 6 -95 19s-56 31 -79 54s-41 50 -55 81s-21 66 -21 104s7 73 21 104s32 58 55 81s50 41 80 54s62 19 95 19c40 0 75 -7 104 -21s48 -30 56 -48v295h74zM124 241
l-3 -2c0 -27 5 -51 14 -73s21 -40 37 -55s35 -27 57 -35s46 -12 72 -12c38 0 72 8 101 24s48 39 56 69v166c-8 30 -26 53 -55 69s-62 24 -100 24c-26 0 -50 -4 -72 -12s-41 -20 -57 -35s-28 -33 -37 -55s-13 -46 -13 -73zM258 806c0 17 6 31 17 42s25 17 42 17s31 -6 42 -17
s17 -25 17 -42s-6 -31 -17 -42s-25 -17 -42 -17s-31 6 -42 17s-17 25 -17 42z" />
    <glyph glyph-name="uni1E1E" unicode="&#x1e1e;" horiz-adv-x="496" 
d="M92 718h354v-83h-276v-224h256v-83h-256v-328h-78v718zM203 846c0 17 6 32 18 44s26 18 43 18s32 -6 44 -18s18 -27 18 -44s-6 -32 -18 -44s-27 -18 -44 -18s-31 6 -43 18s-18 27 -18 44z" />
    <glyph glyph-name="uni1E1F" unicode="&#x1e1f;" horiz-adv-x="421" 
d="M381 617l-3 -2c-9 11 -21 21 -37 30s-33 13 -52 13c-25 0 -45 -8 -61 -24s-24 -39 -24 -69v-74h177v-80h-177v-412h-74v412h-94v80h94v85c0 52 13 92 39 120s64 42 114 42c23 0 45 -5 65 -15s35 -24 44 -41zM212 850c0 17 6 31 17 42s25 17 42 17s31 -6 42 -17
s17 -25 17 -42s-6 -31 -17 -42s-25 -17 -42 -17s-31 6 -42 17s-17 25 -17 42z" />
    <glyph glyph-name="uni1E40" unicode="&#x1e40;" horiz-adv-x="942" 
d="M698 718h86l96 -718h-76l-81 586l-212 -586h-79l-217 586l-74 -586h-79l95 718h86l226 -612zM410 846c0 17 6 32 18 44s26 18 43 18s32 -6 44 -18s18 -27 18 -44s-6 -32 -18 -44s-27 -18 -44 -18s-31 6 -43 18s-18 27 -18 44z" />
    <glyph glyph-name="uni1E41" unicode="&#x1e41;" horiz-adv-x="918" 
d="M636 503l-5 1c25 0 50 -4 75 -13s47 -22 66 -40s35 -40 47 -67s18 -59 18 -96v-286h-74v281c0 46 -12 81 -37 105s-56 36 -94 36c-16 0 -32 -2 -47 -7s-29 -12 -41 -21s-22 -19 -30 -31s-13 -25 -16 -40v-323h-74v281c0 46 -12 81 -37 105s-56 36 -94 36
c-16 0 -32 -2 -47 -7s-29 -12 -41 -21s-22 -19 -30 -31s-13 -25 -16 -40v-323h-74v492h72v-60c7 19 23 36 48 50s55 21 90 21c32 0 63 -7 94 -22s56 -37 75 -66c15 23 37 43 67 60s65 26 105 26zM395 656c0 17 6 31 17 42s25 17 42 17s31 -6 42 -17s17 -25 17 -42
s-6 -31 -17 -42s-25 -17 -42 -17s-31 6 -42 17s-17 25 -17 42z" />
    <glyph glyph-name="uni1E56" unicode="&#x1e56;" horiz-adv-x="545" 
d="M290 718l-1 -3c31 0 60 -5 87 -15s51 -24 71 -43s36 -41 47 -67s17 -55 17 -88c0 -32 -5 -61 -16 -87s-26 -49 -45 -68s-42 -34 -69 -44s-57 -15 -90 -15h-121v-288h-78v718h198zM169 632l-1 -266h135c19 0 36 4 52 11s30 17 41 29s20 26 26 42s9 33 9 51s-3 35 -9 51
s-15 30 -26 42s-24 22 -40 29s-33 11 -52 11h-135zM213 841c0 17 6 32 18 44s26 18 43 18s32 -6 44 -18s18 -27 18 -44s-6 -32 -18 -44s-27 -18 -44 -18s-31 6 -43 18s-18 27 -18 44z" />
    <glyph glyph-name="uni1E57" unicode="&#x1e57;" horiz-adv-x="615" 
d="M85 -213l-3 707h72v-59c4 9 11 18 21 27s22 17 36 23s30 11 48 15s37 6 57 6c33 0 65 -6 95 -19s57 -31 80 -54s41 -50 55 -81s21 -66 21 -104s-7 -73 -21 -104s-32 -58 -55 -81s-49 -41 -79 -54s-62 -19 -95 -19c-40 0 -74 7 -103 21s-47 30 -55 48v-272h-74zM491 248
l-3 -2c0 27 -4 52 -13 74s-21 41 -37 56s-35 27 -57 35s-46 12 -72 12c-38 0 -71 -8 -100 -24s-47 -39 -55 -69v-166c8 -30 27 -53 56 -69s63 -24 101 -24c26 0 50 4 72 12s41 20 57 35s28 34 37 56s14 47 14 74zM245 655c0 17 6 31 17 42s25 17 42 17s31 -6 42 -17
s17 -25 17 -42s-6 -31 -17 -42s-25 -17 -42 -17s-31 6 -42 17s-17 25 -17 42z" />
    <glyph glyph-name="uni1E60" unicode="&#x1e60;" horiz-adv-x="483" 
d="M346 349l-3 -1c29 -27 52 -54 68 -81s24 -58 24 -94c0 -27 -5 -52 -14 -75s-22 -42 -39 -58s-38 -28 -62 -37s-51 -13 -81 -13c-25 0 -49 4 -72 12s-44 18 -62 30s-34 25 -47 39s-22 28 -27 42l23 80c23 -38 51 -67 83 -87s69 -30 111 -30c37 0 65 9 84 27s28 41 28 69
c0 23 -6 43 -19 61s-28 34 -45 49c-46 38 -82 69 -109 93s-48 44 -63 59c-25 25 -42 48 -52 69s-15 44 -15 69c0 48 16 86 48 115s75 43 128 43c39 0 74 -9 106 -28s56 -42 71 -69l-19 -80c-19 27 -42 49 -69 67s-57 27 -91 27c-28 0 -51 -6 -69 -19s-27 -32 -27 -58
c0 -10 2 -19 6 -28s9 -17 15 -25s13 -15 20 -22s14 -13 20 -18c29 -24 53 -43 71 -58s32 -27 42 -36s18 -16 23 -21s10 -9 14 -13zM172 845c0 17 6 32 18 44s26 18 43 18s32 -6 44 -18s18 -27 18 -44s-6 -32 -18 -44s-27 -18 -44 -18s-31 6 -43 18s-18 27 -18 44z" />
    <glyph glyph-name="uni1E61" unicode="&#x1e61;" horiz-adv-x="416" 
d="M155 240l-2 -3c-32 17 -56 37 -72 60s-24 48 -24 74c0 38 12 69 37 93s62 36 111 36c17 0 33 -2 48 -7s29 -11 41 -18s22 -15 30 -23s14 -16 18 -24l-14 -67c-17 18 -36 32 -57 43s-44 16 -69 16c-17 0 -33 -4 -48 -11s-22 -20 -22 -38c0 -15 6 -27 19 -36s28 -18 45 -27
l60 -33c37 -20 65 -41 83 -63s27 -49 27 -82c0 -21 -4 -40 -12 -57s-19 -32 -33 -45s-31 -23 -52 -30s-44 -10 -70 -10c-18 0 -35 2 -51 7s-31 11 -45 19s-26 17 -36 27s-18 20 -23 31l16 68c20 -23 42 -40 67 -51s51 -16 79 -16c10 0 20 1 30 3s19 5 27 10s15 11 20 18
s8 16 8 27c0 16 -7 30 -22 42s-34 24 -57 36zM141 652c0 17 6 31 17 42s25 17 42 17s31 -6 42 -17s17 -25 17 -42s-6 -31 -17 -42s-25 -17 -42 -17s-31 6 -42 17s-17 25 -17 42z" />
    <glyph glyph-name="uni1E6A" unicode="&#x1e6a;" horiz-adv-x="575" 
d="M16 718h543v-81h-233v-637h-78v637h-232v81zM226 846c0 17 6 32 18 44s26 18 43 18s32 -6 44 -18s18 -27 18 -44s-6 -32 -18 -44s-27 -18 -44 -18s-31 6 -43 18s-18 27 -18 44z" />
    <glyph glyph-name="uni1E6B" unicode="&#x1e6b;" horiz-adv-x="432" 
d="M383 51l-1 -1c-7 -17 -21 -32 -42 -44s-46 -18 -76 -18c-44 0 -78 13 -102 40s-36 69 -36 126v259h-90v24l139 178h24v-124h182v-78h-181v-246c0 -34 7 -58 21 -73s34 -22 61 -22c21 0 38 4 51 13s24 19 33 30zM152 777c0 17 6 31 17 42s25 17 42 17s31 -6 42 -17
s17 -25 17 -42s-6 -31 -17 -42s-25 -17 -42 -17s-31 6 -42 17s-17 25 -17 42z" />
    <glyph glyph-name="Wgrave" unicode="&#x1e80;" horiz-adv-x="1011" 
d="M714 144l187 574h88l-238 -718h-79l-169 601l-164 -601h-79l-238 718h82l191 -574l163 574h86zM479 905l63 -133h-81l-105 133h123z" />
    <glyph glyph-name="wgrave" unicode="&#x1e81;" horiz-adv-x="833" 
d="M577 107l151 385h85l-194 -492h-79l-124 386l-121 -386h-81l-194 492h81l149 -386l126 386h79zM389 723l63 -143h-75l-105 143h117z" />
    <glyph glyph-name="Wacute" unicode="&#x1e82;" horiz-adv-x="1011" 
d="M714 144l187 574h88l-238 -718h-79l-169 601l-164 -601h-79l-238 718h82l191 -574l163 574h86zM653 905l-106 -133h-80l63 133h123z" />
    <glyph glyph-name="wacute" unicode="&#x1e83;" horiz-adv-x="833" 
d="M577 107l151 385h85l-194 -492h-79l-124 386l-121 -386h-81l-194 492h81l149 -386l126 386h79zM569 723l-106 -143h-74l62 143h118z" />
    <glyph glyph-name="Wdieresis" unicode="&#x1e84;" horiz-adv-x="1011" 
d="M714 144l187 574h88l-238 -718h-79l-169 601l-164 -601h-79l-238 718h82l191 -574l163 574h86zM347 842c0 18 6 33 18 45s27 18 45 18s33 -6 45 -18s18 -27 18 -45s-6 -33 -18 -45s-27 -18 -45 -18s-33 6 -45 18s-18 27 -18 45zM546 842c0 18 6 33 18 45s27 18 45 18
s33 -6 45 -18s18 -27 18 -45s-6 -33 -18 -45s-27 -18 -45 -18s-33 6 -45 18s-18 27 -18 45z" />
    <glyph glyph-name="wdieresis" unicode="&#x1e85;" horiz-adv-x="833" 
d="M577 107l151 385h85l-194 -492h-79l-124 386l-121 -386h-81l-194 492h81l149 -386l126 386h79zM264 652c0 16 6 30 17 41s25 17 41 17s30 -6 41 -17s17 -25 17 -41s-6 -30 -17 -41s-25 -17 -41 -17s-30 6 -41 17s-17 25 -17 41zM452 652c0 16 6 30 17 41s25 17 41 17
s30 -6 41 -17s17 -25 17 -41s-6 -30 -17 -41s-25 -17 -41 -17s-30 6 -41 17s-17 25 -17 41z" />
    <glyph glyph-name="Ygrave" unicode="&#x1ef2;" horiz-adv-x="542" 
d="M9 718h89l171 -325l171 325h92l-221 -420v-298h-78v298zM257 905l63 -133h-81l-105 133h123z" />
    <glyph glyph-name="ygrave" unicode="&#x1ef3;" horiz-adv-x="531" 
d="M18 492h85l164 -388l158 388h85l-293 -705h-85l93 225zM243 723l63 -143h-75l-105 143h117z" />
    <glyph glyph-name="endash" unicode="&#x2013;" horiz-adv-x="604" 
d="M52 312h500v-77h-500v77z" />
    <glyph glyph-name="emdash" unicode="&#x2014;" horiz-adv-x="944" 
d="M52 312h840v-77h-840v77z" />
    <glyph glyph-name="quoteleft" unicode="&#x2018;" horiz-adv-x="282" 
d="M162 601l-2 -2c10 -3 20 -9 29 -17s14 -21 14 -38s-6 -31 -18 -42s-27 -17 -44 -17s-31 6 -43 17s-18 26 -18 45c0 15 3 28 8 39s11 22 17 33l61 109h52z" />
    <glyph glyph-name="quoteright" unicode="&#x2019;" horiz-adv-x="282" 
d="M120 613l-2 1c-10 3 -19 9 -28 17s-13 21 -13 38s6 31 18 42s27 17 44 17s31 -5 43 -16s18 -26 18 -45c0 -15 -2 -28 -7 -39s-10 -22 -16 -33l-61 -109h-52z" />
    <glyph glyph-name="quotesinglbase" unicode="&#x201a;" horiz-adv-x="282" 
d="M120 -3l-2 1c-10 3 -19 9 -28 17s-13 21 -13 38s6 31 18 42s27 17 44 17s31 -5 43 -16s18 -26 18 -45c0 -15 -2 -28 -7 -39s-10 -22 -16 -33l-61 -109h-52z" />
    <glyph glyph-name="quotedblleft" unicode="&#x201c;" horiz-adv-x="451" 
d="M162 601l-2 -2c10 -3 20 -9 29 -17s14 -21 14 -38s-6 -31 -18 -42s-27 -17 -44 -17s-31 6 -43 17s-18 26 -18 45c0 15 3 28 8 39s11 22 17 33l61 109h52zM329 599l-2 -2c10 -3 20 -9 29 -17s14 -21 14 -38s-6 -31 -18 -42s-27 -17 -44 -17s-31 6 -43 17s-18 26 -18 45
c0 15 3 28 8 39s11 22 17 33l61 109h52z" />
    <glyph glyph-name="quotedblright" unicode="&#x201d;" horiz-adv-x="450" 
d="M120 613l-2 1c-10 3 -19 9 -28 17s-13 21 -13 38s6 31 18 42s27 17 44 17s31 -5 43 -16s18 -26 18 -45c0 -15 -2 -28 -7 -39s-10 -22 -16 -33l-61 -109h-52zM286 614l-2 1c-10 3 -19 9 -28 17s-13 21 -13 38s6 31 18 42s27 17 44 17s31 -5 43 -16s18 -26 18 -45
c0 -15 -2 -28 -7 -39s-10 -22 -16 -33l-61 -109h-52z" />
    <glyph glyph-name="quotedblbase" unicode="&#x201e;" horiz-adv-x="450" 
d="M120 -3l-2 1c-10 3 -19 9 -28 17s-13 21 -13 38s6 31 18 42s27 17 44 17s31 -5 43 -16s18 -26 18 -45c0 -15 -2 -28 -7 -39s-10 -22 -16 -33l-61 -109h-52zM286 -2l-2 1c-10 3 -19 9 -28 17s-13 21 -13 38s6 31 18 42s27 17 44 17s31 -5 43 -16s18 -26 18 -45
c0 -15 -2 -28 -7 -39s-10 -22 -16 -33l-61 -109h-52z" />
    <glyph glyph-name="dagger" unicode="&#x2020;" horiz-adv-x="591" 
d="M332 718v-211h180v-80h-180v-609h-74v609h-179v80h179v211h74z" />
    <glyph glyph-name="daggerdbl" unicode="&#x2021;" horiz-adv-x="591" 
d="M332 718v-211h180v-80h-180v-317h180v-80h-180v-212h-74v212h-179v80h179v317h-179v80h179v211h74z" />
    <glyph glyph-name="bullet" unicode="&#x2022;" horiz-adv-x="395" 
d="M67 275l-1 -1c0 18 3 35 10 51s16 30 28 42s26 21 42 28s33 11 51 11s35 -3 51 -10s30 -16 42 -28s21 -26 28 -42s11 -33 11 -51s-3 -35 -10 -51s-16 -30 -28 -42s-26 -21 -42 -28s-33 -10 -51 -10s-35 3 -51 10s-30 16 -42 28s-21 26 -28 42s-10 33 -10 51z" />
    <glyph glyph-name="ellipsis" unicode="&#x2026;" horiz-adv-x="778" 
d="M82 55l-4 -4c0 18 7 34 20 47s29 20 47 20s34 -6 47 -19s20 -28 20 -46s-6 -33 -19 -46s-28 -19 -46 -19s-33 7 -46 20s-19 29 -19 47zM319 51l-4 -4c0 18 7 34 20 47s29 20 47 20s34 -6 47 -19s20 -28 20 -46s-6 -33 -19 -46s-28 -19 -46 -19s-33 7 -46 20
s-19 29 -19 47zM556 47l-4 -4c0 18 7 34 20 47s29 20 47 20s34 -6 47 -19s20 -28 20 -46s-6 -33 -19 -46s-28 -19 -46 -19s-33 7 -46 20s-19 29 -19 47z" />
    <glyph glyph-name="perthousand" unicode="&#x2030;" horiz-adv-x="1271" 
d="M185 0l413 718h88l-413 -718h-88zM217 386v-2c-25 0 -48 5 -69 14s-39 21 -54 37s-27 34 -36 55s-13 43 -13 66s4 45 13 66s21 39 36 55s33 28 54 37s44 14 69 14s48 -4 69 -13s39 -21 54 -37s27 -34 36 -55s13 -43 13 -66s-4 -45 -13 -66s-21 -39 -36 -55
s-33 -28 -54 -37s-44 -13 -69 -13zM217 650h-2c-15 0 -29 -3 -41 -8s-22 -12 -31 -21s-16 -19 -21 -30s-7 -23 -7 -36s2 -25 7 -36s12 -21 21 -30s20 -16 32 -21s26 -8 41 -8s29 3 41 8s23 12 32 21s16 19 21 30s7 23 7 36s-2 25 -7 36s-12 21 -21 30s-20 16 -32 21
s-25 8 -40 8zM652 -12v-2c-25 0 -48 5 -69 14s-39 21 -54 37s-27 34 -36 55s-13 43 -13 66s4 45 13 66s21 39 36 55s33 28 54 37s44 14 69 14s48 -4 69 -13s39 -21 54 -37s27 -34 36 -55s13 -43 13 -66s-4 -45 -13 -66s-21 -39 -36 -55s-33 -28 -54 -37s-44 -13 -69 -13z
M652 252h-2c-15 0 -29 -3 -41 -8s-22 -12 -31 -21s-16 -19 -21 -30s-7 -23 -7 -36s2 -25 7 -36s12 -21 21 -30s20 -16 32 -21s26 -8 41 -8s29 3 41 8s23 12 32 21s16 19 21 30s7 23 7 36s-2 25 -7 36s-12 21 -21 30s-20 16 -32 21s-25 8 -40 8zM1050 -14v-2
c-25 0 -48 5 -69 14s-39 21 -54 37s-27 34 -36 55s-13 43 -13 66s4 45 13 66s21 39 36 55s33 28 54 37s44 14 69 14s48 -4 69 -13s39 -21 54 -37s27 -34 36 -55s13 -43 13 -66s-4 -45 -13 -66s-21 -39 -36 -55s-33 -28 -54 -37s-44 -13 -69 -13zM1050 250h-2
c-15 0 -29 -3 -41 -8s-22 -12 -31 -21s-16 -19 -21 -30s-7 -23 -7 -36s2 -25 7 -36s12 -21 21 -30s20 -16 32 -21s26 -8 41 -8s29 3 41 8s23 12 32 21s16 19 21 30s7 23 7 36s-2 25 -7 36s-12 21 -21 30s-20 16 -32 21s-25 8 -40 8z" />
    <glyph glyph-name="guilsinglleft" unicode="&#x2039;" horiz-adv-x="307" 
d="M249 91h-81l-131 174l131 175h81l-107 -175z" />
    <glyph glyph-name="guilsinglright" unicode="&#x203a;" horiz-adv-x="307" 
d="M139 91h-81l107 174l-107 175h81l131 -175z" />
    <glyph glyph-name="uni2042" unicode="&#x2042;" horiz-adv-x="861" 
d="M260 126l72 -99l-49 -36l-74 100l-72 -100l-50 36l72 99l-119 40l22 60l116 -37v122h62v-122l118 38l22 -61zM480 533l72 -99l-49 -36l-74 100l-72 -100l-50 36l72 99l-119 40l22 60l116 -37v122h62v-122l118 38l22 -61zM701 126l72 -99l-49 -36l-74 100l-72 -100l-50 36
l72 99l-119 40l22 60l116 -37v122h62v-122l118 38l22 -61z" />
    <glyph glyph-name="fraction" unicode="&#x2044;" horiz-adv-x="162" 
d="M-95 0h-76l428 718h75z" />
    <glyph glyph-name="uni2051" unicode="&#x2051;" horiz-adv-x="420" 
d="M260 126l72 -99l-49 -36l-74 100l-72 -100l-50 36l72 99l-119 40l22 60l116 -37v122h62v-122l118 38l22 -61zM260 533l72 -99l-49 -36l-74 100l-72 -100l-50 36l72 99l-119 40l22 60l116 -37v122h62v-122l118 38l22 -61z" />
    <glyph glyph-name="n.superior" unicode="&#x207f;" horiz-adv-x="424" 
d="M223 633v2c17 0 34 -3 51 -9s32 -15 45 -27s24 -27 33 -45s13 -39 13 -64v-190h-70v180c0 25 -8 44 -24 57s-34 20 -55 20c-19 0 -37 -5 -53 -16s-26 -24 -29 -39v-202h-71v326h71v-37c5 13 15 24 30 32s35 12 59 12z" />
    <glyph glyph-name="Euro" unicode="&#x20ac;" 
d="M38 460l69 -5c7 43 19 81 35 114s36 61 59 84s49 41 77 53s58 18 89 18c48 0 87 -9 117 -26s55 -38 74 -63l-27 -67c-18 23 -40 41 -67 54s-54 19 -82 19c-53 0 -96 -15 -129 -45s-56 -76 -69 -139h303l-28 -72h-283c-1 -19 -1 -35 0 -47s2 -22 3 -30h249l-28 -71h-214
c14 -57 38 -99 72 -126s76 -40 127 -40c34 0 64 8 90 23s48 33 66 54l16 -70c-23 -30 -49 -52 -79 -67s-67 -22 -110 -22c-30 0 -59 6 -86 17s-52 27 -75 48s-42 47 -58 78s-28 67 -36 108h-105l29 71h64c-1 8 -1 18 -1 30s0 28 1 47h-92z" />
    <glyph glyph-name="uni20B4" unicode="&#x20b4;" horiz-adv-x="524" 
d="M49 482h274c10 11 20 24 29 39s14 31 14 48c0 26 -9 45 -26 57s-39 18 -65 18c-31 0 -59 -8 -84 -24s-48 -36 -68 -61l-20 79c17 25 41 46 71 63s63 26 99 26c26 0 50 -4 72 -12s41 -19 56 -33s27 -31 36 -50s13 -41 13 -65c0 -17 -3 -33 -8 -47s-12 -28 -21 -41h35v-72
h-102c-11 -11 -23 -23 -37 -36s-29 -27 -46 -41h185v-71h-265c-13 -14 -23 -29 -30 -44s-11 -32 -11 -50c0 -27 9 -49 26 -67s45 -27 83 -27c36 0 71 9 104 28s60 46 81 81l23 -82c-6 -13 -15 -26 -27 -39s-26 -25 -43 -36s-36 -20 -58 -27s-46 -10 -73 -10
c-29 0 -56 5 -80 14s-45 22 -62 38s-30 35 -40 57s-15 46 -15 71c0 20 2 37 6 51s10 28 19 43h-46v71h106c14 13 28 26 41 38s29 26 48 41h-194v72z" />
    <glyph glyph-name="uni20B8" unicode="&#x20b8;" horiz-adv-x="544" 
d="M50 568h444v-83h-182v-485h-78v485h-184v83zM50 718h444v-72h-444v72z" />
    <glyph glyph-name="uni20BD" unicode="&#x20bd;" horiz-adv-x="591" 
d="M126 371l-1 344h205c31 0 60 -5 87 -15s51 -24 71 -43s36 -41 47 -67s17 -55 17 -88c0 -32 -5 -61 -16 -87s-26 -49 -45 -68s-42 -34 -69 -44s-57 -15 -90 -15h-128v-78h206v-72h-206v-138h-78v138h-89v72h89v78h-89v83h89zM203 632l-1 -266h142c19 0 36 4 52 11
s30 17 41 29s20 26 26 42s9 33 9 51s-3 35 -9 51s-15 30 -26 42s-24 22 -40 29s-33 11 -52 11h-142z" />
    <glyph glyph-name="uni2113" unicode="&#x2113;" horiz-adv-x="418" 
d="M253 73l-1 -5c21 0 38 4 50 11s23 16 33 27l17 -65c-10 -17 -25 -31 -45 -41s-45 -15 -75 -15c-50 0 -87 15 -111 45s-36 71 -36 124v410c0 57 13 100 39 129s62 43 107 43c22 0 42 -4 60 -12s33 -19 46 -34s23 -32 30 -52s11 -42 11 -66c0 -29 -6 -59 -19 -91
s-29 -64 -49 -96s-43 -62 -69 -91s-52 -54 -79 -76v-48c0 -35 8 -60 25 -75s39 -22 66 -22zM161 310c17 17 34 36 51 57s32 43 45 66s24 46 33 69s13 45 13 66c0 27 -6 48 -18 63s-28 23 -48 23c-24 0 -43 -8 -56 -24s-20 -37 -20 -64v-256z" />
    <glyph glyph-name="uni2116" unicode="&#x2116;" horiz-adv-x="1143" 
d="M760 256v77h299v-77h-299zM910 728h-2c24 0 46 -4 66 -13s37 -21 52 -36s27 -32 35 -52s12 -41 12 -64s-4 -44 -12 -64s-19 -37 -34 -52s-32 -27 -52 -36s-42 -13 -66 -13s-46 4 -66 13s-37 21 -52 36s-26 32 -34 52s-12 41 -12 64s4 44 12 64s20 37 35 52s32 27 52 36
s42 13 66 13zM1000 565v-2c0 23 -8 43 -25 60s-39 26 -67 26s-50 -8 -67 -25s-25 -37 -25 -60s8 -43 25 -60s39 -25 67 -25s50 9 67 26s25 37 25 60zM90 716h89l405 -598v598h78v-718h-89l-405 595v-595h-78v718z" />
    <glyph glyph-name="uni2117" unicode="&#x2117;" horiz-adv-x="825" 
d="M412 729l-1 -1c51 0 99 -10 144 -29s84 -45 118 -78s61 -72 80 -117s29 -93 29 -144s-10 -99 -29 -144s-45 -84 -79 -118s-73 -60 -118 -79s-93 -29 -144 -29s-99 10 -144 29s-84 46 -117 80s-59 73 -78 118s-29 93 -29 144s10 99 29 144s45 84 78 117s72 59 117 78
s93 29 144 29zM411 40l-4 -1c45 0 87 9 126 26s74 40 104 69s53 63 70 101s26 79 26 122s-8 84 -25 123s-40 73 -70 102s-64 52 -103 69s-81 25 -126 25c-44 0 -85 -8 -124 -25s-73 -40 -103 -69s-53 -63 -70 -102s-26 -80 -26 -123s9 -84 26 -122s41 -72 71 -101
s64 -52 103 -69s81 -25 125 -25zM387 577l-1 -1c20 0 38 -3 55 -9s31 -15 43 -26s22 -24 29 -40s10 -33 10 -52c0 -38 -13 -68 -38 -91s-58 -34 -99 -34h-57v-159h-64v412h122zM329 505v-112h68c18 0 33 5 45 15s18 24 18 41c0 16 -6 29 -18 40s-27 16 -45 16h-68z" />
    <glyph glyph-name="trademark" unicode="&#x2122;" horiz-adv-x="813" 
d="M20 718h281v-67h-108v-281h-64v281h-109v67zM649 718h66l48 -348h-62l-31 226l-87 -226h-59l-87 226l-29 -226h-67l49 348h65l99 -249z" />
    <glyph glyph-name="Omega" unicode="&#x2126;" horiz-adv-x="804" 
d="M402 729l-6 -2c52 0 99 -10 142 -29s80 -45 111 -78s55 -72 72 -117s25 -93 25 -144c0 -36 -4 -69 -12 -100s-18 -59 -31 -83s-27 -44 -42 -60s-29 -27 -42 -33h134v-83h-262v70c25 12 48 27 69 46s40 41 56 65s29 51 38 81s14 63 14 98c0 41 -6 79 -19 114
s-31 65 -55 90s-52 45 -85 60s-70 22 -110 22s-77 -7 -110 -22s-61 -35 -85 -60s-42 -55 -55 -90s-19 -73 -19 -114c0 -35 5 -68 14 -98s22 -57 38 -81s35 -45 56 -64s44 -34 69 -46v-70h-262v83h134c-13 6 -27 17 -42 33s-29 36 -42 60s-23 52 -31 83s-12 65 -12 101
c0 51 8 99 25 144s41 84 72 117s68 59 111 78s90 29 142 29z" />
    <glyph glyph-name="estimated" unicode="&#x212e;" horiz-adv-x="782" 
d="M126 315l-2 -1c7 -43 19 -80 36 -111s38 -56 63 -75s53 -33 84 -42s63 -13 97 -13c24 0 48 4 73 11s49 16 72 28s44 26 63 42s35 33 49 52l20 -77c-11 -21 -26 -40 -45 -57s-41 -32 -65 -45s-50 -23 -78 -30s-57 -10 -86 -10c-49 0 -95 8 -139 25s-83 41 -116 73
s-59 71 -79 117s-30 99 -30 158c0 53 9 102 27 147s43 84 75 117s69 59 111 78s87 28 135 28c53 0 101 -9 144 -28s80 -45 110 -79s53 -74 70 -120s25 -96 25 -150v-20c0 -7 0 -13 -1 -18h-613zM387 644l-1 -1c-29 0 -58 -4 -87 -13s-55 -23 -79 -42s-45 -44 -62 -76
s-29 -70 -35 -115h532c-5 49 -16 89 -34 121s-40 57 -65 76s-52 32 -82 39s-59 11 -87 11z" />
    <glyph glyph-name="onethird" unicode="&#x2153;" horiz-adv-x="756" 
d="M180 0h-76l428 718h75zM45 627l96 74h52v-395h-65v307l-83 -55v69zM581 63l-1 -2c23 0 41 6 54 17s20 26 20 45c0 16 -6 29 -19 40s-31 16 -54 16c-9 0 -17 -1 -25 -3s-14 -4 -19 -6l-11 49l84 101h-129v72h216v-50l-82 -101c12 -1 24 -4 36 -9s23 -12 33 -22
s18 -22 25 -36s10 -31 10 -50c0 -18 -3 -35 -10 -51s-16 -30 -28 -42s-27 -21 -45 -28s-37 -10 -58 -10c-14 0 -27 2 -40 6s-25 9 -35 15s-19 13 -27 20s-13 14 -16 21l14 57c22 -33 58 -49 107 -49z" />
    <glyph glyph-name="twothirds" unicode="&#x2154;" horiz-adv-x="826" 
d="M250 0h-76l428 718h75zM285 377l-2 -71h-250v56l116 123c19 21 34 38 44 52s15 30 15 47c0 15 -5 27 -16 37s-26 15 -45 15s-35 -5 -49 -15s-25 -21 -34 -34l-28 45c3 9 8 18 15 27s16 17 26 24s21 13 34 18s27 7 42 7c21 0 39 -3 54 -9s28 -14 38 -25s18 -23 23 -37
s8 -28 8 -43c0 -28 -7 -54 -21 -78s-34 -49 -59 -76l-61 -63h150zM649 63l-1 -2c23 0 41 6 54 17s20 26 20 45c0 16 -6 29 -19 40s-31 16 -54 16c-9 0 -17 -1 -25 -3s-14 -4 -19 -6l-11 49l84 101h-129v72h216v-50l-82 -101c12 -1 24 -4 36 -9s23 -12 33 -22s18 -22 25 -36
s10 -31 10 -50c0 -18 -3 -35 -10 -51s-16 -30 -28 -42s-27 -21 -45 -28s-37 -10 -58 -10c-14 0 -27 2 -40 6s-25 9 -35 15s-19 13 -27 20s-13 14 -16 21l14 57c22 -33 58 -49 107 -49z" />
    </font>
</defs>
</svg>
