<?xml version="1.0" standalone="no"?>
<!DOCTYPE svg PUBLIC "-//W3C//DTD SVG 1.1//EN" "http://www.w3.org/Graphics/SVG/1.1/DTD/svg11.dtd" >
<svg xmlns="http://www.w3.org/2000/svg" xmlns:xlink="http://www.w3.org/1999/xlink" version="1.1">
<metadata>
Created by FontForge 20161116 at Mon Aug 17 05:10:05 2015
 By Jimmy Wärting
Copyright (c) 2014 by Vyacheslav Kirilenko, Gayane Bagdasaryan. All rights reserved.
</metadata>
<defs>
<font id="Gerbera" horiz-adv-x="600" >
  <font-face 
    font-family="Gerbera"
    font-weight="400"
    font-stretch="normal"
    units-per-em="1000"
    panose-1="2 0 5 0 0 0 0 0 0 0"
    ascent="767"
    descent="-233"
    x-height="499"
    cap-height="718"
    bbox="-170 -289 1472 1039"
    underline-thickness="50"
    underline-position="-100"
    unicode-range="U+000D-FEFF"
  />
<missing-glyph horiz-adv-x="571" 
d="M90 718h391v-718h-391v718zM390 96v526h-209v-526h209z" />
    <glyph glyph-name=".notdef" horiz-adv-x="571" 
d="M90 718h391v-718h-391v718zM390 96v526h-209v-526h209z" />
    <glyph glyph-name=".null" horiz-adv-x="0" 
 />
    <glyph glyph-name=".null" horiz-adv-x="0" 
 />
    <glyph glyph-name="nonmarkingreturn" unicode="&#xd;" horiz-adv-x="270" 
 />
    <glyph glyph-name="space" unicode=" " horiz-adv-x="270" 
 />
    <glyph glyph-name="exclam" unicode="!" horiz-adv-x="362" 
d="M144 230l-26 488h126l-26 -488h-74zM115 58c0 19 6 35 19 48s29 19 48 19s35 -6 48 -19s19 -29 19 -48s-6 -35 -19 -48s-29 -19 -48 -19s-35 6 -48 19s-19 29 -19 48z" />
    <glyph glyph-name="quotedbl" unicode="&#x22;" horiz-adv-x="408" 
d="M55 718h106l-17 -240h-72zM247 718h106l-17 -240h-72z" />
    <glyph glyph-name="numbersign" unicode="#" horiz-adv-x="650" 
d="M585 473h-108l-20 -111h99v-90h-115l-31 -176h-82l31 176h-116l-31 -176h-82l31 176h-96v90h112l20 111h-103v90h119l28 155h82l-28 -155h116l28 155h82l-28 -155h92v-90zM259 362h116l20 111h-116z" />
    <glyph glyph-name="dollar" unicode="$" horiz-adv-x="489" 
d="M353 356l-3 1c15 -13 28 -26 40 -39s22 -27 30 -41s15 -29 20 -45s7 -33 7 -52c0 -49 -14 -90 -43 -123s-67 -54 -115 -63v-103h-91v103c-20 4 -39 10 -58 18s-36 18 -51 29s-28 23 -38 35s-17 24 -22 36l29 96c22 -35 50 -63 84 -84s70 -32 108 -32c34 0 59 8 75 24
s24 37 24 62c0 19 -6 37 -17 54s-25 32 -42 45c-42 35 -77 64 -104 87s-49 43 -65 60c-22 23 -39 46 -51 68s-18 47 -18 74c0 44 13 80 40 108s62 46 105 53v102h91v-106c29 -7 55 -19 77 -36s39 -36 51 -57l-21 -94c-19 25 -43 46 -72 64s-59 27 -90 27
c-23 0 -43 -5 -59 -15s-24 -27 -24 -50c0 -17 6 -33 19 -49s26 -29 39 -39c25 -20 46 -36 62 -49s29 -24 39 -33s19 -16 26 -21s13 -10 18 -15z" />
    <glyph glyph-name="percent" unicode="%" horiz-adv-x="889" 
d="M190 0l413 718h96l-413 -718h-96zM219 378l-2 -4c-25 0 -48 5 -70 14s-41 22 -57 38s-28 35 -37 56s-13 44 -13 68s4 47 13 68s21 40 37 56s35 29 57 38s46 14 71 14s49 -5 71 -14s41 -22 57 -38s28 -34 37 -55s13 -43 13 -67s-4 -46 -13 -67s-21 -39 -37 -55
s-35 -29 -57 -38s-45 -14 -70 -14zM217 636c-28 0 -50 -9 -66 -26s-24 -37 -24 -60s8 -43 24 -60s38 -26 66 -26s50 9 66 26s24 37 24 60s-8 43 -24 60s-38 26 -66 26zM668 -14l-2 -4c-25 0 -48 5 -70 14s-41 22 -57 38s-28 35 -37 56s-13 44 -13 68s4 47 13 68s21 40 37 56
s35 29 57 38s46 14 71 14s49 -5 71 -14s41 -22 57 -38s28 -34 37 -55s13 -43 13 -67s-4 -46 -13 -67s-21 -39 -37 -55s-35 -29 -57 -38s-45 -14 -70 -14zM666 244c-28 0 -50 -9 -66 -26s-24 -37 -24 -60s8 -43 24 -60s38 -26 66 -26s50 9 66 26s24 37 24 60s-8 43 -24 60
s-38 26 -66 26z" />
    <glyph glyph-name="ampersand" unicode="&#x26;" horiz-adv-x="635" 
d="M638 0l-117 -2l-73 82c-25 -29 -55 -52 -89 -69s-73 -25 -118 -25c-31 0 -59 5 -83 15s-45 24 -62 41s-30 37 -39 59s-13 46 -13 71c0 22 3 42 10 61s16 37 28 53s26 31 42 45s33 27 50 39l16 12l-10 12c-25 32 -44 60 -57 84s-19 50 -19 77c0 24 5 47 14 68s22 39 38 55
s35 28 57 37s46 14 72 14c27 0 52 -5 74 -14s41 -22 56 -38s27 -34 35 -55s12 -43 12 -67c0 -17 -3 -33 -9 -49s-15 -31 -26 -46s-24 -29 -39 -43s-31 -27 -48 -39l-16 -12l124 -144c11 18 22 37 32 57s20 42 29 65l39 -86c-11 -34 -26 -67 -45 -99zM279 628v-2
c-26 0 -47 -7 -63 -22s-24 -33 -24 -54c0 -19 5 -37 15 -53s21 -31 32 -44l24 -27l14 11c11 7 22 15 33 24s21 18 29 27s15 19 20 29s8 20 8 31c0 25 -8 45 -25 59s-38 21 -63 21zM249 84l-1 -2c26 0 50 5 73 15s46 26 69 48l-142 166l-13 -9l-36 -27s-23 -19 -32 -29
s-16 -21 -22 -33s-9 -25 -9 -40c0 -27 10 -49 30 -65s48 -24 83 -24z" />
    <glyph glyph-name="quotesingle" unicode="'" horiz-adv-x="216" 
d="M55 718h106l-17 -240h-72z" />
    <glyph glyph-name="parenleft" unicode="(" horiz-adv-x="363" 
d="M318 714h-2c-51 -73 -86 -147 -106 -223s-30 -150 -30 -223c0 -71 10 -144 30 -219s56 -149 107 -222l-83 -8c-53 64 -91 134 -114 210s-34 156 -34 240c0 86 12 167 35 243s61 146 114 209z" />
    <glyph glyph-name="parenright" unicode=")" horiz-adv-x="363" 
d="M45 714l83 7c53 -63 91 -133 114 -209s34 -157 34 -243c0 -84 -11 -164 -34 -240s-61 -146 -114 -210l-83 8c51 73 86 147 106 222s30 148 30 219c0 73 -10 147 -30 223s-55 150 -106 223z" />
    <glyph glyph-name="asterisk" unicode="*" horiz-adv-x="499" 
d="M90 352l90 126l-150 50l29 82l147 -47v155h85v-155l149 48l29 -83l-151 -50l91 -125l-67 -50l-93 127l-92 -126z" />
    <glyph glyph-name="plus" unicode="+" horiz-adv-x="539" 
d="M227 341v163h85v-163h167v-93h-167v-161h-85v161h-167v93h167z" />
    <glyph glyph-name="comma" unicode="," horiz-adv-x="299" 
d="M126 -3h-2c-11 3 -22 10 -32 20s-15 25 -15 45s7 37 21 50s31 20 51 20s37 -7 51 -20s21 -30 21 -51c0 -17 -3 -32 -9 -45s-13 -26 -20 -39l-65 -117h-64z" />
    <glyph glyph-name="hyphen" unicode="-" horiz-adv-x="466" 
d="M391 318v-87h-316v87h316z" />
    <glyph glyph-name="period" unicode="." horiz-adv-x="299" 
d="M78 61c0 21 7 38 21 52s31 21 52 21c20 0 37 -7 51 -21s21 -31 21 -52s-7 -38 -21 -52s-31 -21 -51 -21c-21 0 -38 7 -52 21s-21 31 -21 52z" />
    <glyph glyph-name="slash" unicode="/" horiz-adv-x="465" 
d="M99 -178h-99l367 896h98z" />
    <glyph glyph-name="zero" unicode="0" horiz-adv-x="606" 
d="M303 730h-2c37 0 71 -8 101 -24s56 -40 77 -71s37 -70 48 -116s17 -99 17 -159s-6 -113 -17 -159s-27 -85 -48 -116s-46 -55 -76 -71s-64 -24 -101 -24s-71 8 -101 24s-55 40 -76 71s-37 70 -48 116s-17 99 -17 159s6 113 17 159s27 85 48 116s47 55 77 71s64 24 101 24z
M301 90l-2 -2c43 0 79 23 107 69s42 113 42 200s-14 154 -42 200s-63 69 -106 69s-78 -23 -106 -69s-42 -112 -42 -199s14 -153 42 -199s64 -69 107 -69z" />
    <glyph glyph-name="one" unicode="1" horiz-adv-x="411" 
d="M60 595l160 123h84v-718h-94v596l-150 -108v107z" />
    <glyph glyph-name="two" unicode="2" horiz-adv-x="524" 
d="M239 628h-3c-19 0 -36 -3 -52 -9s-30 -13 -42 -22s-22 -19 -31 -30s-16 -22 -22 -33l-42 71c5 17 14 33 26 48s26 28 43 40s36 21 57 28s44 10 68 10c33 0 62 -5 87 -16s46 -26 63 -45s30 -41 39 -66s14 -51 14 -79c0 -26 -3 -50 -9 -73s-15 -46 -27 -69s-27 -46 -44 -69
s-37 -48 -59 -75l-119 -140h279v-101h-413v82l190 223c32 38 58 74 78 107s30 68 30 104c0 16 -2 31 -7 45s-12 26 -22 36s-22 18 -36 24s-29 9 -46 9z" />
    <glyph glyph-name="three" unicode="3" horiz-adv-x="531" 
d="M246 90h1c43 0 77 12 102 35s38 55 38 95c0 17 -3 33 -10 48s-17 28 -30 39s-28 20 -46 27s-38 10 -60 10c-12 0 -24 -1 -35 -3s-21 -4 -30 -7l-17 81l159 200h-238v101h361v-78l-156 -195c23 -1 46 -7 69 -17s44 -25 63 -44s34 -42 46 -69s18 -57 18 -91
c0 -31 -6 -61 -17 -90s-27 -54 -48 -75s-46 -38 -75 -51s-61 -19 -97 -19c-24 0 -47 3 -69 9s-42 15 -61 26s-35 23 -48 36s-22 27 -27 41l26 86c23 -34 50 -58 80 -73s64 -22 101 -22z" />
    <glyph glyph-name="four" unicode="4" horiz-adv-x="523" 
d="M316 718h91v-403h86v-101h-86v-214h-94v214h-288v88zM313 315v256l-179 -256h179z" />
    <glyph glyph-name="five" unicode="5" horiz-adv-x="551" 
d="M261 90l-2 1c43 0 77 12 102 36s38 56 38 96c0 21 -4 39 -12 55s-18 30 -30 41s-26 20 -43 26s-34 9 -52 9c-43 0 -80 -12 -111 -35l-76 16l34 384h334v-101h-262l-15 -189c17 9 34 16 51 20s36 6 58 6c31 0 60 -6 87 -18s50 -28 70 -48s35 -44 46 -72s17 -58 17 -91
c0 -32 -6 -62 -17 -91s-27 -54 -48 -76s-46 -39 -75 -52s-61 -19 -97 -19c-24 0 -47 3 -69 9s-42 15 -61 26s-35 23 -48 36s-22 27 -27 41l28 88c21 -33 47 -58 78 -74s65 -24 102 -24z" />
    <glyph glyph-name="six" unicode="6" horiz-adv-x="568" 
d="M239 454v-1c7 1 13 2 19 2h24c37 0 70 -6 99 -19s54 -30 74 -51s36 -46 47 -74s17 -57 17 -88c0 -33 -6 -64 -19 -93s-30 -54 -52 -75s-47 -38 -75 -50s-58 -18 -89 -18c-33 0 -64 6 -93 18s-54 29 -75 50s-37 46 -49 75s-18 60 -18 93c0 39 7 77 21 113s30 69 48 99
l170 283h110zM284 89l2 -5c19 0 37 3 54 10s32 16 44 28s22 26 29 42s11 33 11 52s-3 37 -10 53s-17 30 -30 42s-28 22 -45 29s-36 11 -57 11c-19 0 -37 -3 -54 -9s-31 -15 -43 -27s-22 -26 -29 -42s-10 -34 -10 -54s4 -38 11 -54s17 -30 29 -41s27 -20 44 -26s35 -9 54 -9z
" />
    <glyph glyph-name="seven" unicode="7" horiz-adv-x="511" 
d="M351 617h-301v101h411v-80l-268 -638h-100z" />
    <glyph glyph-name="eight" unicode="8" horiz-adv-x="576" 
d="M421 376l2 -1c32 -19 56 -45 72 -77s24 -65 24 -100c0 -30 -6 -58 -18 -84s-28 -48 -48 -67s-44 -34 -72 -45s-58 -16 -91 -16s-63 5 -91 16s-52 26 -72 45s-36 41 -48 67s-18 54 -18 84c0 35 8 68 24 100s40 58 72 77c-21 13 -39 33 -54 60s-22 58 -22 93
c0 27 5 53 15 77s24 45 42 63s40 33 66 44s54 16 85 16s59 -5 85 -16s48 -25 66 -43s32 -39 42 -63s15 -50 15 -77c0 -35 -7 -66 -22 -93s-33 -47 -54 -60zM290 627l-2 -1c-18 0 -34 -3 -48 -9s-26 -14 -36 -24s-17 -21 -22 -33s-7 -24 -7 -37s3 -26 8 -38s12 -23 22 -33
s22 -18 36 -24s30 -9 48 -9s34 3 48 9s26 14 36 24s17 21 22 33s8 25 8 38s-2 26 -7 38s-12 23 -22 33s-22 18 -36 24s-30 9 -48 9zM288 88v-3c19 0 37 3 53 9s30 14 42 25s21 24 28 38s10 29 10 45c0 17 -3 33 -10 47s-16 27 -28 38s-26 19 -42 25s-34 9 -53 9
s-37 -3 -53 -9s-30 -14 -42 -25s-21 -23 -28 -37s-10 -29 -10 -46c0 -16 3 -31 10 -45s16 -26 28 -37s26 -19 42 -25s34 -9 53 -9z" />
    <glyph glyph-name="nine" unicode="9" horiz-adv-x="568" 
d="M329 264h-1c-7 -1 -13 -2 -19 -2h-24c-37 0 -70 6 -99 19s-54 30 -74 51s-36 46 -47 74s-16 57 -16 88c0 33 6 64 19 93s30 54 52 75s47 38 75 50s58 18 89 18c33 0 64 -6 93 -18s54 -29 75 -50s37 -46 49 -75s18 -60 18 -93c0 -39 -7 -76 -21 -112s-30 -69 -48 -99
l-170 -283h-110zM283 628l-3 2c-19 0 -37 -3 -54 -10s-32 -16 -44 -28s-22 -26 -29 -42s-11 -33 -11 -52s3 -36 10 -52s17 -30 30 -42s28 -21 45 -28s36 -10 57 -10c19 0 37 3 54 9s31 15 43 27s22 26 29 42s11 34 11 54s-4 38 -11 54s-17 30 -29 41s-27 20 -44 26
s-35 9 -54 9z" />
    <glyph glyph-name="colon" unicode=":" horiz-adv-x="299" 
d="M78 61c0 21 7 38 21 52s31 21 52 21c20 0 37 -7 51 -21s21 -31 21 -52s-7 -38 -21 -52s-31 -21 -51 -21c-21 0 -38 7 -52 21s-21 31 -21 52zM78 405c0 21 7 38 21 52s31 21 52 21c20 0 37 -7 51 -21s21 -31 21 -52s-7 -38 -21 -52s-31 -21 -51 -21c-21 0 -38 7 -52 21
s-21 31 -21 52z" />
    <glyph glyph-name="semicolon" unicode=";" horiz-adv-x="299" 
d="M126 -3h-2c-11 3 -22 10 -32 20s-15 25 -15 45s7 37 21 50s31 20 51 20s37 -7 51 -20s21 -30 21 -51c0 -17 -3 -32 -9 -45s-13 -26 -20 -39l-65 -117h-64zM76 405c0 21 7 38 21 52s31 21 52 21c20 0 37 -7 51 -21s21 -31 21 -52s-7 -38 -21 -52s-31 -21 -51 -21
c-21 0 -38 7 -52 21s-21 31 -21 52z" />
    <glyph glyph-name="less" unicode="&#x3c;" horiz-adv-x="539" 
d="M176 296l303 -134v-96l-419 186v88l419 186v-96z" />
    <glyph glyph-name="equal" unicode="=" horiz-adv-x="539" 
d="M60 351v93h419v-93h-419zM60 145v93h419v-93h-419z" />
    <glyph glyph-name="greater" unicode="&#x3e;" horiz-adv-x="539" 
d="M363 299l-303 134v96l419 -186v-88l-419 -186v96z" />
    <glyph glyph-name="question" unicode="?" horiz-adv-x="469" 
d="M161 58c0 19 6 35 19 48s29 19 48 19s35 -6 48 -19s19 -29 19 -48s-6 -35 -19 -48s-29 -19 -48 -19s-35 6 -48 19s-19 29 -19 48zM65 635l-4 -6c6 13 14 25 25 37s24 22 39 31s31 16 48 21s35 8 53 8c27 0 51 -4 72 -11s38 -17 52 -30s25 -28 32 -45s11 -36 11 -56
c0 -19 -3 -36 -10 -51s-16 -29 -27 -42s-24 -25 -39 -36s-30 -21 -46 -31c-17 -11 -31 -20 -42 -28s-19 -15 -25 -21s-10 -12 -12 -18s-3 -11 -3 -16c0 -13 5 -23 15 -31s24 -12 42 -12c36 0 71 18 105 54l15 -77c-9 -16 -24 -32 -46 -47s-50 -23 -85 -23
c-21 0 -40 3 -57 10s-31 16 -43 28s-21 26 -27 42s-9 33 -9 51c0 13 2 26 6 39s11 26 20 39s21 27 36 41s34 28 57 42c29 18 50 33 63 45s20 26 20 41s-6 27 -19 36s-31 14 -54 14c-28 0 -54 -6 -78 -19s-45 -31 -63 -54z" />
    <glyph glyph-name="at" unicode="@" horiz-adv-x="939" 
d="M558 205l2 -3c-7 9 -19 16 -37 21s-37 8 -57 8c-29 0 -52 -4 -69 -13s-25 -21 -25 -37c0 -17 8 -30 24 -39s39 -14 69 -14c21 0 40 4 57 11s29 17 36 30v36zM641 205l2 -5c0 -21 5 -39 15 -54s26 -22 48 -22c17 0 31 5 41 15s18 22 23 37s9 31 11 48s3 33 3 47
c0 46 -8 88 -25 125s-39 69 -67 95s-60 46 -97 60s-76 21 -117 21c-44 0 -85 -8 -123 -24s-71 -38 -99 -67s-50 -63 -66 -103s-24 -83 -24 -130c0 -46 7 -89 21 -129s35 -74 62 -103s60 -52 99 -68s83 -24 132 -24c35 0 67 3 95 10s55 20 80 39l16 -75
c-20 -19 -47 -35 -81 -47s-71 -18 -110 -18c-57 0 -110 11 -159 32s-91 50 -127 87s-64 81 -85 131s-31 105 -31 164c0 57 10 111 30 161s48 94 84 131s78 67 126 89s100 33 156 33c52 0 102 -10 149 -29s89 -46 125 -81s65 -76 86 -124s32 -100 32 -157
c0 -29 -3 -58 -8 -86s-14 -53 -27 -75s-30 -40 -51 -53s-47 -20 -78 -20c-27 0 -50 5 -69 15s-36 25 -52 44c-6 -8 -14 -15 -24 -22s-21 -13 -33 -18s-25 -9 -39 -12s-28 -4 -42 -4c-46 0 -83 12 -111 36s-42 57 -42 100c0 21 4 40 12 56s19 30 33 41s31 20 50 26s39 9 60 9
c23 0 45 -3 65 -9s36 -14 47 -23v16c0 31 -10 54 -30 69s-45 23 -74 23c-23 0 -46 -5 -70 -16s-43 -25 -58 -42l-18 72c15 23 37 42 66 56s59 21 89 21c26 0 50 -3 72 -10s41 -17 57 -31s28 -31 37 -51s13 -43 13 -70v-107z" />
    <glyph glyph-name="A" unicode="A" horiz-adv-x="678" 
d="M667 0h-100l-65 165h-324l-64 -165h-103l278 718h101zM217 266h246l-124 316z" />
    <glyph glyph-name="B" unicode="B" horiz-adv-x="578" 
d="M271 718l-2 -2c33 0 63 -4 90 -13s50 -21 69 -37s34 -36 45 -61s16 -53 16 -85s-6 -59 -17 -81s-26 -41 -45 -56c29 -14 53 -35 72 -64s28 -65 28 -109c0 -34 -5 -64 -16 -90s-26 -48 -46 -66s-43 -31 -70 -40s-56 -14 -88 -14h-217v718h181zM182 314l-2 -213h142
c15 0 29 3 42 8s24 12 33 21s17 20 23 33s9 27 9 42c0 14 -3 28 -8 41s-12 25 -21 35s-20 18 -33 24s-28 9 -44 9h-141zM180 617v-201h110c30 0 55 9 74 27s29 42 29 73c0 29 -9 53 -28 72s-44 29 -75 29h-110z" />
    <glyph glyph-name="C" unicode="C" horiz-adv-x="700" 
d="M665 124l-2 -9c-11 -19 -25 -37 -42 -54s-37 -31 -61 -43s-50 -21 -79 -28s-60 -10 -93 -10c-47 0 -92 9 -134 27s-79 43 -111 76s-57 72 -76 117s-28 96 -28 152s9 107 28 153s44 85 76 117s69 57 111 75s87 27 135 27c33 0 64 -4 92 -11s54 -17 77 -29s43 -26 60 -42
s30 -33 39 -50l-29 -84c-22 33 -53 61 -94 83s-87 33 -139 33c-39 0 -74 -6 -106 -18s-59 -30 -82 -53s-41 -51 -54 -84s-19 -71 -19 -113s6 -79 19 -112s31 -61 54 -84s51 -41 83 -53s67 -18 106 -18c57 0 106 12 146 35s72 51 95 84z" />
    <glyph glyph-name="D" unicode="D" horiz-adv-x="737" 
d="M602 359l-3 1c0 36 -6 70 -19 101s-30 58 -52 81s-49 41 -80 54s-65 20 -102 20h-163v-516h163c36 0 70 6 101 18s58 30 81 53s41 50 54 82s20 67 20 106zM309 719v-3c56 0 108 -8 155 -24s88 -39 122 -69s61 -67 80 -112s29 -96 29 -153s-10 -107 -29 -151
s-46 -81 -81 -112s-76 -54 -123 -70s-98 -24 -153 -24h-222v718h222z" />
    <glyph glyph-name="E" unicode="E" horiz-adv-x="533" 
d="M90 718h383v-101h-289v-197h259v-101h-259v-218h289v-101h-383v718z" />
    <glyph glyph-name="F" unicode="F" horiz-adv-x="488" 
d="M90 718h348v-101h-254v-197h234v-101h-234v-319h-94v718z" />
    <glyph glyph-name="G" unicode="G" horiz-adv-x="734" 
d="M390 730l3 -2c32 0 62 -4 90 -12s54 -18 77 -31s43 -27 60 -43s30 -33 39 -50l-29 -85c-11 16 -25 31 -41 46s-34 28 -54 39s-42 20 -66 26s-49 9 -75 9c-39 0 -74 -6 -106 -19s-59 -31 -82 -54s-40 -51 -52 -84s-18 -70 -18 -111c0 -43 7 -81 20 -114s31 -61 54 -84
s51 -41 83 -53s68 -18 107 -18c36 0 69 6 99 17s57 27 80 48v112h-185v101h279v-242c-12 -20 -28 -38 -48 -55s-42 -32 -67 -45s-51 -23 -79 -30s-57 -10 -87 -10c-47 0 -92 9 -135 27s-80 43 -112 75s-57 71 -76 116s-28 96 -28 152s9 107 28 153s44 85 76 118
s69 58 111 76s87 27 134 27z" />
    <glyph glyph-name="H" unicode="H" horiz-adv-x="757" 
d="M90 718h94v-298h389v298h94v-718h-94v319h-389v-319h-94v718z" />
    <glyph glyph-name="I" unicode="I" horiz-adv-x="274" 
d="M90 718h94v-718h-94v718z" />
    <glyph glyph-name="J" unicode="J" horiz-adv-x="405" 
d="M320 179v-1c0 -61 -13 -108 -40 -141s-69 -50 -126 -50c-17 0 -33 2 -47 6s-27 10 -39 17s-22 15 -30 23s-14 16 -18 24l11 89c15 -17 32 -31 50 -41s38 -15 60 -15c26 0 47 8 62 24s23 44 23 84v520h94v-539z" />
    <glyph glyph-name="K" unicode="K" horiz-adv-x="640" 
d="M90 718h94v-314l290 314h124l-321 -349l355 -369h-132l-316 325v-325h-94v718z" />
    <glyph glyph-name="L" unicode="L" horiz-adv-x="478" 
d="M90 718h94v-617h274v-101h-368v718z" />
    <glyph glyph-name="M" unicode="M" horiz-adv-x="947" 
d="M690 718h101l96 -718h-93l-75 548l-198 -548h-92l-202 548l-70 -548h-97l95 718h101l216 -581z" />
    <glyph glyph-name="N" unicode="N" horiz-adv-x="759" 
d="M90 718h102l383 -564v564h94v-718h-102l-383 561v-561h-94v718z" />
    <glyph glyph-name="O" unicode="O" horiz-adv-x="796" 
d="M398 730l1 -4c48 0 94 -9 137 -28s81 -45 114 -78s59 -72 78 -117s29 -94 29 -147s-10 -102 -29 -147s-45 -84 -78 -117s-71 -59 -114 -78s-88 -28 -135 -28c-49 0 -95 10 -139 29s-82 45 -115 78s-59 72 -78 117s-29 94 -29 147s10 102 29 148s45 85 78 118
s71 59 114 78s89 29 137 29zM400 624l-1 -3c-37 0 -72 -7 -104 -20s-60 -32 -84 -56s-43 -52 -57 -85s-21 -69 -21 -108s7 -75 21 -108s33 -61 57 -85s52 -42 84 -55s67 -19 104 -19s71 7 103 20s60 31 83 55s42 52 56 85s21 70 21 110c0 39 -7 75 -21 108s-32 61 -55 85
s-51 43 -83 56s-66 20 -103 20z" />
    <glyph glyph-name="P" unicode="P" horiz-adv-x="546" 
d="M290 718h-2c32 0 62 -5 90 -15s52 -25 72 -44s36 -42 48 -69s18 -57 18 -90c0 -32 -5 -61 -16 -88s-26 -50 -46 -69s-44 -34 -72 -45s-58 -16 -91 -16h-107v-282h-94v718h200zM182 617v-235h122c33 0 60 11 82 33s33 50 33 85c0 16 -3 31 -9 45s-14 27 -24 38
s-22 19 -36 25s-29 9 -46 9h-122z" />
    <glyph glyph-name="Q" unicode="Q" horiz-adv-x="796" 
d="M398 730l-1 -3c48 0 94 -9 137 -28s81 -45 114 -78s59 -72 78 -117s29 -94 29 -147c0 -48 -8 -93 -24 -135s-38 -79 -65 -111s-59 -59 -96 -80s-76 -35 -117 -42c6 -43 34 -65 83 -65c19 0 36 4 51 12s28 18 39 30l7 -83c-11 -15 -26 -28 -45 -39s-43 -16 -71 -16
c-50 0 -88 14 -114 42s-40 67 -43 117c-44 5 -85 18 -124 39s-73 48 -102 81s-52 71 -69 113s-25 88 -25 137c0 53 10 102 29 148s45 85 78 118s71 59 114 78s89 29 137 29zM398 625l-1 -3c-37 0 -72 -7 -104 -20s-60 -32 -84 -56s-43 -52 -57 -85s-21 -69 -21 -108
s7 -75 21 -108s33 -61 57 -85s52 -42 84 -55s67 -19 104 -19s71 7 103 20s60 31 83 55s42 52 56 85s21 70 21 110c0 39 -7 75 -21 108s-32 61 -55 85s-51 43 -83 56s-66 20 -103 20z" />
    <glyph glyph-name="R" unicode="R" horiz-adv-x="562" 
d="M90 718l199 -1c27 0 53 -4 79 -12s49 -20 70 -37s38 -38 50 -63s18 -55 18 -90c0 -53 -14 -96 -42 -129s-65 -55 -111 -66l174 -320h-111l-167 308h-65v-308h-94v718zM184 616l-1 -208h124c29 0 54 9 74 28s30 44 30 75c0 30 -9 55 -28 75s-44 30 -75 30h-124z" />
    <glyph glyph-name="S" unicode="S" horiz-adv-x="489" 
d="M353 356h-7c15 -13 28 -26 40 -39s22 -27 30 -41s15 -29 20 -45s7 -33 7 -52c0 -28 -5 -54 -15 -77s-24 -43 -42 -60s-39 -30 -64 -39s-53 -14 -84 -14c-25 0 -49 4 -72 11s-44 17 -63 29s-35 25 -49 39s-23 28 -28 42l29 96c22 -35 50 -63 84 -84s70 -32 108 -32
c34 0 59 8 75 24s24 37 24 62c0 19 -6 37 -17 54s-25 32 -42 45c-42 35 -77 64 -104 87s-49 43 -65 60c-22 23 -39 46 -51 68s-18 47 -18 74c0 25 5 48 14 68s22 37 38 51s36 25 59 33s48 12 75 12c20 0 39 -3 58 -8s36 -12 52 -21s30 -19 42 -31s22 -25 29 -38l-21 -94
c-19 25 -43 46 -72 64s-59 27 -90 27c-23 0 -43 -5 -59 -15s-24 -27 -24 -50c0 -17 6 -33 19 -49s26 -29 39 -39c25 -20 46 -36 62 -49s29 -24 39 -33s19 -16 26 -21s13 -10 18 -15z" />
    <glyph glyph-name="T" unicode="T" horiz-adv-x="576" 
d="M15 718h546v-99h-226v-619h-94v619h-226v99z" />
    <glyph glyph-name="U" unicode="U" horiz-adv-x="735" 
d="M556 718l94 2v-431c0 -43 -7 -83 -20 -120s-32 -69 -56 -96s-54 -48 -89 -63s-74 -22 -117 -22c-42 0 -80 7 -115 21s-65 34 -90 60s-44 57 -58 94s-21 78 -21 123v432h94v-433c0 -30 5 -57 14 -81s22 -44 39 -61s37 -30 60 -39s49 -13 77 -13c29 0 55 5 78 14
s43 22 59 39s29 38 38 62s13 51 13 80v432z" />
    <glyph glyph-name="V" unicode="V" horiz-adv-x="642" 
d="M11 718h103l207 -579l205 579h105l-258 -718h-104z" />
    <glyph glyph-name="W" unicode="W" horiz-adv-x="1020" 
d="M716 177l178 541h106l-238 -718h-94l-160 566l-156 -566h-94l-238 718h100l181 -541l154 541h102z" />
    <glyph glyph-name="X" unicode="X" horiz-adv-x="635" 
d="M140 0h-120l239 372l-224 346h115l166 -258l166 258h119l-224 -346l238 -372h-114l-181 281z" />
    <glyph glyph-name="Y" unicode="Y" horiz-adv-x="558" 
d="M8 718h106l163 -307l164 307h109l-223 -419v-299h-94v299z" />
    <glyph glyph-name="Z" unicode="Z" horiz-adv-x="503" 
d="M50 718h396v-79l-281 -538h283v-101h-398v77l276 540h-276v101z" />
    <glyph glyph-name="bracketleft" unicode="[" horiz-adv-x="375" 
d="M108 -178v896h192v-97h-101v-702h101v-97h-192z" />
    <glyph glyph-name="backslash" unicode="\" horiz-adv-x="465" 
d="M465 -178h-99l-366 896h98z" />
    <glyph glyph-name="bracketright" unicode="]" horiz-adv-x="375" 
d="M267 718v-896h-192v97h101v702h-101v97h192z" />
    <glyph glyph-name="asciicircum" unicode="^" horiz-adv-x="541" 
d="M45 341l174 344h104l173 -344h-98l-126 255l-128 -255h-99z" />
    <glyph glyph-name="underscore" unicode="_" horiz-adv-x="499" 
d="M-2 -72h503v-89h-503v89z" />
    <glyph glyph-name="grave" unicode="`" horiz-adv-x="347" 
d="M205 728l65 -148h-83l-110 148h128z" />
    <glyph glyph-name="a" unicode="a" horiz-adv-x="551" 
d="M383 177l1 -4c-8 14 -24 25 -48 32s-50 11 -77 11c-38 0 -67 -6 -88 -18s-31 -28 -31 -49c0 -20 10 -36 30 -48s50 -18 89 -18c13 0 26 1 39 4s25 7 36 12s21 11 30 18s15 14 19 22v38zM75 420h-1c19 26 45 47 78 63s69 24 109 24c67 0 119 -17 157 -51s57 -82 57 -144
v-315h-88v44c-6 -9 -14 -17 -25 -24s-23 -13 -36 -18s-26 -9 -40 -12s-28 -4 -42 -4c-59 0 -106 14 -142 42s-54 68 -54 119c0 26 5 49 15 69s24 37 42 51s39 25 63 32s50 11 78 11c11 0 23 -1 36 -3s26 -4 38 -7s24 -7 35 -12s20 -11 28 -18v24c0 21 -4 39 -11 54
s-17 27 -29 37s-26 17 -42 22s-33 7 -51 7c-32 0 -61 -6 -87 -19s-47 -30 -62 -51z" />
    <glyph glyph-name="b" unicode="b" horiz-adv-x="628" 
d="M580 250l2 -1c0 -39 -7 -74 -21 -106s-33 -60 -57 -83s-51 -41 -82 -54s-64 -19 -99 -19c-38 0 -71 6 -99 18s-46 28 -54 47v-53h-88v728h91v-283c8 19 26 35 53 48s60 19 98 19c34 0 67 -6 98 -19s58 -31 81 -54s42 -50 56 -82s21 -67 21 -106zM491 247v2
c0 51 -15 91 -46 121s-72 45 -123 45c-35 0 -66 -8 -94 -24s-46 -36 -55 -60v-163c9 -24 27 -44 55 -60s59 -24 94 -24c51 0 92 15 123 44s46 69 46 119z" />
    <glyph glyph-name="c" unicode="c" horiz-adv-x="540" 
d="M492 75l-4 -6c-5 -11 -13 -22 -24 -32s-24 -19 -40 -27s-34 -14 -54 -19s-42 -7 -65 -7c-34 0 -67 6 -98 19s-58 31 -82 54s-43 51 -57 83s-21 68 -21 107s7 75 21 107s33 60 57 83s52 41 83 54s64 19 98 19c23 0 44 -2 64 -7s38 -11 54 -19s29 -17 40 -27s19 -20 24 -31
l-24 -72c-14 16 -34 30 -59 42s-52 18 -81 18c-56 0 -101 -15 -135 -45s-51 -70 -51 -120c0 -25 5 -47 14 -67s22 -37 38 -51s35 -25 58 -33s48 -12 76 -12c31 0 59 6 84 18s45 26 59 42z" />
    <glyph glyph-name="d" unicode="d" horiz-adv-x="628" 
d="M48 250l1 -2c0 39 7 74 21 106s33 60 56 83s50 41 81 54s64 19 98 19c38 0 71 -6 98 -19s45 -29 53 -48v283h91v-728h-87v53c-8 -19 -26 -34 -54 -46s-61 -18 -99 -18c-35 0 -68 6 -99 19s-58 31 -82 54s-43 51 -57 83s-21 68 -21 107zM140 246v-2c0 -50 15 -90 46 -119
s72 -44 123 -44c35 0 66 8 94 24s46 36 55 60v163c-9 24 -27 44 -55 60s-59 24 -94 24c-51 0 -92 -15 -123 -45s-46 -70 -46 -121z" />
    <glyph glyph-name="e" unicode="e" horiz-adv-x="574" 
d="M312 85l-3 5c16 0 32 2 47 6s30 9 44 15s26 13 37 21s20 16 27 24l24 -71c-5 -11 -13 -22 -24 -33s-24 -21 -40 -30s-34 -16 -54 -21s-42 -8 -65 -8c-37 0 -71 6 -103 18s-59 29 -82 51s-41 49 -54 81s-19 68 -19 108c0 35 6 68 17 100s27 60 48 84s47 43 77 57
s64 21 102 21c36 0 68 -7 97 -21s54 -33 74 -57s36 -52 47 -84s16 -65 16 -100c0 -11 -1 -22 -3 -34h-382c5 -44 23 -77 54 -99s70 -33 118 -33zM426 313l-2 -3c-1 15 -5 29 -12 42s-17 24 -29 34s-26 18 -42 23s-33 8 -51 8s-35 -3 -52 -8s-32 -12 -45 -21s-24 -20 -33 -33
s-14 -27 -16 -42h282z" />
    <glyph glyph-name="f" unicode="f" horiz-adv-x="429" 
d="M388 603v-3c-9 11 -21 21 -36 29s-32 12 -51 12c-23 0 -42 -7 -58 -21s-24 -35 -24 -64v-58h172v-97h-172v-402h-91v402h-92v97h92v70c0 25 3 48 9 69s16 39 29 54s29 27 49 36s43 13 69 13s50 -5 72 -16s38 -25 47 -42z" />
    <glyph glyph-name="g" unicode="g" horiz-adv-x="628" 
d="M546 499l-6 -508c0 -33 -6 -63 -17 -90s-27 -50 -47 -69s-45 -34 -74 -44s-61 -15 -96 -15c-46 0 -88 9 -126 27s-67 42 -87 73l26 82c19 -26 44 -46 75 -61s64 -22 98 -22c17 0 35 2 54 6s36 11 51 21s28 25 38 44s15 44 15 74v47c-9 -17 -26 -32 -52 -45
s-58 -19 -96 -19c-35 0 -68 6 -99 18s-58 30 -81 53s-42 50 -56 81s-21 66 -21 104s7 73 21 104s33 58 57 80s51 40 82 53s64 19 99 19c38 0 71 -6 99 -19s46 -28 55 -45v51h88zM449 332v3c-9 23 -27 42 -55 57s-59 23 -94 23c-25 0 -48 -4 -69 -12s-39 -19 -54 -33
s-26 -31 -34 -50s-12 -41 -12 -65s4 -46 12 -65s19 -35 34 -49s33 -25 54 -33s44 -12 69 -12c35 0 66 8 94 23s46 34 55 57v156z" />
    <glyph glyph-name="h" unicode="h" horiz-adv-x="598" 
d="M306 511l-3 -4c27 0 53 -4 79 -13s49 -23 70 -41s38 -42 51 -71s19 -63 19 -103v-282h-91v280c0 21 -3 40 -10 57s-16 31 -27 42s-24 20 -39 26s-32 9 -50 9c-16 0 -31 -2 -46 -7s-28 -11 -40 -19s-22 -18 -30 -29s-13 -23 -16 -36v-321h-91v728h91v-284
c7 19 22 35 45 48s52 20 88 20z" />
    <glyph glyph-name="i" unicode="i" horiz-adv-x="253" 
d="M81 499h91v-499h-91v499zM60 661l-3 -3c0 19 7 35 20 48s29 20 47 20c19 0 35 -6 48 -19s20 -29 20 -48c0 -18 -6 -33 -19 -46s-29 -19 -48 -19c-18 0 -33 7 -46 20s-19 29 -19 47z" />
    <glyph glyph-name="j" unicode="j" horiz-adv-x="260" 
d="M88 499h93v-565c0 -106 -40 -159 -120 -159c-14 0 -29 3 -46 9s-31 15 -43 28l7 81c7 -6 15 -11 24 -15s18 -6 26 -6c23 0 39 7 47 21s12 35 12 62v544zM69 661l-3 -3c0 19 7 35 20 48s29 20 47 20c19 0 35 -6 48 -19s20 -29 20 -48c0 -18 -6 -33 -19 -46
s-29 -19 -48 -19c-18 0 -33 7 -46 20s-19 29 -19 47z" />
    <glyph glyph-name="k" unicode="k" horiz-adv-x="542" 
d="M82 728h91v-432l218 203h125l-252 -234l275 -265h-131l-235 226v-226h-91v728z" />
    <glyph glyph-name="l" unicode="l" horiz-adv-x="255" 
d="M82 728h91v-728h-91v728z" />
    <glyph glyph-name="m" unicode="m" horiz-adv-x="925" 
d="M307 511l5 -5c32 0 62 -6 90 -19s52 -34 73 -63c18 25 41 45 69 60s63 22 104 22c25 0 50 -4 75 -13s48 -22 68 -40s36 -41 48 -69s18 -61 18 -100v-290h-91v286c0 21 -3 39 -9 55s-15 29 -26 40s-24 19 -39 25s-31 9 -48 9c-15 0 -30 -2 -44 -7s-27 -11 -39 -19
s-22 -18 -30 -29s-13 -23 -16 -36v-322h-91v286c0 21 -3 39 -9 55s-15 29 -26 40s-24 19 -39 25s-31 9 -48 9c-15 0 -30 -2 -44 -7s-27 -11 -39 -19s-22 -18 -30 -29s-13 -23 -16 -36v-321h-91v499h88v-55c7 19 23 35 47 48s54 20 90 20z" />
    <glyph glyph-name="n" unicode="n" horiz-adv-x="598" 
d="M306 511l-2 -3c27 0 53 -4 79 -13s49 -23 70 -41s38 -42 51 -71s19 -63 19 -103v-282h-91v280c0 21 -3 40 -10 57s-16 31 -27 42s-24 20 -39 26s-32 9 -50 9c-16 0 -31 -2 -46 -7s-28 -11 -40 -19s-22 -18 -30 -29s-13 -23 -16 -36v-321h-91v499h88v-55c7 19 22 35 45 48
s53 19 90 19z" />
    <glyph glyph-name="o" unicode="o" 
d="M552 249v-1c0 -37 -7 -72 -21 -104s-32 -60 -55 -83s-50 -41 -80 -54s-62 -19 -96 -19s-66 7 -97 20s-58 31 -81 54s-41 51 -54 83s-20 67 -20 104s7 72 20 104s31 60 54 83s50 41 81 54s63 20 97 20s66 -7 96 -20s57 -31 80 -54s41 -51 55 -83s21 -67 21 -104zM139 248
v-3c0 -25 4 -47 12 -67s19 -37 34 -51s32 -25 51 -33s40 -12 63 -12s44 4 64 12s37 19 52 33s26 31 34 51s12 42 12 67s-4 48 -12 68s-19 38 -34 53s-32 26 -52 34s-41 12 -64 12s-44 -4 -63 -12s-36 -19 -51 -34s-26 -32 -34 -52s-12 -42 -12 -66z" />
    <glyph glyph-name="p" unicode="p" horiz-adv-x="628" 
d="M580 249l-1 -1c0 -39 -7 -74 -21 -106s-33 -59 -56 -82s-50 -41 -81 -54s-63 -19 -97 -19c-38 0 -71 6 -98 19s-45 29 -53 48v-267h-91v712h88v-53c8 19 26 35 54 47s61 18 99 18c35 0 68 -6 99 -19s58 -31 81 -54s42 -51 56 -83s21 -67 21 -106zM488 250v2
c0 50 -15 90 -46 119s-72 44 -123 44c-35 0 -66 -8 -94 -24s-46 -36 -55 -60v-163c9 -24 27 -44 55 -60s59 -24 94 -24c51 0 92 15 123 45s46 70 46 121z" />
    <glyph glyph-name="q" unicode="q" horiz-adv-x="628" 
d="M48 249v-2c0 39 7 75 21 107s33 60 56 83s50 41 81 54s64 19 99 19c38 0 71 -6 99 -18s46 -27 54 -46v53h87v-712h-91v267c-8 -19 -26 -35 -53 -48s-60 -19 -98 -19c-34 0 -66 6 -97 19s-58 31 -81 54s-42 51 -56 83s-21 67 -21 106zM139 249v-2c0 -51 15 -91 46 -121
s72 -45 123 -45c35 0 66 8 94 24s46 36 55 60v163c-9 24 -27 44 -55 60s-59 24 -94 24c-51 0 -92 -15 -123 -44s-46 -69 -46 -119z" />
    <glyph glyph-name="r" unicode="r" horiz-adv-x="394" 
d="M353 390h1c-8 7 -18 13 -29 17s-24 6 -39 6c-17 0 -32 -3 -45 -9s-24 -13 -33 -22s-16 -19 -22 -30s-10 -23 -13 -35v-317h-91v499h88v-65c8 21 21 39 39 54s43 23 74 23c19 0 36 -4 51 -11s26 -17 33 -29z" />
    <glyph glyph-name="s" unicode="s" horiz-adv-x="424" 
d="M161 236l-2 -3c-34 18 -60 38 -78 61s-27 49 -27 78c0 40 13 73 39 98s64 38 113 38c17 0 33 -2 48 -6s29 -10 41 -17s23 -15 32 -24s16 -17 21 -25l-15 -81c-18 17 -38 31 -60 41s-45 15 -68 15c-17 0 -31 -3 -43 -9s-18 -16 -18 -31c0 -14 5 -25 15 -33s24 -16 41 -25
l56 -30c39 -21 68 -42 88 -64s30 -50 30 -85c0 -21 -4 -41 -12 -59s-20 -34 -35 -47s-33 -23 -54 -30s-45 -11 -72 -11c-19 0 -37 2 -54 7s-32 11 -46 19s-26 18 -36 29s-18 23 -24 36l22 75c19 -21 40 -38 63 -50s51 -18 84 -18c9 0 18 1 27 3s17 5 24 9s13 9 17 16
s6 15 6 24c0 14 -6 27 -19 38s-30 22 -51 33z" />
    <glyph glyph-name="t" unicode="t" horiz-adv-x="440" 
d="M392 51v-1c-9 -17 -24 -32 -45 -44s-46 -18 -76 -18c-100 0 -150 56 -150 169v245h-90v28l153 195h28v-126h175v-97h-175v-229c0 -32 7 -55 20 -68s33 -20 60 -20c19 0 35 4 48 11s24 16 33 27z" />
    <glyph glyph-name="u" unicode="u" horiz-adv-x="594" 
d="M289 -12l-2 -1c-27 0 -53 5 -79 14s-49 23 -69 41s-36 42 -49 71s-19 64 -19 104v282h91v-280c0 -43 12 -76 36 -99s54 -34 90 -34c16 0 31 2 46 7s28 12 40 20s22 18 30 29s14 23 17 36v321h91v-499h-88v55c-7 -19 -22 -35 -45 -48s-53 -19 -90 -19z" />
    <glyph glyph-name="v" unicode="v" horiz-adv-x="536" 
d="M220 0l-202 499h98l151 -381l151 381h99l-202 -499h-95z" />
    <glyph glyph-name="w" unicode="w" horiz-adv-x="858" 
d="M593 126l143 373h103l-197 -499h-93l-120 377l-120 -377h-93l-197 499h97l143 -373l119 373h96z" />
    <glyph glyph-name="x" unicode="x" horiz-adv-x="519" 
d="M126 0h-112l188 265l-169 234h111l113 -158l114 158h113l-169 -235l190 -264h-110l-136 187z" />
    <glyph glyph-name="y" unicode="y" horiz-adv-x="547" 
d="M18 499h102l153 -367l152 367h101l-297 -712h-101l96 232z" />
    <glyph glyph-name="z" unicode="z" horiz-adv-x="459" 
d="M61 499h332v-79l-222 -323h234v-97h-351v79l219 323h-212v97z" />
    <glyph glyph-name="braceleft" unicode="{" horiz-adv-x="395" 
d="M319 619l-4 3c-15 0 -28 -1 -40 -4s-21 -8 -28 -15s-12 -16 -15 -27s-3 -25 0 -41l22 -142c3 -15 3 -29 0 -42s-7 -24 -13 -34s-13 -19 -22 -27s-18 -14 -27 -19c9 -5 18 -11 27 -19s16 -17 22 -27s10 -21 13 -34s3 -27 0 -42l-22 -141c-3 -16 -3 -30 0 -42s8 -21 15 -28
s17 -12 29 -15s25 -4 40 -3v-98c-29 -3 -55 -1 -79 6s-43 18 -58 33s-26 33 -33 55s-8 47 -4 74l20 142c2 15 1 28 -3 39s-10 20 -18 27s-17 13 -28 17s-22 7 -34 9v92c12 2 23 5 34 9s20 10 28 17s14 16 18 27s5 24 3 39l-20 141c-4 27 -2 52 5 74s18 40 33 55s35 26 59 33
s51 9 80 6v-98v0z" />
    <glyph glyph-name="bar" unicode="|" horiz-adv-x="291" 
d="M191 -178h-91v896h91v-896z" />
    <glyph glyph-name="braceright" unicode="}" horiz-adv-x="395" 
d="M76 622v-3v0v98c29 3 55 1 79 -6s43 -18 58 -33s26 -33 33 -55s8 -47 4 -74l-20 -141c-2 -15 -1 -28 3 -39s10 -20 18 -27s17 -13 28 -17s22 -7 34 -9v-92c-12 -2 -23 -5 -34 -9s-20 -10 -28 -17s-14 -16 -18 -27s-5 -24 -3 -39l20 -142c4 -27 3 -52 -4 -74
s-18 -40 -33 -55s-34 -26 -58 -33s-50 -9 -79 -6v98c15 -1 28 0 40 3s21 8 28 15s12 16 15 28s3 26 0 42l-22 141c-3 15 -3 29 0 42s7 24 13 34s13 19 22 27s18 14 27 19c-9 5 -18 11 -27 19s-16 17 -22 27s-10 21 -13 34s-3 27 0 42l22 142c3 16 3 30 0 41s-8 20 -15 27
s-16 12 -28 15s-25 4 -40 4z" />
    <glyph glyph-name="asciitilde" unicode="~" horiz-adv-x="552" 
d="M73 213h-3c-4 11 -7 21 -9 30s-3 18 -3 28c0 33 11 59 33 77s50 27 83 27c21 0 41 -4 60 -13s36 -18 51 -27c14 -8 27 -15 39 -20s24 -8 35 -8c14 0 26 4 35 12s14 19 14 34c0 7 -1 15 -3 23h74c4 -11 7 -21 9 -30s3 -18 3 -28c0 -33 -11 -59 -33 -77s-50 -27 -83 -27
c-21 0 -41 4 -60 13s-36 18 -51 27c-14 8 -27 15 -39 20s-23 8 -34 8c-14 0 -25 -4 -34 -12s-13 -19 -13 -34c0 -7 1 -15 3 -23h-74z" />
    <glyph glyph-name="uni00A0" unicode="&#xa0;" horiz-adv-x="270" 
 />
    <glyph glyph-name="exclamdown" unicode="&#xa1;" horiz-adv-x="362" 
d="M218 272l26 -485h-126l26 485h74zM115 441c0 19 6 35 19 48s29 19 48 19s35 -6 48 -19s19 -29 19 -48s-6 -35 -19 -48s-29 -19 -48 -19s-35 6 -48 19s-19 29 -19 48z" />
    <glyph glyph-name="cent" unicode="&#xa2;" horiz-adv-x="540" 
d="M267 -117v104c-30 5 -58 14 -85 28s-50 32 -70 54s-36 48 -48 78s-18 63 -18 98s6 67 18 97s28 56 48 79s43 42 70 56s55 24 85 29v119h80v-119c35 -5 65 -15 90 -31s42 -33 51 -51l-24 -72c-12 13 -28 26 -49 38s-43 19 -67 21v-326c28 1 52 8 72 20s36 26 48 41l24 -74
c-10 -19 -28 -36 -54 -51s-56 -25 -91 -30v-108h-80zM139 245v1c0 -41 12 -76 35 -105s54 -47 93 -54v317c-40 -7 -71 -25 -94 -54s-34 -64 -34 -105z" />
    <glyph glyph-name="sterling" unicode="&#xa3;" horiz-adv-x="543" 
d="M493 101l-2 -103h-433v80c34 17 62 41 84 73s33 66 33 103c0 15 -1 28 -4 39h-113v97h81c-9 22 -17 44 -24 66s-11 45 -11 70c0 63 18 112 54 148s85 54 147 54c21 0 41 -3 59 -9s35 -14 50 -24s28 -22 38 -35s18 -27 23 -42l-41 -70c-13 20 -29 38 -49 54s-46 24 -79 24
c-35 0 -61 -9 -79 -27s-27 -42 -27 -71c0 -22 4 -44 12 -67s17 -46 26 -69h145v-97h-115c3 -11 4 -24 4 -38c0 -33 -6 -63 -17 -89s-27 -48 -48 -67h286z" />
    <glyph glyph-name="currency" unicode="&#xa4;" horiz-adv-x="632" 
d="M510 626l63 -63l-78 -78c11 -17 20 -35 26 -54s9 -39 9 -60s-3 -41 -9 -61s-15 -38 -26 -55l78 -77l-62 -62l-79 78c-34 -23 -72 -34 -115 -34c-42 0 -81 11 -116 34l-78 -78l-62 62l78 77c-11 17 -20 36 -26 56s-9 41 -9 62s3 41 9 60s15 37 26 54l-78 78l62 61l78 -78
c17 11 35 20 55 26s41 9 62 9s41 -3 60 -9s37 -15 54 -26zM317 479v-1c-16 0 -31 -3 -45 -9s-26 -14 -37 -24s-19 -21 -25 -34s-9 -28 -9 -44s3 -31 9 -45s14 -26 25 -36s23 -18 37 -24s29 -9 45 -9s31 3 45 9s26 14 37 24s19 22 25 36s9 29 9 45s-3 31 -9 44s-14 25 -25 35
s-23 18 -37 24s-29 9 -45 9z" />
    <glyph glyph-name="yen" unicode="&#xa5;" horiz-adv-x="520" 
d="M181 376h-116v75h83l-118 267h103l125 -298l126 298h106l-117 -267h86v-75h-119l-32 -76h151v-76h-151v-224h-94v224h-149v76h150z" />
    <glyph glyph-name="brokenbar" unicode="&#xa6;" horiz-adv-x="291" 
d="M191 -178h-91v334h91v-334zM191 384h-91v334h91v-334z" />
    <glyph glyph-name="section" unicode="&#xa7;" horiz-adv-x="575" 
d="M416 98l-8 4c15 -11 29 -26 42 -46s20 -45 20 -75c0 -25 -5 -48 -15 -68s-23 -37 -40 -51s-37 -25 -61 -33s-50 -12 -78 -12c-21 0 -41 3 -60 8s-36 12 -52 21s-30 19 -42 31s-22 25 -30 38l23 93c17 -25 42 -46 74 -63s65 -25 99 -25c11 0 22 1 33 3s21 5 29 9
s15 10 20 17s8 16 8 27c0 9 -3 18 -9 27s-14 18 -25 27s-23 18 -36 27s-27 18 -41 27l-61 38c-17 11 -34 23 -51 36s-32 27 -46 42s-25 32 -34 50s-13 38 -13 59c0 33 9 62 28 87s41 44 67 57c-15 11 -29 26 -42 45s-19 43 -19 72c0 25 5 47 14 67s22 37 38 51s36 25 59 32
s49 11 77 11c21 0 41 -2 60 -7s36 -12 52 -21s30 -19 42 -31s22 -24 30 -37l-24 -89c-19 23 -43 42 -73 58s-61 24 -93 24c-24 0 -44 -4 -61 -13s-25 -23 -25 -43c0 -9 3 -18 9 -27s14 -17 24 -25s21 -16 34 -25s26 -17 39 -25l62 -38c17 -11 35 -23 53 -36s34 -27 48 -42
s26 -31 35 -48s14 -35 14 -55c0 -35 -9 -65 -27 -90s-40 -46 -67 -63zM335 152h1c45 19 68 49 68 90c0 21 -8 40 -25 56s-39 33 -66 50l-90 58c-21 -9 -37 -21 -49 -37s-18 -34 -18 -55s8 -39 24 -54s38 -32 65 -50z" />
    <glyph glyph-name="dieresis" unicode="&#xa8;" horiz-adv-x="512" 
d="M91 655l-3 -3c0 19 7 35 20 48s29 20 47 20c19 0 35 -6 48 -19s20 -29 20 -48c0 -18 -6 -33 -19 -46s-29 -19 -48 -19c-18 0 -33 7 -46 20s-19 29 -19 47zM285 652l-3 -3c0 19 7 35 20 48s29 20 47 20c19 0 35 -6 48 -19s20 -29 20 -48c0 -18 -6 -33 -19 -46
s-29 -19 -48 -19c-18 0 -33 7 -46 20s-19 29 -19 47z" />
    <glyph glyph-name="copyright" unicode="&#xa9;" horiz-adv-x="822" 
d="M411 730l-1 -2c51 0 99 -10 144 -29s84 -45 118 -79s61 -73 80 -118s29 -93 29 -144s-10 -99 -29 -144s-45 -84 -79 -118s-73 -60 -118 -79s-93 -29 -144 -29s-99 10 -144 29s-84 46 -117 80s-59 73 -78 118s-29 93 -29 144s10 99 29 144s45 84 78 118s72 61 117 80
s93 29 144 29zM410 44l-1 -2c44 0 85 8 124 25s73 40 102 68s52 61 69 99s25 78 25 121s-8 83 -25 121s-40 71 -69 100s-63 52 -102 68s-80 24 -124 24c-43 0 -84 -8 -123 -24s-73 -38 -102 -67s-52 -62 -69 -100s-25 -78 -25 -121s9 -83 26 -121s40 -71 69 -99
s63 -50 102 -67s80 -25 123 -25zM566 230l2 -1c-14 -23 -36 -41 -65 -54s-62 -20 -99 -20c-29 0 -56 5 -82 15s-49 24 -69 43s-36 41 -48 67s-18 55 -18 87s6 61 18 87s28 49 48 68s43 33 69 43s53 15 82 15c18 0 36 -2 53 -6s32 -9 46 -16s26 -15 36 -24s18 -18 24 -28
l-22 -65c-12 16 -30 30 -54 43s-50 19 -79 19c-45 0 -81 -12 -108 -36s-41 -57 -41 -98c0 -43 14 -76 42 -100s64 -36 109 -36c30 0 57 6 81 19s42 28 53 45z" />
    <glyph glyph-name="ordfeminine" unicode="&#xaa;" horiz-adv-x="396" 
d="M259 418l-3 -1c-4 7 -12 12 -25 16s-28 6 -45 6c-23 0 -40 -3 -52 -10s-18 -16 -18 -27c0 -25 24 -38 71 -38c17 0 32 3 45 9s22 13 27 21v24zM53 576v-2c12 19 31 34 56 44s50 15 75 15c44 0 80 -11 108 -33s42 -54 42 -96v-208h-75v29c-8 -12 -21 -21 -39 -27
s-36 -9 -55 -9c-37 0 -68 9 -92 28s-36 45 -36 79c0 17 4 32 11 45s17 24 29 33s26 16 42 21s33 7 51 7c21 0 39 -2 54 -7s25 -10 30 -16v8c0 13 -2 24 -7 32s-11 15 -19 20s-17 9 -26 11s-18 3 -27 3c-21 0 -41 -4 -60 -12s-33 -19 -42 -33z" />
    <glyph glyph-name="guillemotleft" unicode="&#xab;" horiz-adv-x="527" 
d="M472 88h-92l-133 178l133 178h92l-109 -178zM260 88h-92l-133 178l133 178h92l-109 -178z" />
    <glyph glyph-name="logicalnot" unicode="&#xac;" horiz-adv-x="559" 
d="M414 357h-354v93h439v-290h-85v197z" />
    <glyph glyph-name="uni00AD" unicode="&#xad;" horiz-adv-x="466" 
d="M391 318v-87h-316v87h316z" />
    <glyph glyph-name="registered" unicode="&#xae;" horiz-adv-x="822" 
d="M411 730l-1 -2c51 0 99 -10 144 -29s84 -45 118 -79s61 -73 80 -118s29 -93 29 -144s-10 -99 -29 -144s-45 -84 -79 -118s-73 -60 -118 -79s-93 -29 -144 -29s-99 10 -144 29s-84 46 -117 80s-59 73 -78 118s-29 93 -29 144s10 99 29 144s45 84 78 118s72 61 117 80
s93 29 144 29zM410 44l-1 -2c44 0 85 8 124 25s73 40 102 68s52 61 69 99s25 78 25 121s-8 83 -25 121s-40 71 -69 100s-63 52 -102 68s-80 24 -124 24c-43 0 -84 -8 -123 -24s-73 -38 -102 -67s-52 -62 -69 -100s-25 -78 -25 -121s9 -83 26 -121s40 -71 69 -99
s63 -50 102 -67s80 -25 123 -25zM267 575l126 1c16 0 32 -2 47 -7s29 -12 41 -22s22 -23 29 -38s11 -33 11 -53c0 -27 -7 -51 -22 -71s-35 -34 -61 -42l101 -180h-81l-97 172h-22v-172h-72v412zM339 498l-1 -91h62c14 0 26 4 36 12s15 19 15 33c0 13 -5 24 -14 33
s-21 13 -36 13h-62z" />
    <glyph glyph-name="macron" unicode="&#xaf;" horiz-adv-x="451" 
d="M371 701v-86h-291v86h291z" />
    <glyph glyph-name="degree" unicode="&#xb0;" horiz-adv-x="418" 
d="M209 728c22 0 43 -4 62 -12s36 -19 50 -33s25 -31 33 -50s12 -40 12 -62s-4 -43 -12 -62s-19 -36 -33 -50s-31 -25 -50 -33s-40 -12 -62 -12s-43 4 -62 12s-36 19 -50 33s-25 31 -33 50s-12 40 -12 62s4 43 12 62s19 36 33 50s31 25 50 33s40 12 62 12zM209 494h-1
c24 0 44 7 59 22s23 33 23 54s-8 39 -23 53s-35 21 -59 21c-23 0 -42 -7 -58 -21s-24 -32 -24 -53s8 -39 24 -54s36 -22 59 -22z" />
    <glyph glyph-name="plusminus" unicode="&#xb1;" horiz-adv-x="539" 
d="M60 0v93h419v-93h-419zM227 414v163h85v-163h167v-93h-167v-162h-85v162h-167v93h167z" />
    <glyph glyph-name="twosuperior" unicode="&#xb2;" horiz-adv-x="332" 
d="M152 620h-4c-19 0 -35 -5 -48 -16s-24 -23 -33 -36l-33 53c3 9 8 18 15 28s16 19 26 27s22 15 35 20s28 8 45 8c21 0 39 -3 55 -10s29 -16 39 -27s18 -23 23 -37s8 -29 8 -44c0 -29 -7 -54 -21 -76s-33 -46 -58 -73l-50 -55h140v-82h-257v65l116 122c19 19 32 35 40 48
s12 26 12 39s-5 24 -14 33s-21 13 -36 13z" />
    <glyph glyph-name="threesuperior" unicode="&#xb3;" horiz-adv-x="331" 
d="M151 374l-2 -5c21 0 37 5 49 15s18 23 18 39c0 14 -6 26 -18 35s-27 14 -46 14c-11 0 -20 -1 -28 -3s-14 -5 -19 -8l-13 58l73 90h-116v83h222v-59l-77 -89c11 -2 23 -6 35 -11s23 -12 33 -22s18 -22 24 -36s9 -31 9 -51c0 -19 -3 -36 -10 -52s-17 -30 -30 -42
s-28 -22 -46 -29s-38 -10 -60 -10c-16 0 -31 2 -44 6s-25 9 -35 15s-19 13 -26 21s-12 16 -15 23l17 72c23 -36 58 -54 105 -54z" />
    <glyph glyph-name="acute" unicode="&#xb4;" horiz-adv-x="347" 
d="M270 728l-110 -148h-83l65 148h128z" />
    <glyph glyph-name="mu" unicode="&#xb5;" horiz-adv-x="603" 
d="M298 -12h-2c-22 0 -44 3 -65 9s-41 15 -60 27v-237h-91v712h91v-280c0 -43 12 -76 36 -99s54 -34 90 -34c16 0 31 2 46 7s28 12 40 20s22 18 30 29s14 23 17 36v321h91v-499h-88v55c-7 -19 -22 -35 -45 -48s-53 -19 -90 -19z" />
    <glyph glyph-name="paragraph" unicode="&#xb6;" horiz-adv-x="684" 
d="M619 718l-1 -96h-83v-788h-90v788h-84v-788h-91v498c-31 0 -59 5 -85 15s-48 23 -67 40s-33 37 -43 60s-15 49 -15 77s5 54 14 78s22 44 39 61s37 30 61 40s50 15 78 15h367z" />
    <glyph glyph-name="periodcentered" unicode="&#xb7;" horiz-adv-x="299" 
d="M78 261c0 21 7 38 21 52s31 21 52 21c20 0 37 -7 51 -21s21 -31 21 -52s-7 -38 -21 -52s-31 -21 -51 -21c-21 0 -38 7 -52 21s-21 31 -21 52z" />
    <glyph glyph-name="cedilla" unicode="&#xb8;" horiz-adv-x="384" 
d="M219 -124l-6 -2c0 9 -4 16 -11 21s-16 8 -27 8c-6 0 -11 0 -16 -1s-10 -2 -16 -4l-19 33l25 84h64l-20 -61c14 -1 28 -3 41 -7s25 -9 35 -16s18 -16 24 -26s9 -21 9 -34c0 -29 -11 -51 -32 -67s-48 -24 -81 -24c-23 0 -45 5 -65 14s-35 20 -46 33l12 55
c15 -13 30 -22 44 -27s29 -7 44 -7c13 0 23 3 30 8s11 12 11 20z" />
    <glyph glyph-name="onesuperior" unicode="&#xb9;" horiz-adv-x="265" 
d="M41 619l98 76h59v-395h-76v290l-81 -52v81z" />
    <glyph glyph-name="ordmasculine" unicode="&#xba;" horiz-adv-x="435" 
d="M217 636c24 0 47 -4 68 -13s40 -21 56 -36s29 -33 38 -54s14 -44 14 -69s-5 -48 -14 -69s-22 -39 -38 -54s-35 -27 -56 -36s-44 -13 -68 -13s-47 4 -68 13s-40 21 -56 36s-29 33 -38 54s-14 44 -14 69s5 48 14 69s22 39 38 54s35 27 56 36s44 13 68 13zM316 464h-4
c0 27 -9 49 -28 65s-42 24 -70 24s-51 -8 -70 -24s-28 -38 -28 -65s10 -49 29 -65s43 -24 71 -24s52 8 71 24s29 38 29 65z" />
    <glyph glyph-name="guillemotright" unicode="&#xbb;" horiz-adv-x="527" 
d="M359 88h-92l109 178l-109 178h92l133 -178zM147 88h-92l109 178l-109 178h92l133 -178z" />
    <glyph glyph-name="onequarter" unicode="&#xbc;" horiz-adv-x="712" 
d="M190 0h-85l428 718h85zM41 619l98 76h59v-395h-76v290l-81 -52v81zM573 395h69v-206h46v-80h-46v-109h-76v109h-157v65zM566 189v95l-70 -95h70z" />
    <glyph glyph-name="onehalf" unicode="&#xbd;" horiz-adv-x="767" 
d="M190 0h-85l428 718h85zM41 619l98 76h59v-395h-76v290l-81 -52v81zM587 320h-4c-19 0 -35 -5 -48 -16s-24 -23 -33 -36l-33 53c3 9 8 18 15 28s16 19 26 27s22 15 35 20s28 8 45 8c21 0 39 -3 55 -10s29 -16 39 -27s18 -23 23 -37s8 -29 8 -44c0 -29 -7 -54 -21 -76
s-33 -46 -58 -73l-50 -55h140v-82h-257v65l116 122c19 19 32 35 40 48s12 26 12 39s-5 24 -14 33s-21 13 -36 13z" />
    <glyph glyph-name="threequarters" unicode="&#xbe;" horiz-adv-x="763" 
d="M241 0h-85l428 718h85zM624 395h69v-206h46v-80h-46v-109h-76v109h-157v65zM617 189v95l-70 -95h70zM151 374l-2 -5c21 0 37 5 49 15s18 23 18 39c0 14 -6 26 -18 35s-27 14 -46 14c-11 0 -20 -1 -28 -3s-14 -5 -19 -8l-13 58l73 90h-116v83h222v-59l-77 -89
c11 -2 23 -6 35 -11s23 -12 33 -22s18 -22 24 -36s9 -31 9 -51c0 -19 -3 -36 -10 -52s-17 -30 -30 -42s-28 -22 -46 -29s-38 -10 -60 -10c-16 0 -31 2 -44 6s-25 9 -35 15s-19 13 -26 21s-12 16 -15 23l17 72c23 -36 58 -54 105 -54z" />
    <glyph glyph-name="questiondown" unicode="&#xbf;" horiz-adv-x="469" 
d="M308 441c0 -19 -6 -35 -19 -48s-29 -19 -48 -19s-35 6 -48 19s-19 29 -19 48s6 35 19 48s29 19 48 19s35 -6 48 -19s19 -29 19 -48zM404 -130l-1 2c-6 -13 -14 -25 -25 -37s-24 -22 -39 -31s-31 -16 -48 -21s-34 -7 -52 -7c-27 0 -51 4 -72 11s-38 17 -52 30
s-25 28 -32 45s-11 36 -11 56c0 19 3 36 10 52s16 30 27 43s24 25 39 36s31 21 47 31c17 11 31 20 42 28s19 15 25 21s10 12 12 17s3 10 3 15c0 13 -5 23 -15 31s-24 12 -42 12c-36 0 -71 -18 -105 -54l-15 77c9 16 24 32 46 47s50 23 85 23c21 0 40 -3 57 -10
s32 -16 44 -28s21 -26 27 -42s9 -33 9 -51c0 -13 -2 -26 -6 -39s-10 -26 -19 -39s-21 -26 -36 -40s-34 -28 -57 -42c-29 -18 -50 -33 -63 -45s-20 -25 -20 -40s7 -27 20 -36s31 -13 54 -13c28 0 54 6 78 19s45 31 63 54z" />
    <glyph glyph-name="Agrave" unicode="&#xc0;" horiz-adv-x="678" 
d="M667 0h-100l-65 165h-324l-64 -165h-103l278 718h101zM217 266h246l-124 316zM318 910l65 -138h-87l-110 138h132z" />
    <glyph glyph-name="Aacute" unicode="&#xc1;" horiz-adv-x="678" 
d="M667 0h-100l-65 165h-324l-64 -165h-103l278 718h101zM217 266h246l-124 316zM498 910l-110 -138h-87l65 138h132z" />
    <glyph glyph-name="Acircumflex" unicode="&#xc2;" horiz-adv-x="678" 
d="M667 0h-100l-65 165h-324l-64 -165h-103l278 718h101zM217 266h246l-124 316zM400 910l75 -138h-77l-59 63l-59 -63h-77l75 138h122z" />
    <glyph glyph-name="Atilde" unicode="&#xc3;" horiz-adv-x="678" 
d="M667 0h-100l-65 165h-324l-64 -165h-103l278 718h101zM217 266h246l-124 316zM186 778l-3 -6c-7 19 -10 35 -10 48c0 27 9 48 26 64s38 24 63 24c17 0 33 -3 48 -10s29 -14 43 -22c9 -5 18 -10 26 -14s16 -6 23 -6c9 0 17 3 23 9s9 14 9 25v10c0 3 -1 7 -2 11h59
c7 -16 10 -32 10 -49c0 -27 -8 -48 -24 -63s-37 -23 -62 -23c-15 0 -30 3 -45 10s-28 14 -39 21c-13 7 -24 13 -32 17s-16 6 -23 6c-10 0 -18 -3 -24 -9s-9 -14 -9 -25v-9s1 -6 2 -9h-59z" />
    <glyph glyph-name="Adieresis" unicode="&#xc4;" horiz-adv-x="678" 
d="M667 0h-100l-65 165h-324l-64 -165h-103l278 718h101zM217 266h246l-124 316zM170 846h-1c0 19 7 35 20 48s29 20 48 20s35 -7 48 -20s20 -29 20 -48s-7 -35 -20 -48s-29 -20 -48 -20s-35 7 -48 20s-19 29 -19 48zM370 846h-1c0 19 7 35 20 48s29 20 48 20s35 -7 48 -20
s20 -29 20 -48s-7 -35 -20 -48s-29 -20 -48 -20s-35 7 -48 20s-19 29 -19 48z" />
    <glyph glyph-name="Aring" unicode="&#xc5;" horiz-adv-x="678" 
d="M667 0h-100l-65 165h-324l-64 -165h-103l278 718h101zM217 266h246l-124 316zM235 858c0 30 10 55 30 75s45 30 74 30s54 -10 74 -30s30 -45 30 -75c0 -29 -10 -54 -30 -74s-45 -30 -74 -30s-54 10 -74 30s-30 45 -30 74zM295 858h-2c0 -12 4 -22 12 -30s19 -12 32 -12
s24 4 32 12s12 18 12 30c0 13 -4 23 -12 31s-18 12 -31 12s-23 -4 -31 -12s-12 -18 -12 -31z" />
    <glyph glyph-name="AE" unicode="&#xc6;" horiz-adv-x="914" 
d="M471 165h-272l-99 -165h-110l433 718h431v-101h-289v-197h259v-101h-259v-218h289v-101h-383v165zM471 266v350l-211 -350h211z" />
    <glyph glyph-name="Ccedilla" unicode="&#xc7;" horiz-adv-x="700" 
d="M411 -124l-7 -11c0 9 -4 16 -11 21s-16 8 -27 8c-6 0 -11 0 -16 -1s-10 -2 -16 -4l-19 33l18 60c-42 6 -81 19 -117 39s-67 46 -94 78s-48 69 -63 111s-23 89 -23 140c0 56 9 107 28 153s44 85 76 117s69 57 111 75s87 27 135 27c33 0 64 -4 92 -11s54 -17 77 -29
s43 -26 60 -42s30 -33 39 -50l-29 -84c-22 33 -53 61 -94 83s-87 33 -139 33c-39 0 -74 -6 -106 -18s-59 -30 -82 -53s-41 -51 -54 -84s-19 -71 -19 -113s6 -79 19 -112s31 -61 54 -84s51 -41 83 -53s67 -18 106 -18c57 0 106 12 146 35s72 51 95 84l28 -84
c-11 -19 -25 -36 -42 -52s-37 -30 -60 -42s-48 -22 -75 -29s-57 -11 -89 -12l-11 -33c14 -1 28 -3 41 -7s25 -9 35 -16s18 -16 24 -26s9 -21 9 -34c0 -29 -11 -51 -32 -67s-48 -24 -81 -24c-23 0 -45 5 -65 14s-35 20 -46 33l12 55c15 -13 30 -22 44 -27s29 -7 44 -7
c13 0 23 3 30 8s11 12 11 20z" />
    <glyph glyph-name="Egrave" unicode="&#xc8;" horiz-adv-x="533" 
d="M90 718h383v-101h-289v-197h259v-101h-259v-218h289v-101h-383v718zM287 910l65 -138h-87l-110 138h132z" />
    <glyph glyph-name="Eacute" unicode="&#xc9;" horiz-adv-x="533" 
d="M90 718h383v-101h-289v-197h259v-101h-259v-218h289v-101h-383v718zM416 910l-110 -138h-87l65 138h132z" />
    <glyph glyph-name="Ecircumflex" unicode="&#xca;" horiz-adv-x="533" 
d="M90 718h383v-101h-289v-197h259v-101h-259v-218h289v-101h-383v718zM344 910l75 -138h-77l-59 63l-59 -63h-77l75 138h122z" />
    <glyph glyph-name="Edieresis" unicode="&#xcb;" horiz-adv-x="533" 
d="M90 718h383v-101h-289v-197h259v-101h-259v-218h289v-101h-383v718zM116 846h-1c0 19 7 35 20 48s29 20 48 20s35 -7 48 -20s20 -29 20 -48s-7 -35 -20 -48s-29 -20 -48 -20s-35 7 -48 20s-19 29 -19 48zM316 846h-1c0 19 7 35 20 48s29 20 48 20s35 -7 48 -20
s20 -29 20 -48s-7 -35 -20 -48s-29 -20 -48 -20s-35 7 -48 20s-19 29 -19 48z" />
    <glyph glyph-name="Igrave" unicode="&#xcc;" horiz-adv-x="274" 
d="M90 718h94v-718h-94v718zM116 910l65 -138h-87l-110 138h132z" />
    <glyph glyph-name="Iacute" unicode="&#xcd;" horiz-adv-x="274" 
d="M90 718h94v-718h-94v718zM293 910l-110 -138h-87l65 138h132z" />
    <glyph glyph-name="Icircumflex" unicode="&#xce;" horiz-adv-x="274" 
d="M90 718h94v-718h-94v718zM199 910l75 -138h-77l-59 63l-59 -63h-77l75 138h122z" />
    <glyph glyph-name="Idieresis" unicode="&#xcf;" horiz-adv-x="274" 
d="M90 718h94v-718h-94v718zM-31 846h-1c0 19 7 35 20 48s29 20 48 20s35 -7 48 -20s20 -29 20 -48s-7 -35 -20 -48s-29 -20 -48 -20s-35 7 -48 20s-19 29 -19 48zM169 846h-1c0 19 7 35 20 48s29 20 48 20s35 -7 48 -20s20 -29 20 -48s-7 -35 -20 -48s-29 -20 -48 -20
s-35 7 -48 20s-19 29 -19 48z" />
    <glyph glyph-name="Eth" unicode="&#xd0;" horiz-adv-x="746" 
d="M9 420l90 -3v298h222c56 0 108 -8 155 -24s88 -39 122 -69s61 -67 80 -112s29 -96 29 -153s-10 -107 -29 -151s-46 -81 -81 -112s-76 -54 -123 -70s-98 -24 -153 -24h-222v319h-90v101zM611 356l-3 1c0 36 -6 70 -19 101s-30 58 -52 81s-49 41 -80 54s-65 20 -102 20
h-163v-197h179v-101h-179v-218h163c36 0 70 6 101 18s58 30 81 53s41 50 54 82s20 67 20 106z" />
    <glyph glyph-name="Ntilde" unicode="&#xd1;" horiz-adv-x="759" 
d="M90 718h102l383 -564v564h94v-718h-102l-383 561v-561h-94v718zM226 778l-3 -6c-7 19 -10 35 -10 48c0 27 9 48 26 64s38 24 63 24c17 0 33 -3 48 -10s29 -14 43 -22c9 -5 18 -10 26 -14s16 -6 23 -6c9 0 17 3 23 9s9 14 9 25v10c0 3 -1 7 -2 11h59c7 -16 10 -32 10 -49
c0 -27 -8 -48 -24 -63s-37 -23 -62 -23c-15 0 -30 3 -45 10s-28 14 -39 21c-13 7 -24 13 -32 17s-16 6 -23 6c-10 0 -18 -3 -24 -9s-9 -14 -9 -25v-9s1 -6 2 -9h-59z" />
    <glyph glyph-name="Ograve" unicode="&#xd2;" horiz-adv-x="796" 
d="M398 730l1 -4c48 0 94 -9 137 -28s81 -45 114 -78s59 -72 78 -117s29 -94 29 -147s-10 -102 -29 -147s-45 -84 -78 -117s-71 -59 -114 -78s-88 -28 -135 -28c-49 0 -95 10 -139 29s-82 45 -115 78s-59 72 -78 117s-29 94 -29 147s10 102 29 148s45 85 78 118
s71 59 114 78s89 29 137 29zM400 624l-1 -3c-37 0 -72 -7 -104 -20s-60 -32 -84 -56s-43 -52 -57 -85s-21 -69 -21 -108s7 -75 21 -108s33 -61 57 -85s52 -42 84 -55s67 -19 104 -19s71 7 103 20s60 31 83 55s42 52 56 85s21 70 21 110c0 39 -7 75 -21 108s-32 61 -55 85
s-51 43 -83 56s-66 20 -103 20zM387 903l65 -138h-87l-110 138h132z" />
    <glyph glyph-name="Oacute" unicode="&#xd3;" horiz-adv-x="796" 
d="M398 730l1 -4c48 0 94 -9 137 -28s81 -45 114 -78s59 -72 78 -117s29 -94 29 -147s-10 -102 -29 -147s-45 -84 -78 -117s-71 -59 -114 -78s-88 -28 -135 -28c-49 0 -95 10 -139 29s-82 45 -115 78s-59 72 -78 117s-29 94 -29 147s10 102 29 148s45 85 78 118
s71 59 114 78s89 29 137 29zM400 624l-1 -3c-37 0 -72 -7 -104 -20s-60 -32 -84 -56s-43 -52 -57 -85s-21 -69 -21 -108s7 -75 21 -108s33 -61 57 -85s52 -42 84 -55s67 -19 104 -19s71 7 103 20s60 31 83 55s42 52 56 85s21 70 21 110c0 39 -7 75 -21 108s-32 61 -55 85
s-51 43 -83 56s-66 20 -103 20zM541 903l-110 -138h-87l65 138h132z" />
    <glyph glyph-name="Ocircumflex" unicode="&#xd4;" horiz-adv-x="796" 
d="M398 730l1 -4c48 0 94 -9 137 -28s81 -45 114 -78s59 -72 78 -117s29 -94 29 -147s-10 -102 -29 -147s-45 -84 -78 -117s-71 -59 -114 -78s-88 -28 -135 -28c-49 0 -95 10 -139 29s-82 45 -115 78s-59 72 -78 117s-29 94 -29 147s10 102 29 148s45 85 78 118
s71 59 114 78s89 29 137 29zM400 624l-1 -3c-37 0 -72 -7 -104 -20s-60 -32 -84 -56s-43 -52 -57 -85s-21 -69 -21 -108s7 -75 21 -108s33 -61 57 -85s52 -42 84 -55s67 -19 104 -19s71 7 103 20s60 31 83 55s42 52 56 85s21 70 21 110c0 39 -7 75 -21 108s-32 61 -55 85
s-51 43 -83 56s-66 20 -103 20zM463 903l75 -138h-77l-59 63l-59 -63h-77l75 138h122z" />
    <glyph glyph-name="Otilde" unicode="&#xd5;" horiz-adv-x="796" 
d="M398 730l1 -4c48 0 94 -9 137 -28s81 -45 114 -78s59 -72 78 -117s29 -94 29 -147s-10 -102 -29 -147s-45 -84 -78 -117s-71 -59 -114 -78s-88 -28 -135 -28c-49 0 -95 10 -139 29s-82 45 -115 78s-59 72 -78 117s-29 94 -29 147s10 102 29 148s45 85 78 118
s71 59 114 78s89 29 137 29zM400 624l-1 -3c-37 0 -72 -7 -104 -20s-60 -32 -84 -56s-43 -52 -57 -85s-21 -69 -21 -108s7 -75 21 -108s33 -61 57 -85s52 -42 84 -55s67 -19 104 -19s71 7 103 20s60 31 83 55s42 52 56 85s21 70 21 110c0 39 -7 75 -21 108s-32 61 -55 85
s-51 43 -83 56s-66 20 -103 20zM249 771l-3 -6c-7 19 -10 35 -10 48c0 27 9 48 26 64s38 24 63 24c17 0 33 -3 48 -10s29 -14 43 -22c9 -5 18 -10 26 -14s16 -6 23 -6c9 0 17 3 23 9s9 14 9 25v10c0 3 -1 7 -2 11h59c7 -16 10 -32 10 -49c0 -27 -8 -48 -24 -63
s-37 -23 -62 -23c-15 0 -30 3 -45 10s-28 14 -39 21c-13 7 -24 13 -32 17s-16 6 -23 6c-10 0 -18 -3 -24 -9s-9 -14 -9 -25v-9s1 -6 2 -9h-59z" />
    <glyph glyph-name="Odieresis" unicode="&#xd6;" horiz-adv-x="796" 
d="M398 730l1 -4c48 0 94 -9 137 -28s81 -45 114 -78s59 -72 78 -117s29 -94 29 -147s-10 -102 -29 -147s-45 -84 -78 -117s-71 -59 -114 -78s-88 -28 -135 -28c-49 0 -95 10 -139 29s-82 45 -115 78s-59 72 -78 117s-29 94 -29 147s10 102 29 148s45 85 78 118
s71 59 114 78s89 29 137 29zM400 624l-1 -3c-37 0 -72 -7 -104 -20s-60 -32 -84 -56s-43 -52 -57 -85s-21 -69 -21 -108s7 -75 21 -108s33 -61 57 -85s52 -42 84 -55s67 -19 104 -19s71 7 103 20s60 31 83 55s42 52 56 85s21 70 21 110c0 39 -7 75 -21 108s-32 61 -55 85
s-51 43 -83 56s-66 20 -103 20zM233 839h-1c0 19 7 35 20 48s29 20 48 20s35 -7 48 -20s20 -29 20 -48s-7 -35 -20 -48s-29 -20 -48 -20s-35 7 -48 20s-19 29 -19 48zM433 839h-1c0 19 7 35 20 48s29 20 48 20s35 -7 48 -20s20 -29 20 -48s-7 -35 -20 -48s-29 -20 -48 -20
s-35 7 -48 20s-19 29 -19 48z" />
    <glyph glyph-name="multiply" unicode="&#xd7;" horiz-adv-x="524" 
d="M199 297l-137 137l61 60l136 -136l139 139l66 -66l-139 -139l136 -136l-61 -60l-135 136l-140 -140l-65 66z" />
    <glyph glyph-name="Oslash" unicode="&#xd8;" horiz-adv-x="806" 
d="M403 730v-4c37 0 72 -5 106 -16s66 -27 95 -48l54 64h117l-104 -124c28 -32 50 -69 66 -111s24 -87 24 -136c0 -53 -10 -102 -29 -147s-45 -84 -78 -117s-71 -59 -114 -78s-88 -28 -135 -28c-38 0 -74 6 -108 17s-66 27 -95 47l-53 -63h-117l104 123
c-29 33 -51 70 -67 112s-24 87 -24 136c0 53 10 102 29 148s45 85 78 118s71 59 114 78s89 29 137 29zM666 355l-1 -2c0 34 -5 66 -15 95s-24 55 -43 78l-341 -406c20 -11 42 -20 65 -26s47 -9 72 -9c37 0 71 7 103 20s60 31 83 55s42 52 56 85s21 70 21 110zM403 622l1 -2
c-37 0 -72 -7 -104 -20s-60 -32 -84 -56s-43 -52 -57 -85s-21 -69 -21 -108c0 -34 5 -65 15 -94s24 -55 43 -78l342 406c-41 25 -86 37 -135 37z" />
    <glyph glyph-name="Ugrave" unicode="&#xd9;" horiz-adv-x="735" 
d="M556 718l94 2v-431c0 -43 -7 -83 -20 -120s-32 -69 -56 -96s-54 -48 -89 -63s-74 -22 -117 -22c-42 0 -80 7 -115 21s-65 34 -90 60s-44 57 -58 94s-21 78 -21 123v432h94v-433c0 -30 5 -57 14 -81s22 -44 39 -61s37 -30 60 -39s49 -13 77 -13c29 0 55 5 78 14
s43 22 59 39s29 38 38 62s13 51 13 80v432zM364 912l65 -138h-87l-110 138h132z" />
    <glyph glyph-name="Uacute" unicode="&#xda;" horiz-adv-x="735" 
d="M556 718l94 2v-431c0 -43 -7 -83 -20 -120s-32 -69 -56 -96s-54 -48 -89 -63s-74 -22 -117 -22c-42 0 -80 7 -115 21s-65 34 -90 60s-44 57 -58 94s-21 78 -21 123v432h94v-433c0 -30 5 -57 14 -81s22 -44 39 -61s37 -30 60 -39s49 -13 77 -13c29 0 55 5 78 14
s43 22 59 39s29 38 38 62s13 51 13 80v432zM502 912l-110 -138h-87l65 138h132z" />
    <glyph glyph-name="Ucircumflex" unicode="&#xdb;" horiz-adv-x="735" 
d="M556 718l94 2v-431c0 -43 -7 -83 -20 -120s-32 -69 -56 -96s-54 -48 -89 -63s-74 -22 -117 -22c-42 0 -80 7 -115 21s-65 34 -90 60s-44 57 -58 94s-21 78 -21 123v432h94v-433c0 -30 5 -57 14 -81s22 -44 39 -61s37 -30 60 -39s49 -13 77 -13c29 0 55 5 78 14
s43 22 59 39s29 38 38 62s13 51 13 80v432zM428 912l75 -138h-77l-59 63l-59 -63h-77l75 138h122z" />
    <glyph glyph-name="Udieresis" unicode="&#xdc;" horiz-adv-x="735" 
d="M556 718l94 2v-431c0 -43 -7 -83 -20 -120s-32 -69 -56 -96s-54 -48 -89 -63s-74 -22 -117 -22c-42 0 -80 7 -115 21s-65 34 -90 60s-44 57 -58 94s-21 78 -21 123v432h94v-433c0 -30 5 -57 14 -81s22 -44 39 -61s37 -30 60 -39s49 -13 77 -13c29 0 55 5 78 14
s43 22 59 39s29 38 38 62s13 51 13 80v432zM198 848h-1c0 19 7 35 20 48s29 20 48 20s35 -7 48 -20s20 -29 20 -48s-7 -35 -20 -48s-29 -20 -48 -20s-35 7 -48 20s-19 29 -19 48zM398 848h-1c0 19 7 35 20 48s29 20 48 20s35 -7 48 -20s20 -29 20 -48s-7 -35 -20 -48
s-29 -20 -48 -20s-35 7 -48 20s-19 29 -19 48z" />
    <glyph glyph-name="Yacute" unicode="&#xdd;" horiz-adv-x="558" 
d="M8 718h106l163 -307l164 307h109l-223 -419v-299h-94v299zM426 910l-110 -138h-87l65 138h132z" />
    <glyph glyph-name="Thorn" unicode="&#xde;" horiz-adv-x="546" 
d="M184 718l-2 -141h106c32 0 62 -5 90 -15s52 -25 72 -44s36 -42 48 -69s18 -57 18 -90c0 -32 -5 -61 -16 -88s-26 -50 -46 -69s-44 -34 -72 -45s-58 -16 -91 -16h-107v-141h-94v718h94zM182 476v-235h122c33 0 60 11 82 33s33 50 33 85c0 16 -3 31 -9 45s-14 27 -24 38
s-22 19 -36 25s-29 9 -46 9h-122z" />
    <glyph glyph-name="germandbls" unicode="&#xdf;" horiz-adv-x="607" 
d="M435 413v1c37 -17 67 -43 90 -78s34 -74 34 -118c0 -31 -5 -60 -16 -87s-26 -51 -46 -72s-43 -37 -70 -49s-56 -18 -88 -18c-27 0 -51 5 -73 14s-37 20 -46 33l22 76c11 -9 25 -16 41 -20s33 -6 50 -6c20 0 38 3 55 9s32 15 44 27s22 26 29 42s10 33 10 51
c0 21 -4 40 -12 56s-19 30 -33 41s-30 20 -49 26s-39 9 -60 9h-48v92h15c36 0 65 9 86 28s32 44 32 75c0 28 -10 52 -30 71s-47 29 -80 29c-39 0 -68 -12 -88 -36s-30 -54 -30 -91v-517h-91v522c0 31 5 60 15 87s24 50 42 69s39 34 64 45s53 17 84 17c29 0 56 -5 81 -15
s47 -24 65 -42s32 -39 42 -63s15 -49 15 -76s-5 -52 -14 -75s-23 -42 -42 -57z" />
    <glyph glyph-name="agrave" unicode="&#xe0;" horiz-adv-x="551" 
d="M383 177l1 -4c-8 14 -24 25 -48 32s-50 11 -77 11c-38 0 -67 -6 -88 -18s-31 -28 -31 -49c0 -20 10 -36 30 -48s50 -18 89 -18c13 0 26 1 39 4s25 7 36 12s21 11 30 18s15 14 19 22v38zM75 420h-1c19 26 45 47 78 63s69 24 109 24c67 0 119 -17 157 -51s57 -82 57 -144
v-315h-88v44c-6 -9 -14 -17 -25 -24s-23 -13 -36 -18s-26 -9 -40 -12s-28 -4 -42 -4c-59 0 -106 14 -142 42s-54 68 -54 119c0 26 5 49 15 69s24 37 42 51s39 25 63 32s50 11 78 11c11 0 23 -1 36 -3s26 -4 38 -7s24 -7 35 -12s20 -11 28 -18v24c0 21 -4 39 -11 54
s-17 27 -29 37s-26 17 -42 22s-33 7 -51 7c-32 0 -61 -6 -87 -19s-47 -30 -62 -51zM273 724l65 -148h-83l-110 148h128z" />
    <glyph glyph-name="aacute" unicode="&#xe1;" horiz-adv-x="551" 
d="M383 177l1 -4c-8 14 -24 25 -48 32s-50 11 -77 11c-38 0 -67 -6 -88 -18s-31 -28 -31 -49c0 -20 10 -36 30 -48s50 -18 89 -18c13 0 26 1 39 4s25 7 36 12s21 11 30 18s15 14 19 22v38zM75 420h-1c19 26 45 47 78 63s69 24 109 24c67 0 119 -17 157 -51s57 -82 57 -144
v-315h-88v44c-6 -9 -14 -17 -25 -24s-23 -13 -36 -18s-26 -9 -40 -12s-28 -4 -42 -4c-59 0 -106 14 -142 42s-54 68 -54 119c0 26 5 49 15 69s24 37 42 51s39 25 63 32s50 11 78 11c11 0 23 -1 36 -3s26 -4 38 -7s24 -7 35 -12s20 -11 28 -18v24c0 21 -4 39 -11 54
s-17 27 -29 37s-26 17 -42 22s-33 7 -51 7c-32 0 -61 -6 -87 -19s-47 -30 -62 -51zM407 724l-110 -148h-83l65 148h128z" />
    <glyph glyph-name="acircumflex" unicode="&#xe2;" horiz-adv-x="551" 
d="M383 177l1 -4c-8 14 -24 25 -48 32s-50 11 -77 11c-38 0 -67 -6 -88 -18s-31 -28 -31 -49c0 -20 10 -36 30 -48s50 -18 89 -18c13 0 26 1 39 4s25 7 36 12s21 11 30 18s15 14 19 22v38zM75 420h-1c19 26 45 47 78 63s69 24 109 24c67 0 119 -17 157 -51s57 -82 57 -144
v-315h-88v44c-6 -9 -14 -17 -25 -24s-23 -13 -36 -18s-26 -9 -40 -12s-28 -4 -42 -4c-59 0 -106 14 -142 42s-54 68 -54 119c0 26 5 49 15 69s24 37 42 51s39 25 63 32s50 11 78 11c11 0 23 -1 36 -3s26 -4 38 -7s24 -7 35 -12s20 -11 28 -18v24c0 21 -4 39 -11 54
s-17 27 -29 37s-26 17 -42 22s-33 7 -51 7c-32 0 -61 -6 -87 -19s-47 -30 -62 -51zM336 724l75 -148h-80l-59 73l-59 -73h-80l75 148h128z" />
    <glyph glyph-name="atilde" unicode="&#xe3;" horiz-adv-x="551" 
d="M383 177l1 -4c-8 14 -24 25 -48 32s-50 11 -77 11c-38 0 -67 -6 -88 -18s-31 -28 -31 -49c0 -20 10 -36 30 -48s50 -18 89 -18c13 0 26 1 39 4s25 7 36 12s21 11 30 18s15 14 19 22v38zM75 420h-1c19 26 45 47 78 63s69 24 109 24c67 0 119 -17 157 -51s57 -82 57 -144
v-315h-88v44c-6 -9 -14 -17 -25 -24s-23 -13 -36 -18s-26 -9 -40 -12s-28 -4 -42 -4c-59 0 -106 14 -142 42s-54 68 -54 119c0 26 5 49 15 69s24 37 42 51s39 25 63 32s50 11 78 11c11 0 23 -1 36 -3s26 -4 38 -7s24 -7 35 -12s20 -11 28 -18v24c0 21 -4 39 -11 54
s-17 27 -29 37s-26 17 -42 22s-33 7 -51 7c-32 0 -61 -6 -87 -19s-47 -30 -62 -51zM119 582l-3 -6c-7 19 -10 35 -10 48c0 27 9 48 26 64s38 24 63 24c17 0 33 -3 48 -10s29 -14 43 -22c9 -5 18 -10 26 -14s16 -6 23 -6c9 0 17 3 23 9s9 14 9 25v10c0 3 -1 7 -2 11h59
c7 -16 10 -32 10 -49c0 -27 -8 -48 -24 -63s-37 -23 -62 -23c-15 0 -30 3 -45 10s-28 14 -39 21c-13 7 -24 13 -32 17s-16 6 -23 6c-10 0 -18 -3 -24 -9s-9 -14 -9 -25v-9s1 -6 2 -9h-59z" />
    <glyph glyph-name="adieresis" unicode="&#xe4;" horiz-adv-x="551" 
d="M383 177l1 -4c-8 14 -24 25 -48 32s-50 11 -77 11c-38 0 -67 -6 -88 -18s-31 -28 -31 -49c0 -20 10 -36 30 -48s50 -18 89 -18c13 0 26 1 39 4s25 7 36 12s21 11 30 18s15 14 19 22v38zM75 420h-1c19 26 45 47 78 63s69 24 109 24c67 0 119 -17 157 -51s57 -82 57 -144
v-315h-88v44c-6 -9 -14 -17 -25 -24s-23 -13 -36 -18s-26 -9 -40 -12s-28 -4 -42 -4c-59 0 -106 14 -142 42s-54 68 -54 119c0 26 5 49 15 69s24 37 42 51s39 25 63 32s50 11 78 11c11 0 23 -1 36 -3s26 -4 38 -7s24 -7 35 -12s20 -11 28 -18v24c0 21 -4 39 -11 54
s-17 27 -29 37s-26 17 -42 22s-33 7 -51 7c-32 0 -61 -6 -87 -19s-47 -30 -62 -51zM107 651l-3 -3c0 19 7 35 20 48s29 20 47 20c19 0 35 -6 48 -19s20 -29 20 -48c0 -18 -6 -33 -19 -46s-29 -19 -48 -19c-18 0 -33 7 -46 20s-19 29 -19 47zM301 648l-3 -3c0 19 7 35 20 48
s29 20 47 20c19 0 35 -6 48 -19s20 -29 20 -48c0 -18 -6 -33 -19 -46s-29 -19 -48 -19c-18 0 -33 7 -46 20s-19 29 -19 47z" />
    <glyph glyph-name="aring" unicode="&#xe5;" horiz-adv-x="551" 
d="M383 177l1 -4c-8 14 -24 25 -48 32s-50 11 -77 11c-38 0 -67 -6 -88 -18s-31 -28 -31 -49c0 -20 10 -36 30 -48s50 -18 89 -18c13 0 26 1 39 4s25 7 36 12s21 11 30 18s15 14 19 22v38zM75 420h-1c19 26 45 47 78 63s69 24 109 24c67 0 119 -17 157 -51s57 -82 57 -144
v-315h-88v44c-6 -9 -14 -17 -25 -24s-23 -13 -36 -18s-26 -9 -40 -12s-28 -4 -42 -4c-59 0 -106 14 -142 42s-54 68 -54 119c0 26 5 49 15 69s24 37 42 51s39 25 63 32s50 11 78 11c11 0 23 -1 36 -3s26 -4 38 -7s24 -7 35 -12s20 -11 28 -18v24c0 21 -4 39 -11 54
s-17 27 -29 37s-26 17 -42 22s-33 7 -51 7c-32 0 -61 -6 -87 -19s-47 -30 -62 -51zM168 662c0 30 10 55 30 75s45 30 74 30s54 -10 74 -30s30 -45 30 -75c0 -29 -10 -54 -30 -74s-45 -30 -74 -30s-54 10 -74 30s-30 45 -30 74zM229 662c0 -12 4 -22 12 -30s18 -12 30 -12
s22 4 30 12s12 18 12 30s-4 22 -12 30s-18 12 -30 12s-22 -4 -30 -12s-12 -18 -12 -30z" />
    <glyph glyph-name="ae" unicode="&#xe6;" horiz-adv-x="906" 
d="M249 414l-6 -3c-32 0 -61 -6 -87 -19s-47 -30 -62 -51l-26 79c19 26 45 47 78 63s69 24 109 24c42 0 79 -7 110 -21s56 -34 74 -61c21 25 47 45 77 60s65 23 104 23c36 0 68 -7 97 -21s54 -33 74 -57s36 -52 47 -84s16 -65 16 -100c0 -11 -1 -22 -3 -34h-382
c5 -44 23 -77 54 -99s70 -33 118 -33c16 0 32 2 47 6s30 9 44 15s26 13 37 21s20 16 27 24l24 -71c-5 -11 -13 -22 -24 -33s-24 -21 -40 -30s-34 -16 -54 -21s-42 -8 -65 -8c-43 0 -82 8 -117 24s-64 39 -87 69c-19 -29 -45 -51 -78 -67s-70 -24 -110 -24
c-61 0 -109 14 -145 42s-54 68 -54 120c0 26 5 49 15 69s24 37 42 51s39 25 63 32s50 11 78 11c11 0 23 -1 36 -3s26 -4 38 -7s24 -7 35 -12s21 -11 29 -18v25c0 23 -4 42 -12 57s-19 27 -32 36s-27 16 -43 20s-31 6 -46 6zM377 174l1 -4c-8 14 -24 25 -48 32s-50 11 -77 11
c-38 0 -67 -6 -88 -18s-31 -28 -31 -49c0 -20 10 -36 30 -48s50 -18 89 -18c13 0 26 1 39 4s25 7 36 12s21 11 30 18s15 14 19 22v38zM756 301l-2 -3c-1 15 -5 29 -12 42s-17 24 -29 34s-26 18 -42 23s-33 8 -51 8s-35 -3 -52 -8s-32 -12 -45 -21s-24 -20 -33 -33
s-14 -27 -16 -42h282z" />
    <glyph glyph-name="ccedilla" unicode="&#xe7;" horiz-adv-x="540" 
d="M325 -124l-6 -6c0 9 -4 16 -11 21s-16 8 -27 8c-6 0 -11 0 -16 -1s-10 -2 -16 -4l-19 33l18 62c-28 6 -54 16 -79 31s-47 33 -66 55s-34 47 -45 76s-16 60 -16 94c0 39 7 75 21 107s33 60 57 83s52 41 83 54s64 19 98 19c23 0 44 -2 64 -7s38 -11 54 -19s29 -17 40 -27
s19 -20 24 -31l-24 -72c-14 16 -34 30 -59 42s-52 18 -81 18c-56 0 -101 -15 -135 -45s-51 -70 -51 -120c0 -25 5 -47 14 -67s22 -37 38 -51s35 -25 58 -33s48 -12 76 -12c31 0 59 6 84 18s45 26 59 42l25 -71c-5 -11 -13 -21 -24 -31s-24 -19 -39 -27s-32 -14 -51 -19
s-40 -8 -63 -9l-11 -33c14 -1 28 -3 41 -7s25 -9 35 -16s18 -16 24 -26s9 -21 9 -34c0 -29 -11 -51 -32 -67s-48 -24 -81 -24c-23 0 -45 5 -65 14s-35 20 -46 33l12 55c15 -13 30 -22 44 -27s29 -7 44 -7c13 0 23 3 30 8s11 12 11 20z" />
    <glyph glyph-name="egrave" unicode="&#xe8;" horiz-adv-x="574" 
d="M312 85l-3 5c16 0 32 2 47 6s30 9 44 15s26 13 37 21s20 16 27 24l24 -71c-5 -11 -13 -22 -24 -33s-24 -21 -40 -30s-34 -16 -54 -21s-42 -8 -65 -8c-37 0 -71 6 -103 18s-59 29 -82 51s-41 49 -54 81s-19 68 -19 108c0 35 6 68 17 100s27 60 48 84s47 43 77 57
s64 21 102 21c36 0 68 -7 97 -21s54 -33 74 -57s36 -52 47 -84s16 -65 16 -100c0 -11 -1 -22 -3 -34h-382c5 -44 23 -77 54 -99s70 -33 118 -33zM426 313l-2 -3c-1 15 -5 29 -12 42s-17 24 -29 34s-26 18 -42 23s-33 8 -51 8s-35 -3 -52 -8s-32 -12 -45 -21s-24 -20 -33 -33
s-14 -27 -16 -42h282zM266 730l65 -148h-83l-110 148h128z" />
    <glyph glyph-name="eacute" unicode="&#xe9;" horiz-adv-x="574" 
d="M312 85l-3 5c16 0 32 2 47 6s30 9 44 15s26 13 37 21s20 16 27 24l24 -71c-5 -11 -13 -22 -24 -33s-24 -21 -40 -30s-34 -16 -54 -21s-42 -8 -65 -8c-37 0 -71 6 -103 18s-59 29 -82 51s-41 49 -54 81s-19 68 -19 108c0 35 6 68 17 100s27 60 48 84s47 43 77 57
s64 21 102 21c36 0 68 -7 97 -21s54 -33 74 -57s36 -52 47 -84s16 -65 16 -100c0 -11 -1 -22 -3 -34h-382c5 -44 23 -77 54 -99s70 -33 118 -33zM426 313l-2 -3c-1 15 -5 29 -12 42s-17 24 -29 34s-26 18 -42 23s-33 8 -51 8s-35 -3 -52 -8s-32 -12 -45 -21s-24 -20 -33 -33
s-14 -27 -16 -42h282zM428 730l-110 -148h-83l65 148h128z" />
    <glyph glyph-name="ecircumflex" unicode="&#xea;" horiz-adv-x="574" 
d="M312 85l-3 5c16 0 32 2 47 6s30 9 44 15s26 13 37 21s20 16 27 24l24 -71c-5 -11 -13 -22 -24 -33s-24 -21 -40 -30s-34 -16 -54 -21s-42 -8 -65 -8c-37 0 -71 6 -103 18s-59 29 -82 51s-41 49 -54 81s-19 68 -19 108c0 35 6 68 17 100s27 60 48 84s47 43 77 57
s64 21 102 21c36 0 68 -7 97 -21s54 -33 74 -57s36 -52 47 -84s16 -65 16 -100c0 -11 -1 -22 -3 -34h-382c5 -44 23 -77 54 -99s70 -33 118 -33zM426 313l-2 -3c-1 15 -5 29 -12 42s-17 24 -29 34s-26 18 -42 23s-33 8 -51 8s-35 -3 -52 -8s-32 -12 -45 -21s-24 -20 -33 -33
s-14 -27 -16 -42h282zM347 730l75 -148h-80l-59 73l-59 -73h-80l75 148h128z" />
    <glyph glyph-name="edieresis" unicode="&#xeb;" horiz-adv-x="574" 
d="M312 85l-3 5c16 0 32 2 47 6s30 9 44 15s26 13 37 21s20 16 27 24l24 -71c-5 -11 -13 -22 -24 -33s-24 -21 -40 -30s-34 -16 -54 -21s-42 -8 -65 -8c-37 0 -71 6 -103 18s-59 29 -82 51s-41 49 -54 81s-19 68 -19 108c0 35 6 68 17 100s27 60 48 84s47 43 77 57
s64 21 102 21c36 0 68 -7 97 -21s54 -33 74 -57s36 -52 47 -84s16 -65 16 -100c0 -11 -1 -22 -3 -34h-382c5 -44 23 -77 54 -99s70 -33 118 -33zM426 313l-2 -3c-1 15 -5 29 -12 42s-17 24 -29 34s-26 18 -42 23s-33 8 -51 8s-35 -3 -52 -8s-32 -12 -45 -21s-24 -20 -33 -33
s-14 -27 -16 -42h282zM124 657l-3 -3c0 19 7 35 20 48s29 20 47 20c19 0 35 -6 48 -19s20 -29 20 -48c0 -18 -6 -33 -19 -46s-29 -19 -48 -19c-18 0 -33 7 -46 20s-19 29 -19 47zM318 654l-3 -3c0 19 7 35 20 48s29 20 47 20c19 0 35 -6 48 -19s20 -29 20 -48
c0 -18 -6 -33 -19 -46s-29 -19 -48 -19c-18 0 -33 7 -46 20s-19 29 -19 47z" />
    <glyph glyph-name="igrave" unicode="&#xec;" horiz-adv-x="254" 
d="M82 499h91v-499h-91v499zM104 728l65 -148h-83l-110 148h128z" />
    <glyph glyph-name="iacute" unicode="&#xed;" horiz-adv-x="254" 
d="M82 499h91v-499h-91v499zM282 728l-110 -148h-83l65 148h128z" />
    <glyph glyph-name="icircumflex" unicode="&#xee;" horiz-adv-x="254" 
d="M82 499h91v-499h-91v499zM192 728l75 -148h-80l-59 73l-59 -73h-80l75 148h128z" />
    <glyph glyph-name="idieresis" unicode="&#xef;" horiz-adv-x="254" 
d="M82 499h91v-499h-91v499zM-37 655l-3 -3c0 19 7 35 20 48s29 20 47 20c19 0 35 -6 48 -19s20 -29 20 -48c0 -18 -6 -33 -19 -46s-29 -19 -48 -19c-18 0 -33 7 -46 20s-19 29 -19 47zM157 652l-3 -3c0 19 7 35 20 48s29 20 47 20c19 0 35 -6 48 -19s20 -29 20 -48
c0 -18 -6 -33 -19 -46s-29 -19 -48 -19c-18 0 -33 7 -46 20s-19 29 -19 47z" />
    <glyph glyph-name="eth" unicode="&#xf0;" horiz-adv-x="609" 
d="M344 676l110 42l35 -69l-99 -44l90 -133c21 -32 40 -67 57 -106s25 -80 25 -124c0 -36 -6 -70 -19 -101s-31 -58 -54 -81s-50 -41 -81 -54s-65 -20 -102 -20c-35 0 -68 6 -99 18s-58 29 -82 51s-43 49 -57 80s-21 65 -21 102c0 33 6 65 18 95s29 57 52 80s50 41 82 55
s68 21 107 21c9 0 20 0 32 -1s23 -2 32 -4l-60 90l-119 -53l-37 74l110 48l-57 86h103zM306 81v-2c25 0 47 4 67 12s37 19 52 33s26 30 34 49s12 39 12 61s-4 43 -12 62s-19 35 -34 48s-32 24 -52 32s-42 12 -67 12s-48 -4 -68 -12s-37 -18 -51 -31s-25 -29 -33 -48
s-12 -39 -12 -61s4 -42 12 -61s19 -35 33 -49s31 -25 51 -33s43 -12 68 -12z" />
    <glyph glyph-name="ntilde" unicode="&#xf1;" horiz-adv-x="598" 
d="M306 511l-2 -3c27 0 53 -4 79 -13s49 -23 70 -41s38 -42 51 -71s19 -63 19 -103v-282h-91v280c0 21 -3 40 -10 57s-16 31 -27 42s-24 20 -39 26s-32 9 -50 9c-16 0 -31 -2 -46 -7s-28 -11 -40 -19s-22 -18 -30 -29s-13 -23 -16 -36v-321h-91v499h88v-55c7 19 22 35 45 48
s53 19 90 19zM151 583l-3 -6c-7 19 -10 35 -10 48c0 27 9 48 26 64s38 24 63 24c17 0 33 -3 48 -10s29 -14 43 -22c9 -5 18 -10 26 -14s16 -6 23 -6c9 0 17 3 23 9s9 14 9 25v10c0 3 -1 7 -2 11h59c7 -16 10 -32 10 -49c0 -27 -8 -48 -24 -63s-37 -23 -62 -23
c-15 0 -30 3 -45 10s-28 14 -39 21c-13 7 -24 13 -32 17s-16 6 -23 6c-10 0 -18 -3 -24 -9s-9 -14 -9 -25v-9s1 -6 2 -9h-59z" />
    <glyph glyph-name="ograve" unicode="&#xf2;" 
d="M552 249v-1c0 -37 -7 -72 -21 -104s-32 -60 -55 -83s-50 -41 -80 -54s-62 -19 -96 -19s-66 7 -97 20s-58 31 -81 54s-41 51 -54 83s-20 67 -20 104s7 72 20 104s31 60 54 83s50 41 81 54s63 20 97 20s66 -7 96 -20s57 -31 80 -54s41 -51 55 -83s21 -67 21 -104zM139 248
v-3c0 -25 4 -47 12 -67s19 -37 34 -51s32 -25 51 -33s40 -12 63 -12s44 4 64 12s37 19 52 33s26 31 34 51s12 42 12 67s-4 48 -12 68s-19 38 -34 53s-32 26 -52 34s-41 12 -64 12s-44 -4 -63 -12s-36 -19 -51 -34s-26 -32 -34 -52s-12 -42 -12 -66zM284 724l65 -148h-83
l-110 148h128z" />
    <glyph glyph-name="oacute" unicode="&#xf3;" 
d="M552 249v-1c0 -37 -7 -72 -21 -104s-32 -60 -55 -83s-50 -41 -80 -54s-62 -19 -96 -19s-66 7 -97 20s-58 31 -81 54s-41 51 -54 83s-20 67 -20 104s7 72 20 104s31 60 54 83s50 41 81 54s63 20 97 20s66 -7 96 -20s57 -31 80 -54s41 -51 55 -83s21 -67 21 -104zM139 248
v-3c0 -25 4 -47 12 -67s19 -37 34 -51s32 -25 51 -33s40 -12 63 -12s44 4 64 12s37 19 52 33s26 31 34 51s12 42 12 67s-4 48 -12 68s-19 38 -34 53s-32 26 -52 34s-41 12 -64 12s-44 -4 -63 -12s-36 -19 -51 -34s-26 -32 -34 -52s-12 -42 -12 -66zM444 724l-110 -148h-83
l65 148h128z" />
    <glyph glyph-name="ocircumflex" unicode="&#xf4;" 
d="M552 249v-1c0 -37 -7 -72 -21 -104s-32 -60 -55 -83s-50 -41 -80 -54s-62 -19 -96 -19s-66 7 -97 20s-58 31 -81 54s-41 51 -54 83s-20 67 -20 104s7 72 20 104s31 60 54 83s50 41 81 54s63 20 97 20s66 -7 96 -20s57 -31 80 -54s41 -51 55 -83s21 -67 21 -104zM139 248
v-3c0 -25 4 -47 12 -67s19 -37 34 -51s32 -25 51 -33s40 -12 63 -12s44 4 64 12s37 19 52 33s26 31 34 51s12 42 12 67s-4 48 -12 68s-19 38 -34 53s-32 26 -52 34s-41 12 -64 12s-44 -4 -63 -12s-36 -19 -51 -34s-26 -32 -34 -52s-12 -42 -12 -66zM364 724l75 -148h-80
l-59 73l-59 -73h-80l75 148h128z" />
    <glyph glyph-name="otilde" unicode="&#xf5;" 
d="M552 249v-1c0 -37 -7 -72 -21 -104s-32 -60 -55 -83s-50 -41 -80 -54s-62 -19 -96 -19s-66 7 -97 20s-58 31 -81 54s-41 51 -54 83s-20 67 -20 104s7 72 20 104s31 60 54 83s50 41 81 54s63 20 97 20s66 -7 96 -20s57 -31 80 -54s41 -51 55 -83s21 -67 21 -104zM139 248
v-3c0 -25 4 -47 12 -67s19 -37 34 -51s32 -25 51 -33s40 -12 63 -12s44 4 64 12s37 19 52 33s26 31 34 51s12 42 12 67s-4 48 -12 68s-19 38 -34 53s-32 26 -52 34s-41 12 -64 12s-44 -4 -63 -12s-36 -19 -51 -34s-26 -32 -34 -52s-12 -42 -12 -66zM147 582l-3 -6
c-7 19 -10 35 -10 48c0 27 9 48 26 64s38 24 63 24c17 0 33 -3 48 -10s29 -14 43 -22c9 -5 18 -10 26 -14s16 -6 23 -6c9 0 17 3 23 9s9 14 9 25v10c0 3 -1 7 -2 11h59c7 -16 10 -32 10 -49c0 -27 -8 -48 -24 -63s-37 -23 -62 -23c-15 0 -30 3 -45 10s-28 14 -39 21
c-13 7 -24 13 -32 17s-16 6 -23 6c-10 0 -18 -3 -24 -9s-9 -14 -9 -25v-9s1 -6 2 -9h-59z" />
    <glyph glyph-name="odieresis" unicode="&#xf6;" 
d="M552 249v-1c0 -37 -7 -72 -21 -104s-32 -60 -55 -83s-50 -41 -80 -54s-62 -19 -96 -19s-66 7 -97 20s-58 31 -81 54s-41 51 -54 83s-20 67 -20 104s7 72 20 104s31 60 54 83s50 41 81 54s63 20 97 20s66 -7 96 -20s57 -31 80 -54s41 -51 55 -83s21 -67 21 -104zM139 248
v-3c0 -25 4 -47 12 -67s19 -37 34 -51s32 -25 51 -33s40 -12 63 -12s44 4 64 12s37 19 52 33s26 31 34 51s12 42 12 67s-4 48 -12 68s-19 38 -34 53s-32 26 -52 34s-41 12 -64 12s-44 -4 -63 -12s-36 -19 -51 -34s-26 -32 -34 -52s-12 -42 -12 -66zM135 651l-3 -3
c0 19 7 35 20 48s29 20 47 20c19 0 35 -6 48 -19s20 -29 20 -48c0 -18 -6 -33 -19 -46s-29 -19 -48 -19c-18 0 -33 7 -46 20s-19 29 -19 47zM329 648l-3 -3c0 19 7 35 20 48s29 20 47 20c19 0 35 -6 48 -19s20 -29 20 -48c0 -18 -6 -33 -19 -46s-29 -19 -48 -19
c-18 0 -33 7 -46 20s-19 29 -19 47z" />
    <glyph glyph-name="divide" unicode="&#xf7;" horiz-adv-x="539" 
d="M196 482c0 20 7 37 21 51s31 21 51 21s37 -7 51 -21s21 -31 21 -51s-7 -37 -21 -51s-31 -21 -51 -21s-37 7 -51 21s-21 31 -21 51zM196 107c0 20 7 37 21 51s31 21 51 21s37 -7 51 -21s21 -31 21 -51s-7 -37 -21 -51s-31 -21 -51 -21s-37 7 -51 21s-21 31 -21 51zM60 341
h419v-93h-419v93z" />
    <glyph glyph-name="oslash" unicode="&#xf8;" horiz-adv-x="609" 
d="M556 249v1c0 -37 -7 -72 -21 -104s-32 -60 -55 -83s-50 -41 -80 -54s-62 -19 -96 -19c-49 0 -93 13 -132 38l-32 -38h-115l82 97c-17 22 -30 47 -40 75s-15 58 -15 90c0 37 7 72 20 104s31 60 54 83s50 41 81 54s63 20 97 20c24 0 47 -3 69 -10s43 -17 62 -30l33 39h115
l-83 -98c17 -22 31 -47 41 -75s15 -58 15 -90zM143 250v-2c0 -35 8 -66 25 -93l206 243c-11 5 -22 9 -34 12s-24 4 -37 4c-23 0 -44 -4 -63 -12s-36 -19 -51 -34s-26 -32 -34 -52s-12 -42 -12 -66zM465 247h-1c0 35 -8 66 -25 93l-206 -242c22 -9 45 -14 70 -14
c23 0 44 4 64 12s37 19 52 33s26 31 34 51s12 42 12 67z" />
    <glyph glyph-name="ugrave" unicode="&#xf9;" horiz-adv-x="594" 
d="M289 -12l-2 -1c-27 0 -53 5 -79 14s-49 23 -69 41s-36 42 -49 71s-19 64 -19 104v282h91v-280c0 -43 12 -76 36 -99s54 -34 90 -34c16 0 31 2 46 7s28 12 40 20s22 18 30 29s14 23 17 36v321h91v-499h-88v55c-7 -19 -22 -35 -45 -48s-53 -19 -90 -19zM279 727l65 -148
h-83l-110 148h128z" />
    <glyph glyph-name="uacute" unicode="&#xfa;" horiz-adv-x="594" 
d="M289 -12l-2 -1c-27 0 -53 5 -79 14s-49 23 -69 41s-36 42 -49 71s-19 64 -19 104v282h91v-280c0 -43 12 -76 36 -99s54 -34 90 -34c16 0 31 2 46 7s28 12 40 20s22 18 30 29s14 23 17 36v321h91v-499h-88v55c-7 -19 -22 -35 -45 -48s-53 -19 -90 -19zM430 727l-110 -148
h-83l65 148h128z" />
    <glyph glyph-name="ucircumflex" unicode="&#xfb;" horiz-adv-x="594" 
d="M289 -12l-2 -1c-27 0 -53 5 -79 14s-49 23 -69 41s-36 42 -49 71s-19 64 -19 104v282h91v-280c0 -43 12 -76 36 -99s54 -34 90 -34c16 0 31 2 46 7s28 12 40 20s22 18 30 29s14 23 17 36v321h91v-499h-88v55c-7 -19 -22 -35 -45 -48s-53 -19 -90 -19zM356 727l75 -148
h-80l-59 73l-59 -73h-80l75 148h128z" />
    <glyph glyph-name="udieresis" unicode="&#xfc;" horiz-adv-x="594" 
d="M289 -12l-2 -1c-27 0 -53 5 -79 14s-49 23 -69 41s-36 42 -49 71s-19 64 -19 104v282h91v-280c0 -43 12 -76 36 -99s54 -34 90 -34c16 0 31 2 46 7s28 12 40 20s22 18 30 29s14 23 17 36v321h91v-499h-88v55c-7 -19 -22 -35 -45 -48s-53 -19 -90 -19zM128 654l-3 -3
c0 19 7 35 20 48s29 20 47 20c19 0 35 -6 48 -19s20 -29 20 -48c0 -18 -6 -33 -19 -46s-29 -19 -48 -19c-18 0 -33 7 -46 20s-19 29 -19 47zM322 651l-3 -3c0 19 7 35 20 48s29 20 47 20c19 0 35 -6 48 -19s20 -29 20 -48c0 -18 -6 -33 -19 -46s-29 -19 -48 -19
c-18 0 -33 7 -46 20s-19 29 -19 47z" />
    <glyph glyph-name="yacute" unicode="&#xfd;" horiz-adv-x="547" 
d="M18 499h102l153 -367l152 367h101l-297 -712h-101l96 232zM406 728l-110 -148h-83l65 148h128z" />
    <glyph glyph-name="thorn" unicode="&#xfe;" horiz-adv-x="628" 
d="M580 249l1 -1c0 -39 -7 -74 -21 -106s-33 -59 -56 -82s-50 -41 -81 -54s-63 -19 -97 -19c-38 0 -71 6 -98 19s-45 29 -53 48v-267h-91v941h86v-282c8 19 26 35 54 47s61 18 99 18c35 0 68 -6 99 -19s58 -31 81 -54s42 -51 56 -83s21 -67 21 -106zM490 250v2
c0 50 -15 90 -46 119s-72 44 -123 44c-35 0 -66 -8 -94 -24s-46 -36 -55 -60v-163c9 -24 27 -44 55 -60s59 -24 94 -24c51 0 92 15 123 45s46 70 46 121z" />
    <glyph glyph-name="ydieresis" unicode="&#xff;" horiz-adv-x="547" 
d="M18 499h102l153 -367l152 367h101l-297 -712h-101l96 232zM107 655l-3 -3c0 19 7 35 20 48s29 20 47 20c19 0 35 -6 48 -19s20 -29 20 -48c0 -18 -6 -33 -19 -46s-29 -19 -48 -19c-18 0 -33 7 -46 20s-19 29 -19 47zM301 652l-3 -3c0 19 7 35 20 48s29 20 47 20
c19 0 35 -6 48 -19s20 -29 20 -48c0 -18 -6 -33 -19 -46s-29 -19 -48 -19c-18 0 -33 7 -46 20s-19 29 -19 47z" />
    <glyph glyph-name="Amacron" unicode="&#x100;" horiz-adv-x="678" 
d="M667 0h-100l-65 165h-324l-64 -165h-103l278 718h101zM217 266h246l-124 316zM485 887v-86h-291v86h291z" />
    <glyph glyph-name="amacron" unicode="&#x101;" horiz-adv-x="551" 
d="M383 177l1 -4c-8 14 -24 25 -48 32s-50 11 -77 11c-38 0 -67 -6 -88 -18s-31 -28 -31 -49c0 -20 10 -36 30 -48s50 -18 89 -18c13 0 26 1 39 4s25 7 36 12s21 11 30 18s15 14 19 22v38zM75 420h-1c19 26 45 47 78 63s69 24 109 24c67 0 119 -17 157 -51s57 -82 57 -144
v-315h-88v44c-6 -9 -14 -17 -25 -24s-23 -13 -36 -18s-26 -9 -40 -12s-28 -4 -42 -4c-59 0 -106 14 -142 42s-54 68 -54 119c0 26 5 49 15 69s24 37 42 51s39 25 63 32s50 11 78 11c11 0 23 -1 36 -3s26 -4 38 -7s24 -7 35 -12s20 -11 28 -18v24c0 21 -4 39 -11 54
s-17 27 -29 37s-26 17 -42 22s-33 7 -51 7c-32 0 -61 -6 -87 -19s-47 -30 -62 -51zM418 697v-86h-291v86h291z" />
    <glyph glyph-name="Abreve" unicode="&#x102;" horiz-adv-x="678" 
d="M667 0h-100l-65 165h-324l-64 -165h-103l278 718h101zM217 266h246l-124 316zM484 914l-2 -2c-1 -19 -5 -37 -13 -54s-18 -32 -31 -44s-28 -22 -45 -29s-35 -10 -55 -10s-38 4 -55 11s-32 17 -45 29s-23 27 -31 44s-12 35 -13 54h85c2 -13 9 -24 20 -33s24 -13 39 -13
s29 5 41 14s19 20 21 33h84z" />
    <glyph glyph-name="abreve" unicode="&#x103;" horiz-adv-x="551" 
d="M383 177l1 -4c-8 14 -24 25 -48 32s-50 11 -77 11c-38 0 -67 -6 -88 -18s-31 -28 -31 -49c0 -20 10 -36 30 -48s50 -18 89 -18c13 0 26 1 39 4s25 7 36 12s21 11 30 18s15 14 19 22v38zM75 420h-1c19 26 45 47 78 63s69 24 109 24c67 0 119 -17 157 -51s57 -82 57 -144
v-315h-88v44c-6 -9 -14 -17 -25 -24s-23 -13 -36 -18s-26 -9 -40 -12s-28 -4 -42 -4c-59 0 -106 14 -142 42s-54 68 -54 119c0 26 5 49 15 69s24 37 42 51s39 25 63 32s50 11 78 11c11 0 23 -1 36 -3s26 -4 38 -7s24 -7 35 -12s20 -11 28 -18v24c0 21 -4 39 -11 54
s-17 27 -29 37s-26 17 -42 22s-33 7 -51 7c-32 0 -61 -6 -87 -19s-47 -30 -62 -51zM417 718l-2 -2c-1 -19 -5 -37 -13 -54s-18 -32 -31 -44s-28 -22 -45 -29s-35 -10 -55 -10s-38 4 -55 11s-32 17 -45 29s-23 27 -31 44s-12 35 -13 54h85c2 -13 9 -24 20 -33s24 -13 39 -13
s29 5 41 14s19 20 21 33h84z" />
    <glyph glyph-name="Aogonek" unicode="&#x104;" horiz-adv-x="678" 
d="M567 0l-64 163h-324l-64 -165h-103l278 718h101l277 -718c-7 -10 -14 -21 -20 -33s-9 -25 -9 -39c0 -17 5 -30 15 -39s23 -14 38 -14c4 0 8 1 12 2s8 3 11 5l12 -73c-5 -6 -13 -12 -24 -18s-25 -9 -42 -9c-37 0 -65 10 -85 31s-30 46 -30 75c0 13 2 26 7 38s11 23 17 33
s13 19 20 26s13 13 18 17h-41zM218 264h246l-124 316z" />
    <glyph glyph-name="aogonek" unicode="&#x105;" horiz-adv-x="551" 
d="M386 0v42c-6 -9 -14 -17 -25 -24s-23 -13 -36 -18s-26 -9 -40 -12s-28 -4 -42 -4c-59 0 -106 14 -142 42s-54 68 -54 119c0 26 5 49 15 69s24 37 42 51s39 25 63 32s50 11 78 11c11 0 23 -1 36 -3s26 -4 38 -7s24 -7 35 -12s20 -11 28 -18v24c0 21 -4 39 -11 54
s-17 27 -29 37s-26 17 -42 22s-33 7 -51 7c-32 0 -61 -6 -87 -19s-47 -30 -62 -51l-26 79c19 26 45 47 78 63s69 24 109 24c67 0 119 -17 157 -51s57 -82 57 -144v-315c-7 -10 -14 -21 -20 -33s-9 -25 -9 -39c0 -17 5 -30 15 -39s23 -14 38 -14c4 0 8 1 12 2s8 3 11 5
l12 -73c-5 -6 -13 -12 -24 -18s-25 -9 -42 -9c-37 0 -65 10 -85 31s-30 46 -30 75c0 13 2 26 7 38s11 23 17 33s13 19 20 26s13 13 18 17h-29zM383 175l1 -4c-8 14 -24 25 -48 32s-50 11 -77 11c-38 0 -67 -6 -88 -18s-31 -28 -31 -49c0 -20 10 -36 30 -48s50 -18 89 -18
c13 0 26 1 39 4s25 7 36 12s21 11 30 18s15 14 19 22v38z" />
    <glyph glyph-name="Cacute" unicode="&#x106;" horiz-adv-x="700" 
d="M665 124l-2 -9c-11 -19 -25 -37 -42 -54s-37 -31 -61 -43s-50 -21 -79 -28s-60 -10 -93 -10c-47 0 -92 9 -134 27s-79 43 -111 76s-57 72 -76 117s-28 96 -28 152s9 107 28 153s44 85 76 117s69 57 111 75s87 27 135 27c33 0 64 -4 92 -11s54 -17 77 -29s43 -26 60 -42
s30 -33 39 -50l-29 -84c-22 33 -53 61 -94 83s-87 33 -139 33c-39 0 -74 -6 -106 -18s-59 -30 -82 -53s-41 -51 -54 -84s-19 -71 -19 -113s6 -79 19 -112s31 -61 54 -84s51 -41 83 -53s67 -18 106 -18c57 0 106 12 146 35s72 51 95 84zM534 901l-110 -138h-87l65 138h132z
" />
    <glyph glyph-name="cacute" unicode="&#x107;" horiz-adv-x="540" 
d="M492 75l-4 -6c-5 -11 -13 -22 -24 -32s-24 -19 -40 -27s-34 -14 -54 -19s-42 -7 -65 -7c-34 0 -67 6 -98 19s-58 31 -82 54s-43 51 -57 83s-21 68 -21 107s7 75 21 107s33 60 57 83s52 41 83 54s64 19 98 19c23 0 44 -2 64 -7s38 -11 54 -19s29 -17 40 -27s19 -20 24 -31
l-24 -72c-14 16 -34 30 -59 42s-52 18 -81 18c-56 0 -101 -15 -135 -45s-51 -70 -51 -120c0 -25 5 -47 14 -67s22 -37 38 -51s35 -25 58 -33s48 -12 76 -12c31 0 59 6 84 18s45 26 59 42zM436 722l-110 -148h-83l65 148h128z" />
    <glyph glyph-name="Ccircumflex" unicode="&#x108;" horiz-adv-x="700" 
d="M665 124l-2 -9c-11 -19 -25 -37 -42 -54s-37 -31 -61 -43s-50 -21 -79 -28s-60 -10 -93 -10c-47 0 -92 9 -134 27s-79 43 -111 76s-57 72 -76 117s-28 96 -28 152s9 107 28 153s44 85 76 117s69 57 111 75s87 27 135 27c33 0 64 -4 92 -11s54 -17 77 -29s43 -26 60 -42
s30 -33 39 -50l-29 -84c-22 33 -53 61 -94 83s-87 33 -139 33c-39 0 -74 -6 -106 -18s-59 -30 -82 -53s-41 -51 -54 -84s-19 -71 -19 -113s6 -79 19 -112s31 -61 54 -84s51 -41 83 -53s67 -18 106 -18c57 0 106 12 146 35s72 51 95 84zM450 901l75 -138h-77l-59 63l-59 -63
h-77l75 138h122z" />
    <glyph glyph-name="ccircumflex" unicode="&#x109;" horiz-adv-x="540" 
d="M492 75l-4 -6c-5 -11 -13 -22 -24 -32s-24 -19 -40 -27s-34 -14 -54 -19s-42 -7 -65 -7c-34 0 -67 6 -98 19s-58 31 -82 54s-43 51 -57 83s-21 68 -21 107s7 75 21 107s33 60 57 83s52 41 83 54s64 19 98 19c23 0 44 -2 64 -7s38 -11 54 -19s29 -17 40 -27s19 -20 24 -31
l-24 -72c-14 16 -34 30 -59 42s-52 18 -81 18c-56 0 -101 -15 -135 -45s-51 -70 -51 -120c0 -25 5 -47 14 -67s22 -37 38 -51s35 -25 58 -33s48 -12 76 -12c31 0 59 6 84 18s45 26 59 42zM356 722l75 -148h-80l-59 73l-59 -73h-80l75 148h128z" />
    <glyph glyph-name="Cdotaccent" unicode="&#x10a;" horiz-adv-x="700" 
d="M665 124l-2 -9c-11 -19 -25 -37 -42 -54s-37 -31 -61 -43s-50 -21 -79 -28s-60 -10 -93 -10c-47 0 -92 9 -134 27s-79 43 -111 76s-57 72 -76 117s-28 96 -28 152s9 107 28 153s44 85 76 117s69 57 111 75s87 27 135 27c33 0 64 -4 92 -11s54 -17 77 -29s43 -26 60 -42
s30 -33 39 -50l-29 -84c-22 33 -53 61 -94 83s-87 33 -139 33c-39 0 -74 -6 -106 -18s-59 -30 -82 -53s-41 -51 -54 -84s-19 -71 -19 -113s6 -79 19 -112s31 -61 54 -84s51 -41 83 -53s67 -18 106 -18c57 0 106 12 146 35s72 51 95 84zM316 837l-3 -3c0 19 7 35 20 48
s29 20 47 20c19 0 35 -6 48 -19s20 -29 20 -48c0 -18 -6 -33 -19 -46s-29 -19 -48 -19c-18 0 -33 7 -46 20s-19 29 -19 47z" />
    <glyph glyph-name="cdotaccent" unicode="&#x10b;" horiz-adv-x="540" 
d="M492 75l-4 -6c-5 -11 -13 -22 -24 -32s-24 -19 -40 -27s-34 -14 -54 -19s-42 -7 -65 -7c-34 0 -67 6 -98 19s-58 31 -82 54s-43 51 -57 83s-21 68 -21 107s7 75 21 107s33 60 57 83s52 41 83 54s64 19 98 19c23 0 44 -2 64 -7s38 -11 54 -19s29 -17 40 -27s19 -20 24 -31
l-24 -72c-14 16 -34 30 -59 42s-52 18 -81 18c-56 0 -101 -15 -135 -45s-51 -70 -51 -120c0 -25 5 -47 14 -67s22 -37 38 -51s35 -25 58 -33s48 -12 76 -12c31 0 59 6 84 18s45 26 59 42zM226 649l-3 -3c0 19 7 35 20 48s29 20 47 20c19 0 35 -6 48 -19s20 -29 20 -48
c0 -18 -6 -33 -19 -46s-29 -19 -48 -19c-18 0 -33 7 -46 20s-19 29 -19 47z" />
    <glyph glyph-name="Ccaron" unicode="&#x10c;" horiz-adv-x="700" 
d="M665 124l-2 -9c-11 -19 -25 -37 -42 -54s-37 -31 -61 -43s-50 -21 -79 -28s-60 -10 -93 -10c-47 0 -92 9 -134 27s-79 43 -111 76s-57 72 -76 117s-28 96 -28 152s9 107 28 153s44 85 76 117s69 57 111 75s87 27 135 27c33 0 64 -4 92 -11s54 -17 77 -29s43 -26 60 -42
s30 -33 39 -50l-29 -84c-22 33 -53 61 -94 83s-87 33 -139 33c-39 0 -74 -6 -106 -18s-59 -30 -82 -53s-41 -51 -54 -84s-19 -71 -19 -113s6 -79 19 -112s31 -61 54 -84s51 -41 83 -53s67 -18 106 -18c57 0 106 12 146 35s72 51 95 84zM328 763l-75 138h77l59 -63l59 63h77
l-75 -138h-122z" />
    <glyph glyph-name="ccaron" unicode="&#x10d;" horiz-adv-x="540" 
d="M492 75l-4 -6c-5 -11 -13 -22 -24 -32s-24 -19 -40 -27s-34 -14 -54 -19s-42 -7 -65 -7c-34 0 -67 6 -98 19s-58 31 -82 54s-43 51 -57 83s-21 68 -21 107s7 75 21 107s33 60 57 83s52 41 83 54s64 19 98 19c23 0 44 -2 64 -7s38 -11 54 -19s29 -17 40 -27s19 -20 24 -31
l-24 -72c-14 16 -34 30 -59 42s-52 18 -81 18c-56 0 -101 -15 -135 -45s-51 -70 -51 -120c0 -25 5 -47 14 -67s22 -37 38 -51s35 -25 58 -33s48 -12 76 -12c31 0 59 6 84 18s45 26 59 42zM228 574l-75 148h80l59 -73l59 73h80l-75 -148h-128z" />
    <glyph glyph-name="Dcaron" unicode="&#x10e;" horiz-adv-x="737" 
d="M602 359l-3 1c0 36 -6 70 -19 101s-30 58 -52 81s-49 41 -80 54s-65 20 -102 20h-163v-516h163c36 0 70 6 101 18s58 30 81 53s41 50 54 82s20 67 20 106zM309 719v-3c56 0 108 -8 155 -24s88 -39 122 -69s61 -67 80 -112s29 -96 29 -153s-10 -107 -29 -151
s-46 -81 -81 -112s-76 -54 -123 -70s-98 -24 -153 -24h-222v718h222zM281 770l-75 138h77l59 -63l59 63h77l-75 -138h-122z" />
    <glyph glyph-name="dcaron" unicode="&#x10f;" horiz-adv-x="747" 
d="M48 250l1 -2c0 39 7 74 21 106s33 60 56 83s50 41 81 54s64 19 98 19c38 0 71 -6 98 -19s45 -29 53 -48v283h91v-728h-87v53c-8 -19 -26 -34 -54 -46s-61 -18 -99 -18c-35 0 -68 6 -99 19s-58 31 -82 54s-43 51 -57 83s-21 68 -21 107zM140 246v-2c0 -50 15 -90 46 -119
s72 -44 123 -44c35 0 66 8 94 24s46 36 55 60v163c-9 24 -27 44 -55 60s-59 24 -94 24c-51 0 -92 -15 -123 -45s-46 -70 -46 -121zM678 602l-3 -2c-11 5 -20 12 -28 21s-12 22 -12 39c0 19 6 34 19 46s28 18 46 18c19 0 35 -6 48 -18s19 -28 19 -47c0 -15 -3 -29 -9 -41
s-13 -24 -20 -36l-45 -76h-61z" />
    <glyph glyph-name="Dcroat" unicode="&#x110;" horiz-adv-x="746" 
d="M9 420l90 -3v298h222c56 0 108 -8 155 -24s88 -39 122 -69s61 -67 80 -112s29 -96 29 -153s-10 -107 -29 -151s-46 -81 -81 -112s-76 -54 -123 -70s-98 -24 -153 -24h-222v319h-90v101zM611 356l-3 1c0 36 -6 70 -19 101s-30 58 -52 81s-49 41 -80 54s-65 20 -102 20
h-163v-197h179v-101h-179v-218h163c36 0 70 6 101 18s58 30 81 53s41 50 54 82s20 67 20 106z" />
    <glyph glyph-name="dcroat" unicode="&#x111;" horiz-adv-x="632" 
d="M48 248l-2 -3c0 39 7 74 21 106s33 59 56 82s50 41 81 54s64 19 98 19c38 0 71 -6 98 -19s45 -29 53 -48v127h-147v92h147v68h91v-68h80v-92h-80v-568h-86v53c-8 -19 -26 -34 -54 -46s-61 -18 -99 -18c-35 0 -68 6 -99 19s-58 31 -81 54s-42 50 -56 82s-21 67 -21 106z
M137 243v-2c0 -50 15 -89 46 -118s72 -43 123 -43c35 0 66 8 94 24s46 36 55 60v159c-9 24 -27 44 -55 60s-59 24 -94 24c-51 0 -92 -15 -123 -44s-46 -69 -46 -120z" />
    <glyph glyph-name="Emacron" unicode="&#x112;" horiz-adv-x="533" 
d="M90 718h383v-101h-289v-197h259v-101h-259v-218h289v-101h-383v718zM429 887v-86h-291v86h291z" />
    <glyph glyph-name="emacron" unicode="&#x113;" horiz-adv-x="574" 
d="M312 85l-3 5c16 0 32 2 47 6s30 9 44 15s26 13 37 21s20 16 27 24l24 -71c-5 -11 -13 -22 -24 -33s-24 -21 -40 -30s-34 -16 -54 -21s-42 -8 -65 -8c-37 0 -71 6 -103 18s-59 29 -82 51s-41 49 -54 81s-19 68 -19 108c0 35 6 68 17 100s27 60 48 84s47 43 77 57
s64 21 102 21c36 0 68 -7 97 -21s54 -33 74 -57s36 -52 47 -84s16 -65 16 -100c0 -11 -1 -22 -3 -34h-382c5 -44 23 -77 54 -99s70 -33 118 -33zM426 313l-2 -3c-1 15 -5 29 -12 42s-17 24 -29 34s-26 18 -42 23s-33 8 -51 8s-35 -3 -52 -8s-32 -12 -45 -21s-24 -20 -33 -33
s-14 -27 -16 -42h282zM429 703v-86h-291v86h291z" />
    <glyph glyph-name="Ebreve" unicode="&#x114;" horiz-adv-x="533" 
d="M90 718h383v-101h-289v-197h259v-101h-259v-218h289v-101h-383v718zM428 914l-2 -2c-1 -19 -5 -37 -13 -54s-18 -32 -31 -44s-28 -22 -45 -29s-35 -10 -55 -10s-38 4 -55 11s-32 17 -45 29s-23 27 -31 44s-12 35 -13 54h85c2 -13 9 -24 20 -33s24 -13 39 -13s29 5 41 14
s19 20 21 33h84z" />
    <glyph glyph-name="ebreve" unicode="&#x115;" horiz-adv-x="574" 
d="M312 85l-3 5c16 0 32 2 47 6s30 9 44 15s26 13 37 21s20 16 27 24l24 -71c-5 -11 -13 -22 -24 -33s-24 -21 -40 -30s-34 -16 -54 -21s-42 -8 -65 -8c-37 0 -71 6 -103 18s-59 29 -82 51s-41 49 -54 81s-19 68 -19 108c0 35 6 68 17 100s27 60 48 84s47 43 77 57
s64 21 102 21c36 0 68 -7 97 -21s54 -33 74 -57s36 -52 47 -84s16 -65 16 -100c0 -11 -1 -22 -3 -34h-382c5 -44 23 -77 54 -99s70 -33 118 -33zM426 313l-2 -3c-1 15 -5 29 -12 42s-17 24 -29 34s-26 18 -42 23s-33 8 -51 8s-35 -3 -52 -8s-32 -12 -45 -21s-24 -20 -33 -33
s-14 -27 -16 -42h282zM428 724l-2 -2c-1 -19 -5 -37 -13 -54s-18 -32 -31 -44s-28 -22 -45 -29s-35 -10 -55 -10s-38 4 -55 11s-32 17 -45 29s-23 27 -31 44s-12 35 -13 54h85c2 -13 9 -24 20 -33s24 -13 39 -13s29 5 41 14s19 20 21 33h84z" />
    <glyph glyph-name="Edotaccent" unicode="&#x116;" horiz-adv-x="533" 
d="M90 718h383v-101h-289v-197h259v-101h-259v-218h289v-101h-383v718zM216 846l-3 -3c0 19 7 35 20 48s29 20 47 20c19 0 35 -6 48 -19s20 -29 20 -48c0 -18 -6 -33 -19 -46s-29 -19 -48 -19c-18 0 -33 7 -46 20s-19 29 -19 47z" />
    <glyph glyph-name="edotaccent" unicode="&#x117;" horiz-adv-x="574" 
d="M312 85l-3 5c16 0 32 2 47 6s30 9 44 15s26 13 37 21s20 16 27 24l24 -71c-5 -11 -13 -22 -24 -33s-24 -21 -40 -30s-34 -16 -54 -21s-42 -8 -65 -8c-37 0 -71 6 -103 18s-59 29 -82 51s-41 49 -54 81s-19 68 -19 108c0 35 6 68 17 100s27 60 48 84s47 43 77 57
s64 21 102 21c36 0 68 -7 97 -21s54 -33 74 -57s36 -52 47 -84s16 -65 16 -100c0 -11 -1 -22 -3 -34h-382c5 -44 23 -77 54 -99s70 -33 118 -33zM426 313l-2 -3c-1 15 -5 29 -12 42s-17 24 -29 34s-26 18 -42 23s-33 8 -51 8s-35 -3 -52 -8s-32 -12 -45 -21s-24 -20 -33 -33
s-14 -27 -16 -42h282zM217 657l-3 -3c0 19 7 35 20 48s29 20 47 20c19 0 35 -6 48 -19s20 -29 20 -48c0 -18 -6 -33 -19 -46s-29 -19 -48 -19c-18 0 -33 7 -46 20s-19 29 -19 47z" />
    <glyph glyph-name="Eogonek" unicode="&#x118;" horiz-adv-x="533" 
d="M90 718l384 -2v-101h-289v-197h259v-101h-259v-218h289v-101c-7 -10 -14 -21 -20 -33s-9 -25 -9 -39c0 -17 5 -30 15 -39s23 -14 38 -14c4 0 8 1 12 2s8 3 11 5l12 -73c-5 -6 -13 -12 -24 -18s-25 -9 -42 -9c-37 0 -65 10 -85 31s-30 46 -30 75c0 13 2 26 7 38
s11 23 17 33s13 19 20 26s13 13 18 17h-324v718z" />
    <glyph glyph-name="eogonek" unicode="&#x119;" horiz-adv-x="574" 
d="M312 85v3c16 0 32 2 47 6s30 9 44 15s26 13 37 21s20 16 27 24l24 -71c-4 -7 -9 -14 -15 -21s-11 -14 -16 -22s-9 -16 -12 -25s-5 -19 -5 -30c0 -16 5 -29 15 -39s23 -15 38 -15c4 0 8 1 12 2s8 3 11 5l12 -73c-5 -6 -13 -12 -24 -18s-25 -9 -42 -9c-37 0 -65 10 -85 31
s-30 46 -30 75c0 10 1 20 4 29s6 18 10 27c-9 -2 -18 -4 -28 -5s-20 -2 -31 -2c-37 0 -71 6 -103 18s-59 29 -82 51s-41 49 -54 81s-19 68 -19 108c0 35 6 68 17 100s27 60 48 84s47 43 77 57s64 21 102 21c36 0 68 -7 97 -21s54 -33 74 -57s36 -52 47 -84s16 -65 16 -100
c0 -11 -1 -22 -3 -34h-382c5 -44 23 -77 54 -99s70 -33 118 -33zM429 311l-2 -3c-1 15 -5 29 -12 42s-17 24 -29 34s-26 18 -42 23s-33 8 -51 8s-35 -3 -52 -8s-32 -12 -45 -21s-24 -20 -33 -33s-14 -27 -16 -42h282z" />
    <glyph glyph-name="Ecaron" unicode="&#x11a;" horiz-adv-x="533" 
d="M90 718h383v-101h-289v-197h259v-101h-259v-218h289v-101h-383v718zM222 772l-75 138h77l59 -63l59 63h77l-75 -138h-122z" />
    <glyph glyph-name="ecaron" unicode="&#x11b;" horiz-adv-x="574" 
d="M312 85l-3 5c16 0 32 2 47 6s30 9 44 15s26 13 37 21s20 16 27 24l24 -71c-5 -11 -13 -22 -24 -33s-24 -21 -40 -30s-34 -16 -54 -21s-42 -8 -65 -8c-37 0 -71 6 -103 18s-59 29 -82 51s-41 49 -54 81s-19 68 -19 108c0 35 6 68 17 100s27 60 48 84s47 43 77 57
s64 21 102 21c36 0 68 -7 97 -21s54 -33 74 -57s36 -52 47 -84s16 -65 16 -100c0 -11 -1 -22 -3 -34h-382c5 -44 23 -77 54 -99s70 -33 118 -33zM426 313l-2 -3c-1 15 -5 29 -12 42s-17 24 -29 34s-26 18 -42 23s-33 8 -51 8s-35 -3 -52 -8s-32 -12 -45 -21s-24 -20 -33 -33
s-14 -27 -16 -42h282zM219 582l-75 148h80l59 -73l59 73h80l-75 -148h-128z" />
    <glyph glyph-name="Gcircumflex" unicode="&#x11c;" horiz-adv-x="734" 
d="M390 730l3 -2c32 0 62 -4 90 -12s54 -18 77 -31s43 -27 60 -43s30 -33 39 -50l-29 -85c-11 16 -25 31 -41 46s-34 28 -54 39s-42 20 -66 26s-49 9 -75 9c-39 0 -74 -6 -106 -19s-59 -31 -82 -54s-40 -51 -52 -84s-18 -70 -18 -111c0 -43 7 -81 20 -114s31 -61 54 -84
s51 -41 83 -53s68 -18 107 -18c36 0 69 6 99 17s57 27 80 48v112h-185v101h279v-242c-12 -20 -28 -38 -48 -55s-42 -32 -67 -45s-51 -23 -79 -30s-57 -10 -87 -10c-47 0 -92 9 -135 27s-80 43 -112 75s-57 71 -76 116s-28 96 -28 152s9 107 28 153s44 85 76 118
s69 58 111 76s87 27 134 27zM455 908l75 -138h-77l-59 63l-59 -63h-77l75 138h122z" />
    <glyph glyph-name="gcircumflex" unicode="&#x11d;" horiz-adv-x="618" 
d="M537 499l-6 -508c0 -33 -6 -63 -17 -90s-27 -50 -47 -69s-45 -34 -74 -44s-61 -15 -96 -15c-46 0 -88 9 -126 27s-67 42 -87 73l26 82c19 -26 44 -46 75 -61s64 -22 98 -22c17 0 35 2 54 6s36 11 51 21s28 25 38 44s15 44 15 74v47c-9 -17 -26 -32 -52 -45
s-58 -19 -96 -19c-35 0 -68 6 -99 18s-58 30 -81 53s-42 50 -56 81s-21 66 -21 104s7 73 21 104s33 58 57 80s51 40 82 53s64 19 99 19c38 0 71 -6 99 -19s46 -28 55 -45v51h88zM440 332v3c-9 23 -27 42 -55 57s-59 23 -94 23c-25 0 -48 -4 -69 -12s-39 -19 -54 -33
s-26 -31 -34 -50s-12 -41 -12 -65s4 -46 12 -65s19 -35 34 -49s33 -25 54 -33s44 -12 69 -12c35 0 66 8 94 23s46 34 55 57v156zM366 730l75 -148h-80l-59 73l-59 -73h-80l75 148h128z" />
    <glyph glyph-name="Gbreve" unicode="&#x11e;" horiz-adv-x="734" 
d="M390 730l3 -2c32 0 62 -4 90 -12s54 -18 77 -31s43 -27 60 -43s30 -33 39 -50l-29 -85c-11 16 -25 31 -41 46s-34 28 -54 39s-42 20 -66 26s-49 9 -75 9c-39 0 -74 -6 -106 -19s-59 -31 -82 -54s-40 -51 -52 -84s-18 -70 -18 -111c0 -43 7 -81 20 -114s31 -61 54 -84
s51 -41 83 -53s68 -18 107 -18c36 0 69 6 99 17s57 27 80 48v112h-185v101h279v-242c-12 -20 -28 -38 -48 -55s-42 -32 -67 -45s-51 -23 -79 -30s-57 -10 -87 -10c-47 0 -92 9 -135 27s-80 43 -112 75s-57 71 -76 116s-28 96 -28 152s9 107 28 153s44 85 76 118
s69 58 111 76s87 27 134 27zM539 912l-2 -2c-1 -19 -5 -37 -13 -54s-18 -32 -31 -44s-28 -22 -45 -29s-35 -10 -55 -10s-38 4 -55 11s-32 17 -45 29s-23 27 -31 44s-12 35 -13 54h85c2 -13 9 -24 20 -33s24 -13 39 -13s29 5 41 14s19 20 21 33h84z" />
    <glyph glyph-name="gbreve" unicode="&#x11f;" horiz-adv-x="618" 
d="M537 499l-6 -508c0 -33 -6 -63 -17 -90s-27 -50 -47 -69s-45 -34 -74 -44s-61 -15 -96 -15c-46 0 -88 9 -126 27s-67 42 -87 73l26 82c19 -26 44 -46 75 -61s64 -22 98 -22c17 0 35 2 54 6s36 11 51 21s28 25 38 44s15 44 15 74v47c-9 -17 -26 -32 -52 -45
s-58 -19 -96 -19c-35 0 -68 6 -99 18s-58 30 -81 53s-42 50 -56 81s-21 66 -21 104s7 73 21 104s33 58 57 80s51 40 82 53s64 19 99 19c38 0 71 -6 99 -19s46 -28 55 -45v51h88zM440 332v3c-9 23 -27 42 -55 57s-59 23 -94 23c-25 0 -48 -4 -69 -12s-39 -19 -54 -33
s-26 -31 -34 -50s-12 -41 -12 -65s4 -46 12 -65s19 -35 34 -49s33 -25 54 -33s44 -12 69 -12c35 0 66 8 94 23s46 34 55 57v156zM446 724l-2 -2c-1 -19 -5 -37 -13 -54s-18 -32 -31 -44s-28 -22 -45 -29s-35 -10 -55 -10s-38 4 -55 11s-32 17 -45 29s-23 27 -31 44
s-12 35 -13 54h85c2 -13 9 -24 20 -33s24 -13 39 -13s29 5 41 14s19 20 21 33h84z" />
    <glyph glyph-name="Gdotaccent" unicode="&#x120;" horiz-adv-x="734" 
d="M390 730l3 -2c32 0 62 -4 90 -12s54 -18 77 -31s43 -27 60 -43s30 -33 39 -50l-29 -85c-11 16 -25 31 -41 46s-34 28 -54 39s-42 20 -66 26s-49 9 -75 9c-39 0 -74 -6 -106 -19s-59 -31 -82 -54s-40 -51 -52 -84s-18 -70 -18 -111c0 -43 7 -81 20 -114s31 -61 54 -84
s51 -41 83 -53s68 -18 107 -18c36 0 69 6 99 17s57 27 80 48v112h-185v101h279v-242c-12 -20 -28 -38 -48 -55s-42 -32 -67 -45s-51 -23 -79 -30s-57 -10 -87 -10c-47 0 -92 9 -135 27s-80 43 -112 75s-57 71 -76 116s-28 96 -28 152s9 107 28 153s44 85 76 118
s69 58 111 76s87 27 134 27zM321 844l-3 -3c0 19 7 35 20 48s29 20 47 20c19 0 35 -6 48 -19s20 -29 20 -48c0 -18 -6 -33 -19 -46s-29 -19 -48 -19c-18 0 -33 7 -46 20s-19 29 -19 47z" />
    <glyph glyph-name="gdotaccent" unicode="&#x121;" horiz-adv-x="618" 
d="M537 499l-6 -508c0 -33 -6 -63 -17 -90s-27 -50 -47 -69s-45 -34 -74 -44s-61 -15 -96 -15c-46 0 -88 9 -126 27s-67 42 -87 73l26 82c19 -26 44 -46 75 -61s64 -22 98 -22c17 0 35 2 54 6s36 11 51 21s28 25 38 44s15 44 15 74v47c-9 -17 -26 -32 -52 -45
s-58 -19 -96 -19c-35 0 -68 6 -99 18s-58 30 -81 53s-42 50 -56 81s-21 66 -21 104s7 73 21 104s33 58 57 80s51 40 82 53s64 19 99 19c38 0 71 -6 99 -19s46 -28 55 -45v51h88zM440 332v3c-9 23 -27 42 -55 57s-59 23 -94 23c-25 0 -48 -4 -69 -12s-39 -19 -54 -33
s-26 -31 -34 -50s-12 -41 -12 -65s4 -46 12 -65s19 -35 34 -49s33 -25 54 -33s44 -12 69 -12c35 0 66 8 94 23s46 34 55 57v156zM236 657l-3 -3c0 19 7 35 20 48s29 20 47 20c19 0 35 -6 48 -19s20 -29 20 -48c0 -18 -6 -33 -19 -46s-29 -19 -48 -19c-18 0 -33 7 -46 20
s-19 29 -19 47z" />
    <glyph glyph-name="uni0122" unicode="&#x122;" horiz-adv-x="734" 
d="M390 730l3 -2c32 0 62 -4 90 -12s54 -18 77 -31s43 -27 60 -43s30 -33 39 -50l-29 -85c-11 16 -25 31 -41 46s-34 28 -54 39s-42 20 -66 26s-49 9 -75 9c-39 0 -74 -6 -106 -19s-59 -31 -82 -54s-40 -51 -52 -84s-18 -70 -18 -111c0 -43 7 -81 20 -114s31 -61 54 -84
s51 -41 83 -53s68 -18 107 -18c36 0 69 6 99 17s57 27 80 48v112h-185v101h279v-242c-12 -20 -28 -38 -48 -55s-42 -32 -67 -45s-51 -23 -79 -30s-57 -10 -87 -10c-47 0 -92 9 -135 27s-80 43 -112 75s-57 71 -76 116s-28 96 -28 152s9 107 28 153s44 85 76 118
s69 58 111 76s87 27 134 27zM374 -189l-3 -2c-11 5 -20 12 -28 21s-12 22 -12 39c0 19 6 34 19 46s28 18 46 18c19 0 35 -6 48 -18s19 -28 19 -47c0 -15 -3 -29 -9 -41s-13 -24 -20 -36l-45 -76h-61z" />
    <glyph glyph-name="uni0123" unicode="&#x123;" horiz-adv-x="618" 
d="M537 499l-6 -508c0 -33 -6 -63 -17 -90s-27 -50 -47 -69s-45 -34 -74 -44s-61 -15 -96 -15c-46 0 -88 9 -126 27s-67 42 -87 73l26 82c19 -26 44 -46 75 -61s64 -22 98 -22c17 0 35 2 54 6s36 11 51 21s28 25 38 44s15 44 15 74v47c-9 -17 -26 -32 -52 -45
s-58 -19 -96 -19c-35 0 -68 6 -99 18s-58 30 -81 53s-42 50 -56 81s-21 66 -21 104s7 73 21 104s33 58 57 80s51 40 82 53s64 19 99 19c38 0 71 -6 99 -19s46 -28 55 -45v51h88zM440 332v3c-9 23 -27 42 -55 57s-59 23 -94 23c-25 0 -48 -4 -69 -12s-39 -19 -54 -33
s-26 -31 -34 -50s-12 -41 -12 -65s4 -46 12 -65s19 -35 34 -49s33 -25 54 -33s44 -12 69 -12c35 0 66 8 94 23s46 34 55 57v156zM317 715l3 2c11 -5 20 -12 28 -21s12 -22 12 -39c0 -19 -6 -34 -19 -46s-28 -18 -46 -18c-19 0 -35 6 -48 18s-19 28 -19 47c0 15 3 29 9 41
s13 24 20 36l45 76h61z" />
    <glyph glyph-name="Hcircumflex" unicode="&#x124;" horiz-adv-x="757" 
d="M90 718h94v-298h389v298h94v-718h-94v319h-389v-319h-94v718zM439 910l75 -138h-77l-59 63l-59 -63h-77l75 138h122z" />
    <glyph glyph-name="hcircumflex" unicode="&#x125;" horiz-adv-x="588" 
d="M297 511l-3 -4c27 0 53 -4 79 -13s49 -23 70 -41s38 -42 51 -71s19 -63 19 -103v-282h-91v280c0 21 -3 40 -10 57s-16 31 -27 42s-24 20 -39 26s-32 9 -50 9c-16 0 -31 -2 -46 -7s-28 -11 -40 -19s-22 -18 -30 -29s-13 -23 -16 -36v-321h-91v728h91v-284
c7 19 22 35 45 48s52 20 88 20zM360 916l75 -148h-80l-59 73l-59 -73h-80l75 148h128z" />
    <glyph glyph-name="Hbar" unicode="&#x126;" horiz-adv-x="786" 
d="M15 618h90v100h94v-100h389v100h94v-100h89v-92h-89v-526h-94v319h-389v-319h-94v526h-90v92zM588 420v106h-389v-106h389z" />
    <glyph glyph-name="hbar" unicode="&#x127;" horiz-adv-x="602" 
d="M437 0l-3 256c0 21 -3 40 -10 57s-16 31 -27 42s-24 20 -39 26s-32 9 -50 9c-16 0 -31 -2 -46 -7s-28 -11 -40 -19s-22 -18 -30 -29s-13 -23 -16 -36v-301h-91v565h-80v92h80v71h91v-71h147v-92h-147v-141c7 19 22 35 45 48s52 20 88 20c27 0 53 -4 79 -13s49 -23 70 -41
s38 -42 51 -71s19 -63 19 -103v-262h-91z" />
    <glyph glyph-name="Itilde" unicode="&#x128;" horiz-adv-x="274" 
d="M90 718h94v-718h-94v718zM-15 778l-3 -6c-7 19 -10 35 -10 48c0 27 9 48 26 64s38 24 63 24c17 0 33 -3 48 -10s29 -14 43 -22c9 -5 18 -10 26 -14s16 -6 23 -6c9 0 17 3 23 9s9 14 9 25v10c0 3 -1 7 -2 11h59c7 -16 10 -32 10 -49c0 -27 -8 -48 -24 -63s-37 -23 -62 -23
c-15 0 -30 3 -45 10s-28 14 -39 21c-13 7 -24 13 -32 17s-16 6 -23 6c-10 0 -18 -3 -24 -9s-9 -14 -9 -25v-9s1 -6 2 -9h-59z" />
    <glyph glyph-name="itilde" unicode="&#x129;" horiz-adv-x="254" 
d="M82 499h91v-499h-91v499zM-25 586l-3 -6c-7 19 -10 35 -10 48c0 27 9 48 26 64s38 24 63 24c17 0 33 -3 48 -10s29 -14 43 -22c9 -5 18 -10 26 -14s16 -6 23 -6c9 0 17 3 23 9s9 14 9 25v10c0 3 -1 7 -2 11h59c7 -16 10 -32 10 -49c0 -27 -8 -48 -24 -63s-37 -23 -62 -23
c-15 0 -30 3 -45 10s-28 14 -39 21c-13 7 -24 13 -32 17s-16 6 -23 6c-10 0 -18 -3 -24 -9s-9 -14 -9 -25v-9s1 -6 2 -9h-59z" />
    <glyph glyph-name="Imacron" unicode="&#x12a;" horiz-adv-x="274" 
d="M90 718h94v-718h-94v718zM284 887v-86h-291v86h291z" />
    <glyph glyph-name="imacron" unicode="&#x12b;" horiz-adv-x="254" 
d="M82 499h91v-499h-91v499zM274 701v-86h-291v86h291z" />
    <glyph glyph-name="Ibreve" unicode="&#x12c;" horiz-adv-x="274" 
d="M90 718h94v-718h-94v718zM283 914l-2 -2c-1 -19 -5 -37 -13 -54s-18 -32 -31 -44s-28 -22 -45 -29s-35 -10 -55 -10s-38 4 -55 11s-32 17 -45 29s-23 27 -31 44s-12 35 -13 54h85c2 -13 9 -24 20 -33s24 -13 39 -13s29 5 41 14s19 20 21 33h84z" />
    <glyph glyph-name="ibreve" unicode="&#x12d;" horiz-adv-x="254" 
d="M82 499h91v-499h-91v499zM273 722l-2 -2c-1 -19 -5 -37 -13 -54s-18 -32 -31 -44s-28 -22 -45 -29s-35 -10 -55 -10s-38 4 -55 11s-32 17 -45 29s-23 27 -31 44s-12 35 -13 54h85c2 -13 9 -24 20 -33s24 -13 39 -13s29 5 41 14s19 20 21 33h84z" />
    <glyph glyph-name="Iogonek" unicode="&#x12e;" horiz-adv-x="274" 
d="M90 718l95 -2v-718c-7 -10 -14 -21 -20 -33s-9 -25 -9 -39c0 -17 5 -30 15 -39s23 -14 38 -14c4 0 8 1 12 2s8 3 11 5l12 -73c-5 -6 -13 -12 -24 -18s-25 -9 -42 -9c-37 0 -65 10 -85 31s-30 46 -30 75c0 13 2 26 7 38s11 23 17 33s13 19 20 26s13 13 18 17h-35v718z" />
    <glyph glyph-name="iogonek" unicode="&#x12f;" horiz-adv-x="253" 
d="M81 499l92 -2v-499c-7 -10 -14 -21 -20 -33s-9 -25 -9 -39c0 -17 5 -30 15 -39s23 -14 38 -14c4 0 8 1 12 2s8 3 11 5l12 -73c-5 -6 -13 -12 -24 -18s-25 -9 -42 -9c-37 0 -65 10 -85 31s-30 46 -30 75c0 13 2 26 7 38s11 23 17 33s13 19 20 26s13 13 18 17h-32v499z
M61 659l-3 -3c0 19 7 35 20 48s29 20 47 20c19 0 35 -6 48 -19s20 -29 20 -48c0 -18 -6 -33 -19 -46s-29 -19 -48 -19c-18 0 -33 7 -46 20s-19 29 -19 47z" />
    <glyph glyph-name="Idotaccent" unicode="&#x130;" horiz-adv-x="274" 
d="M90 718h94v-718h-94v718zM72 846l-3 -3c0 19 7 35 20 48s29 20 47 20c19 0 35 -6 48 -19s20 -29 20 -48c0 -18 -6 -33 -19 -46s-29 -19 -48 -19c-18 0 -33 7 -46 20s-19 29 -19 47z" />
    <glyph glyph-name="dotlessi" unicode="&#x131;" horiz-adv-x="254" 
d="M82 499h91v-499h-91v499z" />
    <glyph glyph-name="IJ" unicode="&#x132;" horiz-adv-x="546" 
d="M91 718h94v-423h-94v423zM461 198h1c0 -65 -17 -116 -51 -154s-87 -57 -160 -57c-20 0 -38 3 -55 8s-32 11 -46 19s-26 17 -36 26s-18 18 -23 27l11 90c20 -23 43 -40 68 -51s53 -16 83 -16c36 0 64 10 84 29s30 52 30 98v501h94v-520z" />
    <glyph glyph-name="ij" unicode="&#x133;" horiz-adv-x="515" 
d="M82 499h91v-499h-91v499zM61 661l-3 -3c0 19 7 35 20 48s29 20 47 20c19 0 35 -6 48 -19s20 -29 20 -48c0 -18 -6 -33 -19 -46s-29 -19 -48 -19c-18 0 -33 7 -46 20s-19 29 -19 47zM340 496h93v-565c0 -106 -40 -159 -120 -159c-14 0 -29 3 -46 9s-31 15 -43 28l7 81
c7 -6 15 -11 24 -15s18 -6 26 -6c23 0 39 7 47 21s12 35 12 62v544zM321 658l-3 -3c0 19 7 35 20 48s29 20 47 20c19 0 35 -6 48 -19s20 -29 20 -48c0 -18 -6 -33 -19 -46s-29 -19 -48 -19c-18 0 -33 7 -46 20s-19 29 -19 47z" />
    <glyph glyph-name="Jcircumflex" unicode="&#x134;" horiz-adv-x="405" 
d="M320 179v-1c0 -61 -13 -108 -40 -141s-69 -50 -126 -50c-17 0 -33 2 -47 6s-27 10 -39 17s-22 15 -30 23s-14 16 -18 24l11 89c15 -17 32 -31 50 -41s38 -15 60 -15c26 0 47 8 62 24s23 44 23 84v520h94v-539zM334 909l75 -138h-77l-59 63l-59 -63h-77l75 138h122z" />
    <glyph glyph-name="jcircumflex" unicode="&#x135;" horiz-adv-x="260" 
d="M88 499h93v-565c0 -106 -40 -159 -120 -159c-14 0 -29 3 -46 9s-31 15 -43 28l7 81c7 -6 15 -11 24 -15s18 -6 26 -6c23 0 39 7 47 21s12 35 12 62v544zM200 709l75 -148h-80l-59 73l-59 -73h-80l75 148h128z" />
    <glyph glyph-name="uni0136" unicode="&#x136;" horiz-adv-x="640" 
d="M90 718h94v-314l290 314h124l-321 -349l355 -369h-132l-316 325v-325h-94v718zM310 -187l-3 -2c-11 5 -20 12 -28 21s-12 22 -12 39c0 19 6 34 19 46s28 18 46 18c19 0 35 -6 48 -18s19 -28 19 -47c0 -15 -3 -29 -9 -41s-13 -24 -20 -36l-45 -76h-61z" />
    <glyph glyph-name="uni0137" unicode="&#x137;" horiz-adv-x="542" 
d="M82 728h91v-432l218 203h125l-252 -234l275 -265h-131l-235 226v-226h-91v728zM270 -187l-3 -2c-11 5 -20 12 -28 21s-12 22 -12 39c0 19 6 34 19 46s28 18 46 18c19 0 35 -6 48 -18s19 -28 19 -47c0 -15 -3 -29 -9 -41s-13 -24 -20 -36l-45 -76h-61z" />
    <glyph glyph-name="kgreenlandic" unicode="&#x138;" horiz-adv-x="545" 
d="M82 499h91v-210l221 210h124l-252 -241l276 -258h-135l-234 220v-220h-91v499z" />
    <glyph glyph-name="Lacute" unicode="&#x139;" horiz-adv-x="478" 
d="M90 718h94v-617h274v-101h-368v718zM292 910l-110 -138h-87l65 138h132z" />
    <glyph glyph-name="lacute" unicode="&#x13a;" horiz-adv-x="255" 
d="M82 728h91v-728h-91v728zM283 910l-110 -138h-87l65 138h132z" />
    <glyph glyph-name="uni013B" unicode="&#x13b;" horiz-adv-x="478" 
d="M90 718h94v-617h274v-101h-368v718zM256 -187l-3 -2c-11 5 -20 12 -28 21s-12 22 -12 39c0 19 6 34 19 46s28 18 46 18c19 0 35 -6 48 -18s19 -28 19 -47c0 -15 -3 -29 -9 -41s-13 -24 -20 -36l-45 -76h-61z" />
    <glyph glyph-name="uni013C" unicode="&#x13c;" horiz-adv-x="255" 
d="M82 728h91v-728h-91v728zM103 -187l-3 -2c-11 5 -20 12 -28 21s-12 22 -12 39c0 19 6 34 19 46s28 18 46 18c19 0 35 -6 48 -18s19 -28 19 -47c0 -15 -3 -29 -9 -41s-13 -24 -20 -36l-45 -76h-61z" />
    <glyph glyph-name="Lcaron" unicode="&#x13d;" horiz-adv-x="493" 
d="M90 718h94v-617h274v-101h-368v718zM346 606l-3 -2c-11 5 -20 12 -28 21s-12 22 -12 39c0 19 6 34 19 46s28 18 46 18c19 0 35 -6 48 -18s19 -28 19 -47c0 -15 -3 -29 -9 -41s-13 -24 -20 -36l-45 -76h-61z" />
    <glyph glyph-name="lcaron" unicode="&#x13e;" horiz-adv-x="374" 
d="M82 728h91v-728h-91v728zM304 606l-3 -2c-11 5 -20 12 -28 21s-12 22 -12 39c0 19 6 34 19 46s28 18 46 18c19 0 35 -6 48 -18s19 -28 19 -47c0 -15 -3 -29 -9 -41s-13 -24 -20 -36l-45 -76h-61z" />
    <glyph glyph-name="Ldot" unicode="&#x13f;" horiz-adv-x="521" 
d="M90 718h94v-617h274v-101h-368v718zM321 389l-3 -3c0 19 7 35 20 48s29 20 47 20c19 0 35 -6 48 -19s20 -29 20 -48c0 -18 -6 -33 -19 -46s-29 -19 -48 -19c-18 0 -33 7 -46 20s-19 29 -19 47z" />
    <glyph glyph-name="ldot" unicode="&#x140;" horiz-adv-x="405" 
d="M82 728h91v-728h-91v728zM262 358l-3 -3c0 19 7 35 20 48s29 20 47 20c19 0 35 -6 48 -19s20 -29 20 -48c0 -18 -6 -33 -19 -46s-29 -19 -48 -19c-18 0 -33 7 -46 20s-19 29 -19 47z" />
    <glyph glyph-name="Lslash" unicode="&#x141;" horiz-adv-x="492" 
d="M104 259l-95 -52v107l95 52v352h94v-300l188 104v-107l-188 -104v-210h274v-101h-368v259z" />
    <glyph glyph-name="lslash" unicode="&#x142;" horiz-adv-x="371" 
d="M140 309l-94 -51v107l94 51v312h91v-262l94 52v-107l-94 -52v-359h-91v309z" />
    <glyph glyph-name="Nacute" unicode="&#x143;" horiz-adv-x="759" 
d="M90 718h102l383 -564v564h94v-718h-102l-383 561v-561h-94v718zM518 910l-110 -138h-87l65 138h132z" />
    <glyph glyph-name="nacute" unicode="&#x144;" horiz-adv-x="598" 
d="M306 511l-2 -3c27 0 53 -4 79 -13s49 -23 70 -41s38 -42 51 -71s19 -63 19 -103v-282h-91v280c0 21 -3 40 -10 57s-16 31 -27 42s-24 20 -39 26s-32 9 -50 9c-16 0 -31 -2 -46 -7s-28 -11 -40 -19s-22 -18 -30 -29s-13 -23 -16 -36v-321h-91v499h88v-55c7 19 22 35 45 48
s53 19 90 19zM448 725l-110 -148h-83l65 148h128z" />
    <glyph glyph-name="uni0145" unicode="&#x145;" horiz-adv-x="759" 
d="M90 718h102l383 -564v564h94v-718h-102l-383 561v-561h-94v718zM355 -187l-3 -2c-11 5 -20 12 -28 21s-12 22 -12 39c0 19 6 34 19 46s28 18 46 18c19 0 35 -6 48 -18s19 -28 19 -47c0 -15 -3 -29 -9 -41s-13 -24 -20 -36l-45 -76h-61z" />
    <glyph glyph-name="uni0146" unicode="&#x146;" horiz-adv-x="598" 
d="M306 511l-2 -3c27 0 53 -4 79 -13s49 -23 70 -41s38 -42 51 -71s19 -63 19 -103v-282h-91v280c0 21 -3 40 -10 57s-16 31 -27 42s-24 20 -39 26s-32 9 -50 9c-16 0 -31 -2 -46 -7s-28 -11 -40 -19s-22 -18 -30 -29s-13 -23 -16 -36v-321h-91v499h88v-55c7 19 22 35 45 48
s53 19 90 19zM281 -190l-3 -2c-11 5 -20 12 -28 21s-12 22 -12 39c0 19 6 34 19 46s28 18 46 18c19 0 35 -6 48 -18s19 -28 19 -47c0 -15 -3 -29 -9 -41s-13 -24 -20 -36l-45 -76h-61z" />
    <glyph glyph-name="Ncaron" unicode="&#x147;" horiz-adv-x="759" 
d="M90 718h102l383 -564v564h94v-718h-102l-383 561v-561h-94v718zM318 772l-75 138h77l59 -63l59 63h77l-75 -138h-122z" />
    <glyph glyph-name="ncaron" unicode="&#x148;" horiz-adv-x="598" 
d="M306 511l-2 -3c27 0 53 -4 79 -13s49 -23 70 -41s38 -42 51 -71s19 -63 19 -103v-282h-91v280c0 21 -3 40 -10 57s-16 31 -27 42s-24 20 -39 26s-32 9 -50 9c-16 0 -31 -2 -46 -7s-28 -11 -40 -19s-22 -18 -30 -29s-13 -23 -16 -36v-321h-91v499h88v-55c7 19 22 35 45 48
s53 19 90 19zM242 577l-75 148h80l59 -73l59 73h80l-75 -148h-128z" />
    <glyph glyph-name="napostrophe" unicode="&#x149;" horiz-adv-x="598" 
d="M306 511l-2 -3c27 0 53 -4 79 -13s49 -23 70 -41s38 -42 51 -71s19 -63 19 -103v-282h-91v280c0 21 -3 40 -10 57s-16 31 -27 42s-24 20 -39 26s-32 9 -50 9c-16 0 -31 -2 -46 -7s-28 -11 -40 -19s-22 -18 -30 -29s-13 -23 -16 -36v-321h-91v499h88v-55c7 19 22 35 45 48
s53 19 90 19zM121 650l-3 -2c-11 5 -20 12 -28 21s-12 22 -12 39c0 19 6 34 19 46s28 18 46 18c19 0 35 -6 48 -18s19 -28 19 -47c0 -15 -3 -29 -9 -41s-13 -24 -20 -36l-45 -76h-61z" />
    <glyph glyph-name="Eng" unicode="&#x14a;" horiz-adv-x="759" 
d="M575 0l-391 560v-561h-94v718h102l383 -554v554h94v-752c0 -61 -13 -108 -40 -141s-69 -50 -126 -50c-17 0 -33 2 -47 6s-27 10 -39 17s-22 15 -30 23s-14 16 -18 24l11 89c15 -17 32 -31 50 -41s38 -15 60 -15c26 0 47 8 62 24s23 44 23 84v15z" />
    <glyph glyph-name="eng" unicode="&#x14b;" horiz-adv-x="598" 
d="M433 280v-3c0 21 -3 40 -10 57s-16 31 -27 42s-24 20 -39 26s-32 9 -50 9c-16 0 -31 -2 -46 -7s-28 -11 -40 -19s-22 -18 -30 -29s-13 -23 -16 -36v-321h-91v499h88v-55c7 19 22 35 45 48s53 19 90 19c27 0 53 -4 79 -13s49 -23 70 -41s38 -42 51 -71s19 -63 19 -103
v-348c0 -106 -40 -159 -120 -159c-14 0 -29 3 -46 9s-31 15 -43 28l7 81c7 -6 15 -11 24 -15s18 -6 26 -6c23 0 39 7 47 21s12 35 12 62v325z" />
    <glyph glyph-name="Omacron" unicode="&#x14c;" horiz-adv-x="796" 
d="M398 730l1 -4c48 0 94 -9 137 -28s81 -45 114 -78s59 -72 78 -117s29 -94 29 -147s-10 -102 -29 -147s-45 -84 -78 -117s-71 -59 -114 -78s-88 -28 -135 -28c-49 0 -95 10 -139 29s-82 45 -115 78s-59 72 -78 117s-29 94 -29 147s10 102 29 148s45 85 78 118
s71 59 114 78s89 29 137 29zM400 624l-1 -3c-37 0 -72 -7 -104 -20s-60 -32 -84 -56s-43 -52 -57 -85s-21 -69 -21 -108s7 -75 21 -108s33 -61 57 -85s52 -42 84 -55s67 -19 104 -19s71 7 103 20s60 31 83 55s42 52 56 85s21 70 21 110c0 39 -7 75 -21 108s-32 61 -55 85
s-51 43 -83 56s-66 20 -103 20zM548 880v-86h-291v86h291z" />
    <glyph glyph-name="omacron" unicode="&#x14d;" 
d="M552 249v-1c0 -37 -7 -72 -21 -104s-32 -60 -55 -83s-50 -41 -80 -54s-62 -19 -96 -19s-66 7 -97 20s-58 31 -81 54s-41 51 -54 83s-20 67 -20 104s7 72 20 104s31 60 54 83s50 41 81 54s63 20 97 20s66 -7 96 -20s57 -31 80 -54s41 -51 55 -83s21 -67 21 -104zM139 248
v-3c0 -25 4 -47 12 -67s19 -37 34 -51s32 -25 51 -33s40 -12 63 -12s44 4 64 12s37 19 52 33s26 31 34 51s12 42 12 67s-4 48 -12 68s-19 38 -34 53s-32 26 -52 34s-41 12 -64 12s-44 -4 -63 -12s-36 -19 -51 -34s-26 -32 -34 -52s-12 -42 -12 -66zM446 697v-86h-291v86h291
z" />
    <glyph glyph-name="Obreve" unicode="&#x14e;" horiz-adv-x="796" 
d="M398 730l1 -4c48 0 94 -9 137 -28s81 -45 114 -78s59 -72 78 -117s29 -94 29 -147s-10 -102 -29 -147s-45 -84 -78 -117s-71 -59 -114 -78s-88 -28 -135 -28c-49 0 -95 10 -139 29s-82 45 -115 78s-59 72 -78 117s-29 94 -29 147s10 102 29 148s45 85 78 118
s71 59 114 78s89 29 137 29zM400 624l-1 -3c-37 0 -72 -7 -104 -20s-60 -32 -84 -56s-43 -52 -57 -85s-21 -69 -21 -108s7 -75 21 -108s33 -61 57 -85s52 -42 84 -55s67 -19 104 -19s71 7 103 20s60 31 83 55s42 52 56 85s21 70 21 110c0 39 -7 75 -21 108s-32 61 -55 85
s-51 43 -83 56s-66 20 -103 20zM547 907l-2 -2c-1 -19 -5 -37 -13 -54s-18 -32 -31 -44s-28 -22 -45 -29s-35 -10 -55 -10s-38 4 -55 11s-32 17 -45 29s-23 27 -31 44s-12 35 -13 54h85c2 -13 9 -24 20 -33s24 -13 39 -13s29 5 41 14s19 20 21 33h84z" />
    <glyph glyph-name="obreve" unicode="&#x14f;" 
d="M552 249v-1c0 -37 -7 -72 -21 -104s-32 -60 -55 -83s-50 -41 -80 -54s-62 -19 -96 -19s-66 7 -97 20s-58 31 -81 54s-41 51 -54 83s-20 67 -20 104s7 72 20 104s31 60 54 83s50 41 81 54s63 20 97 20s66 -7 96 -20s57 -31 80 -54s41 -51 55 -83s21 -67 21 -104zM139 248
v-3c0 -25 4 -47 12 -67s19 -37 34 -51s32 -25 51 -33s40 -12 63 -12s44 4 64 12s37 19 52 33s26 31 34 51s12 42 12 67s-4 48 -12 68s-19 38 -34 53s-32 26 -52 34s-41 12 -64 12s-44 -4 -63 -12s-36 -19 -51 -34s-26 -32 -34 -52s-12 -42 -12 -66zM445 718l-2 -2
c-1 -19 -5 -37 -13 -54s-18 -32 -31 -44s-28 -22 -45 -29s-35 -10 -55 -10s-38 4 -55 11s-32 17 -45 29s-23 27 -31 44s-12 35 -13 54h85c2 -13 9 -24 20 -33s24 -13 39 -13s29 5 41 14s19 20 21 33h84z" />
    <glyph glyph-name="Ohungarumlaut" unicode="&#x150;" horiz-adv-x="796" 
d="M398 730l1 -4c48 0 94 -9 137 -28s81 -45 114 -78s59 -72 78 -117s29 -94 29 -147s-10 -102 -29 -147s-45 -84 -78 -117s-71 -59 -114 -78s-88 -28 -135 -28c-49 0 -95 10 -139 29s-82 45 -115 78s-59 72 -78 117s-29 94 -29 147s10 102 29 148s45 85 78 118
s71 59 114 78s89 29 137 29zM400 624l-1 -3c-37 0 -72 -7 -104 -20s-60 -32 -84 -56s-43 -52 -57 -85s-21 -69 -21 -108s7 -75 21 -108s33 -61 57 -85s52 -42 84 -55s67 -19 104 -19s71 7 103 20s60 31 83 55s42 52 56 85s21 70 21 110c0 39 -7 75 -21 108s-32 61 -55 85
s-51 43 -83 56s-66 20 -103 20zM450 913l-110 -148h-77l65 148h122zM622 913l-110 -148h-77l65 148h122z" />
    <glyph glyph-name="ohungarumlaut" unicode="&#x151;" horiz-adv-x="601" 
d="M552 249v-1c0 -37 -7 -72 -21 -104s-32 -60 -55 -83s-50 -41 -80 -54s-62 -19 -96 -19s-66 7 -97 20s-58 31 -81 54s-41 51 -54 83s-20 67 -20 104s7 72 20 104s31 60 54 83s50 41 81 54s63 20 97 20s66 -7 96 -20s57 -31 80 -54s41 -51 55 -83s21 -67 21 -104zM139 248
v-3c0 -25 4 -47 12 -67s19 -37 34 -51s32 -25 51 -33s40 -12 63 -12s44 4 64 12s37 19 52 33s26 31 34 51s12 42 12 67s-4 48 -12 68s-19 38 -34 53s-32 26 -52 34s-41 12 -64 12s-44 -4 -63 -12s-36 -19 -51 -34s-26 -32 -34 -52s-12 -42 -12 -66zM357 724l-110 -148h-77
l65 148h122zM529 724l-110 -148h-77l65 148h122z" />
    <glyph glyph-name="OE" unicode="&#x152;" horiz-adv-x="1104" 
d="M398 730l1 -4c51 0 99 -11 144 -32s85 -50 119 -87v108h382v-101h-288v-197h258v-101h-258v-218h288v-101h-382v107c-33 -37 -72 -66 -117 -87s-93 -31 -144 -31c-49 0 -95 10 -139 29s-82 45 -115 78s-59 72 -78 117s-29 94 -29 147s10 102 29 148s45 85 78 118
s71 59 114 78s89 29 137 29zM400 624l-1 -3c-37 0 -72 -7 -104 -20s-60 -32 -84 -56s-43 -52 -57 -85s-21 -69 -21 -108s7 -75 21 -108s33 -61 57 -85s52 -42 84 -55s67 -19 104 -19s71 7 103 20s60 31 83 55s42 52 56 85s21 70 21 110c0 39 -7 75 -21 108s-32 61 -55 85
s-51 43 -83 56s-66 20 -103 20z" />
    <glyph glyph-name="oe" unicode="&#x153;" horiz-adv-x="983" 
d="M721 85l-4 -1c16 0 32 2 47 6s30 9 44 15s26 13 37 21s20 16 27 24l24 -71c-5 -11 -13 -22 -24 -33s-24 -21 -40 -30s-34 -16 -54 -21s-42 -8 -65 -8c-46 0 -87 9 -124 27s-67 44 -90 77c-23 -32 -52 -57 -87 -75s-73 -27 -114 -27c-34 0 -66 7 -97 20s-58 31 -81 54
s-41 51 -54 83s-20 67 -20 104s7 72 20 104s31 60 54 83s50 41 81 54s63 20 97 20c41 0 79 -9 114 -28s64 -44 87 -76c21 32 49 58 83 77s73 29 118 29c36 0 68 -7 97 -21s54 -33 74 -57s36 -52 47 -84s16 -65 16 -100c0 -11 -1 -22 -3 -34h-382c5 -44 23 -77 54 -99
s70 -33 118 -33zM135 248v-3c0 -25 4 -47 12 -67s19 -37 34 -51s32 -25 51 -33s40 -12 63 -12s44 4 64 12s37 19 52 33s26 31 34 51s12 42 12 67s-4 48 -12 68s-19 38 -34 53s-32 26 -52 34s-41 12 -64 12s-44 -4 -63 -12s-36 -19 -51 -34s-26 -32 -34 -52s-12 -42 -12 -66z
M834 304l-2 -3c-1 15 -5 29 -12 42s-17 24 -29 34s-26 18 -42 23s-33 8 -51 8s-35 -3 -52 -8s-32 -12 -45 -21s-24 -20 -33 -33s-14 -27 -16 -42h282z" />
    <glyph glyph-name="Racute" unicode="&#x154;" horiz-adv-x="562" 
d="M90 718l199 -1c27 0 53 -4 79 -12s49 -20 70 -37s38 -38 50 -63s18 -55 18 -90c0 -53 -14 -96 -42 -129s-65 -55 -111 -66l174 -320h-111l-167 308h-65v-308h-94v718zM184 616l-1 -208h124c29 0 54 9 74 28s30 44 30 75c0 30 -9 55 -28 75s-44 30 -75 30h-124zM415 909
l-110 -138h-87l65 138h132z" />
    <glyph glyph-name="racute" unicode="&#x155;" horiz-adv-x="394" 
d="M353 390h1c-8 7 -18 13 -29 17s-24 6 -39 6c-17 0 -32 -3 -45 -9s-24 -13 -33 -22s-16 -19 -22 -30s-10 -23 -13 -35v-317h-91v499h88v-65c8 21 21 39 39 54s43 23 74 23c19 0 36 -4 51 -11s26 -17 33 -29zM179 580l65 148h128l-110 -148h-83z" />
    <glyph glyph-name="uni0156" unicode="&#x156;" horiz-adv-x="562" 
d="M90 718l199 -1c27 0 53 -4 79 -12s49 -20 70 -37s38 -38 50 -63s18 -55 18 -90c0 -53 -14 -96 -42 -129s-65 -55 -111 -66l174 -320h-111l-167 308h-65v-308h-94v718zM184 616l-1 -208h124c29 0 54 9 74 28s30 44 30 75c0 30 -9 55 -28 75s-44 30 -75 30h-124zM277 -188
l-3 -2c-11 5 -20 12 -28 21s-12 22 -12 39c0 19 6 34 19 46s28 18 46 18c19 0 35 -6 48 -18s19 -28 19 -47c0 -15 -3 -29 -9 -41s-13 -24 -20 -36l-45 -76h-61z" />
    <glyph glyph-name="uni0157" unicode="&#x157;" horiz-adv-x="394" 
d="M353 390h1c-8 7 -18 13 -29 17s-24 6 -39 6c-17 0 -32 -3 -45 -9s-24 -13 -33 -22s-16 -19 -22 -30s-10 -23 -13 -35v-317h-91v499h88v-65c8 21 21 39 39 54s43 23 74 23c19 0 36 -4 51 -11s26 -17 33 -29zM105 -187l-3 -2c-11 5 -20 12 -28 21s-12 22 -12 39
c0 19 6 34 19 46s28 18 46 18c19 0 35 -6 48 -18s19 -28 19 -47c0 -15 -3 -29 -9 -41s-13 -24 -20 -36l-45 -76h-61z" />
    <glyph glyph-name="Rcaron" unicode="&#x158;" horiz-adv-x="562" 
d="M90 718l199 -1c27 0 53 -4 79 -12s49 -20 70 -37s38 -38 50 -63s18 -55 18 -90c0 -53 -14 -96 -42 -129s-65 -55 -111 -66l174 -320h-111l-167 308h-65v-308h-94v718zM184 616l-1 -208h124c29 0 54 9 74 28s30 44 30 75c0 30 -9 55 -28 75s-44 30 -75 30h-124zM213 771
l-75 138h77l59 -63l59 63h77l-75 -138h-122z" />
    <glyph glyph-name="rcaron" unicode="&#x159;" horiz-adv-x="401" 
d="M353 390h1c-8 7 -18 13 -29 17s-24 6 -39 6c-17 0 -32 -3 -45 -9s-24 -13 -33 -22s-16 -19 -22 -30s-10 -23 -13 -35v-317h-91v499h88v-65c8 21 21 39 39 54s43 23 74 23c19 0 36 -4 51 -11s26 -17 33 -29zM160 580l-75 148h80l59 -73l59 73h80l-75 -148h-128z" />
    <glyph glyph-name="Sacute" unicode="&#x15a;" horiz-adv-x="489" 
d="M353 356h-7c15 -13 28 -26 40 -39s22 -27 30 -41s15 -29 20 -45s7 -33 7 -52c0 -28 -5 -54 -15 -77s-24 -43 -42 -60s-39 -30 -64 -39s-53 -14 -84 -14c-25 0 -49 4 -72 11s-44 17 -63 29s-35 25 -49 39s-23 28 -28 42l29 96c22 -35 50 -63 84 -84s70 -32 108 -32
c34 0 59 8 75 24s24 37 24 62c0 19 -6 37 -17 54s-25 32 -42 45c-42 35 -77 64 -104 87s-49 43 -65 60c-22 23 -39 46 -51 68s-18 47 -18 74c0 25 5 48 14 68s22 37 38 51s36 25 59 33s48 12 75 12c20 0 39 -3 58 -8s36 -12 52 -21s30 -19 42 -31s22 -25 29 -38l-21 -94
c-19 25 -43 46 -72 64s-59 27 -90 27c-23 0 -43 -5 -59 -15s-24 -27 -24 -50c0 -17 6 -33 19 -49s26 -29 39 -39c25 -20 46 -36 62 -49s29 -24 39 -33s19 -16 26 -21s13 -10 18 -15zM382 910l-110 -138h-87l65 138h132z" />
    <glyph glyph-name="sacute" unicode="&#x15b;" horiz-adv-x="424" 
d="M161 236l-2 -3c-34 18 -60 38 -78 61s-27 49 -27 78c0 40 13 73 39 98s64 38 113 38c17 0 33 -2 48 -6s29 -10 41 -17s23 -15 32 -24s16 -17 21 -25l-15 -81c-18 17 -38 31 -60 41s-45 15 -68 15c-17 0 -31 -3 -43 -9s-18 -16 -18 -31c0 -14 5 -25 15 -33s24 -16 41 -25
l56 -30c39 -21 68 -42 88 -64s30 -50 30 -85c0 -21 -4 -41 -12 -59s-20 -34 -35 -47s-33 -23 -54 -30s-45 -11 -72 -11c-19 0 -37 2 -54 7s-32 11 -46 19s-26 18 -36 29s-18 23 -24 36l22 75c19 -21 40 -38 63 -50s51 -18 84 -18c9 0 18 1 27 3s17 5 24 9s13 9 17 16
s6 15 6 24c0 14 -6 27 -19 38s-30 22 -51 33zM344 725l-110 -148h-83l65 148h128z" />
    <glyph glyph-name="Scircumflex" unicode="&#x15c;" horiz-adv-x="489" 
d="M353 356h-7c15 -13 28 -26 40 -39s22 -27 30 -41s15 -29 20 -45s7 -33 7 -52c0 -28 -5 -54 -15 -77s-24 -43 -42 -60s-39 -30 -64 -39s-53 -14 -84 -14c-25 0 -49 4 -72 11s-44 17 -63 29s-35 25 -49 39s-23 28 -28 42l29 96c22 -35 50 -63 84 -84s70 -32 108 -32
c34 0 59 8 75 24s24 37 24 62c0 19 -6 37 -17 54s-25 32 -42 45c-42 35 -77 64 -104 87s-49 43 -65 60c-22 23 -39 46 -51 68s-18 47 -18 74c0 25 5 48 14 68s22 37 38 51s36 25 59 33s48 12 75 12c20 0 39 -3 58 -8s36 -12 52 -21s30 -19 42 -31s22 -25 29 -38l-21 -94
c-19 25 -43 46 -72 64s-59 27 -90 27c-23 0 -43 -5 -59 -15s-24 -27 -24 -50c0 -17 6 -33 19 -49s26 -29 39 -39c25 -20 46 -36 62 -49s29 -24 39 -33s19 -16 26 -21s13 -10 18 -15zM296 910l75 -138h-77l-59 63l-59 -63h-77l75 138h122z" />
    <glyph glyph-name="scircumflex" unicode="&#x15d;" horiz-adv-x="424" 
d="M161 236l-2 -3c-34 18 -60 38 -78 61s-27 49 -27 78c0 40 13 73 39 98s64 38 113 38c17 0 33 -2 48 -6s29 -10 41 -17s23 -15 32 -24s16 -17 21 -25l-15 -81c-18 17 -38 31 -60 41s-45 15 -68 15c-17 0 -31 -3 -43 -9s-18 -16 -18 -31c0 -14 5 -25 15 -33s24 -16 41 -25
l56 -30c39 -21 68 -42 88 -64s30 -50 30 -85c0 -21 -4 -41 -12 -59s-20 -34 -35 -47s-33 -23 -54 -30s-45 -11 -72 -11c-19 0 -37 2 -54 7s-32 11 -46 19s-26 18 -36 29s-18 23 -24 36l22 75c19 -21 40 -38 63 -50s51 -18 84 -18c9 0 18 1 27 3s17 5 24 9s13 9 17 16
s6 15 6 24c0 14 -6 27 -19 38s-30 22 -51 33zM273 725l75 -148h-80l-59 73l-59 -73h-80l75 148h128z" />
    <glyph glyph-name="Scedilla" unicode="&#x15e;" horiz-adv-x="489" 
d="M272 -124l-11 -4c0 9 -4 16 -11 21s-16 8 -27 8c-6 0 -11 0 -16 -1s-10 -2 -16 -4l-19 33l18 60c-20 4 -39 10 -58 18s-36 18 -51 29s-28 23 -38 35s-17 24 -22 36l29 96c22 -35 50 -63 84 -84s70 -32 108 -32c34 0 59 8 75 24s24 37 24 62c0 19 -6 37 -17 54
s-25 32 -42 45c-42 35 -77 64 -104 87s-49 43 -65 60c-22 23 -39 46 -51 68s-18 47 -18 74c0 25 5 48 14 68s22 37 38 51s36 25 59 33s48 12 75 12c20 0 39 -3 58 -8s36 -12 52 -21s30 -19 42 -31s22 -25 29 -38l-21 -94c-19 25 -43 46 -72 64s-59 27 -90 27
c-23 0 -43 -5 -59 -15s-24 -27 -24 -50c0 -17 6 -33 19 -49s26 -29 39 -39c25 -20 46 -36 62 -49s29 -24 39 -33s19 -16 26 -21s13 -10 18 -15c15 -13 28 -26 40 -39s22 -27 30 -41s15 -29 20 -45s7 -33 7 -52c0 -27 -4 -52 -13 -74s-22 -41 -39 -57s-37 -29 -60 -39
s-48 -16 -76 -18l-11 -34c14 -1 28 -3 41 -7s25 -9 35 -16s18 -16 24 -26s9 -21 9 -34c0 -29 -11 -51 -32 -67s-48 -24 -81 -24c-23 0 -45 5 -65 14s-35 20 -46 33l12 55c15 -13 30 -22 44 -27s29 -7 44 -7c13 0 23 3 30 8s11 12 11 20z" />
    <glyph glyph-name="scedilla" unicode="&#x15f;" horiz-adv-x="424" 
d="M242 -124l-8 -2c0 9 -4 16 -11 21s-16 8 -27 8c-6 0 -11 0 -16 -1s-10 -2 -16 -4l-19 33l17 59c-30 5 -56 15 -78 31s-38 35 -47 56l22 75c19 -21 40 -38 63 -50s51 -18 84 -18c9 0 18 1 27 3s17 5 24 9s13 9 17 16s6 15 6 24c0 14 -6 27 -19 38s-30 22 -51 33l-53 28
c-34 18 -60 38 -78 61s-27 49 -27 78c0 40 13 73 39 98s64 38 113 38c17 0 33 -2 48 -6s29 -10 41 -17s23 -15 32 -24s16 -17 21 -25l-15 -81c-18 17 -38 31 -60 41s-45 15 -68 15c-17 0 -31 -3 -43 -9s-18 -16 -18 -31c0 -14 5 -25 15 -33s24 -16 41 -25l56 -30
c39 -21 68 -42 88 -64s30 -50 30 -85c0 -39 -13 -72 -39 -99s-61 -43 -106 -48l-11 -35c14 -1 28 -3 41 -7s25 -9 35 -16s18 -16 24 -26s9 -21 9 -34c0 -29 -11 -51 -32 -67s-48 -24 -81 -24c-23 0 -45 5 -65 14s-35 20 -46 33l12 55c15 -13 30 -22 44 -27s29 -7 44 -7
c13 0 23 3 30 8s11 12 11 20z" />
    <glyph glyph-name="Scaron" unicode="&#x160;" horiz-adv-x="489" 
d="M353 356h-7c15 -13 28 -26 40 -39s22 -27 30 -41s15 -29 20 -45s7 -33 7 -52c0 -28 -5 -54 -15 -77s-24 -43 -42 -60s-39 -30 -64 -39s-53 -14 -84 -14c-25 0 -49 4 -72 11s-44 17 -63 29s-35 25 -49 39s-23 28 -28 42l29 96c22 -35 50 -63 84 -84s70 -32 108 -32
c34 0 59 8 75 24s24 37 24 62c0 19 -6 37 -17 54s-25 32 -42 45c-42 35 -77 64 -104 87s-49 43 -65 60c-22 23 -39 46 -51 68s-18 47 -18 74c0 25 5 48 14 68s22 37 38 51s36 25 59 33s48 12 75 12c20 0 39 -3 58 -8s36 -12 52 -21s30 -19 42 -31s22 -25 29 -38l-21 -94
c-19 25 -43 46 -72 64s-59 27 -90 27c-23 0 -43 -5 -59 -15s-24 -27 -24 -50c0 -17 6 -33 19 -49s26 -29 39 -39c25 -20 46 -36 62 -49s29 -24 39 -33s19 -16 26 -21s13 -10 18 -15zM174 772l-75 138h77l59 -63l59 63h77l-75 -138h-122z" />
    <glyph glyph-name="scaron" unicode="&#x161;" horiz-adv-x="424" 
d="M161 236l-2 -3c-34 18 -60 38 -78 61s-27 49 -27 78c0 40 13 73 39 98s64 38 113 38c17 0 33 -2 48 -6s29 -10 41 -17s23 -15 32 -24s16 -17 21 -25l-15 -81c-18 17 -38 31 -60 41s-45 15 -68 15c-17 0 -31 -3 -43 -9s-18 -16 -18 -31c0 -14 5 -25 15 -33s24 -16 41 -25
l56 -30c39 -21 68 -42 88 -64s30 -50 30 -85c0 -21 -4 -41 -12 -59s-20 -34 -35 -47s-33 -23 -54 -30s-45 -11 -72 -11c-19 0 -37 2 -54 7s-32 11 -46 19s-26 18 -36 29s-18 23 -24 36l22 75c19 -21 40 -38 63 -50s51 -18 84 -18c9 0 18 1 27 3s17 5 24 9s13 9 17 16
s6 15 6 24c0 14 -6 27 -19 38s-30 22 -51 33zM143 577l-75 148h80l59 -73l59 73h80l-75 -148h-128z" />
    <glyph glyph-name="uni0162" unicode="&#x162;" horiz-adv-x="576" 
d="M326 -124l-6 -2c0 9 -4 16 -11 21s-16 8 -27 8c-6 0 -11 0 -16 -1s-10 -2 -16 -4l-19 33l20 68h-14v619h-226v99h546v-99h-226v-619h-16l-15 -45c14 -1 28 -3 41 -7s25 -9 35 -16s18 -16 24 -26s9 -21 9 -34c0 -29 -11 -51 -32 -67s-48 -24 -81 -24c-23 0 -45 5 -65 14
s-35 20 -46 33l12 55c15 -13 30 -22 44 -27s29 -7 44 -7c13 0 23 3 30 8s11 12 11 20z" />
    <glyph glyph-name="uni0163" unicode="&#x163;" horiz-adv-x="440" 
d="M283 -124l-7 -2c0 9 -4 16 -11 21s-16 8 -27 8c-6 0 -11 0 -16 -1s-10 -2 -16 -4l-19 33l19 65c-60 19 -90 72 -90 160v245h-90v28l153 195h28v-126h175v-97h-175v-229c0 -32 7 -55 20 -68s33 -20 60 -20c19 0 35 4 48 11s24 16 33 27l19 -72c-9 -17 -24 -32 -44 -44
s-45 -18 -75 -19l-11 -33c14 -1 28 -3 41 -7s25 -9 35 -16s18 -16 24 -26s9 -21 9 -34c0 -29 -11 -51 -32 -67s-48 -24 -81 -24c-23 0 -45 5 -65 14s-35 20 -46 33l12 55c15 -13 30 -22 44 -27s29 -7 44 -7c13 0 23 3 30 8s11 12 11 20z" />
    <glyph glyph-name="Tcaron" unicode="&#x164;" horiz-adv-x="576" 
d="M15 718h546v-99h-226v-619h-94v619h-226v99zM227 772l-75 138h77l59 -63l59 63h77l-75 -138h-122z" />
    <glyph glyph-name="tcaron" unicode="&#x165;" horiz-adv-x="590" 
d="M392 51v-1c-9 -17 -24 -32 -45 -44s-46 -18 -76 -18c-100 0 -150 56 -150 169v245h-90v28l153 195h28v-126h175v-97h-175v-229c0 -32 7 -55 20 -68s33 -20 60 -20c19 0 35 4 48 11s24 16 33 27zM495 555l-3 -2c-11 5 -20 12 -28 21s-12 22 -12 39c0 19 6 34 19 46
s28 18 46 18c19 0 35 -6 48 -18s19 -28 19 -47c0 -15 -3 -29 -9 -41s-13 -24 -20 -36l-45 -76h-61z" />
    <glyph glyph-name="Tbar" unicode="&#x166;" horiz-adv-x="576" 
d="M15 718h546v-99h-226v-200h131v-99h-131v-320h-94v320h-130v99h130v200h-226v99z" />
    <glyph glyph-name="tbar" unicode="&#x167;" horiz-adv-x="440" 
d="M392 51v-1c-9 -17 -24 -32 -45 -44s-46 -18 -76 -18c-100 0 -150 56 -150 169v73h-90v97h90v75h-90v28l153 195h28v-126h175v-97h-175v-75h175v-97h-175v-57c0 -32 7 -55 20 -68s33 -20 60 -20c19 0 35 4 48 11s24 16 33 27z" />
    <glyph glyph-name="Utilde" unicode="&#x168;" horiz-adv-x="735" 
d="M556 718l94 2v-431c0 -43 -7 -83 -20 -120s-32 -69 -56 -96s-54 -48 -89 -63s-74 -22 -117 -22c-42 0 -80 7 -115 21s-65 34 -90 60s-44 57 -58 94s-21 78 -21 123v432h94v-433c0 -30 5 -57 14 -81s22 -44 39 -61s37 -30 60 -39s49 -13 77 -13c29 0 55 5 78 14
s43 22 59 39s29 38 38 62s13 51 13 80v432zM214 780l-3 -6c-7 19 -10 35 -10 48c0 27 9 48 26 64s38 24 63 24c17 0 33 -3 48 -10s29 -14 43 -22c9 -5 18 -10 26 -14s16 -6 23 -6c9 0 17 3 23 9s9 14 9 25v10c0 3 -1 7 -2 11h59c7 -16 10 -32 10 -49c0 -27 -8 -48 -24 -63
s-37 -23 -62 -23c-15 0 -30 3 -45 10s-28 14 -39 21c-13 7 -24 13 -32 17s-16 6 -23 6c-10 0 -18 -3 -24 -9s-9 -14 -9 -25v-9s1 -6 2 -9h-59z" />
    <glyph glyph-name="utilde" unicode="&#x169;" horiz-adv-x="594" 
d="M289 -12l-2 -1c-27 0 -53 5 -79 14s-49 23 -69 41s-36 42 -49 71s-19 64 -19 104v282h91v-280c0 -43 12 -76 36 -99s54 -34 90 -34c16 0 31 2 46 7s28 12 40 20s22 18 30 29s14 23 17 36v321h91v-499h-88v55c-7 -19 -22 -35 -45 -48s-53 -19 -90 -19zM141 585l-3 -6
c-7 19 -10 35 -10 48c0 27 9 48 26 64s38 24 63 24c17 0 33 -3 48 -10s29 -14 43 -22c9 -5 18 -10 26 -14s16 -6 23 -6c9 0 17 3 23 9s9 14 9 25v10c0 3 -1 7 -2 11h59c7 -16 10 -32 10 -49c0 -27 -8 -48 -24 -63s-37 -23 -62 -23c-15 0 -30 3 -45 10s-28 14 -39 21
c-13 7 -24 13 -32 17s-16 6 -23 6c-10 0 -18 -3 -24 -9s-9 -14 -9 -25v-9s1 -6 2 -9h-59z" />
    <glyph glyph-name="Umacron" unicode="&#x16a;" horiz-adv-x="735" 
d="M556 718l94 2v-431c0 -43 -7 -83 -20 -120s-32 -69 -56 -96s-54 -48 -89 -63s-74 -22 -117 -22c-42 0 -80 7 -115 21s-65 34 -90 60s-44 57 -58 94s-21 78 -21 123v432h94v-433c0 -30 5 -57 14 -81s22 -44 39 -61s37 -30 60 -39s49 -13 77 -13c29 0 55 5 78 14
s43 22 59 39s29 38 38 62s13 51 13 80v432zM513 889v-86h-291v86h291z" />
    <glyph glyph-name="umacron" unicode="&#x16b;" horiz-adv-x="594" 
d="M289 -12l-2 -1c-27 0 -53 5 -79 14s-49 23 -69 41s-36 42 -49 71s-19 64 -19 104v282h91v-280c0 -43 12 -76 36 -99s54 -34 90 -34c16 0 31 2 46 7s28 12 40 20s22 18 30 29s14 23 17 36v321h91v-499h-88v55c-7 -19 -22 -35 -45 -48s-53 -19 -90 -19zM439 700v-86h-291
v86h291z" />
    <glyph glyph-name="Ubreve" unicode="&#x16c;" horiz-adv-x="735" 
d="M556 718l94 2v-431c0 -43 -7 -83 -20 -120s-32 -69 -56 -96s-54 -48 -89 -63s-74 -22 -117 -22c-42 0 -80 7 -115 21s-65 34 -90 60s-44 57 -58 94s-21 78 -21 123v432h94v-433c0 -30 5 -57 14 -81s22 -44 39 -61s37 -30 60 -39s49 -13 77 -13c29 0 55 5 78 14
s43 22 59 39s29 38 38 62s13 51 13 80v432zM512 916l-2 -2c-1 -19 -5 -37 -13 -54s-18 -32 -31 -44s-28 -22 -45 -29s-35 -10 -55 -10s-38 4 -55 11s-32 17 -45 29s-23 27 -31 44s-12 35 -13 54h85c2 -13 9 -24 20 -33s24 -13 39 -13s29 5 41 14s19 20 21 33h84z" />
    <glyph glyph-name="ubreve" unicode="&#x16d;" horiz-adv-x="594" 
d="M289 -12l-2 -1c-27 0 -53 5 -79 14s-49 23 -69 41s-36 42 -49 71s-19 64 -19 104v282h91v-280c0 -43 12 -76 36 -99s54 -34 90 -34c16 0 31 2 46 7s28 12 40 20s22 18 30 29s14 23 17 36v321h91v-499h-88v55c-7 -19 -22 -35 -45 -48s-53 -19 -90 -19zM438 721l-2 -2
c-1 -19 -5 -37 -13 -54s-18 -32 -31 -44s-28 -22 -45 -29s-35 -10 -55 -10s-38 4 -55 11s-32 17 -45 29s-23 27 -31 44s-12 35 -13 54h85c2 -13 9 -24 20 -33s24 -13 39 -13s29 5 41 14s19 20 21 33h84z" />
    <glyph glyph-name="Uring" unicode="&#x16e;" horiz-adv-x="735" 
d="M556 718l94 2v-431c0 -43 -7 -83 -20 -120s-32 -69 -56 -96s-54 -48 -89 -63s-74 -22 -117 -22c-42 0 -80 7 -115 21s-65 34 -90 60s-44 57 -58 94s-21 78 -21 123v432h94v-433c0 -30 5 -57 14 -81s22 -44 39 -61s37 -30 60 -39s49 -13 77 -13c29 0 55 5 78 14
s43 22 59 39s29 38 38 62s13 51 13 80v432zM263 860c0 30 10 55 30 75s45 30 74 30s54 -10 74 -30s30 -45 30 -75c0 -29 -10 -54 -30 -74s-45 -30 -74 -30s-54 10 -74 30s-30 45 -30 74zM323 860h-2c0 -12 4 -22 12 -30s19 -12 32 -12s24 4 32 12s12 18 12 30
c0 13 -4 23 -12 31s-18 12 -31 12s-23 -4 -31 -12s-12 -18 -12 -31z" />
    <glyph glyph-name="uring" unicode="&#x16f;" horiz-adv-x="594" 
d="M289 -12l-2 -1c-27 0 -53 5 -79 14s-49 23 -69 41s-36 42 -49 71s-19 64 -19 104v282h91v-280c0 -43 12 -76 36 -99s54 -34 90 -34c16 0 31 2 46 7s28 12 40 20s22 18 30 29s14 23 17 36v321h91v-499h-88v55c-7 -19 -22 -35 -45 -48s-53 -19 -90 -19zM187 665
c0 30 10 55 30 75s45 30 74 30s54 -10 74 -30s30 -45 30 -75c0 -29 -10 -54 -30 -74s-45 -30 -74 -30s-54 10 -74 30s-30 45 -30 74zM248 665c0 -12 4 -22 12 -30s18 -12 30 -12s22 4 30 12s12 18 12 30s-4 22 -12 30s-18 12 -30 12s-22 -4 -30 -12s-12 -18 -12 -30z" />
    <glyph glyph-name="Uhungarumlaut" unicode="&#x170;" horiz-adv-x="735" 
d="M556 718l94 2v-431c0 -43 -7 -83 -20 -120s-32 -69 -56 -96s-54 -48 -89 -63s-74 -22 -117 -22c-42 0 -80 7 -115 21s-65 34 -90 60s-44 57 -58 94s-21 78 -21 123v432h94v-433c0 -30 5 -57 14 -81s22 -44 39 -61s37 -30 60 -39s49 -13 77 -13c29 0 55 5 78 14
s43 22 59 39s29 38 38 62s13 51 13 80v432zM407 922l-110 -148h-77l65 148h122zM579 922l-110 -148h-77l65 148h122z" />
    <glyph glyph-name="uhungarumlaut" unicode="&#x171;" horiz-adv-x="594" 
d="M289 -12l-2 -1c-27 0 -53 5 -79 14s-49 23 -69 41s-36 42 -49 71s-19 64 -19 104v282h91v-280c0 -43 12 -76 36 -99s54 -34 90 -34c16 0 31 2 46 7s28 12 40 20s22 18 30 29s14 23 17 36v321h91v-499h-88v55c-7 -19 -22 -35 -45 -48s-53 -19 -90 -19zM340 727l-110 -148
h-77l65 148h122zM512 727l-110 -148h-77l65 148h122z" />
    <glyph glyph-name="Uogonek" unicode="&#x172;" horiz-adv-x="735" 
d="M556 718l95 -3v-431c0 -72 -17 -133 -50 -183s-78 -84 -135 -102c-9 -10 -16 -21 -22 -34s-9 -26 -9 -40c0 -17 5 -30 15 -39s23 -14 38 -14c4 0 8 1 12 2s8 3 11 5l12 -73c-5 -6 -13 -12 -24 -18s-25 -9 -42 -9c-37 0 -65 10 -85 31s-30 46 -30 75c0 22 6 42 17 60
s22 32 33 43h-12h-12c-42 0 -80 7 -115 21s-65 34 -90 60s-44 57 -58 94s-21 78 -21 123v432h94v-433c0 -30 5 -57 14 -81s22 -44 39 -61s37 -30 60 -39s49 -13 77 -13c29 0 55 5 78 14s43 22 59 39s29 38 38 62s13 51 13 80v432z" />
    <glyph glyph-name="uogonek" unicode="&#x173;" horiz-adv-x="594" 
d="M424 0l-1 52c-7 -19 -22 -35 -45 -48s-53 -19 -90 -19c-27 0 -53 5 -79 14s-49 23 -69 41s-36 42 -49 71s-19 64 -19 104v282h91v-280c0 -43 12 -76 36 -99s54 -34 90 -34c16 0 31 2 46 7s28 12 40 20s22 18 30 29s14 23 17 36v321h91v-499c-7 -10 -14 -21 -20 -33
s-9 -25 -9 -39c0 -17 5 -30 15 -39s23 -14 38 -14c4 0 8 1 12 2s8 3 11 5l12 -73c-5 -6 -13 -12 -24 -18s-25 -9 -42 -9c-37 0 -65 10 -85 31s-30 46 -30 75c0 13 2 26 7 38s11 23 17 33s13 19 20 26s13 13 18 17h-29z" />
    <glyph glyph-name="Wcircumflex" unicode="&#x174;" horiz-adv-x="1020" 
d="M716 177l178 541h106l-238 -718h-94l-160 566l-156 -566h-94l-238 718h100l181 -541l154 541h102zM569 910l75 -138h-77l-59 63l-59 -63h-77l75 138h122z" />
    <glyph glyph-name="wcircumflex" unicode="&#x175;" horiz-adv-x="858" 
d="M593 126l143 373h103l-197 -499h-93l-120 377l-120 -377h-93l-197 499h97l143 -373l119 373h96zM493 728l75 -148h-80l-59 73l-59 -73h-80l75 148h128z" />
    <glyph glyph-name="Ycircumflex" unicode="&#x176;" horiz-adv-x="558" 
d="M8 718h106l163 -307l164 307h109l-223 -419v-299h-94v299zM338 910l75 -138h-77l-59 63l-59 -63h-77l75 138h122z" />
    <glyph glyph-name="ycircumflex" unicode="&#x177;" horiz-adv-x="547" 
d="M18 499h102l153 -367l152 367h101l-297 -712h-101l96 232zM336 728l75 -148h-80l-59 73l-59 -73h-80l75 148h128z" />
    <glyph glyph-name="Ydieresis" unicode="&#x178;" horiz-adv-x="558" 
d="M8 718h106l163 -307l164 307h109l-223 -419v-299h-94v299zM110 846h-1c0 19 7 35 20 48s29 20 48 20s35 -7 48 -20s20 -29 20 -48s-7 -35 -20 -48s-29 -20 -48 -20s-35 7 -48 20s-19 29 -19 48zM310 846h-1c0 19 7 35 20 48s29 20 48 20s35 -7 48 -20s20 -29 20 -48
s-7 -35 -20 -48s-29 -20 -48 -20s-35 7 -48 20s-19 29 -19 48z" />
    <glyph glyph-name="Zacute" unicode="&#x179;" horiz-adv-x="503" 
d="M50 718h396v-79l-281 -538h283v-101h-398v77l276 540h-276v101zM386 910l-110 -138h-87l65 138h132z" />
    <glyph glyph-name="zacute" unicode="&#x17a;" horiz-adv-x="459" 
d="M61 499h332v-79l-222 -323h234v-97h-351v79l219 323h-212v97zM362 728l-110 -148h-83l65 148h128z" />
    <glyph glyph-name="Zdotaccent" unicode="&#x17b;" horiz-adv-x="503" 
d="M50 718h396v-79l-281 -538h283v-101h-398v77l276 540h-276v101zM180 846l-3 -3c0 19 7 35 20 48s29 20 47 20c19 0 35 -6 48 -19s20 -29 20 -48c0 -18 -6 -33 -19 -46s-29 -19 -48 -19c-18 0 -33 7 -46 20s-19 29 -19 47z" />
    <glyph glyph-name="zdotaccent" unicode="&#x17c;" horiz-adv-x="459" 
d="M61 499h332v-79l-222 -323h234v-97h-351v79l219 323h-212v97zM159 655l-3 -3c0 19 7 35 20 48s29 20 47 20c19 0 35 -6 48 -19s20 -29 20 -48c0 -18 -6 -33 -19 -46s-29 -19 -48 -19c-18 0 -33 7 -46 20s-19 29 -19 47z" />
    <glyph glyph-name="Zcaron" unicode="&#x17d;" horiz-adv-x="503" 
d="M50 718h396v-79l-281 -538h283v-101h-398v77l276 540h-276v101zM187 772l-75 138h77l59 -63l59 63h77l-75 -138h-122z" />
    <glyph glyph-name="zcaron" unicode="&#x17e;" horiz-adv-x="459" 
d="M61 499h332v-79l-222 -323h234v-97h-351v79l219 323h-212v97zM161 580l-75 148h80l59 -73l59 73h80l-75 -148h-128z" />
    <glyph glyph-name="longs" unicode="&#x17f;" horiz-adv-x="363" 
d="M388 603l-1 -1c-9 11 -21 21 -36 29s-32 12 -51 12c-22 0 -41 -7 -57 -21s-24 -35 -24 -64v-559h-91v402h-88v97h88v75c0 53 14 94 41 123s67 44 120 44c25 0 48 -5 69 -16s36 -25 45 -42z" />
    <glyph glyph-name="uni018F" unicode="&#x18f;" horiz-adv-x="785" 
d="M643 413l-6 1c-7 38 -19 71 -35 98s-36 49 -59 67s-49 31 -78 39s-59 12 -91 12c-50 0 -97 -10 -141 -30s-80 -49 -108 -87l-29 84c12 21 28 40 47 56s41 30 66 42s52 21 81 27s59 9 90 9c49 0 95 -8 139 -25s83 -41 116 -73s60 -71 80 -117s30 -99 30 -158
c0 -53 -9 -102 -27 -147s-43 -84 -75 -117s-69 -59 -111 -78s-87 -28 -136 -28c-54 0 -103 10 -147 29s-81 45 -112 79s-55 74 -72 120s-25 96 -25 150v24s1 17 2 23h601zM389 91l1 1c28 0 56 4 83 12s52 21 75 38s43 40 59 68s27 63 32 104h-503c4 -43 14 -79 31 -108
s37 -52 61 -69s50 -29 78 -36s56 -10 83 -10z" />
    <glyph glyph-name="florin" unicode="&#x192;" horiz-adv-x="492" 
d="M188 589l1 -3c9 49 27 86 54 112s63 39 108 39c11 0 23 -1 35 -3s24 -6 35 -11s21 -12 30 -20s16 -18 21 -31l-19 -77c-8 13 -19 24 -34 33s-33 14 -54 14c-10 0 -20 -1 -30 -4s-19 -7 -27 -13s-15 -14 -21 -23s-10 -20 -12 -33l-25 -138h159v-97h-176l-97 -547h-91
l98 547h-89v97h106z" />
    <glyph glyph-name="uni01B5" unicode="&#x1b5;" horiz-adv-x="503" 
d="M50 718h396v-79l-113 -215h89v-101h-141l-116 -222h283v-101h-398v77l125 246h-108v101h160l99 193h-276v101z" />
    <glyph glyph-name="uni01B6" unicode="&#x1b6;" horiz-adv-x="459" 
d="M61 499h332v-79l-83 -121h73v-93h-137l-75 -109h234v-97h-351v79l86 127h-75v93h138l70 103h-212v97z" />
    <glyph glyph-name="Aringacute" unicode="&#x1fa;" horiz-adv-x="678" 
d="M235 760h-2c0 30 10 55 30 75s45 30 74 30s54 -10 74 -30s30 -45 30 -75c0 -17 -3 -32 -10 -46s-16 -26 -27 -35l262 -679h-100l-65 165h-324l-64 -165h-103l263 678c-12 9 -21 21 -28 35s-10 30 -10 47zM215 266h246l-124 316zM497 1039l-110 -138h-87l65 138h132z
M293 760h-2c0 -12 4 -22 12 -30s19 -12 32 -12s24 4 32 12s12 18 12 30c0 13 -4 23 -12 31s-18 12 -31 12s-23 -4 -31 -12s-12 -18 -12 -31z" />
    <glyph glyph-name="aringacute" unicode="&#x1fb;" horiz-adv-x="551" 
d="M383 177l1 -4c-8 14 -24 25 -48 32s-50 11 -77 11c-38 0 -67 -6 -88 -18s-31 -28 -31 -49c0 -20 10 -36 30 -48s50 -18 89 -18c13 0 26 1 39 4s25 7 36 12s21 11 30 18s15 14 19 22v38zM75 420h-1c19 26 45 47 78 63s69 24 109 24c67 0 119 -17 157 -51s57 -82 57 -144
v-315h-88v44c-6 -9 -14 -17 -25 -24s-23 -13 -36 -18s-26 -9 -40 -12s-28 -4 -42 -4c-59 0 -106 14 -142 42s-54 68 -54 119c0 26 5 49 15 69s24 37 42 51s39 25 63 32s50 11 78 11c11 0 23 -1 36 -3s26 -4 38 -7s24 -7 35 -12s20 -11 28 -18v24c0 21 -4 39 -11 54
s-17 27 -29 37s-26 17 -42 22s-33 7 -51 7c-32 0 -61 -6 -87 -19s-47 -30 -62 -51zM170 662c0 30 10 55 30 75s45 30 74 30s54 -10 74 -30s30 -45 30 -75c0 -29 -10 -54 -30 -74s-45 -30 -74 -30s-54 10 -74 30s-30 45 -30 74zM231 662c0 -12 4 -22 12 -30s18 -12 30 -12
s22 4 30 12s12 18 12 30s-4 22 -12 30s-18 12 -30 12s-22 -4 -30 -12s-12 -18 -12 -30zM422 962l-110 -148h-83l65 148h128z" />
    <glyph glyph-name="AEacute" unicode="&#x1fc;" horiz-adv-x="918" 
d="M471 165h-272l-99 -165h-110l433 718h431v-101h-289v-197h259v-101h-259v-218h289v-101h-383v165zM471 266v350l-211 -350h211zM722 910l-110 -138h-87l65 138h132z" />
    <glyph glyph-name="aeacute" unicode="&#x1fd;" horiz-adv-x="906" 
d="M249 414l-6 -3c-32 0 -61 -6 -87 -19s-47 -30 -62 -51l-26 79c19 26 45 47 78 63s69 24 109 24c42 0 79 -7 110 -21s56 -34 74 -61c21 25 47 45 77 60s65 23 104 23c36 0 68 -7 97 -21s54 -33 74 -57s36 -52 47 -84s16 -65 16 -100c0 -11 -1 -22 -3 -34h-382
c5 -44 23 -77 54 -99s70 -33 118 -33c16 0 32 2 47 6s30 9 44 15s26 13 37 21s20 16 27 24l24 -71c-5 -11 -13 -22 -24 -33s-24 -21 -40 -30s-34 -16 -54 -21s-42 -8 -65 -8c-43 0 -82 8 -117 24s-64 39 -87 69c-19 -29 -45 -51 -78 -67s-70 -24 -110 -24
c-61 0 -109 14 -145 42s-54 68 -54 120c0 26 5 49 15 69s24 37 42 51s39 25 63 32s50 11 78 11c11 0 23 -1 36 -3s26 -4 38 -7s24 -7 35 -12s21 -11 29 -18v25c0 23 -4 42 -12 57s-19 27 -32 36s-27 16 -43 20s-31 6 -46 6zM377 174l1 -4c-8 14 -24 25 -48 32s-50 11 -77 11
c-38 0 -67 -6 -88 -18s-31 -28 -31 -49c0 -20 10 -36 30 -48s50 -18 89 -18c13 0 26 1 39 4s25 7 36 12s21 11 30 18s15 14 19 22v38zM756 301l-2 -3c-1 15 -5 29 -12 42s-17 24 -29 34s-26 18 -42 23s-33 8 -51 8s-35 -3 -52 -8s-32 -12 -45 -21s-24 -20 -33 -33
s-14 -27 -16 -42h282zM588 718l-110 -148h-83l65 148h128z" />
    <glyph glyph-name="Oslashacute" unicode="&#x1fe;" horiz-adv-x="806" 
d="M403 730v-4c37 0 72 -5 106 -16s66 -27 95 -48l54 64h117l-104 -124c28 -32 50 -69 66 -111s24 -87 24 -136c0 -53 -10 -102 -29 -147s-45 -84 -78 -117s-71 -59 -114 -78s-88 -28 -135 -28c-38 0 -74 6 -108 17s-66 27 -95 47l-53 -63h-117l104 123
c-29 33 -51 70 -67 112s-24 87 -24 136c0 53 10 102 29 148s45 85 78 118s71 59 114 78s89 29 137 29zM666 355l-1 -2c0 34 -5 66 -15 95s-24 55 -43 78l-341 -406c20 -11 42 -20 65 -26s47 -9 72 -9c37 0 71 7 103 20s60 31 83 55s42 52 56 85s21 70 21 110zM403 622l1 -2
c-37 0 -72 -7 -104 -20s-60 -32 -84 -56s-43 -52 -57 -85s-21 -69 -21 -108c0 -34 5 -65 15 -94s24 -55 43 -78l342 406c-41 25 -86 37 -135 37zM546 902l-110 -138h-87l65 138h132z" />
    <glyph glyph-name="oslashacute" unicode="&#x1ff;" horiz-adv-x="609" 
d="M556 249v1c0 -37 -7 -72 -21 -104s-32 -60 -55 -83s-50 -41 -80 -54s-62 -19 -96 -19c-49 0 -93 13 -132 38l-32 -38h-115l82 97c-17 22 -30 47 -40 75s-15 58 -15 90c0 37 7 72 20 104s31 60 54 83s50 41 81 54s63 20 97 20c24 0 47 -3 69 -10s43 -17 62 -30l33 39h115
l-83 -98c17 -22 31 -47 41 -75s15 -58 15 -90zM143 250v-2c0 -35 8 -66 25 -93l206 243c-11 5 -22 9 -34 12s-24 4 -37 4c-23 0 -44 -4 -63 -12s-36 -19 -51 -34s-26 -32 -34 -52s-12 -42 -12 -66zM465 247h-1c0 35 -8 66 -25 93l-206 -242c22 -9 45 -14 70 -14
c23 0 44 4 64 12s37 19 52 33s26 31 34 51s12 42 12 67zM447 727l-110 -148h-83l65 148h128z" />
    <glyph glyph-name="uni0218" unicode="&#x218;" horiz-adv-x="489" 
d="M353 356h-7c15 -13 28 -26 40 -39s22 -27 30 -41s15 -29 20 -45s7 -33 7 -52c0 -28 -5 -54 -15 -77s-24 -43 -42 -60s-39 -30 -64 -39s-53 -14 -84 -14c-25 0 -49 4 -72 11s-44 17 -63 29s-35 25 -49 39s-23 28 -28 42l29 96c22 -35 50 -63 84 -84s70 -32 108 -32
c34 0 59 8 75 24s24 37 24 62c0 19 -6 37 -17 54s-25 32 -42 45c-42 35 -77 64 -104 87s-49 43 -65 60c-22 23 -39 46 -51 68s-18 47 -18 74c0 25 5 48 14 68s22 37 38 51s36 25 59 33s48 12 75 12c20 0 39 -3 58 -8s36 -12 52 -21s30 -19 42 -31s22 -25 29 -38l-21 -94
c-19 25 -43 46 -72 64s-59 27 -90 27c-23 0 -43 -5 -59 -15s-24 -27 -24 -50c0 -17 6 -33 19 -49s26 -29 39 -39c25 -20 46 -36 62 -49s29 -24 39 -33s19 -16 26 -21s13 -10 18 -15zM213 -187l-3 -2c-11 5 -20 12 -28 21s-12 22 -12 39c0 19 6 34 19 46s28 18 46 18
c19 0 35 -6 48 -18s19 -28 19 -47c0 -15 -3 -29 -9 -41s-13 -24 -20 -36l-45 -76h-61z" />
    <glyph glyph-name="uni0219" unicode="&#x219;" horiz-adv-x="424" 
d="M161 236l-2 -3c-34 18 -60 38 -78 61s-27 49 -27 78c0 40 13 73 39 98s64 38 113 38c17 0 33 -2 48 -6s29 -10 41 -17s23 -15 32 -24s16 -17 21 -25l-15 -81c-18 17 -38 31 -60 41s-45 15 -68 15c-17 0 -31 -3 -43 -9s-18 -16 -18 -31c0 -14 5 -25 15 -33s24 -16 41 -25
l56 -30c39 -21 68 -42 88 -64s30 -50 30 -85c0 -21 -4 -41 -12 -59s-20 -34 -35 -47s-33 -23 -54 -30s-45 -11 -72 -11c-19 0 -37 2 -54 7s-32 11 -46 19s-26 18 -36 29s-18 23 -24 36l22 75c19 -21 40 -38 63 -50s51 -18 84 -18c9 0 18 1 27 3s17 5 24 9s13 9 17 16
s6 15 6 24c0 14 -6 27 -19 38s-30 22 -51 33zM186 -190l-3 -2c-11 5 -20 12 -28 21s-12 22 -12 39c0 19 6 34 19 46s28 18 46 18c19 0 35 -6 48 -18s19 -28 19 -47c0 -15 -3 -29 -9 -41s-13 -24 -20 -36l-45 -76h-61z" />
    <glyph glyph-name="uni021A" unicode="&#x21a;" horiz-adv-x="579" 
d="M15 718h546v-99h-226v-619h-94v619h-226v99zM265 -187l-3 -2c-11 5 -20 12 -28 21s-12 22 -12 39c0 19 6 34 19 46s28 18 46 18c19 0 35 -6 48 -18s19 -28 19 -47c0 -15 -3 -29 -9 -41s-13 -24 -20 -36l-45 -76h-61z" />
    <glyph glyph-name="uni021B" unicode="&#x21b;" horiz-adv-x="440" 
d="M392 51v-1c-9 -17 -24 -32 -45 -44s-46 -18 -76 -18c-100 0 -150 56 -150 169v245h-90v28l153 195h28v-126h175v-97h-175v-229c0 -32 7 -55 20 -68s33 -20 60 -20c19 0 35 4 48 11s24 16 33 27zM233 -188l-3 -2c-11 5 -20 12 -28 21s-12 22 -12 39c0 19 6 34 19 46
s28 18 46 18c19 0 35 -6 48 -18s19 -28 19 -47c0 -15 -3 -29 -9 -41s-13 -24 -20 -36l-45 -76h-61z" />
    <glyph glyph-name="schwa" unicode="&#x259;" horiz-adv-x="574" 
d="M262 414v-5c-16 0 -32 -2 -47 -6s-29 -9 -43 -15s-26 -13 -37 -21s-20 -16 -27 -24l-24 71c5 11 13 22 24 33s24 21 40 30s34 16 54 21s42 8 65 8c37 0 71 -6 103 -18s59 -29 82 -51s41 -49 54 -81s19 -68 19 -108c0 -35 -6 -68 -17 -100s-27 -60 -48 -84
s-47 -43 -77 -57s-64 -21 -102 -21c-36 0 -68 7 -97 21s-53 33 -73 57s-35 52 -46 84s-16 65 -16 100c0 11 1 22 3 34h382c-5 44 -23 77 -54 99s-70 33 -118 33zM145 186l2 2c1 -15 5 -29 12 -42s17 -24 29 -34s26 -17 42 -22s33 -8 51 -8s35 3 52 8s32 12 45 21
s24 20 33 33s14 27 16 42h-282z" />
    <glyph glyph-name="circumflex" unicode="&#x2c6;" horiz-adv-x="432" 
d="M280 728l75 -148h-80l-59 73l-59 -73h-80l75 148h128z" />
    <glyph glyph-name="caron" unicode="&#x2c7;" horiz-adv-x="432" 
d="M152 580l-75 148h80l59 -73l59 73h80l-75 -148h-128z" />
    <glyph glyph-name="uni02C9" unicode="&#x2c9;" horiz-adv-x="451" 
d="M371 701v-86h-291v86h291z" />
    <glyph glyph-name="breve" unicode="&#x2d8;" horiz-adv-x="450" 
d="M370 722l-2 -2c-1 -19 -5 -37 -13 -54s-18 -32 -31 -44s-28 -22 -45 -29s-35 -10 -55 -10s-38 4 -55 11s-32 17 -45 29s-23 27 -31 44s-12 35 -13 54h85c2 -13 9 -24 20 -33s24 -13 39 -13s29 5 41 14s19 20 21 33h84z" />
    <glyph glyph-name="dotaccent" unicode="&#x2d9;" horiz-adv-x="314" 
d="M91 655l-3 -3c0 19 7 35 20 48s29 20 47 20c19 0 35 -6 48 -19s20 -29 20 -48c0 -18 -6 -33 -19 -46s-29 -19 -48 -19c-18 0 -33 7 -46 20s-19 29 -19 47z" />
    <glyph glyph-name="ring" unicode="&#x2da;" horiz-adv-x="360" 
d="M80 666c0 30 10 55 30 75s45 30 74 30s54 -10 74 -30s30 -45 30 -75c0 -29 -10 -54 -30 -74s-45 -30 -74 -30s-54 10 -74 30s-30 45 -30 74zM141 666c0 -12 4 -22 12 -30s18 -12 30 -12s22 4 30 12s12 18 12 30s-4 22 -12 30s-18 12 -30 12s-22 -4 -30 -12
s-12 -18 -12 -30z" />
    <glyph glyph-name="ogonek" unicode="&#x2db;" horiz-adv-x="340" 
d="M205 0l1 -2c-7 -10 -14 -21 -20 -33s-9 -25 -9 -39c0 -17 5 -30 15 -39s23 -14 38 -14c4 0 8 1 12 2s8 3 11 5l12 -73c-5 -6 -13 -12 -24 -18s-25 -9 -42 -9c-37 0 -65 10 -85 31s-30 46 -30 75c0 13 2 26 7 38s11 23 17 33s13 19 20 26s13 13 18 17h59z" />
    <glyph glyph-name="tilde" unicode="&#x2dc;" horiz-adv-x="487" 
d="M90 586l-3 -6c-7 19 -10 35 -10 48c0 27 9 48 26 64s38 24 63 24c17 0 33 -3 48 -10s29 -14 43 -22c9 -5 18 -10 26 -14s16 -6 23 -6c9 0 17 3 23 9s9 14 9 25v10c0 3 -1 7 -2 11h59c7 -16 10 -32 10 -49c0 -27 -8 -48 -24 -63s-37 -23 -62 -23c-15 0 -30 3 -45 10
s-28 14 -39 21c-13 7 -24 13 -32 17s-16 6 -23 6c-10 0 -18 -3 -24 -9s-9 -14 -9 -25v-9s1 -6 2 -9h-59z" />
    <glyph glyph-name="hungarumlaut" unicode="&#x2dd;" horiz-adv-x="519" 
d="M267 728l-110 -148h-77l65 148h122zM439 728l-110 -148h-77l65 148h122z" />
    <glyph glyph-name="uni0394" unicode="&#x394;" horiz-adv-x="645" 
d="M634 0h-625c23 62 45 123 67 182l66 177l66 177s44 120 67 182h95zM503 96l-181 502l-182 -502h363z" />
    <glyph glyph-name="uni03A9" unicode="&#x3a9;" horiz-adv-x="810" 
d="M405 730v-2c52 0 100 -10 143 -29s80 -45 111 -78s55 -72 72 -117s26 -93 26 -144c0 -32 -3 -62 -10 -90s-16 -53 -27 -76s-23 -42 -36 -58s-25 -28 -37 -35h117v-101h-272v81c24 12 46 27 67 45s39 39 54 62s27 49 36 78s13 60 13 93c0 38 -6 73 -18 106s-29 62 -52 86
s-50 43 -82 57s-67 21 -105 21s-73 -7 -105 -21s-59 -33 -82 -57s-40 -52 -52 -85s-18 -68 -18 -106c0 -33 4 -64 13 -93s21 -55 36 -78s33 -44 54 -62s43 -33 67 -45v-81h-272v101h117c-12 7 -24 19 -37 35s-25 36 -36 59s-20 48 -27 76s-10 58 -10 90c0 51 9 99 26 144
s41 84 72 117s68 59 111 78s91 29 143 29z" />
    <glyph glyph-name="uni03BC" unicode="&#x3bc;" horiz-adv-x="603" 
d="M298 -12h-2c-22 0 -44 3 -65 9s-41 15 -60 27v-237h-91v712h91v-280c0 -43 12 -76 36 -99s54 -34 90 -34c16 0 31 2 46 7s28 12 40 20s22 18 30 29s14 23 17 36v321h91v-499h-88v55c-7 -19 -22 -35 -45 -48s-53 -19 -90 -19z" />
    <glyph glyph-name="pi" unicode="&#x3c0;" horiz-adv-x="643" 
d="M228 0h-91v402h-90v97h549v-97h-90v-402h-91v402h-187v-402z" />
    <glyph glyph-name="uni0401" unicode="&#x401;" horiz-adv-x="533" 
d="M90 718h383v-101h-289v-197h259v-101h-259v-218h289v-101h-383v718zM116 846h-1c0 19 7 35 20 48s29 20 48 20s35 -7 48 -20s20 -29 20 -48s-7 -35 -20 -48s-29 -20 -48 -20s-35 7 -48 20s-19 29 -19 48zM316 846h-1c0 19 7 35 20 48s29 20 48 20s35 -7 48 -20
s20 -29 20 -48s-7 -35 -20 -48s-29 -20 -48 -20s-35 7 -48 20s-19 29 -19 48z" />
    <glyph glyph-name="uni0402" unicode="&#x402;" horiz-adv-x="644" 
d="M389 422l-4 4c29 0 57 -5 84 -15s51 -24 72 -43s38 -42 51 -70s19 -59 19 -94c0 -31 -5 -59 -16 -85s-25 -48 -43 -66s-38 -32 -61 -42s-47 -15 -72 -15s-46 5 -64 14s-31 19 -39 30l19 83c9 -9 20 -15 33 -19s27 -6 42 -6c33 0 59 10 78 29s29 44 29 75
c0 35 -13 64 -40 86s-62 33 -106 33c-23 0 -43 -1 -60 -4s-34 -7 -51 -12v-304h-94v619h-151v99h458v-99h-213v-213c21 6 42 10 63 12s43 3 66 3z" />
    <glyph glyph-name="uni0403" unicode="&#x403;" horiz-adv-x="488" 
d="M90 718h348v-101h-254v-617h-94v718zM396 910l-110 -138h-87l65 138h132z" />
    <glyph glyph-name="uni0404" unicode="&#x404;" horiz-adv-x="700" 
d="M394 91l3 -1c57 0 105 11 145 34s71 51 94 84l28 -84c-11 -19 -25 -37 -43 -54s-39 -31 -63 -43s-50 -22 -78 -29s-59 -11 -92 -11c-47 0 -92 9 -134 27s-79 43 -111 76s-57 72 -76 117s-28 96 -28 152s9 107 28 153s44 85 76 117s69 57 111 75s87 27 135 27
c33 0 63 -4 91 -11s53 -17 76 -29s43 -26 60 -42s30 -33 39 -50l-29 -84c-22 33 -53 60 -94 82s-87 33 -139 33c-70 0 -127 -18 -172 -55s-73 -88 -84 -153h328v-101h-330c4 -37 13 -70 27 -98s32 -52 55 -72s49 -35 79 -45s63 -15 98 -15z" />
    <glyph glyph-name="uni0405" unicode="&#x405;" horiz-adv-x="489" 
d="M353 356h-7c15 -13 28 -26 40 -39s22 -27 30 -41s15 -29 20 -45s7 -33 7 -52c0 -28 -5 -54 -15 -77s-24 -43 -42 -60s-39 -30 -64 -39s-53 -14 -84 -14c-25 0 -49 4 -72 11s-44 17 -63 29s-35 25 -49 39s-23 28 -28 42l29 96c22 -35 50 -63 84 -84s70 -32 108 -32
c34 0 59 8 75 24s24 37 24 62c0 19 -6 37 -17 54s-25 32 -42 45c-42 35 -77 64 -104 87s-49 43 -65 60c-22 23 -39 46 -51 68s-18 47 -18 74c0 25 5 48 14 68s22 37 38 51s36 25 59 33s48 12 75 12c20 0 39 -3 58 -8s36 -12 52 -21s30 -19 42 -31s22 -25 29 -38l-21 -94
c-19 25 -43 46 -72 64s-59 27 -90 27c-23 0 -43 -5 -59 -15s-24 -27 -24 -50c0 -17 6 -33 19 -49s26 -29 39 -39c25 -20 46 -36 62 -49s29 -24 39 -33s19 -16 26 -21s13 -10 18 -15z" />
    <glyph glyph-name="uni0406" unicode="&#x406;" horiz-adv-x="274" 
d="M90 718h94v-718h-94v718z" />
    <glyph glyph-name="uni0407" unicode="&#x407;" horiz-adv-x="274" 
d="M90 718h94v-718h-94v718zM-31 846h-1c0 19 7 35 20 48s29 20 48 20s35 -7 48 -20s20 -29 20 -48s-7 -35 -20 -48s-29 -20 -48 -20s-35 7 -48 20s-19 29 -19 48zM169 846h-1c0 19 7 35 20 48s29 20 48 20s35 -7 48 -20s20 -29 20 -48s-7 -35 -20 -48s-29 -20 -48 -20
s-35 7 -48 20s-19 29 -19 48z" />
    <glyph glyph-name="uni0408" unicode="&#x408;" horiz-adv-x="405" 
d="M320 179v-1c0 -61 -13 -108 -40 -141s-69 -50 -126 -50c-17 0 -33 2 -47 6s-27 10 -39 17s-22 15 -30 23s-14 16 -18 24l11 89c15 -17 32 -31 50 -41s38 -15 60 -15c26 0 47 8 62 24s23 44 23 84v520h94v-539z" />
    <glyph glyph-name="uni0409" unicode="&#x409;" horiz-adv-x="924" 
d="M684 101v-1c17 0 32 3 46 9s26 14 36 25s18 24 24 38s9 29 9 45c0 35 -11 63 -33 85s-49 33 -82 33h-126v-234h126zM558 717l2 -280h111c33 0 63 -5 91 -16s52 -26 72 -45s36 -42 47 -69s17 -56 17 -88c0 -33 -6 -63 -18 -90s-28 -50 -48 -69s-44 -34 -72 -44
s-58 -15 -90 -15h-204v617h-182l-1 -29c-4 -111 -11 -204 -22 -280s-26 -137 -45 -183s-42 -79 -69 -99s-58 -30 -93 -30c-6 0 -12 1 -18 2s-11 2 -14 3l-16 87c19 2 36 6 52 11s30 15 43 29s24 34 34 60s19 61 26 104s13 96 17 159s8 138 11 226l1 39h368z" />
    <glyph glyph-name="uni040A" unicode="&#x40a;" horiz-adv-x="934" 
d="M474 0v319h-290v-319h-94v718h94v-297h290v297h94v-282h111c33 0 63 -5 91 -16s52 -26 72 -45s36 -42 47 -69s17 -56 17 -88c0 -33 -6 -63 -18 -90s-28 -50 -48 -69s-44 -34 -72 -44s-58 -15 -90 -15h-204zM694 101v-1c17 0 32 3 46 9s26 14 36 25s18 24 24 38s9 29 9 45
c0 35 -11 63 -33 85s-49 33 -82 33h-126v-234h126z" />
    <glyph glyph-name="uni040B" unicode="&#x40b;" horiz-adv-x="661" 
d="M512 0l1 185c0 48 -11 82 -34 102s-57 30 -103 30c-23 0 -43 -1 -60 -4s-35 -7 -54 -12v-303h-94v619h-151v99h458v-99h-213v-213c21 5 42 9 63 12s44 4 69 4c29 0 56 -4 82 -11s49 -18 68 -34s34 -36 45 -60s17 -53 17 -88v-227h-94z" />
    <glyph glyph-name="uni040C" unicode="&#x40c;" horiz-adv-x="640" 
d="M90 718h94v-314l290 314h124l-321 -349l355 -369h-132l-316 325v-325h-94v718zM460 910l-110 -138h-87l65 138h132z" />
    <glyph glyph-name="uni040E" unicode="&#x40e;" horiz-adv-x="575" 
d="M27 718h104l166 -373l150 373h105l-287 -718h-106l89 223zM449 897l2 -1c1 -21 -3 -40 -12 -57s-21 -32 -36 -45s-32 -23 -52 -30s-41 -10 -64 -10s-44 4 -64 11s-37 17 -52 30s-27 28 -36 45s-13 36 -12 57l79 17c1 -19 9 -35 24 -49s35 -21 60 -21s45 7 60 21
s23 30 24 49z" />
    <glyph glyph-name="uni040F" unicode="&#x40f;" horiz-adv-x="746" 
d="M90 718h94v-617h378v617h94v-718h-238v-154h-90v154h-238v718z" />
    <glyph glyph-name="uni0410" unicode="&#x410;" horiz-adv-x="678" 
d="M667 0h-100l-65 165h-324l-64 -165h-103l278 718h101zM217 266h246l-124 316z" />
    <glyph glyph-name="uni0411" unicode="&#x411;" horiz-adv-x="561" 
d="M90 0v718h367v-101h-277v-181h111c33 0 63 -5 91 -16s52 -26 72 -45s36 -42 47 -69s17 -56 17 -88c0 -33 -6 -63 -18 -90s-28 -50 -48 -69s-44 -34 -72 -44s-58 -15 -90 -15h-200zM306 101v-1c17 0 32 3 46 9s26 14 36 25s18 24 24 38s9 29 9 45c0 35 -11 63 -33 85
s-49 33 -82 33h-126v-234h126z" />
    <glyph glyph-name="uni0412" unicode="&#x412;" horiz-adv-x="578" 
d="M271 718l-2 -2c33 0 63 -4 90 -13s50 -21 69 -37s34 -36 45 -61s16 -53 16 -85s-6 -59 -17 -81s-26 -41 -45 -56c29 -14 53 -35 72 -64s28 -65 28 -109c0 -34 -5 -64 -16 -90s-26 -48 -46 -66s-43 -31 -70 -40s-56 -14 -88 -14h-217v718h181zM182 314l-2 -213h142
c15 0 29 3 42 8s24 12 33 21s17 20 23 33s9 27 9 42c0 14 -3 28 -8 41s-12 25 -21 35s-20 18 -33 24s-28 9 -44 9h-141zM180 617v-201h110c30 0 55 9 74 27s29 42 29 73c0 29 -9 53 -28 72s-44 29 -75 29h-110z" />
    <glyph glyph-name="uni0413" unicode="&#x413;" horiz-adv-x="488" 
d="M90 718h348v-101h-254v-617h-94v718z" />
    <glyph glyph-name="uni0414" unicode="&#x414;" horiz-adv-x="780" 
d="M631 101h97v-255h-90v154h-520v-154h-90v255h57c22 38 43 77 62 117s35 83 49 128s25 93 33 144s12 107 12 167v61h390v-617zM535 101l-2 516h-204c0 -47 -4 -94 -11 -142s-17 -94 -29 -139s-26 -88 -42 -128s-33 -76 -52 -107h340z" />
    <glyph glyph-name="uni0415" unicode="&#x415;" horiz-adv-x="533" 
d="M90 718h383v-101h-289v-197h259v-101h-259v-218h289v-101h-383v718z" />
    <glyph glyph-name="uni0416" unicode="&#x416;" horiz-adv-x="936" 
d="M515 404l267 314h123l-300 -349l321 -369h-131l-280 325v-325h-94v325l-280 -325h-131l321 369l-300 349h123l267 -314v314h94v-314z" />
    <glyph glyph-name="uni0417" unicode="&#x417;" horiz-adv-x="525" 
d="M375 387h3c30 -17 54 -41 72 -72s27 -68 27 -111c0 -33 -6 -63 -17 -90s-27 -50 -47 -69s-44 -33 -71 -43s-57 -15 -89 -15c-27 0 -52 3 -75 10s-44 16 -63 27s-35 24 -48 38s-22 28 -28 42l26 86c23 -33 51 -58 83 -75s67 -25 104 -25c40 0 72 11 95 32s35 50 35 87
c0 15 -3 29 -9 43s-15 27 -26 38s-25 20 -42 26s-37 9 -60 9h-61v102h63c17 0 32 3 45 9s24 14 33 23s16 20 21 32s7 25 7 39c0 27 -9 50 -27 69s-42 29 -73 29c-35 0 -66 -8 -93 -25s-50 -38 -69 -64l-20 91c7 14 17 27 29 39s26 23 42 32s33 16 52 21s38 8 58 8
c29 0 55 -5 79 -15s45 -23 62 -40s30 -37 39 -60s14 -49 14 -77c0 -31 -6 -60 -19 -86s-30 -48 -52 -65z" />
    <glyph glyph-name="uni0418" unicode="&#x418;" horiz-adv-x="763" 
d="M673 0h-94v563l-387 -563h-102v718h94v-566l387 566h102v-718z" />
    <glyph glyph-name="uni0419" unicode="&#x419;" horiz-adv-x="763" 
d="M673 0h-94v563l-387 -563h-102v718h94v-566l387 566h102v-718zM543 897l2 -1c1 -21 -3 -40 -12 -57s-21 -32 -36 -45s-32 -23 -52 -30s-41 -10 -64 -10s-44 4 -64 11s-37 17 -52 30s-27 28 -36 45s-13 36 -12 57l79 17c1 -19 9 -35 24 -49s35 -21 60 -21s45 7 60 21
s23 30 24 49z" />
    <glyph glyph-name="uni041A" unicode="&#x41a;" horiz-adv-x="640" 
d="M90 718h94v-314l290 314h124l-321 -349l355 -369h-132l-316 325v-325h-94v718z" />
    <glyph glyph-name="uni041B" unicode="&#x41b;" horiz-adv-x="696" 
d="M606 718l2 -716h-94v617h-230l-1 -29c-4 -111 -11 -204 -22 -280s-26 -137 -45 -183s-42 -79 -69 -99s-58 -30 -93 -30c-6 0 -12 1 -18 2s-11 2 -14 3l-16 87c19 2 36 6 52 11s30 15 43 29s24 34 34 60s19 61 26 104s13 96 17 159s8 138 11 226l1 39h416z" />
    <glyph glyph-name="uni041C" unicode="&#x41c;" horiz-adv-x="952" 
d="M690 718h101l96 -718h-93l-75 548l-198 -548h-92l-202 548l-70 -548h-97l95 718h101l216 -581z" />
    <glyph glyph-name="uni041D" unicode="&#x41d;" horiz-adv-x="757" 
d="M90 718h94v-298h389v298h94v-718h-94v319h-389v-319h-94v718z" />
    <glyph glyph-name="uni041E" unicode="&#x41e;" horiz-adv-x="796" 
d="M398 730l1 -4c48 0 94 -9 137 -28s81 -45 114 -78s59 -72 78 -117s29 -94 29 -147s-10 -102 -29 -147s-45 -84 -78 -117s-71 -59 -114 -78s-88 -28 -135 -28c-49 0 -95 10 -139 29s-82 45 -115 78s-59 72 -78 117s-29 94 -29 147s10 102 29 148s45 85 78 118
s71 59 114 78s89 29 137 29zM400 624l-1 -3c-37 0 -72 -7 -104 -20s-60 -32 -84 -56s-43 -52 -57 -85s-21 -69 -21 -108s7 -75 21 -108s33 -61 57 -85s52 -42 84 -55s67 -19 104 -19s71 7 103 20s60 31 83 55s42 52 56 85s21 70 21 110c0 39 -7 75 -21 108s-32 61 -55 85
s-51 43 -83 56s-66 20 -103 20z" />
    <glyph glyph-name="uni041F" unicode="&#x41f;" horiz-adv-x="747" 
d="M90 718h567v-718h-94v617h-379v-617h-94v718z" />
    <glyph glyph-name="uni0420" unicode="&#x420;" horiz-adv-x="546" 
d="M290 718h-2c32 0 62 -5 90 -15s52 -25 72 -44s36 -42 48 -69s18 -57 18 -90c0 -32 -5 -61 -16 -88s-26 -50 -46 -69s-44 -34 -72 -45s-58 -16 -91 -16h-107v-282h-94v718h200zM182 617v-235h122c33 0 60 11 82 33s33 50 33 85c0 16 -3 31 -9 45s-14 27 -24 38
s-22 19 -36 25s-29 9 -46 9h-122z" />
    <glyph glyph-name="uni0421" unicode="&#x421;" horiz-adv-x="700" 
d="M665 124l-2 -9c-11 -19 -25 -37 -42 -54s-37 -31 -61 -43s-50 -21 -79 -28s-60 -10 -93 -10c-47 0 -92 9 -134 27s-79 43 -111 76s-57 72 -76 117s-28 96 -28 152s9 107 28 153s44 85 76 117s69 57 111 75s87 27 135 27c33 0 64 -4 92 -11s54 -17 77 -29s43 -26 60 -42
s30 -33 39 -50l-29 -84c-22 33 -53 61 -94 83s-87 33 -139 33c-39 0 -74 -6 -106 -18s-59 -30 -82 -53s-41 -51 -54 -84s-19 -71 -19 -113s6 -79 19 -112s31 -61 54 -84s51 -41 83 -53s67 -18 106 -18c57 0 106 12 146 35s72 51 95 84z" />
    <glyph glyph-name="uni0422" unicode="&#x422;" horiz-adv-x="576" 
d="M15 718h546v-99h-226v-619h-94v619h-226v99z" />
    <glyph glyph-name="uni0423" unicode="&#x423;" horiz-adv-x="575" 
d="M27 718h104l166 -373l150 373h105l-287 -718h-106l89 223z" />
    <glyph glyph-name="uni0424" unicode="&#x424;" horiz-adv-x="796" 
d="M351 74h-3c-45 1 -87 9 -125 24s-71 35 -98 60s-48 55 -64 90s-24 74 -24 117s8 82 24 117s38 65 65 90s60 45 98 59s80 22 125 23v76h94v-76c45 -1 87 -9 125 -23s71 -34 98 -59s49 -55 65 -90s24 -74 24 -117s-8 -82 -24 -117s-37 -65 -64 -90s-60 -45 -98 -60
s-79 -23 -124 -24v-85h-94v85zM658 365l-1 -2c0 30 -5 57 -16 80s-26 43 -45 59s-42 29 -69 38s-56 14 -87 15v-381c31 1 60 6 87 15s50 21 69 37s34 36 45 59s17 50 17 80zM131 363l-1 1c0 -30 6 -57 17 -80s26 -43 45 -59s42 -28 68 -37s55 -14 86 -15v381
c-31 -1 -60 -6 -86 -15s-49 -21 -68 -37s-34 -36 -45 -59s-16 -50 -16 -80z" />
    <glyph glyph-name="uni0425" unicode="&#x425;" horiz-adv-x="635" 
d="M140 0h-120l239 372l-224 346h115l166 -258l166 258h119l-224 -346l238 -372h-114l-181 281z" />
    <glyph glyph-name="uni0426" unicode="&#x426;" horiz-adv-x="797" 
d="M90 718h94v-617h370v617h94v-617h99v-255h-90v154h-567v718z" />
    <glyph glyph-name="uni0427" unicode="&#x427;" horiz-adv-x="587" 
d="M149 718l-2 -187c0 -48 12 -82 35 -102s58 -30 104 -30c23 0 44 1 62 4s36 7 55 12v303h94v-718h-94v312c-21 -5 -42 -9 -64 -12s-45 -4 -70 -4c-29 0 -56 4 -82 11s-49 19 -69 35s-35 36 -46 60s-17 54 -17 89v227h94z" />
    <glyph glyph-name="uni0428" unicode="&#x428;" horiz-adv-x="968" 
d="M90 718h94v-617h252v617h94v-617h254v617h94v-718h-788v718z" />
    <glyph glyph-name="uni0429" unicode="&#x429;" horiz-adv-x="1027" 
d="M90 718h94v-617h252v617h94v-617h254v617h94v-617h99v-255h-90v154h-797v718z" />
    <glyph glyph-name="uni042A" unicode="&#x42a;" horiz-adv-x="629" 
d="M169 0v617h-151v101h245v-282h111c33 0 63 -5 91 -16s52 -26 72 -45s36 -42 47 -69s17 -56 17 -88c0 -33 -6 -63 -18 -90s-28 -50 -48 -69s-44 -34 -72 -44s-58 -15 -90 -15h-204zM389 101v-1c17 0 32 3 46 9s26 14 36 25s18 24 24 38s9 29 9 45c0 35 -11 63 -33 85
s-49 33 -82 33h-126v-234h126z" />
    <glyph glyph-name="uni042B" unicode="&#x42b;" horiz-adv-x="794" 
d="M610 718h94v-718h-94v718zM290 0h-2c32 0 62 5 90 15s52 25 72 44s36 42 48 69s18 57 18 90c0 32 -5 61 -16 88s-26 50 -46 69s-44 34 -72 45s-58 16 -91 16h-107v282h-94v-718h200zM182 101v234h122c33 0 60 -11 82 -33s33 -50 33 -85c0 -16 -3 -31 -9 -45
s-14 -26 -24 -37s-22 -19 -36 -25s-29 -9 -46 -9h-122z" />
    <glyph glyph-name="uni042C" unicode="&#x42c;" horiz-adv-x="546" 
d="M288 0h2h-200v718h94v-282h107c33 0 63 -5 91 -16s52 -26 72 -45s35 -42 46 -69s16 -56 16 -88c0 -33 -6 -63 -18 -90s-28 -50 -48 -69s-44 -34 -72 -44s-58 -15 -90 -15zM182 335v-234h122c17 0 32 3 46 9s26 14 36 25s18 23 24 37s9 29 9 45c0 35 -11 63 -33 85
s-49 33 -82 33h-122z" />
    <glyph glyph-name="uni042D" unicode="&#x42d;" horiz-adv-x="703" 
d="M306 90l-1 1c35 0 68 5 98 15s56 25 79 45s41 44 55 72s23 61 27 98h-330v101h328c-11 65 -39 116 -84 153s-102 55 -172 55c-52 0 -98 -11 -139 -33s-72 -49 -94 -82l-29 84c9 17 22 34 39 50s37 30 60 42s49 22 77 29s59 11 92 11c48 0 93 -9 135 -27s79 -43 111 -75
s57 -71 76 -117s28 -97 28 -153s-9 -107 -28 -152s-44 -84 -76 -117s-69 -58 -111 -76s-87 -27 -134 -27c-33 0 -64 4 -92 11s-54 17 -78 29s-45 26 -63 43s-32 35 -43 54l28 84c23 -33 55 -61 95 -84s89 -34 146 -34z" />
    <glyph glyph-name="uni042E" unicode="&#x42e;" horiz-adv-x="1064" 
d="M666 730l-2 -2c48 0 94 -9 137 -28s81 -45 114 -78s59 -72 78 -117s29 -94 29 -147s-10 -102 -29 -147s-45 -84 -78 -117s-71 -59 -114 -78s-88 -28 -135 -28c-46 0 -89 8 -130 25s-78 40 -110 69s-58 64 -79 104s-34 84 -39 132h-126v-319h-94v718h94v-298h129
c7 45 21 86 42 124s48 71 80 99s68 50 108 65s82 23 125 23zM665 626l-1 -3c-37 0 -72 -7 -104 -20s-60 -32 -84 -56s-43 -52 -57 -85s-21 -69 -21 -108s7 -75 21 -108s33 -61 57 -85s52 -42 84 -55s67 -19 104 -19s71 7 103 20s60 31 83 55s42 52 56 85s21 70 21 110
c0 39 -7 75 -21 108s-32 61 -55 85s-51 43 -83 56s-66 20 -103 20z" />
    <glyph glyph-name="uni042F" unicode="&#x42f;" horiz-adv-x="558" 
d="M468 0l-95 -3v298h-69l-162 -298h-111l169 310c-45 13 -80 36 -106 69s-39 76 -39 129c0 35 6 66 18 92s29 48 50 66s44 32 70 41s53 14 80 14h195v-718zM258 614l-3 2c-16 0 -31 -3 -44 -9s-24 -14 -33 -24s-16 -22 -21 -35s-8 -28 -8 -44c0 -32 10 -58 31 -78
s47 -30 78 -30h115v218h-115z" />
    <glyph glyph-name="uni0430" unicode="&#x430;" horiz-adv-x="551" 
d="M383 177l1 -4c-8 14 -24 25 -48 32s-50 11 -77 11c-38 0 -67 -6 -88 -18s-31 -28 -31 -49c0 -20 10 -36 30 -48s50 -18 89 -18c13 0 26 1 39 4s25 7 36 12s21 11 30 18s15 14 19 22v38zM75 420h-1c19 26 45 47 78 63s69 24 109 24c67 0 119 -17 157 -51s57 -82 57 -144
v-315h-88v44c-6 -9 -14 -17 -25 -24s-23 -13 -36 -18s-26 -9 -40 -12s-28 -4 -42 -4c-59 0 -106 14 -142 42s-54 68 -54 119c0 26 5 49 15 69s24 37 42 51s39 25 63 32s50 11 78 11c11 0 23 -1 36 -3s26 -4 38 -7s24 -7 35 -12s20 -11 28 -18v24c0 21 -4 39 -11 54
s-17 27 -29 37s-26 17 -42 22s-33 7 -51 7c-32 0 -61 -6 -87 -19s-47 -30 -62 -51z" />
    <glyph glyph-name="uni0431" unicode="&#x431;" horiz-adv-x="621" 
d="M527 654l-4 -5c-15 -13 -32 -23 -50 -31s-37 -14 -57 -19s-40 -10 -60 -14s-39 -9 -58 -14c-29 -8 -53 -18 -72 -31s-34 -27 -45 -43s-18 -33 -22 -51s-6 -37 -6 -57c11 19 24 34 39 46s31 21 47 28s33 12 50 14s33 3 48 3c33 0 64 -6 92 -18s53 -28 74 -49
s37 -46 49 -75s18 -61 18 -96s-6 -68 -19 -99s-30 -58 -52 -81s-48 -41 -78 -54s-62 -20 -97 -20c-39 0 -75 7 -107 21s-60 35 -83 63s-41 63 -54 105s-19 91 -19 147c0 41 3 80 10 116s18 68 32 96s33 52 56 72s51 36 84 48c20 7 41 13 62 18s43 10 65 15s44 11 65 18
s41 16 60 27zM316 80v-2c23 0 45 4 65 11s37 17 51 30s25 29 33 47s12 39 12 62c0 22 -4 42 -12 61s-19 35 -33 48s-31 23 -51 30s-42 11 -66 11c-17 0 -34 -2 -51 -7s-33 -12 -48 -22s-28 -22 -40 -37s-21 -32 -27 -51c1 -29 6 -54 15 -76s21 -41 36 -57s32 -28 52 -36
s41 -12 64 -12z" />
    <glyph glyph-name="uni0432" unicode="&#x432;" horiz-adv-x="513" 
d="M272 499h-3c49 0 89 -12 120 -36s47 -57 47 -99c0 -21 -3 -40 -9 -57s-17 -32 -34 -45c45 -22 68 -61 68 -118c0 -21 -4 -40 -13 -58s-21 -33 -36 -46s-33 -23 -54 -30s-43 -10 -67 -10h-209v499h190zM306 95c18 0 33 5 44 15s17 24 17 41s-6 30 -18 39s-26 14 -43 14
h-136v-109h136zM286 298l-2 -2c17 0 31 5 42 15s16 23 16 38c0 18 -6 32 -17 41s-24 14 -39 14h-116v-106h116z" />
    <glyph glyph-name="uni0433" unicode="&#x433;" horiz-adv-x="429" 
d="M394 499v-97h-221v-402h-91v499h312z" />
    <glyph glyph-name="uni0434" unicode="&#x434;" horiz-adv-x="633" 
d="M79 97v2c12 18 24 39 36 63s23 51 33 81s18 64 24 101s9 78 9 123v32h331v-402h83v-230h-87v133h-391v-133h-87v230h49zM421 99l-2 306h-156c-2 -36 -6 -70 -12 -102s-13 -61 -21 -87s-17 -49 -26 -69s-17 -36 -24 -48h241z" />
    <glyph glyph-name="uni0435" unicode="&#x435;" horiz-adv-x="574" 
d="M312 85l-3 5c16 0 32 2 47 6s30 9 44 15s26 13 37 21s20 16 27 24l24 -71c-5 -11 -13 -22 -24 -33s-24 -21 -40 -30s-34 -16 -54 -21s-42 -8 -65 -8c-37 0 -71 6 -103 18s-59 29 -82 51s-41 49 -54 81s-19 68 -19 108c0 35 6 68 17 100s27 60 48 84s47 43 77 57
s64 21 102 21c36 0 68 -7 97 -21s54 -33 74 -57s36 -52 47 -84s16 -65 16 -100c0 -11 -1 -22 -3 -34h-382c5 -44 23 -77 54 -99s70 -33 118 -33zM426 313l-2 -3c-1 15 -5 29 -12 42s-17 24 -29 34s-26 18 -42 23s-33 8 -51 8s-35 -3 -52 -8s-32 -12 -45 -21s-24 -20 -33 -33
s-14 -27 -16 -42h282z" />
    <glyph glyph-name="uni0436" unicode="&#x436;" horiz-adv-x="779" 
d="M435 288l197 211h117l-224 -241l248 -258h-127l-211 222v-222h-91v222l-211 -222h-127l248 258l-224 241h117l197 -211v211h91v-211z" />
    <glyph glyph-name="uni0437" unicode="&#x437;" horiz-adv-x="476" 
d="M223 85l-5 -3c35 0 62 6 80 19s27 28 27 45c0 18 -8 33 -24 44s-39 17 -69 17h-66v97h57c26 0 46 5 60 14s21 23 21 42c0 15 -7 28 -22 38s-35 15 -60 15c-23 0 -46 -4 -69 -13s-46 -24 -69 -45l-24 73c17 23 40 43 69 59s63 24 102 24c25 0 48 -3 69 -10s39 -16 54 -28
s27 -26 35 -43s12 -36 12 -57c0 -25 -5 -47 -15 -66s-24 -33 -42 -42c53 -21 80 -63 80 -125c0 -23 -5 -44 -16 -63s-25 -35 -43 -48s-39 -23 -63 -30s-49 -11 -75 -11c-40 0 -75 7 -105 22s-55 36 -74 63l24 74c34 -41 84 -62 151 -62z" />
    <glyph glyph-name="uni0438" unicode="&#x438;" horiz-adv-x="612" 
d="M173 499v-349l266 349h91v-499h-91v349l-266 -349h-91v499h91z" />
    <glyph glyph-name="uni0439" unicode="&#x439;" horiz-adv-x="612" 
d="M173 499v-349l266 349h91v-499h-91v349l-266 -349h-91v499h91zM466 699l-2 -2c0 -21 -4 -40 -12 -58s-19 -33 -33 -46s-31 -23 -51 -30s-41 -11 -63 -11s-43 4 -63 11s-37 17 -51 30s-25 28 -33 46s-12 38 -12 59l79 13c1 -17 9 -32 23 -46s33 -21 58 -21s44 7 58 21
s22 30 23 47z" />
    <glyph glyph-name="uni043A" unicode="&#x43a;" horiz-adv-x="545" 
d="M82 499h91v-210l221 210h124l-252 -241l276 -258h-135l-234 220v-220h-91v499z" />
    <glyph glyph-name="uni043B" unicode="&#x43b;" horiz-adv-x="594" 
d="M17 85v-2c22 3 42 9 59 19s32 29 44 56s22 65 29 114s12 114 15 195l1 32h348v-499h-91v402h-171l-1 -24c-5 -129 -23 -225 -54 -288s-75 -94 -132 -94c-13 0 -23 1 -31 4z" />
    <glyph glyph-name="uni043C" unicode="&#x43c;" horiz-adv-x="762" 
d="M535 499h94l78 -499h-90l-55 330l-139 -330h-84l-136 332l-55 -332h-93l78 499h92l155 -367z" />
    <glyph glyph-name="uni043D" unicode="&#x43d;" horiz-adv-x="608" 
d="M173 499v-193h262v193h91v-499h-91v209h-262v-209h-91v499h91z" />
    <glyph glyph-name="uni043E" unicode="&#x43e;" 
d="M552 249v-1c0 -37 -7 -72 -21 -104s-32 -60 -55 -83s-50 -41 -80 -54s-62 -19 -96 -19s-66 7 -97 20s-58 31 -81 54s-41 51 -54 83s-20 67 -20 104s7 72 20 104s31 60 54 83s50 41 81 54s63 20 97 20s66 -7 96 -20s57 -31 80 -54s41 -51 55 -83s21 -67 21 -104zM139 248
v-3c0 -25 4 -47 12 -67s19 -37 34 -51s32 -25 51 -33s40 -12 63 -12s44 4 64 12s37 19 52 33s26 31 34 51s12 42 12 67s-4 48 -12 68s-19 38 -34 53s-32 26 -52 34s-41 12 -64 12s-44 -4 -63 -12s-36 -19 -51 -34s-26 -32 -34 -52s-12 -42 -12 -66z" />
    <glyph glyph-name="uni043F" unicode="&#x43f;" horiz-adv-x="602" 
d="M520 499v-499h-91v402h-256v-402h-91v499h438z" />
    <glyph glyph-name="uni0440" unicode="&#x440;" horiz-adv-x="628" 
d="M580 249l-1 -1c0 -39 -7 -74 -21 -106s-33 -59 -56 -82s-50 -41 -81 -54s-63 -19 -97 -19c-38 0 -71 6 -98 19s-45 29 -53 48v-267h-91v712h88v-53c8 19 26 35 54 47s61 18 99 18c35 0 68 -6 99 -19s58 -31 81 -54s42 -51 56 -83s21 -67 21 -106zM488 250v2
c0 50 -15 90 -46 119s-72 44 -123 44c-35 0 -66 -8 -94 -24s-46 -36 -55 -60v-163c9 -24 27 -44 55 -60s59 -24 94 -24c51 0 92 15 123 45s46 70 46 121z" />
    <glyph glyph-name="uni0441" unicode="&#x441;" horiz-adv-x="540" 
d="M492 75l-4 -6c-5 -11 -13 -22 -24 -32s-24 -19 -40 -27s-34 -14 -54 -19s-42 -7 -65 -7c-34 0 -67 6 -98 19s-58 31 -82 54s-43 51 -57 83s-21 68 -21 107s7 75 21 107s33 60 57 83s52 41 83 54s64 19 98 19c23 0 44 -2 64 -7s38 -11 54 -19s29 -17 40 -27s19 -20 24 -31
l-24 -72c-14 16 -34 30 -59 42s-52 18 -81 18c-56 0 -101 -15 -135 -45s-51 -70 -51 -120c0 -25 5 -47 14 -67s22 -37 38 -51s35 -25 58 -33s48 -12 76 -12c31 0 59 6 84 18s45 26 59 42z" />
    <glyph glyph-name="uni0442" unicode="&#x442;" horiz-adv-x="493" 
d="M458 402h-166v-402h-91v402h-166v97h423v-97z" />
    <glyph glyph-name="uni0443" unicode="&#x443;" horiz-adv-x="547" 
d="M18 499h102l153 -367l152 367h101l-297 -712h-101l96 232z" />
    <glyph glyph-name="uni0444" unicode="&#x444;" horiz-adv-x="739" 
d="M139 248l-1 -1c0 -54 17 -94 51 -120s79 -39 134 -39v319c-27 0 -52 -3 -75 -9s-42 -16 -58 -29s-29 -30 -38 -50s-13 -44 -13 -71zM414 510v-3c41 -1 78 -7 112 -19s63 -29 87 -52s43 -50 56 -82s20 -68 20 -108s-7 -76 -20 -108s-32 -59 -56 -82s-53 -40 -87 -52
s-71 -18 -112 -19v-201h-91v201c-41 1 -78 7 -112 19s-63 29 -87 52s-43 50 -56 82s-20 68 -20 108s7 76 20 108s32 60 56 83s53 41 87 53s71 19 112 20v217h91v-217zM599 244l-1 1c0 27 -4 51 -13 71s-22 37 -38 50s-35 23 -58 29s-48 9 -75 9v-319c55 0 100 13 134 39
s51 66 51 120z" />
    <glyph glyph-name="uni0445" unicode="&#x445;" horiz-adv-x="519" 
d="M126 0h-112l188 265l-169 234h111l113 -158l114 158h113l-169 -235l190 -264h-110l-136 187z" />
    <glyph glyph-name="uni0446" unicode="&#x446;" horiz-adv-x="638" 
d="M513 -133v133h-431v499h91v-402h253v402h91v-402h83v-230h-87z" />
    <glyph glyph-name="uni0447" unicode="&#x447;" horiz-adv-x="515" 
d="M55 499l85 -2v-112c0 -41 9 -69 27 -85s44 -24 77 -24c16 0 32 2 49 5s32 9 45 17v199h91v-499h-91v198c-12 -5 -26 -9 -41 -12s-33 -4 -54 -4c-25 0 -49 3 -72 10s-43 18 -60 33s-31 35 -41 59s-15 53 -15 87v130z" />
    <glyph glyph-name="uni0448" unicode="&#x448;" horiz-adv-x="815" 
d="M82 0v499h91v-402h189v402h91v-402h189v402h91v-499h-651z" />
    <glyph glyph-name="uni0449" unicode="&#x449;" horiz-adv-x="854" 
d="M453 499v-402h189v402h91v-402h83v-230h-87v133h-647v499h91v-402h189v402h91z" />
    <glyph glyph-name="uni044A" unicode="&#x44a;" horiz-adv-x="581" 
d="M154 0l-2 400h-129v97h220v-149h102c27 0 52 -4 75 -13s43 -21 60 -37s30 -34 40 -55s15 -44 15 -69c0 -26 -5 -50 -15 -71s-23 -39 -40 -55s-37 -28 -60 -36s-48 -12 -74 -12h-192zM357 95v-1c25 0 45 8 60 23s23 34 23 57s-8 42 -24 56s-36 21 -59 21h-114v-156h114z
" />
    <glyph glyph-name="uni044B" unicode="&#x44b;" horiz-adv-x="702" 
d="M529 499h91v-499h-91v499zM82 0l-2 497h91v-149h92c27 0 52 -4 75 -13s43 -21 60 -37s30 -34 40 -55s15 -44 15 -69c0 -26 -5 -50 -15 -71s-23 -39 -40 -55s-37 -28 -60 -36s-48 -12 -74 -12h-182zM275 95v-1c25 0 45 8 60 23s23 34 23 57s-8 42 -24 56s-36 21 -59 21
h-104v-156h104z" />
    <glyph glyph-name="uni044C" unicode="&#x44c;" horiz-adv-x="509" 
d="M82 0l-2 497h91v-149h102c27 0 52 -4 75 -13s43 -21 60 -37s30 -34 40 -55s15 -44 15 -69c0 -26 -5 -50 -15 -71s-23 -39 -40 -55s-37 -28 -60 -36s-48 -12 -74 -12h-192zM285 95v-1c25 0 45 8 60 23s23 34 23 57s-8 42 -24 56s-36 21 -59 21h-114v-156h114z" />
    <glyph glyph-name="uni044D" unicode="&#x44d;" horiz-adv-x="540" 
d="M72 147h-3c13 -17 32 -31 56 -43s52 -18 84 -18c48 0 89 10 122 30s54 52 63 95h-208v95h203c-11 38 -32 66 -63 83s-68 26 -112 26c-29 0 -56 -6 -81 -18s-45 -26 -59 -42l-24 72c5 11 13 22 24 32s25 19 41 27s34 14 54 19s41 7 64 7c37 0 71 -6 102 -19s58 -31 81 -54
s41 -51 54 -83s20 -67 20 -106s-7 -75 -20 -107s-31 -59 -54 -82s-50 -41 -81 -54s-65 -19 -102 -19c-21 0 -42 2 -62 7s-38 11 -54 19s-30 17 -42 27s-21 21 -27 32z" />
    <glyph glyph-name="uni044E" unicode="&#x44e;" horiz-adv-x="810" 
d="M762 249v-3c0 -37 -7 -72 -21 -104s-32 -60 -55 -83s-50 -41 -80 -54s-62 -19 -96 -19c-31 0 -61 5 -89 16s-53 26 -75 46s-40 43 -55 70s-25 57 -30 90h-88v-209h-91v499h91v-193h91c6 30 17 58 32 83s34 47 56 65s47 32 74 42s55 15 84 15c34 0 66 -7 96 -20
s57 -31 80 -54s41 -51 55 -83s21 -67 21 -104zM349 246v-3c0 -25 4 -47 12 -67s19 -37 34 -51s32 -25 51 -33s40 -12 63 -12s44 4 64 12s37 19 52 33s26 31 34 51s12 42 12 67s-4 48 -12 68s-19 38 -34 53s-32 26 -52 34s-41 12 -64 12s-44 -4 -63 -12s-36 -19 -51 -34
s-26 -32 -34 -52s-12 -42 -12 -66z" />
    <glyph glyph-name="uni044F" unicode="&#x44f;" horiz-adv-x="506" 
d="M424 499l1 -499h-91v155h-87l-107 -155h-104l118 171c-31 13 -56 33 -75 60s-28 59 -28 96c0 26 5 50 15 71s23 39 39 54s35 27 57 35s46 12 72 12h190zM220 402l-1 -1c-24 0 -43 -7 -57 -21s-21 -32 -21 -54c0 -24 7 -42 22 -55s34 -19 57 -19h114v150h-114z" />
    <glyph glyph-name="uni0451" unicode="&#x451;" horiz-adv-x="574" 
d="M312 85l-3 5c16 0 32 2 47 6s30 9 44 15s26 13 37 21s20 16 27 24l24 -71c-5 -11 -13 -22 -24 -33s-24 -21 -40 -30s-34 -16 -54 -21s-42 -8 -65 -8c-37 0 -71 6 -103 18s-59 29 -82 51s-41 49 -54 81s-19 68 -19 108c0 35 6 68 17 100s27 60 48 84s47 43 77 57
s64 21 102 21c36 0 68 -7 97 -21s54 -33 74 -57s36 -52 47 -84s16 -65 16 -100c0 -11 -1 -22 -3 -34h-382c5 -44 23 -77 54 -99s70 -33 118 -33zM426 313l-2 -3c-1 15 -5 29 -12 42s-17 24 -29 34s-26 18 -42 23s-33 8 -51 8s-35 -3 -52 -8s-32 -12 -45 -21s-24 -20 -33 -33
s-14 -27 -16 -42h282zM124 657l-3 -3c0 19 7 35 20 48s29 20 47 20c19 0 35 -6 48 -19s20 -29 20 -48c0 -18 -6 -33 -19 -46s-29 -19 -48 -19c-18 0 -33 7 -46 20s-19 29 -19 47zM318 654l-3 -3c0 19 7 35 20 48s29 20 47 20c19 0 35 -6 48 -19s20 -29 20 -48
c0 -18 -6 -33 -19 -46s-29 -19 -48 -19c-18 0 -33 7 -46 20s-19 29 -19 47z" />
    <glyph glyph-name="uni0452" unicode="&#x452;" horiz-adv-x="602" 
d="M437 260l-1 -4c0 21 -3 40 -10 57s-16 31 -27 42s-24 20 -39 26s-32 9 -50 9c-16 0 -31 -2 -46 -7s-28 -11 -40 -19s-22 -18 -30 -29s-13 -23 -16 -36v-301h-91v565h-80v92h80v71h91v-71h147v-92h-147v-141c7 19 22 35 45 48s52 20 88 20c27 0 53 -4 79 -13
s49 -23 70 -41s38 -42 51 -71s19 -63 19 -103v-328c0 -106 -40 -159 -120 -159c-14 0 -29 3 -46 9s-31 15 -43 28l7 81c7 -6 15 -11 24 -15s18 -6 26 -6c23 0 39 7 47 21s12 35 12 62v305z" />
    <glyph glyph-name="uni0453" unicode="&#x453;" horiz-adv-x="429" 
d="M394 499v-97h-221v-402h-91v499h312zM361 728l-110 -148h-83l65 148h128z" />
    <glyph glyph-name="uni0454" unicode="&#x454;" horiz-adv-x="540" 
d="M469 147h-1l24 -74c-6 -11 -15 -22 -27 -32s-26 -19 -42 -27s-34 -14 -54 -19s-41 -7 -62 -7c-37 0 -71 6 -102 19s-58 31 -81 54s-41 50 -54 82s-20 68 -20 107s7 74 20 106s31 60 54 83s50 41 81 54s65 19 102 19c23 0 44 -2 64 -7s38 -11 54 -19s29 -17 40 -27
s19 -21 24 -32l-24 -72c-14 16 -34 30 -59 42s-52 18 -81 18c-44 0 -81 -9 -112 -26s-52 -45 -63 -83h203v-95h-208c9 -43 30 -75 63 -95s74 -30 122 -30c32 0 60 6 84 18s42 26 55 43z" />
    <glyph glyph-name="uni0455" unicode="&#x455;" horiz-adv-x="424" 
d="M161 236l-2 -3c-34 18 -60 38 -78 61s-27 49 -27 78c0 40 13 73 39 98s64 38 113 38c17 0 33 -2 48 -6s29 -10 41 -17s23 -15 32 -24s16 -17 21 -25l-15 -81c-18 17 -38 31 -60 41s-45 15 -68 15c-17 0 -31 -3 -43 -9s-18 -16 -18 -31c0 -14 5 -25 15 -33s24 -16 41 -25
l56 -30c39 -21 68 -42 88 -64s30 -50 30 -85c0 -21 -4 -41 -12 -59s-20 -34 -35 -47s-33 -23 -54 -30s-45 -11 -72 -11c-19 0 -37 2 -54 7s-32 11 -46 19s-26 18 -36 29s-18 23 -24 36l22 75c19 -21 40 -38 63 -50s51 -18 84 -18c9 0 18 1 27 3s17 5 24 9s13 9 17 16
s6 15 6 24c0 14 -6 27 -19 38s-30 22 -51 33z" />
    <glyph glyph-name="uni0456" unicode="&#x456;" horiz-adv-x="254" 
d="M82 499h91v-499h-91v499zM61 661l-3 -3c0 19 7 35 20 48s29 20 47 20c19 0 35 -6 48 -19s20 -29 20 -48c0 -18 -6 -33 -19 -46s-29 -19 -48 -19c-18 0 -33 7 -46 20s-19 29 -19 47z" />
    <glyph glyph-name="uni0457" unicode="&#x457;" horiz-adv-x="254" 
d="M82 499h91v-499h-91v499zM-37 654l-3 -3c0 19 7 35 20 48s29 20 47 20c19 0 35 -6 48 -19s20 -29 20 -48c0 -18 -6 -33 -19 -46s-29 -19 -48 -19c-18 0 -33 7 -46 20s-19 29 -19 47zM157 651l-3 -3c0 19 7 35 20 48s29 20 47 20c19 0 35 -6 48 -19s20 -29 20 -48
c0 -18 -6 -33 -19 -46s-29 -19 -48 -19c-18 0 -33 7 -46 20s-19 29 -19 47z" />
    <glyph glyph-name="uni0458" unicode="&#x458;" horiz-adv-x="260" 
d="M88 499h93v-565c0 -106 -40 -159 -120 -159c-14 0 -29 3 -46 9s-31 15 -43 28l7 81c7 -6 15 -11 24 -15s18 -6 26 -6c23 0 39 7 47 21s12 35 12 62v544zM69 661l-3 -3c0 19 7 35 20 48s29 20 47 20c19 0 35 -6 48 -19s20 -29 20 -48c0 -18 -6 -33 -19 -46
s-29 -19 -48 -19c-18 0 -33 7 -46 20s-19 29 -19 47z" />
    <glyph glyph-name="uni0459" unicode="&#x459;" horiz-adv-x="798" 
d="M249 378l-2 -4c-5 -129 -23 -225 -54 -288s-75 -94 -132 -94c-13 0 -23 1 -31 4l-16 85c22 3 42 9 59 19s32 29 44 56s22 65 29 114s12 114 15 195l1 32h312v-149h88c27 0 52 -4 75 -13s43 -21 60 -37s30 -34 40 -55s15 -44 15 -69c0 -26 -5 -50 -15 -71s-23 -39 -40 -55
s-37 -28 -60 -36s-48 -12 -74 -12h-178v402h-135zM574 93v-1c25 0 45 8 60 23s23 34 23 57s-8 42 -24 56s-36 21 -59 21h-100v-156h100z" />
    <glyph glyph-name="uni045A" unicode="&#x45a;" horiz-adv-x="814" 
d="M401 0l-2 206h-228v-208h-91v499h91v-192h228v192h91v-149h88c27 0 52 -4 75 -13s43 -21 60 -37s30 -34 40 -55s15 -44 15 -69c0 -26 -5 -50 -15 -71s-23 -39 -40 -55s-37 -28 -60 -36s-48 -12 -74 -12h-178zM590 95v-1c25 0 45 8 60 23s23 34 23 57s-8 42 -24 56
s-36 21 -59 21h-100v-156h100z" />
    <glyph glyph-name="uni045B" unicode="&#x45b;" horiz-adv-x="602" 
d="M437 0l-3 256c0 21 -3 40 -10 57s-16 31 -27 42s-24 20 -39 26s-32 9 -50 9c-16 0 -31 -2 -46 -7s-28 -11 -40 -19s-22 -18 -30 -29s-13 -23 -16 -36v-301h-91v565h-80v92h80v71h91v-71h147v-92h-147v-141c7 19 22 35 45 48s52 20 88 20c27 0 53 -4 79 -13s49 -23 70 -41
s38 -42 51 -71s19 -63 19 -103v-262h-91z" />
    <glyph glyph-name="uni045C" unicode="&#x45c;" horiz-adv-x="545" 
d="M82 499h91v-210l221 210h124l-252 -241l276 -258h-135l-234 220v-220h-91v499zM417 728l-110 -148h-83l65 148h128z" />
    <glyph glyph-name="uni045E" unicode="&#x45e;" horiz-adv-x="547" 
d="M18 499h102l153 -367l152 367h101l-297 -712h-101l96 232zM428 699l-2 -2c0 -21 -4 -40 -12 -58s-19 -33 -33 -46s-31 -23 -51 -30s-41 -11 -63 -11s-43 4 -63 11s-37 17 -51 30s-25 28 -33 46s-12 38 -12 59l79 13c1 -17 9 -32 23 -46s33 -21 58 -21s44 7 58 21
s22 30 23 47z" />
    <glyph glyph-name="uni045F" unicode="&#x45f;" horiz-adv-x="599" 
d="M343 0v-133h-87v133h-174v499h91v-402h253v402h91v-499h-174z" />
    <glyph glyph-name="uni0490" unicode="&#x490;" horiz-adv-x="488" 
d="M90 718h258v154h90v-255h-254v-617h-94v718z" />
    <glyph glyph-name="uni0491" unicode="&#x491;" horiz-adv-x="429" 
d="M307 499v133h87v-230h-221v-402h-91v499h225z" />
    <glyph glyph-name="uni0492" unicode="&#x492;" horiz-adv-x="510" 
d="M112 309h-100v101h100v308h348v-101h-254v-207h197v-101h-197v-309h-94v309z" />
    <glyph glyph-name="uni0493" unicode="&#x493;" horiz-adv-x="451" 
d="M416 499v-97h-221v-117h163v-93h-163v-192h-91v192h-74v93h74v214h312z" />
    <glyph glyph-name="uni049A" unicode="&#x49a;" horiz-adv-x="671" 
d="M90 718h94v-314l290 314h124l-321 -349l258 -268h106v-255h-90v154h-51l-316 325v-325h-94v718z" />
    <glyph glyph-name="uni049B" unicode="&#x49b;" horiz-adv-x="559" 
d="M266 258l172 -161h92v-230h-87v133h-36l-234 220v-220h-91v499h91v-210l221 210h124z" />
    <glyph glyph-name="uni04A2" unicode="&#x4a2;" horiz-adv-x="816" 
d="M90 718h94v-298h389v298h94v-617h99v-255h-90v154h-103v319h-389v-319h-94v718z" />
    <glyph glyph-name="uni04A3" unicode="&#x4a3;" horiz-adv-x="647" 
d="M609 97v-230h-87v133h-87v209h-262v-209h-91v499h91v-193h262v193h91v-402h83z" />
    <glyph glyph-name="uni04AE" unicode="&#x4ae;" horiz-adv-x="558" 
d="M8 718h106l163 -307l164 307h109l-223 -419v-299h-94v299z" />
    <glyph glyph-name="uni04AF" unicode="&#x4af;" horiz-adv-x="539" 
d="M315 -213h-91v207l-204 505h97l151 -381l151 381h100l-204 -505v-207z" />
    <glyph glyph-name="uni04B0" unicode="&#x4b0;" horiz-adv-x="558" 
d="M90 312h136l-218 406h106l163 -307l164 307h109l-216 -406h133v-101h-140v-211h-94v211h-143v101z" />
    <glyph glyph-name="uni04B1" unicode="&#x4b1;" horiz-adv-x="539" 
d="M315 -213h-91v213h-135v97h93l-162 402h97l151 -381l151 381h100l-163 -402h94v-97h-135v-213z" />
    <glyph glyph-name="uni04BA" unicode="&#x4ba;" horiz-adv-x="587" 
d="M438 0l-1 185c0 48 -11 82 -34 102s-57 30 -103 30c-23 0 -43 -1 -61 -4s-36 -7 -55 -12v-303h-94v718h94v-312c21 5 42 9 64 12s45 4 70 4c29 0 56 -4 82 -11s49 -18 69 -34s35 -36 46 -60s17 -53 17 -88v-227h-94z" />
    <glyph glyph-name="uni04BB" unicode="&#x4bb;" horiz-adv-x="598" 
d="M306 511l-3 -4c27 0 53 -4 79 -13s49 -23 70 -41s38 -42 51 -71s19 -63 19 -103v-282h-91v280c0 21 -3 40 -10 57s-16 31 -27 42s-24 20 -39 26s-32 9 -50 9c-16 0 -31 -2 -46 -7s-28 -11 -40 -19s-22 -18 -30 -29s-13 -23 -16 -36v-321h-91v728h91v-284
c7 19 22 35 45 48s52 20 88 20z" />
    <glyph glyph-name="uni04D8" unicode="&#x4d8;" horiz-adv-x="785" 
d="M643 413l-6 1c-7 38 -19 71 -35 98s-36 49 -59 67s-49 31 -78 39s-59 12 -91 12c-50 0 -97 -10 -141 -30s-80 -49 -108 -87l-29 84c12 21 28 40 47 56s41 30 66 42s52 21 81 27s59 9 90 9c49 0 95 -8 139 -25s83 -41 116 -73s60 -71 80 -117s30 -99 30 -158
c0 -53 -9 -102 -27 -147s-43 -84 -75 -117s-69 -59 -111 -78s-87 -28 -136 -28c-54 0 -103 10 -147 29s-81 45 -112 79s-55 74 -72 120s-25 96 -25 150v24s1 17 2 23h601zM389 91l1 1c28 0 56 4 83 12s52 21 75 38s43 40 59 68s27 63 32 104h-503c4 -43 14 -79 31 -108
s37 -52 61 -69s50 -29 78 -36s56 -10 83 -10z" />
    <glyph glyph-name="uni04D9" unicode="&#x4d9;" horiz-adv-x="574" 
d="M268 511l-1 -4c37 0 71 -6 102 -18s58 -29 81 -51s41 -49 54 -81s20 -68 20 -108c0 -35 -6 -68 -17 -100s-27 -60 -48 -84s-47 -43 -77 -57s-64 -21 -102 -21c-35 0 -67 7 -96 20s-53 31 -73 55s-36 52 -47 85s-17 70 -17 110c0 9 0 17 1 24s2 13 3 18h378
c-7 37 -24 65 -51 85s-63 30 -109 30c-67 0 -120 -22 -158 -66l-22 75c6 13 15 25 27 36s26 20 42 28s34 14 53 18s38 6 57 6zM143 204v-2c0 -35 12 -64 36 -87s57 -35 99 -35c21 0 41 3 59 9s34 15 47 26s23 24 31 39s13 32 14 50h-286z" />
    <glyph glyph-name="uni04E8" unicode="&#x4e8;" horiz-adv-x="796" 
d="M398 730l-3 -3c49 0 96 -9 140 -28s82 -45 114 -78s58 -72 77 -117s28 -94 28 -147c0 -54 -9 -104 -28 -149s-44 -84 -76 -117s-70 -59 -113 -77s-89 -27 -138 -27c-50 0 -97 9 -141 28s-82 45 -114 78s-57 72 -76 117s-28 94 -28 147s9 103 28 149s45 85 77 118
s70 59 113 78s90 28 140 28zM396 87l-2 -3c33 0 64 5 94 15s56 25 79 44s42 42 57 70s25 60 29 95h-519c5 -35 15 -66 30 -93s34 -50 57 -69s50 -34 80 -44s62 -15 95 -15zM394 622l-2 -2c-33 0 -64 -5 -93 -15s-55 -24 -78 -43s-42 -41 -57 -67s-25 -55 -30 -88h516
c-5 33 -15 63 -30 89s-34 49 -57 68s-49 33 -78 43s-59 15 -91 15z" />
    <glyph glyph-name="uni04E9" unicode="&#x4e9;" 
d="M552 249v-3c0 -39 -7 -74 -20 -106s-31 -59 -54 -82s-50 -41 -81 -54s-64 -19 -99 -19s-68 6 -99 19s-58 31 -81 54s-41 51 -54 83s-20 67 -20 106s7 74 20 106s31 60 54 83s50 41 81 54s64 20 99 20s68 -6 99 -19s58 -31 81 -54s41 -50 54 -82s20 -67 20 -106zM300 82
l-1 -2c40 0 75 11 104 32s47 52 54 92h-314c7 -40 25 -70 54 -91s63 -31 103 -31zM299 409c-38 0 -71 -10 -100 -30s-47 -48 -54 -85h308c-9 37 -27 65 -55 85s-61 30 -99 30z" />
    <glyph glyph-name="uni1E02" unicode="&#x1e02;" horiz-adv-x="578" 
d="M271 718l-2 -2c33 0 63 -4 90 -13s50 -21 69 -37s34 -36 45 -61s16 -53 16 -85s-6 -59 -17 -81s-26 -41 -45 -56c29 -14 53 -35 72 -64s28 -65 28 -109c0 -34 -5 -64 -16 -90s-26 -48 -46 -66s-43 -31 -70 -40s-56 -14 -88 -14h-217v718h181zM182 314l-2 -213h142
c15 0 29 3 42 8s24 12 33 21s17 20 23 33s9 27 9 42c0 14 -3 28 -8 41s-12 25 -21 35s-20 18 -33 24s-28 9 -44 9h-141zM180 617v-201h110c30 0 55 9 74 27s29 42 29 73c0 29 -9 53 -28 72s-44 29 -75 29h-110zM205 845l-3 -3c0 19 7 35 20 48s29 20 47 20
c19 0 35 -6 48 -19s20 -29 20 -48c0 -18 -6 -33 -19 -46s-29 -19 -48 -19c-18 0 -33 7 -46 20s-19 29 -19 47z" />
    <glyph glyph-name="uni1E03" unicode="&#x1e03;" horiz-adv-x="656" 
d="M580 250l2 -1c0 -39 -7 -74 -21 -106s-33 -60 -57 -83s-51 -41 -82 -54s-64 -19 -99 -19c-38 0 -71 6 -99 18s-46 28 -54 47v-53h-88v728h91v-283c8 19 26 35 53 48s60 19 98 19c34 0 67 -6 98 -19s58 -31 81 -54s42 -50 56 -82s21 -67 21 -106zM491 247v2
c0 51 -15 91 -46 121s-72 45 -123 45c-35 0 -66 -8 -94 -24s-46 -36 -55 -60v-163c9 -24 27 -44 55 -60s59 -24 94 -24c51 0 92 15 123 44s46 69 46 119zM272 814l-3 -3c0 19 7 35 20 48s29 20 47 20c19 0 35 -6 48 -19s20 -29 20 -48c0 -18 -6 -33 -19 -46s-29 -19 -48 -19
c-18 0 -33 7 -46 20s-19 29 -19 47z" />
    <glyph glyph-name="uni1E0A" unicode="&#x1e0a;" horiz-adv-x="737" 
d="M602 359l-3 1c0 36 -6 70 -19 101s-30 58 -52 81s-49 41 -80 54s-65 20 -102 20h-163v-516h163c36 0 70 6 101 18s58 30 81 53s41 50 54 82s20 67 20 106zM309 719v-3c56 0 108 -8 155 -24s88 -39 122 -69s61 -67 80 -112s29 -96 29 -153s-10 -107 -29 -151
s-46 -81 -81 -112s-76 -54 -123 -70s-98 -24 -153 -24h-222v718h222zM270 844l-3 -3c0 19 7 35 20 48s29 20 47 20c19 0 35 -6 48 -19s20 -29 20 -48c0 -18 -6 -33 -19 -46s-29 -19 -48 -19c-18 0 -33 7 -46 20s-19 29 -19 47z" />
    <glyph glyph-name="uni1E0B" unicode="&#x1e0b;" horiz-adv-x="568" 
d="M37 250l1 -2c0 39 7 74 21 106s33 60 56 83s50 41 81 54s64 19 98 19c38 0 71 -6 98 -19s45 -29 53 -48v283h91v-728h-87v53c-8 -19 -26 -34 -54 -46s-61 -18 -99 -18c-35 0 -68 6 -99 19s-58 31 -82 54s-43 51 -57 83s-21 68 -21 107zM129 246v-2c0 -50 15 -90 46 -119
s72 -44 123 -44c35 0 66 8 94 24s46 36 55 60v163c-9 24 -27 44 -55 60s-59 24 -94 24c-51 0 -92 -15 -123 -45s-46 -70 -46 -121zM239 809l-3 -3c0 19 7 35 20 48s29 20 47 20c19 0 35 -6 48 -19s20 -29 20 -48c0 -18 -6 -33 -19 -46s-29 -19 -48 -19c-18 0 -33 7 -46 20
s-19 29 -19 47z" />
    <glyph glyph-name="uni1E1E" unicode="&#x1e1e;" horiz-adv-x="488" 
d="M90 718h348v-101h-254v-197h234v-101h-234v-319h-94v718zM198 846l-3 -3c0 19 7 35 20 48s29 20 47 20c19 0 35 -6 48 -19s20 -29 20 -48c0 -18 -6 -33 -19 -46s-29 -19 -48 -19c-18 0 -33 7 -46 20s-19 29 -19 47z" />
    <glyph glyph-name="uni1E1F" unicode="&#x1e1f;" horiz-adv-x="429" 
d="M388 603v-3c-9 11 -21 21 -36 29s-32 12 -51 12c-23 0 -42 -7 -58 -21s-24 -35 -24 -64v-58h172v-97h-172v-402h-91v402h-92v97h92v70c0 25 3 48 9 69s16 39 29 54s29 27 49 36s43 13 69 13s50 -5 72 -16s38 -25 47 -42zM206 849l-3 -3c0 19 7 35 20 48s29 20 47 20
c19 0 35 -6 48 -19s20 -29 20 -48c0 -18 -6 -33 -19 -46s-29 -19 -48 -19c-18 0 -33 7 -46 20s-19 29 -19 47z" />
    <glyph glyph-name="uni1E40" unicode="&#x1e40;" horiz-adv-x="947" 
d="M690 718h101l96 -718h-93l-75 548l-198 -548h-92l-202 548l-70 -548h-97l95 718h101l216 -581zM402 846l-3 -3c0 19 7 35 20 48s29 20 47 20c19 0 35 -6 48 -19s20 -29 20 -48c0 -18 -6 -33 -19 -46s-29 -19 -48 -19c-18 0 -33 7 -46 20s-19 29 -19 47z" />
    <glyph glyph-name="uni1E41" unicode="&#x1e41;" horiz-adv-x="925" 
d="M307 511l5 -5c32 0 62 -6 90 -19s52 -34 73 -63c18 25 41 45 69 60s63 22 104 22c25 0 50 -4 75 -13s48 -22 68 -40s36 -41 48 -69s18 -61 18 -100v-290h-91v286c0 21 -3 39 -9 55s-15 29 -26 40s-24 19 -39 25s-31 9 -48 9c-15 0 -30 -2 -44 -7s-27 -11 -39 -19
s-22 -18 -30 -29s-13 -23 -16 -36v-322h-91v286c0 21 -3 39 -9 55s-15 29 -26 40s-24 19 -39 25s-31 9 -48 9c-15 0 -30 -2 -44 -7s-27 -11 -39 -19s-22 -18 -30 -29s-13 -23 -16 -36v-321h-91v499h88v-55c7 19 23 35 47 48s54 20 90 20zM410 650l-3 -3c0 19 7 35 20 48
s29 20 47 20c19 0 35 -6 48 -19s20 -29 20 -48c0 -18 -6 -33 -19 -46s-29 -19 -48 -19c-18 0 -33 7 -46 20s-19 29 -19 47z" />
    <glyph glyph-name="uni1E56" unicode="&#x1e56;" horiz-adv-x="546" 
d="M290 718h-2c32 0 62 -5 90 -15s52 -25 72 -44s36 -42 48 -69s18 -57 18 -90c0 -32 -5 -61 -16 -88s-26 -50 -46 -69s-44 -34 -72 -45s-58 -16 -91 -16h-107v-282h-94v718h200zM182 617v-235h122c33 0 60 11 82 33s33 50 33 85c0 16 -3 31 -9 45s-14 27 -24 38
s-22 19 -36 25s-29 9 -46 9h-122zM207 845l-3 -3c0 19 7 35 20 48s29 20 47 20c19 0 35 -6 48 -19s20 -29 20 -48c0 -18 -6 -33 -19 -46s-29 -19 -48 -19c-18 0 -33 7 -46 20s-19 29 -19 47z" />
    <glyph glyph-name="uni1E57" unicode="&#x1e57;" horiz-adv-x="656" 
d="M580 249l-1 -1c0 -39 -7 -74 -21 -106s-33 -59 -56 -82s-50 -41 -81 -54s-63 -19 -97 -19c-38 0 -71 6 -98 19s-45 29 -53 48v-267h-91v712h88v-53c8 19 26 35 54 47s61 18 99 18c35 0 68 -6 99 -19s58 -31 81 -54s42 -51 56 -83s21 -67 21 -106zM488 250v2
c0 50 -15 90 -46 119s-72 44 -123 44c-35 0 -66 -8 -94 -24s-46 -36 -55 -60v-163c9 -24 27 -44 55 -60s59 -24 94 -24c51 0 92 15 123 45s46 70 46 121zM253 656l-3 -3c0 19 7 35 20 48s29 20 47 20c19 0 35 -6 48 -19s20 -29 20 -48c0 -18 -6 -33 -19 -46s-29 -19 -48 -19
c-18 0 -33 7 -46 20s-19 29 -19 47z" />
    <glyph glyph-name="uni1E60" unicode="&#x1e60;" horiz-adv-x="489" 
d="M353 356h-7c15 -13 28 -26 40 -39s22 -27 30 -41s15 -29 20 -45s7 -33 7 -52c0 -28 -5 -54 -15 -77s-24 -43 -42 -60s-39 -30 -64 -39s-53 -14 -84 -14c-25 0 -49 4 -72 11s-44 17 -63 29s-35 25 -49 39s-23 28 -28 42l29 96c22 -35 50 -63 84 -84s70 -32 108 -32
c34 0 59 8 75 24s24 37 24 62c0 19 -6 37 -17 54s-25 32 -42 45c-42 35 -77 64 -104 87s-49 43 -65 60c-22 23 -39 46 -51 68s-18 47 -18 74c0 25 5 48 14 68s22 37 38 51s36 25 59 33s48 12 75 12c20 0 39 -3 58 -8s36 -12 52 -21s30 -19 42 -31s22 -25 29 -38l-21 -94
c-19 25 -43 46 -72 64s-59 27 -90 27c-23 0 -43 -5 -59 -15s-24 -27 -24 -50c0 -17 6 -33 19 -49s26 -29 39 -39c25 -20 46 -36 62 -49s29 -24 39 -33s19 -16 26 -21s13 -10 18 -15zM168 846l-3 -3c0 19 7 35 20 48s29 20 47 20c19 0 35 -6 48 -19s20 -29 20 -48
c0 -18 -6 -33 -19 -46s-29 -19 -48 -19c-18 0 -33 7 -46 20s-19 29 -19 47z" />
    <glyph glyph-name="uni1E61" unicode="&#x1e61;" horiz-adv-x="424" 
d="M161 236l-2 -3c-34 18 -60 38 -78 61s-27 49 -27 78c0 40 13 73 39 98s64 38 113 38c17 0 33 -2 48 -6s29 -10 41 -17s23 -15 32 -24s16 -17 21 -25l-15 -81c-18 17 -38 31 -60 41s-45 15 -68 15c-17 0 -31 -3 -43 -9s-18 -16 -18 -31c0 -14 5 -25 15 -33s24 -16 41 -25
l56 -30c39 -21 68 -42 88 -64s30 -50 30 -85c0 -21 -4 -41 -12 -59s-20 -34 -35 -47s-33 -23 -54 -30s-45 -11 -72 -11c-19 0 -37 2 -54 7s-32 11 -46 19s-26 18 -36 29s-18 23 -24 36l22 75c19 -21 40 -38 63 -50s51 -18 84 -18c9 0 18 1 27 3s17 5 24 9s13 9 17 16
s6 15 6 24c0 14 -6 27 -19 38s-30 22 -51 33zM138 652l-3 -3c0 19 7 35 20 48s29 20 47 20c19 0 35 -6 48 -19s20 -29 20 -48c0 -18 -6 -33 -19 -46s-29 -19 -48 -19c-18 0 -33 7 -46 20s-19 29 -19 47z" />
    <glyph glyph-name="uni1E6A" unicode="&#x1e6a;" horiz-adv-x="576" 
d="M15 718h546v-99h-226v-619h-94v619h-226v99zM222 846l-3 -3c0 19 7 35 20 48s29 20 47 20c19 0 35 -6 48 -19s20 -29 20 -48c0 -18 -6 -33 -19 -46s-29 -19 -48 -19c-18 0 -33 7 -46 20s-19 29 -19 47z" />
    <glyph glyph-name="uni1E6B" unicode="&#x1e6b;" horiz-adv-x="440" 
d="M392 51v-1c-9 -17 -24 -32 -45 -44s-46 -18 -76 -18c-100 0 -150 56 -150 169v245h-90v28l153 195h28v-126h175v-97h-175v-229c0 -32 7 -55 20 -68s33 -20 60 -20c19 0 35 4 48 11s24 16 33 27zM162 777l-3 -3c0 19 7 35 20 48s29 20 47 20c19 0 35 -6 48 -19
s20 -29 20 -48c0 -18 -6 -33 -19 -46s-29 -19 -48 -19c-18 0 -33 7 -46 20s-19 29 -19 47z" />
    <glyph glyph-name="Wgrave" unicode="&#x1e80;" horiz-adv-x="1020" 
d="M716 177l178 541h106l-238 -718h-94l-160 566l-156 -566h-94l-238 718h100l181 -541l154 541h102zM483 910l65 -138h-87l-110 138h132z" />
    <glyph glyph-name="wgrave" unicode="&#x1e81;" horiz-adv-x="858" 
d="M593 126l143 373h103l-197 -499h-93l-120 377l-120 -377h-93l-197 499h97l143 -373l119 373h96zM410 728l65 -148h-83l-110 148h128z" />
    <glyph glyph-name="Wacute" unicode="&#x1e82;" horiz-adv-x="1020" 
d="M716 177l178 541h106l-238 -718h-94l-160 566l-156 -566h-94l-238 718h100l181 -541l154 541h102zM661 910l-110 -138h-87l65 138h132z" />
    <glyph glyph-name="wacute" unicode="&#x1e83;" horiz-adv-x="858" 
d="M593 126l143 373h103l-197 -499h-93l-120 377l-120 -377h-93l-197 499h97l143 -373l119 373h96zM581 728l-110 -148h-83l65 148h128z" />
    <glyph glyph-name="Wdieresis" unicode="&#x1e84;" horiz-adv-x="1020" 
d="M716 177l178 541h106l-238 -718h-94l-160 566l-156 -566h-94l-238 718h100l181 -541l154 541h102zM341 846h-1c0 19 7 35 20 48s29 20 48 20s35 -7 48 -20s20 -29 20 -48s-7 -35 -20 -48s-29 -20 -48 -20s-35 7 -48 20s-19 29 -19 48zM541 846h-1c0 19 7 35 20 48
s29 20 48 20s35 -7 48 -20s20 -29 20 -48s-7 -35 -20 -48s-29 -20 -48 -20s-35 7 -48 20s-19 29 -19 48z" />
    <glyph glyph-name="wdieresis" unicode="&#x1e85;" horiz-adv-x="858" 
d="M593 126l143 373h103l-197 -499h-93l-120 377l-120 -377h-93l-197 499h97l143 -373l119 373h96zM264 655l-3 -3c0 19 7 35 20 48s29 20 47 20c19 0 35 -6 48 -19s20 -29 20 -48c0 -18 -6 -33 -19 -46s-29 -19 -48 -19c-18 0 -33 7 -46 20s-19 29 -19 47zM458 652l-3 -3
c0 19 7 35 20 48s29 20 47 20c19 0 35 -6 48 -19s20 -29 20 -48c0 -18 -6 -33 -19 -46s-29 -19 -48 -19c-18 0 -33 7 -46 20s-19 29 -19 47z" />
    <glyph glyph-name="Ygrave" unicode="&#x1ef2;" horiz-adv-x="558" 
d="M8 718h106l163 -307l164 307h109l-223 -419v-299h-94v299zM265 910l65 -138h-87l-110 138h132z" />
    <glyph glyph-name="ygrave" unicode="&#x1ef3;" horiz-adv-x="547" 
d="M18 499h102l153 -367l152 367h101l-297 -712h-101l96 232zM253 728l65 -148h-83l-110 148h128z" />
    <glyph glyph-name="endash" unicode="&#x2013;" horiz-adv-x="603" 
d="M50 318h503v-87h-503v87z" />
    <glyph glyph-name="emdash" unicode="&#x2014;" horiz-adv-x="938" 
d="M50 318h838v-87h-838v87z" />
    <glyph glyph-name="quoteleft" unicode="&#x2018;" horiz-adv-x="289" 
d="M167 600l2 -2c11 -3 21 -9 30 -18s14 -23 14 -42s-6 -34 -19 -46s-29 -18 -48 -18s-35 6 -48 19s-19 29 -19 48c0 16 3 30 8 42s11 24 18 36l61 109h60z" />
    <glyph glyph-name="quoteright" unicode="&#x2019;" horiz-adv-x="289" 
d="M122 604l-3 1c-11 3 -21 9 -30 18s-14 23 -14 42s6 35 19 47s29 18 48 18s35 -6 48 -19s20 -29 20 -48c0 -16 -2 -30 -7 -41s-11 -24 -19 -38l-61 -108h-60z" />
    <glyph glyph-name="quotesinglbase" unicode="&#x201a;" horiz-adv-x="289" 
d="M122 -2l-3 1c-11 3 -21 9 -30 18s-14 23 -14 42s6 35 19 47s29 18 48 18s35 -6 48 -19s20 -29 20 -48c0 -16 -2 -30 -7 -41s-11 -24 -19 -38l-61 -108h-60z" />
    <glyph glyph-name="quotedblleft" unicode="&#x201c;" horiz-adv-x="472" 
d="M350 600v-2c11 -3 21 -9 30 -18s14 -23 14 -42s-6 -34 -19 -46s-29 -18 -48 -18s-35 6 -48 19s-19 29 -19 48c0 16 3 30 8 41s12 24 20 38l61 108h60zM167 598v-2c11 -3 21 -9 30 -18s14 -23 14 -42s-6 -34 -19 -46s-29 -18 -48 -18s-35 6 -48 19s-19 29 -19 48
c0 16 3 30 8 41s12 24 20 38l61 108h60z" />
    <glyph glyph-name="quotedblright" unicode="&#x201d;" horiz-adv-x="472" 
d="M122 604l-3 1c-11 3 -21 9 -30 18s-14 23 -14 42s6 35 19 47s29 18 48 18s35 -6 48 -19s20 -29 20 -48c0 -16 -2 -30 -7 -41s-11 -24 -19 -38l-61 -108h-60zM302 605l-3 1c-11 3 -21 9 -30 18s-14 23 -14 42s6 35 19 47s29 18 48 18s35 -6 48 -19s20 -29 20 -48
c0 -16 -2 -30 -7 -41s-11 -24 -19 -38l-61 -108h-60z" />
    <glyph glyph-name="quotedblbase" unicode="&#x201e;" horiz-adv-x="472" 
d="M122 -2l-3 1c-11 3 -21 9 -30 18s-14 23 -14 42s6 35 19 47s29 18 48 18s35 -6 48 -19s20 -29 20 -48c0 -16 -2 -30 -7 -41s-11 -24 -19 -38l-61 -108h-60zM302 -1l-3 1c-11 3 -21 9 -30 18s-14 23 -14 42s6 35 19 47s29 18 48 18s35 -6 48 -19s20 -29 20 -48
c0 -16 -2 -30 -7 -41s-11 -24 -19 -38l-61 -108h-60z" />
    <glyph glyph-name="dagger" unicode="&#x2020;" horiz-adv-x="592" 
d="M75 513h175v205h91v-205h176v-97h-176v-594h-91v594h-175v97z" />
    <glyph glyph-name="daggerdbl" unicode="&#x2021;" horiz-adv-x="592" 
d="M341 718v-205h176v-97h-176v-292h176v-97h-176v-205h-91v205h-175v97h175v292h-175v97h175v205h91z" />
    <glyph glyph-name="bullet" unicode="&#x2022;" horiz-adv-x="397" 
d="M198 410l-4 -4c19 0 37 -3 53 -10s30 -16 42 -28s22 -26 29 -42s11 -33 11 -52c0 -18 -3 -35 -10 -51s-16 -30 -28 -42s-26 -22 -42 -29s-33 -10 -52 -10c-18 0 -35 4 -51 11s-30 17 -42 29s-22 26 -29 42s-10 33 -10 51c0 19 4 37 11 53s17 30 29 42s26 22 42 29
s33 11 51 11z" />
    <glyph glyph-name="ellipsis" unicode="&#x2026;" horiz-adv-x="799" 
d="M78 61c0 21 7 38 21 52s31 21 52 21c20 0 37 -7 51 -21s21 -31 21 -52s-7 -38 -21 -52s-31 -21 -51 -21c-21 0 -38 7 -52 21s-21 31 -21 52zM328 61c0 21 7 38 21 52s31 21 52 21c20 0 37 -7 51 -21s21 -31 21 -52s-7 -38 -21 -52s-31 -21 -51 -21c-21 0 -38 7 -52 21
s-21 31 -21 52zM578 61c0 21 7 38 21 52s31 21 52 21c20 0 37 -7 51 -21s21 -31 21 -52s-7 -38 -21 -52s-31 -21 -51 -21c-21 0 -38 7 -52 21s-21 31 -21 52z" />
    <glyph glyph-name="perthousand" unicode="&#x2030;" horiz-adv-x="1294" 
d="M190 0l413 718h96l-413 -718h-96zM219 378l-2 -4c-25 0 -48 5 -70 14s-41 22 -57 38s-28 35 -37 56s-13 44 -13 68s4 47 13 68s21 40 37 56s35 29 57 38s46 14 71 14s49 -5 71 -14s41 -22 57 -38s28 -34 37 -55s13 -43 13 -67s-4 -46 -13 -67s-21 -39 -37 -55
s-35 -29 -57 -38s-45 -14 -70 -14zM217 636c-28 0 -50 -9 -66 -26s-24 -37 -24 -60s8 -43 24 -60s38 -26 66 -26s50 9 66 26s24 37 24 60s-8 43 -24 60s-38 26 -66 26zM668 -14l-2 -4c-25 0 -48 5 -70 14s-41 22 -57 38s-28 35 -37 56s-13 44 -13 68s4 47 13 68s21 40 37 56
s35 29 57 38s46 14 71 14s49 -5 71 -14s41 -22 57 -38s28 -34 37 -55s13 -43 13 -67s-4 -46 -13 -67s-21 -39 -37 -55s-35 -29 -57 -38s-45 -14 -70 -14zM666 244c-28 0 -50 -9 -66 -26s-24 -37 -24 -60s8 -43 24 -60s38 -26 66 -26s50 9 66 26s24 37 24 60s-8 43 -24 60
s-38 26 -66 26zM1071 -18l-2 -4c-25 0 -48 5 -70 14s-41 22 -57 38s-28 35 -37 56s-13 44 -13 68s4 47 13 68s21 40 37 56s35 29 57 38s46 14 71 14s49 -5 71 -14s41 -22 57 -38s28 -34 37 -55s13 -43 13 -67s-4 -46 -13 -67s-21 -39 -37 -55s-35 -29 -57 -38
s-45 -14 -70 -14zM1069 240c-28 0 -50 -9 -66 -26s-24 -37 -24 -60s8 -43 24 -60s38 -26 66 -26s50 9 66 26s24 37 24 60s-8 43 -24 60s-38 26 -66 26z" />
    <glyph glyph-name="guilsinglleft" unicode="&#x2039;" horiz-adv-x="315" 
d="M260 88h-92l-133 178l133 178h92l-109 -178z" />
    <glyph glyph-name="guilsinglright" unicode="&#x203a;" horiz-adv-x="315" 
d="M147 88h-92l109 178l-109 178h92l133 -178z" />
    <glyph glyph-name="uni2042" unicode="&#x2042;" horiz-adv-x="854" 
d="M296 437l73 97l-114 35l20 64l115 -37v122h71v-122l115 37l21 -64l-114 -35l73 -97l-59 -45l-72 100l-70 -100zM78 34l73 97l-114 35l20 64l115 -37v122h71v-122l115 37l21 -64l-114 -35l73 -97l-59 -45l-72 100l-70 -100zM516 34l73 97l-114 35l20 64l115 -37v122h71
v-122l115 37l21 -64l-114 -35l73 -97l-59 -45l-72 100l-70 -100z" />
    <glyph glyph-name="fraction" unicode="&#x2044;" horiz-adv-x="173" 
d="M-85 0h-85l428 718h85z" />
    <glyph glyph-name="uni2051" unicode="&#x2051;" horiz-adv-x="416" 
d="M78 437l73 97l-114 35l20 64l115 -37v122h71v-122l115 37l21 -64l-114 -35l73 -97l-59 -45l-72 100l-70 -100zM78 34l73 97l-114 35l20 64l115 -37v122h71v-122l115 37l21 -64l-114 -35l73 -97l-59 -45l-72 100l-70 -100z" />
    <glyph glyph-name="n.superior" unicode="&#x207f;" horiz-adv-x="428" 
d="M229 636l-2 2c17 0 34 -3 51 -9s32 -15 45 -27s24 -27 33 -45s13 -39 13 -64v-192h-78v179c0 24 -7 42 -21 55s-32 19 -53 19c-19 0 -36 -5 -51 -15s-24 -22 -27 -37v-202h-78v328h78v-34c5 12 15 22 30 30s35 12 60 12z" />
    <glyph glyph-name="Euro" unicode="&#x20ac;" horiz-adv-x="605" 
d="M41 461l67 -4c8 44 21 83 38 117s38 62 62 85s50 40 78 51s57 17 87 17c46 0 85 -8 117 -25s58 -41 77 -72l-32 -81c-17 24 -39 43 -65 56s-53 20 -82 20c-46 0 -85 -13 -117 -40s-54 -69 -66 -127h292l-30 -75h-271c-1 -23 -1 -39 -1 -49s1 -19 2 -26h237l-30 -75h-194
c14 -50 37 -87 69 -110s70 -35 113 -35c30 0 58 8 85 23s49 35 66 59l27 -83c-45 -67 -110 -100 -196 -100c-29 0 -57 5 -84 15s-52 26 -75 47s-43 47 -61 78s-31 67 -40 108h-108l34 75h62c-1 7 -1 16 -1 26s0 27 1 50h-95z" />
    <glyph glyph-name="uni20B4" unicode="&#x20b4;" horiz-adv-x="530" 
d="M46 481l271 -3c11 10 21 22 30 36s14 29 14 44c0 23 -8 40 -24 50s-35 15 -58 15c-29 0 -57 -7 -84 -22s-50 -35 -69 -60l-20 87c16 27 39 50 69 69s64 28 101 28c26 0 50 -4 72 -12s41 -19 57 -33s29 -31 38 -51s14 -43 14 -68c0 -15 -2 -29 -7 -43s-11 -27 -19 -40h39
v-75h-106c-9 -10 -20 -20 -32 -31s-26 -23 -41 -36h179v-75h-261c-13 -13 -23 -27 -31 -42s-12 -31 -12 -47c0 -25 8 -45 24 -61s41 -24 75 -24s67 9 100 26s60 43 81 77l29 -91c-7 -13 -16 -26 -28 -39s-27 -25 -44 -36s-37 -20 -59 -27s-46 -10 -73 -10
c-30 0 -57 5 -82 14s-46 22 -64 39s-32 37 -42 60s-15 49 -15 77c0 17 2 32 6 46s9 28 16 41h-44v75h107c12 11 24 22 35 32s25 22 41 35h-183v75z" />
    <glyph glyph-name="uni20B8" unicode="&#x20b8;" horiz-adv-x="547" 
d="M50 566h447v-101h-176v-465h-94v465h-177v101zM50 718h447v-82h-447v82z" />
    <glyph glyph-name="uni20BD" unicode="&#x20bd;" horiz-adv-x="585" 
d="M35 383h83v335h204c32 0 62 -5 90 -15s52 -25 72 -44s36 -42 48 -69s18 -57 18 -90c0 -32 -5 -61 -16 -88s-26 -50 -46 -69s-44 -34 -72 -45s-58 -16 -91 -16h-111v-70h201v-82h-201v-130h-94v130h-85v82h85v70h-85v101zM212 617v-235h126c33 0 60 11 82 33s33 50 33 85
c0 16 -3 31 -9 45s-14 27 -24 38s-22 19 -36 25s-29 9 -46 9h-126z" />
    <glyph glyph-name="uni2113" unicode="&#x2113;" horiz-adv-x="417" 
d="M253 85l-1 -1c19 0 35 4 48 11s25 16 35 26l18 -76c-9 -15 -23 -28 -43 -40s-45 -18 -76 -18c-52 0 -91 15 -117 45s-39 72 -39 126v408c0 57 14 100 42 129s65 44 111 44c22 0 42 -4 60 -12s34 -20 47 -35s23 -33 30 -53s11 -42 11 -67c0 -29 -6 -59 -18 -91
s-28 -64 -47 -96s-41 -62 -66 -91s-51 -54 -77 -75v-43c0 -30 7 -53 22 -68s35 -23 60 -23zM170 345l-1 -3c15 15 29 32 43 51s27 38 38 58s20 40 27 60s10 39 10 56c0 23 -5 41 -15 54s-24 20 -41 20c-21 0 -36 -7 -46 -20s-15 -31 -15 -54v-222z" />
    <glyph glyph-name="uni2116" unicode="&#x2116;" horiz-adv-x="1159" 
d="M763 241v88h308v-88h-308zM917 728l-1 -3c25 0 48 -4 69 -13s39 -21 54 -36s27 -33 35 -53s12 -41 12 -64s-4 -44 -12 -64s-19 -37 -34 -52s-33 -27 -54 -36s-44 -13 -69 -13c-24 0 -46 5 -67 14s-39 21 -54 36s-27 33 -35 53s-12 41 -12 64s4 45 12 65s20 38 35 53
s33 27 54 36s43 13 67 13zM916 481h-2c26 0 47 8 62 24s23 34 23 55s-7 39 -22 54s-35 23 -61 23c-25 0 -45 -8 -60 -23s-23 -33 -23 -54s8 -39 23 -55s35 -24 60 -24zM87 715h102l383 -564v564h94v-718h-102l-383 561v-561h-94v718z" />
    <glyph glyph-name="uni2117" unicode="&#x2117;" horiz-adv-x="822" 
d="M411 730l-1 -2c51 0 99 -10 144 -29s84 -45 118 -79s61 -73 80 -118s29 -93 29 -144s-10 -99 -29 -144s-45 -84 -79 -118s-73 -60 -118 -79s-93 -29 -144 -29s-99 10 -144 29s-84 46 -117 80s-59 73 -78 118s-29 93 -29 144s10 99 29 144s45 84 78 118s72 61 117 80
s93 29 144 29zM410 44l-1 -2c44 0 85 8 124 25s73 40 102 68s52 61 69 99s25 78 25 121s-8 83 -25 121s-40 71 -69 100s-63 52 -102 68s-80 24 -124 24c-43 0 -84 -8 -123 -24s-73 -38 -102 -67s-52 -62 -69 -100s-25 -78 -25 -121s9 -83 26 -121s40 -71 69 -99
s63 -50 102 -67s80 -25 123 -25zM389 575v-1c20 0 38 -3 55 -9s32 -15 44 -26s22 -24 29 -40s11 -33 11 -52s-3 -36 -10 -52s-17 -29 -29 -40s-27 -20 -44 -26s-36 -9 -56 -9h-50v-157h-72v412h122zM339 496v-101h61c16 0 29 4 40 13s16 21 16 37c0 14 -5 26 -15 36
s-24 15 -41 15h-61z" />
    <glyph glyph-name="trademark" unicode="&#x2122;" horiz-adv-x="812" 
d="M19 718h281v-73h-106v-275h-68v275h-107v73zM646 718h70l48 -348h-67l-30 215l-83 -215h-63l-82 215l-29 -215h-72l49 348h69l96 -240z" />
    <glyph glyph-name="Omega" unicode="&#x2126;" horiz-adv-x="810" 
d="M405 730v-2c52 0 100 -10 143 -29s80 -45 111 -78s55 -72 72 -117s26 -93 26 -144c0 -32 -3 -62 -10 -90s-16 -53 -27 -76s-23 -42 -36 -58s-25 -28 -37 -35h117v-101h-272v81c24 12 46 27 67 45s39 39 54 62s27 49 36 78s13 60 13 93c0 38 -6 73 -18 106s-29 62 -52 86
s-50 43 -82 57s-67 21 -105 21s-73 -7 -105 -21s-59 -33 -82 -57s-40 -52 -52 -85s-18 -68 -18 -106c0 -33 4 -64 13 -93s21 -55 36 -78s33 -44 54 -62s43 -33 67 -45v-81h-272v101h117c-12 7 -24 19 -37 35s-25 36 -36 59s-20 48 -27 76s-10 58 -10 90c0 51 9 99 26 144
s41 84 72 117s68 59 111 78s91 29 143 29z" />
    </font>
</defs>
</svg>
